<?xml version="1.0" encoding="utf-8"?>
<!-- Generator: Adobe Illustrator 22.0.1, SVG Export Plug-In . SVG Version: 6.00 Build 0)  -->
<svg version="1.1" xmlns="http://www.w3.org/2000/svg" xmlns:xlink="http://www.w3.org/1999/xlink" x="0px" y="0px"
	 viewBox="0 0 1280 400" style="enable-background:new 0 0 1280 400;" xml:space="preserve">
<style type="text/css">
	.st0{display:none;}
	.st1{display:inline;fill:#FFFFFF;}
	.st2{display:inline;fill:#A1AFB6;}
	.st3{fill:#FFFFFF;stroke:#E73631;stroke-miterlimit:10;stroke-dasharray:5,3;}
	.st4{fill:none;stroke:#505050;stroke-miterlimit:10;}
	.st5{fill:none;stroke:#505050;stroke-miterlimit:10;stroke-dasharray:4.9351,2.9611;}
	.st6{fill-rule:evenodd;clip-rule:evenodd;fill:#505050;}
	.st7{fill:none;stroke:#E73631;stroke-miterlimit:10;}
	.st8{fill:none;stroke:#E73631;stroke-miterlimit:10;stroke-dasharray:4.9415,2.9649;}
	.st9{fill:none;stroke:#E73631;stroke-miterlimit:10;stroke-dasharray:4.7509,2.8505;}
	.st10{fill:none;stroke:#E73631;stroke-miterlimit:10;stroke-dasharray:4.7349,2.8409;}
	.st11{fill:none;stroke:#E73631;stroke-miterlimit:10;stroke-dasharray:5.0073,3.0044;}
	.st12{fill:none;stroke:#E73631;stroke-miterlimit:10;stroke-dasharray:5.4853,3.2912;}
	.st13{fill:none;stroke:#E73631;stroke-miterlimit:10;stroke-dasharray:5.0067,3.004;}
	.st14{fill-rule:evenodd;clip-rule:evenodd;fill:#E73631;}
	.st15{fill:#A1AFB6;stroke:#E73631;stroke-miterlimit:10;stroke-dasharray:5,3;}
	.st16{fill:#697F86;}
	.st17{fill:none;stroke:#FFFFFF;stroke-width:17;stroke-linecap:round;stroke-linejoin:round;stroke-miterlimit:10;}
	.st18{fill:#FFFFFF;}
	.st19{opacity:0.15;fill:#FFFFFF;}
	.st20{fill:#505050;}
	.st21{fill:#78B400;}
	.st22{opacity:0.1;fill:#FFFFFF;}
	.st23{fill:#D6DFDE;}
	.st24{opacity:0.2;fill:#FFFFFF;}
	.st25{fill:#469600;}
	.st26{fill:#FFC800;}
	.st27{opacity:0.8;}
	.st28{opacity:0.3;}
	.st29{fill:#A1AFB6;}
	.st30{opacity:0.76;fill:#A1AFB6;}
	.st31{fill:#231F20;}
	.st32{fill:#D6DFDE;stroke:#E73631;stroke-miterlimit:10;}
	.st33{fill:#E73631;}
	.st34{opacity:0.2;}
</style>
<g id="bg" class="st0">
	<rect y="398.9" class="st2" width="1280" height="550"/>
</g>
<g id="line">
	<g>
		<g>
			<line class="st8" x1="256.7" y1="521.1" x2="256.7" y2="237.9"/>
			<line class="st7" x1="256.7" y1="236.5" x2="256.7" y2="234"/>
		</g>
	</g>
	<g>
		<g>
			<line class="st8" x1="1023.3" y1="521.1" x2="1023.3" y2="237.9"/>
			<line class="st7" x1="1023.3" y1="236.5" x2="1023.3" y2="234"/>
		</g>
	</g>
	<g>
		<g>
			<line class="st7" x1="256.2" y1="81.4" x2="256.2" y2="78.9"/>
			<line class="st10" x1="256.2" y1="76" x2="256.2" y2="9.2"/>
			<line class="st7" x1="256.2" y1="7.8" x2="256.2" y2="5.3"/>
		</g>
	</g>
	<g>
		<g>
			<line class="st7" x1="448" y1="141.5" x2="448" y2="139"/>
			<line class="st11" x1="448" y1="136" x2="448" y2="9.3"/>
			<line class="st7" x1="448" y1="7.8" x2="448" y2="5.3"/>
		</g>
	</g>
	<g>
		<g>
			<line class="st7" x1="639.7" y1="48.7" x2="639.7" y2="46.2"/>
			<line class="st12" x1="639.7" y1="42.9" x2="639.7" y2="9.5"/>
			<line class="st7" x1="639.7" y1="7.8" x2="639.7" y2="5.3"/>
		</g>
	</g>
	<g>
		<g>
			<line class="st7" x1="831.5" y1="141.5" x2="831.5" y2="139"/>
			<line class="st11" x1="831.5" y1="136" x2="831.5" y2="9.3"/>
			<line class="st7" x1="831.5" y1="7.8" x2="831.5" y2="5.3"/>
		</g>
	</g>
	<g>
		<g>
			<line class="st7" x1="1023.3" y1="81.4" x2="1023.3" y2="78.9"/>
			<line class="st10" x1="1023.3" y1="76" x2="1023.3" y2="9.2"/>
			<line class="st7" x1="1023.3" y1="7.8" x2="1023.3" y2="5.3"/>
		</g>
	</g>
	<g>
		<g>
			<line class="st13" x1="448.4" y1="646.9" x2="448.4" y2="320"/>
			<line class="st7" x1="448.4" y1="318.5" x2="448.4" y2="316"/>
		</g>
	</g>
	<g>
		<g>
			<line class="st13" x1="831.6" y1="646.9" x2="831.6" y2="320"/>
			<line class="st7" x1="831.6" y1="318.5" x2="831.6" y2="316"/>
		</g>
	</g>
	<polygon class="st14" points="256.7,232.2 252.1,240.2 261.3,240.2 	"/>
	<polygon class="st14" points="1023,232.2 1018.4,240.2 1027.7,240.2 	"/>
	<polygon class="st14" points="1023.3,2.3 1018.7,10.3 1027.9,10.3 	"/>
	<polygon class="st14" points="831.6,2.3 827,10.3 836.3,10.3 	"/>
	<polygon class="st14" points="640,2.3 635.4,10.3 644.6,10.3 	"/>
	<polygon class="st14" points="448,2.3 443.3,10.3 452.6,10.3 	"/>
	<polygon class="st14" points="256.2,2.3 251.6,10.3 260.8,10.3 	"/>
	<polygon class="st14" points="448.4,314 443.7,322 453,322 	"/>
	<polygon class="st14" points="831.6,314 827,322 836.3,322 	"/>
</g>
<g id="Layer_1">
	<g>
		<path class="st6" d="M303.5,141.5l-5.3-5.3c17.3-17.3,17.3-45.4,0-62.7l5.3-5.3C323.7,88.4,323.7,121.3,303.5,141.5L303.5,141.5z"
			/>
		<path class="st6" d="M289,127.1l5.3,5.3c15.2-15.2,15.2-39.8,0-55l-5.3,5.3C301.3,94.9,301.3,114.8,289,127.1L289,127.1z"/>
		<path class="st6" d="M284.9,122.9l-5.3-5.3c7-7,7-18.5,0-25.5l5.3-5.3C294.9,96.8,294.9,113,284.9,122.9L284.9,122.9z"/>
		<path class="st6" d="M215.3,73.5l-5.3-5.3c-20.2,20.2-20.2,53.1,0,73.3l5.3-5.3C198,118.9,198,90.8,215.3,73.5L215.3,73.5z"/>
		<path class="st6" d="M219.1,132.4c-15.2-15.2-15.2-39.8,0-55l5.3,5.3c-12.2,12.2-12.2,32.2,0,44.4L219.1,132.4L219.1,132.4z"/>
		<path class="st6" d="M228.6,122.9l5.3-5.3c-7-7-7-18.5,0-25.5l-5.3-5.3C218.6,96.8,218.6,113,228.6,122.9L228.6,122.9z"/>
		<g>
			<path class="st29" d="M256.7,98.3c5.7,0,10.4,4.6,10.4,10.4c0,5.3-4,9.5-9,10.2l10.9,78.9h18.2c4.3,0,7.8,3.5,7.8,7.8
				c0,4.3-3.5,7.8-7.8,7.8h-60.9c-4.3,0-7.8-3.5-7.8-7.8c0-4.3,3.5-7.8,7.8-7.8h18.2l10.9-78.9c-5.1-0.7-9-5-9-10.2
				C246.4,102.9,251,98.3,256.7,98.3 M256.7,95.3c-7.4,0-13.3,6-13.3,13.4c0,5.6,3.6,10.5,8.7,12.5l-10.2,73.7h-15.6
				c-5.9,0-10.8,4.8-10.8,10.8c0,6,4.8,10.8,10.8,10.8h60.9c5.9,0,10.8-4.8,10.8-10.8c0-5.9-4.8-10.8-10.8-10.8h-15.6l-10.2-73.7
				c5.1-1.9,8.7-6.8,8.7-12.5C270.1,101.3,264.1,95.3,256.7,95.3L256.7,95.3z"/>
		</g>
	</g>
	<g>
		<path class="st6" d="M494.9,221.9l-5.3-5.3c17.3-17.3,17.3-45.4,0-62.7l5.3-5.3C515.1,168.8,515.1,201.7,494.9,221.9L494.9,221.9z
			"/>
		<path class="st6" d="M480.5,207.4l5.3,5.3c15.2-15.2,15.2-39.8,0-55l-5.3,5.3C492.7,175.3,492.7,195.2,480.5,207.4L480.5,207.4z"
			/>
		<path class="st6" d="M476.3,203.3L471,198c7-7,7-18.5,0-25.5l5.3-5.3C486.3,177.1,486.3,193.3,476.3,203.3L476.3,203.3z"/>
		<path class="st6" d="M406.7,153.9l-5.3-5.3c-20.2,20.2-20.2,53.1,0,73.3l5.3-5.3C389.4,199.3,389.4,171.1,406.7,153.9L406.7,153.9
			z"/>
		<path class="st6" d="M410.6,212.7c-15.2-15.2-15.2-39.8,0-55l5.3,5.3c-12.2,12.2-12.2,32.2,0,44.4L410.6,212.7L410.6,212.7z"/>
		<path class="st6" d="M420,203.3l5.3-5.3c-7-7-7-18.5,0-25.5l-5.3-5.3C410,177.1,410,193.3,420,203.3L420,203.3z"/>
		<g>
			<path class="st29" d="M448.2,178.6c5.7,0,10.4,4.6,10.4,10.4c0,5.3-4,9.5-9,10.2l10.9,78.9h18.2c4.3,0,7.8,3.5,7.8,7.8
				c0,4.3-3.5,7.8-7.8,7.8h-60.9c-4.3,0-7.8-3.5-7.8-7.8c0-4.3,3.5-7.8,7.8-7.8h18.2l10.9-78.9c-5.1-0.7-9-5-9-10.2
				C437.8,183.3,442.4,178.6,448.2,178.6 M448.2,175.6c-7.4,0-13.3,6-13.3,13.4c0,5.6,3.6,10.5,8.7,12.5l-10.2,73.7h-15.6
				c-5.9,0-10.8,4.8-10.8,10.8c0,6,4.8,10.8,10.8,10.8h60.9c5.9,0,10.8-4.8,10.8-10.8c0-5.9-4.8-10.8-10.8-10.8H463l-10.2-73.7
				c5.1-1.9,8.7-6.8,8.7-12.5C461.5,181.6,455.5,175.6,448.2,175.6L448.2,175.6z"/>
		</g>
	</g>
	<g>
		<path class="st6" d="M877.8,221.9l-5.3-5.3c17.3-17.3,17.3-45.4,0-62.7l5.3-5.3C898,168.8,898,201.7,877.8,221.9L877.8,221.9z"/>
		<path class="st6" d="M863.3,207.4l5.3,5.3c15.2-15.2,15.2-39.8,0-55l-5.3,5.3C875.6,175.3,875.6,195.2,863.3,207.4L863.3,207.4z"
			/>
		<path class="st6" d="M859.2,203.3l-5.3-5.3c7-7,7-18.5,0-25.5l5.3-5.3C869.1,177.1,869.1,193.3,859.2,203.3L859.2,203.3z"/>
		<path class="st6" d="M789.6,153.9l-5.3-5.3c-20.2,20.2-20.2,53.1,0,73.3l5.3-5.3C772.3,199.3,772.3,171.1,789.6,153.9L789.6,153.9
			z"/>
		<path class="st6" d="M793.4,212.7c-15.2-15.2-15.2-39.8,0-55l5.3,5.3c-12.2,12.2-12.2,32.2,0,44.4L793.4,212.7L793.4,212.7z"/>
		<path class="st6" d="M802.9,203.3l5.3-5.3c-7-7-7-18.5,0-25.5l-5.3-5.3C792.9,177.1,792.9,193.3,802.9,203.3L802.9,203.3z"/>
		<g>
			<path class="st29" d="M831,178.6c5.7,0,10.4,4.6,10.4,10.4c0,5.3-4,9.5-9,10.2l10.9,78.9h18.2c4.3,0,7.8,3.5,7.8,7.8
				c0,4.3-3.5,7.8-7.8,7.8h-60.9c-4.3,0-7.8-3.5-7.8-7.8c0-4.3,3.5-7.8,7.8-7.8h18.2l10.9-78.9c-5.1-0.7-9-5-9-10.2
				C820.7,183.3,825.3,178.6,831,178.6 M831,175.6c-7.4,0-13.3,6-13.3,13.4c0,5.6,3.6,10.5,8.7,12.5l-10.2,73.7h-15.6
				c-5.9,0-10.8,4.8-10.8,10.8c0,6,4.8,10.8,10.8,10.8h60.9c5.9,0,10.8-4.8,10.8-10.8c0-5.9-4.8-10.8-10.8-10.8h-15.6l-10.2-73.7
				c5.1-1.9,8.7-6.8,8.7-12.5C844.4,181.6,838.4,175.6,831,175.6L831,175.6z"/>
		</g>
	</g>
	<g>
		<path class="st6" d="M686.3,277.2l-5.3-5.3c17.3-17.3,17.3-45.4,0-62.7l5.3-5.3C706.6,224.1,706.6,257,686.3,277.2L686.3,277.2z"
			/>
		<path class="st6" d="M671.9,262.7l5.3,5.3c15.2-15.2,15.2-39.8,0-55l-5.3,5.3C684.1,230.6,684.1,250.5,671.9,262.7L671.9,262.7z"
			/>
		<path class="st6" d="M667.8,258.6l-5.3-5.3c7-7,7-18.5,0-25.5l5.3-5.3C677.7,232.4,677.7,248.6,667.8,258.6L667.8,258.6z"/>
		<path class="st6" d="M598.1,209.2l-5.3-5.3c-20.2,20.2-20.2,53.1,0,73.3l5.3-5.3C580.8,254.6,580.8,226.5,598.1,209.2L598.1,209.2
			z"/>
		<path class="st6" d="M602,268c-15.2-15.2-15.2-39.8,0-55l5.3,5.3c-12.2,12.2-12.2,32.2,0,44.4L602,268L602,268z"/>
		<path class="st6" d="M611.4,258.6l5.3-5.3c-7-7-7-18.5,0-25.5l-5.3-5.3C601.5,232.4,601.5,248.6,611.4,258.6L611.4,258.6z"/>
		<g>
			<path class="st29" d="M639.6,234c5.7,0,10.4,4.6,10.4,10.4c0,5.3-4,9.5-9,10.2l10.9,78.9H670c4.3,0,7.8,3.5,7.8,7.8
				c0,4.3-3.5,7.8-7.8,7.8h-60.9c-4.3,0-7.8-3.5-7.8-7.8c0-4.3,3.5-7.8,7.8-7.8h18.2l10.9-78.9c-5.1-0.7-9-5-9-10.2
				C629.2,238.6,633.9,234,639.6,234 M639.6,231c-7.4,0-13.3,6-13.3,13.4c0,5.6,3.6,10.5,8.7,12.5l-10.2,73.7h-15.6
				c-5.9,0-10.8,4.8-10.8,10.8c0,6,4.8,10.8,10.8,10.8H670c5.9,0,10.8-4.8,10.8-10.8c0-5.9-4.8-10.8-10.8-10.8h-15.6l-10.2-73.7
				c5.1-1.9,8.7-6.8,8.7-12.5C652.9,237,647,231,639.6,231L639.6,231z"/>
		</g>
	</g>
	<g>
		<path class="st6" d="M1069.2,141.5l-5.3-5.3c17.3-17.3,17.3-45.4,0-62.7l5.3-5.3C1089.4,88.4,1089.4,121.3,1069.2,141.5
			L1069.2,141.5z"/>
		<path class="st6" d="M1054.8,127.1l5.3,5.3c15.2-15.2,15.2-39.8,0-55l-5.3,5.3C1067,94.9,1067,114.8,1054.8,127.1L1054.8,127.1z"
			/>
		<path class="st6" d="M1050.6,122.9l-5.3-5.3c7-7,7-18.5,0-25.5l5.3-5.3C1060.6,96.8,1060.6,113,1050.6,122.9L1050.6,122.9z"/>
		<path class="st6" d="M981,73.5l-5.3-5.3c-20.2,20.2-20.2,53.1,0,73.3l5.3-5.3C963.7,118.9,963.7,90.8,981,73.5L981,73.5z"/>
		<path class="st6" d="M984.9,132.4c-15.2-15.2-15.2-39.8,0-55l5.3,5.3c-12.2,12.2-12.2,32.2,0,44.4L984.9,132.4L984.9,132.4z"/>
		<path class="st6" d="M994.3,122.9l5.3-5.3c-7-7-7-18.5,0-25.5l-5.3-5.3C984.3,96.8,984.3,113,994.3,122.9L994.3,122.9z"/>
		<g>
			<path class="st29" d="M1022.5,98.3c5.7,0,10.4,4.6,10.4,10.4c0,5.3-4,9.5-9,10.2l10.9,78.9h18.2c4.3,0,7.8,3.5,7.8,7.8
				c0,4.3-3.5,7.8-7.8,7.8H992c-4.3,0-7.8-3.5-7.8-7.8c0-4.3,3.5-7.8,7.8-7.8h18.2l10.9-78.9c-5.1-0.7-9-5-9-10.2
				C1012.1,102.9,1016.7,98.3,1022.5,98.3 M1022.5,95.3c-7.4,0-13.3,6-13.3,13.4c0,5.6,3.6,10.5,8.7,12.5l-10.2,73.7H992
				c-5.9,0-10.8,4.8-10.8,10.8c0,6,4.8,10.8,10.8,10.8h60.9c5.9,0,10.8-4.8,10.8-10.8c0-5.9-4.8-10.8-10.8-10.8h-15.6l-10.2-73.7
				c5.1-1.9,8.7-6.8,8.7-12.5C1035.8,101.3,1029.8,95.3,1022.5,95.3L1022.5,95.3z"/>
		</g>
	</g>
	<g>
		<path class="st20" d="M527.9,88.7h-5.3l-10.3-16.8v16.8h-5.3V63.1h5.3L522.6,80V63.1h5.3V88.7z"/>
		<path class="st20" d="M532.5,88.7V63.1h9c3.1,0,5.5,0.6,7.1,1.8s2.4,2.9,2.4,5.2c0,1.3-0.3,2.4-1,3.3s-1.5,1.7-2.7,2.1
			c1.3,0.3,2.3,1,3.1,2s1.1,2.2,1.1,3.7c0,2.5-0.8,4.3-2.4,5.6s-3.8,1.9-6.7,1.9H532.5z M537.8,73.8h3.9c2.7,0,4-1.1,4-3.2
			c0-1.2-0.3-2-1-2.5s-1.7-0.8-3.2-0.8h-3.7V73.8z M537.8,77.5v6.9h4.5c1.2,0,2.2-0.3,2.9-0.9s1-1.4,1-2.5c0-2.3-1.2-3.5-3.6-3.6
			H537.8z"/>
		<path class="st20" d="M565,79.8h-9.9v-4.1h9.9V79.8z"/>
		<path class="st20" d="M575,88.7h-5.3V63.1h5.3V88.7z"/>
		<path class="st20" d="M601,76.5c0,2.5-0.4,4.7-1.3,6.6s-2.2,3.4-3.8,4.4s-3.6,1.5-5.7,1.5c-2.1,0-4-0.5-5.7-1.5s-3-2.5-3.9-4.4
			s-1.4-4.1-1.4-6.5v-1.3c0-2.5,0.5-4.7,1.4-6.7s2.2-3.4,3.8-4.4s3.6-1.5,5.7-1.5s4,0.5,5.7,1.5s2.9,2.5,3.8,4.4s1.4,4.1,1.4,6.6
			V76.5z M595.6,75.3c0-2.7-0.5-4.7-1.4-6.1s-2.3-2.1-4.1-2.1c-1.8,0-3.1,0.7-4.1,2.1s-1.4,3.4-1.5,6.1v1.2c0,2.6,0.5,4.6,1.4,6.1
			s2.3,2.2,4.1,2.2c1.8,0,3.1-0.7,4.1-2.1s1.4-3.4,1.4-6.1V75.3z"/>
		<path class="st20" d="M622.6,67.4h-7.8v21.3h-5.3V67.4h-7.7v-4.3h20.8V67.4z"/>
		<path class="st20" d="M654.7,63.9c1,3.5,4.9,5.5,11.4,5.8c-0.8,1.3-1.1,2.1-1.5,3.5c-1.3-0.2-1.4-0.3-3.3-0.7c0,0.8,0,2,0,3.1v6.7
			c0,1.7,0,3.2,0.1,3.8c-0.8-0.1-2.3-0.1-3.8-0.1h-1.3c0.2,0,0.2,0,0.4,0.1c1.5,0.3,5.6,1.4,8.5,2.3l-1.3,3.3
			c-2.4-0.9-3.6-1.3-5.6-1.9c-0.4-0.1-1.6-0.4-3.5-1c-0.6-0.1-1.4-0.4-2.6-0.7l1.6-2.2h-9.5l2.2,1.6c-3.7,2.3-6.2,3.1-11.4,4.1
			c-0.8-1.5-1.1-1.9-2.2-3.2c4.8-0.6,7.1-1.2,9.6-2.5h-1.4c-1.7,0-2.9,0-3.8,0.1c0.1-0.6,0.1-2.1,0.1-3.6v-7.1c0-1.7,0-2.7-0.1-3.7
			c0.8,0.1,2,0.1,3.7,0.1h1.9c-0.4-0.8-0.9-1.5-1.5-2.3c-1.9,0.9-2.6,1.2-5.2,2.2c-0.5,0.2-0.9,0.4-1.6,0.7l-1.4-3.7
			c2.4-0.5,5.6-1.6,8.8-3.2l1.1,3.2l-1.3,0.6c2.5-0.3,4.1-0.7,5.5-1.3c2.2-1,3.3-2.2,3.8-4.1h-3.6c-1,1.1-2,1.9-3.4,3
			c-0.8-1.1-1.4-1.7-2.4-2.4c2.8-1.9,5-4.3,5.7-6.5l3.8,0.7c-0.2,0.4-0.2,0.4-0.6,1c-0.2,0.4-0.3,0.6-0.8,1.2H660c1.5,0,2.3,0,3-0.1
			l2.1,1.7c-0.3,0.4-0.4,0.5-0.8,1.2c-1.1,1.6-1.7,2.3-3.2,3.7c-1.1-0.6-2-1-3.3-1.4c1.2-0.8,1.6-1.2,2.4-2.1H654.7z M639.5,65.1
			c-2.1-1.7-3.4-2.4-5.7-3.5l2.3-2.7c2.6,1.2,3.7,1.9,5.8,3.3L639.5,65.1z M640.9,75.8h16.6v-1.4h-16.6V75.8z M640.9,79.6h16.6v-1.5
			h-16.6V79.6z M640.9,83.3h16.6v-1.3h-16.6V83.3z M657.7,71.8c1,0,1,0,1.2,0c-2.9-1-4.7-2.4-6.1-4.8c-0.9,1.5-1.8,2.3-3.3,3.3
			c-1.1,0.6-2.3,1.1-4,1.5H657.7z"/>
		<path class="st20" d="M675.3,64.2c-0.9-1.4-2.1-2.7-3.5-3.9l2.7-2.3c1.8,1.5,3,2.7,4.2,4.4l-2.1,1.8h2.4c1.5,0,2.1,0,2.9-0.1v3.7
			c-0.8-0.1-1.2-0.1-2.7-0.1h-7.2c-1.3,0-2,0-2.9,0.1V64c0.9,0.1,1.5,0.2,2.9,0.2H675.3z M670.1,91.6c0.1-1.1,0.2-2.4,0.2-3.5v-5.7
			c0-1.1,0-1.9-0.1-2.8c0.6,0.1,1.1,0.1,2.4,0.1h6c1.2,0,1.7,0,2.2-0.1c-0.1,0.6-0.1,1.1-0.1,2.6v6.4c0,0.8,0,1.5,0.1,2.2h-3.4v-1
			h-3.6v1.8H670.1z M670.2,69.4c0.6,0.1,1.2,0.1,2.3,0.1h6c1.2,0,1.6,0,2.2-0.1v3.3c-0.7-0.1-1.2-0.1-2.2-0.1h-6
			c-1.1,0-1.6,0-2.3,0.1V69.4z M670.2,74.4c0.6,0.1,1.2,0.1,2.3,0.1h5.9c1.2,0,1.6,0,2.2-0.1v3.3c-0.7-0.1-1.2-0.1-2.3-0.1h-5.9
			c-1.1,0-1.5,0-2.2,0.1V74.4z M673.6,86.6h3.7v-3.8h-3.7V86.6z M685.7,63.5c-1.6,0-2.6,0-3.5,0.2v-3.9c1.1,0.1,2.3,0.2,4,0.2h8.2
			c1.7,0,2.8,0,3.6-0.1c-0.1,1.4-0.2,3.8-0.2,7.1c0,6.3,0.2,11.2,0.5,14c0.3,2.9,0.7,4.6,1,4.6c0.2,0,0.4-1.9,0.6-4.6
			c0.7,0.9,1.3,1.6,2.6,2.5c-0.6,5.6-1.5,7.6-3.3,7.6c-1.6,0-3.1-2-3.9-5.1c-0.6-2.3-1-5.5-1.2-9.6h-4.3v10.4c0,1.6,0.1,3.3,0.2,4.9
			h-4.1c0.1-1.5,0.2-3.1,0.2-4.9V76.2h-0.9c-1.1,0-2.4,0.1-3.6,0.2v-3.9c1.6,0.1,2.6,0.2,3.6,0.2h0.8v-9.2H685.7z M689.9,72.6h4.2
			c0-1.6-0.1-4.7-0.1-9.2h-4.1V72.6z"/>
		<path class="st20" d="M708.9,62.2c0-1.7,0-2.5-0.2-3.7h4.2c-0.2,1.1-0.2,2-0.2,3.6v3h1c0.9,0,1.4,0,2-0.1v3.7
			c-0.8-0.1-1.2-0.1-2-0.1h-1v5c0.6-0.3,1-0.5,2.2-1.1l0.3,3.6c-1,0.6-1.4,0.8-2.4,1.2V88c0,1.3-0.4,2.3-1,2.8
			c-0.8,0.5-2.1,0.7-4,0.7c-0.5,0-0.9,0-1.7-0.1c-0.1-1.5-0.4-2.4-0.9-3.7c1.1,0.2,1.9,0.3,2.7,0.3c0.9,0,1.2-0.2,1.2-1.1V79
			c-0.8,0.3-1.6,0.6-2.3,0.8c-0.8,0.3-1.1,0.4-1.5,0.6l-0.8-4c1.3-0.1,2.3-0.4,4.5-1.1v-6.5h-1.5c-0.9,0-1.7,0-2.6,0.1V65
			c0.9,0.1,1.6,0.2,2.7,0.2h1.4V62.2z M734.6,92.1c-3.3-2-4.2-2.6-7.7-4.1c-3.3,2.1-6.9,3.3-11.8,3.9c-0.4-1.4-0.7-2.2-1.5-3.5
			c4.1-0.3,6.7-0.8,9.5-2.1c-2.4-1-3.5-1.3-6.3-2.2c1.3-1.4,1.7-1.9,3.2-3.9h-1c-1.6,0-2.5,0-3.5,0.2v-3.8c0.9,0.1,1.8,0.2,3.5,0.2
			h3.2c0.6-1.2,1-2,1.3-2.8h-4.7c-1.4,0-2.2,0-3.1,0.2v-3.8c0.7,0.1,1.4,0.2,2.9,0.2h2.4c-0.5-1.9-0.8-2.4-1.7-4l3-1.2h-2.1
			c-2.1,0-2.8,0-3.6,0.2v-3.8c1,0.1,2,0.2,4.1,0.2h3.7v-0.8c0-0.9-0.1-1.8-0.2-2.6h4.2c-0.1,0.9-0.2,1.7-0.2,2.5v0.8h4.8
			c2.1,0,3.1,0,4-0.2v3.8c-0.8-0.1-1.7-0.2-3.6-0.2h-3.2l3.3,0.9c-0.8,2.1-1.2,2.8-2.2,4.2h2.8c2,0,2.7,0,3.7-0.2v3.8
			c-1-0.1-1.7-0.2-3.7-0.2h-10l3,0.9c-0.2,0.4-0.2,0.4-0.6,1c-0.1,0.2-0.2,0.4-0.5,0.8h8.2c1.8,0,2.7,0,3.5-0.2v3.8
			c-1-0.1-1.8-0.2-3.5-0.2h-1.1c-0.8,2.1-1.6,3.5-3.2,5.2c2.6,1.1,4,1.7,7.1,3.4L734.6,92.1z M727.6,70.5c1.1-1.6,1.6-2.6,2.3-5.1
			h-7.3c0.6,1.1,1.2,2.4,1.7,4l-3,1.1H727.6z M724,80.2c-0.6,0.8-0.9,1.2-1.8,2.4c3,1,3,1,4.4,1.5c1.4-1.3,2.2-2.4,2.8-3.9H724z"/>
		<path class="st20" d="M773.7,68c-0.9-0.1-1.5-0.1-3.1-0.2c-0.4,6.2-1.4,9.9-3.7,13.9c2.2,2.5,4.8,4.4,7.7,6c-1.2,1.4-1.7,2-2.7,4
			c-3.5-2.5-5.3-4.2-7.4-6.6c-2.3,2.7-4.6,4.6-8.1,6.6c-0.8-1.5-1.2-2.1-2.6-3.5c3.9-2,6-3.7,8.2-6.4c-1.8-2.8-3-5.1-4-8.3
			c-0.8,1.2-1.2,1.8-2.3,3.2c-0.7-1.3-1.3-2.1-2.2-3.1v13.8c0,2.1,0,3,0.2,4.1h-4.2c0.1-1.2,0.2-2.3,0.2-4.1v-4.9
			c-1.6,0.6-3.4,1.4-5.4,2.1c-1.7,0.6-2.8,1-3.2,1.2l-0.8-4.1c0.9-0.1,1.1-0.1,2.3-0.5V66c0-1.9-0.1-2.9-0.2-4.1h4.1
			c-0.1,1.3-0.2,2.1-0.2,4.1v14c1.1-0.4,1.7-0.6,3.3-1.2V62.7c0-1.9-0.1-2.9-0.2-4.1h4.2c-0.1,1.2-0.2,2.2-0.2,4.1V73
			c2.3-2.7,3.9-5.9,5-9.9c0.6-2.1,0.9-3.7,0.9-5l4.3,0.6c-0.1,0.3-0.3,1-0.5,2c-0.4,1.4-0.5,2.1-0.9,3.4h7.9c1.6,0,2.6,0,3.6-0.2V68
			z M760.9,67.8c-0.3,0.6-0.3,0.8-0.6,1.4c1.2,4.1,2,6,3.9,9.1c1-2.1,1.7-4.3,2.1-6.8c0.2-1,0.2-1.6,0.3-3.6H760.9z"/>
	</g>
</g>
</svg>
