<?xml version="1.0" encoding="utf-8"?>
<!-- Generator: Adobe Illustrator 22.0.1, SVG Export Plug-In . SVG Version: 6.00 Build 0)  -->
<svg version="1.1" xmlns="http://www.w3.org/2000/svg" xmlns:xlink="http://www.w3.org/1999/xlink" x="0px" y="0px"
	 viewBox="0 0 1280 550" style="enable-background:new 0 0 1280 550;" xml:space="preserve">
<style type="text/css">
	.st0{display:none;}
	.st1{display:inline;fill:#FFFFFF;}
	.st2{display:inline;fill:#A1AFB6;}
	.st3{fill:#FFFFFF;stroke:#E73631;stroke-miterlimit:10;stroke-dasharray:5,3;}
	.st4{fill:none;stroke:#505050;stroke-miterlimit:10;}
	.st5{fill:none;stroke:#505050;stroke-miterlimit:10;stroke-dasharray:4.9351,2.9611;}
	.st6{fill-rule:evenodd;clip-rule:evenodd;fill:#505050;}
	.st7{fill:none;stroke:#E73631;stroke-miterlimit:10;}
	.st8{fill:none;stroke:#E73631;stroke-miterlimit:10;stroke-dasharray:4.9415,2.9649;}
	.st9{fill:none;stroke:#E73631;stroke-miterlimit:10;stroke-dasharray:4.7509,2.8505;}
	.st10{fill:none;stroke:#E73631;stroke-miterlimit:10;stroke-dasharray:4.7349,2.8409;}
	.st11{fill:none;stroke:#E73631;stroke-miterlimit:10;stroke-dasharray:5.0073,3.0044;}
	.st12{fill:none;stroke:#E73631;stroke-miterlimit:10;stroke-dasharray:5.4853,3.2912;}
	.st13{fill:none;stroke:#E73631;stroke-miterlimit:10;stroke-dasharray:5.0067,3.004;}
	.st14{fill-rule:evenodd;clip-rule:evenodd;fill:#E73631;}
	.st15{fill:#A1AFB6;stroke:#E73631;stroke-miterlimit:10;stroke-dasharray:5,3;}
	.st16{fill:#697F86;}
	.st17{fill:none;stroke:#FFFFFF;stroke-width:17;stroke-linecap:round;stroke-linejoin:round;stroke-miterlimit:10;}
	.st18{fill:#FFFFFF;}
	.st19{opacity:0.15;fill:#FFFFFF;}
	.st20{fill:#505050;}
	.st21{fill:#78B400;}
	.st22{opacity:0.1;fill:#FFFFFF;}
	.st23{fill:#D6DFDE;}
	.st24{opacity:0.2;fill:#FFFFFF;}
	.st25{fill:#469600;}
	.st26{fill:#FFC800;}
	.st27{opacity:0.8;}
	.st28{opacity:0.3;}
	.st29{fill:#A1AFB6;}
	.st30{opacity:0.76;fill:#A1AFB6;}
	.st31{fill:#231F20;}
	.st32{fill:#D6DFDE;stroke:#E73631;stroke-miterlimit:10;}
	.st33{fill:#E73631;}
	.st34{opacity:0.2;}
</style>
<g id="bg" class="st0">
	<rect x="0" y="-1.1" class="st2" width="1280" height="550"/>
</g>
<g id="line">
	<polyline class="st3" points="744.2,549.9 744.2,513 820.3,513 639,454.9 457.8,513 533.9,513 533.9,549.9 	"/>
</g>
<g id="Layer_1">
	<g>
		<path class="st32" d="M989.1,130.9c-2-25.8-31-53-59.5-45.1c-12.3-23-41.4-35.5-76.2-32.3c-36.2,3.4-69.7,30.4-70.3,69
			c-33.6-2.5-69.6,24.8-69.6,60.6c0,41,33.2,65.2,74.2,65.2h192c32.6,0,59.1-26.5,59.1-59.1C1038.8,159.8,1017.3,135.4,989.1,130.9z
			"/>
	</g>
	<g>
		<g>
			<g>
				<g>
					<rect x="378.9" y="153.3" class="st20" width="156.7" height="276.6"/>
				</g>
				<g>
					
						<rect x="443.8" y="105.9" transform="matrix(-1.836970e-16 1 -1 -1.836970e-16 632.7496 -281.7962)" class="st16" width="26.9" height="139.2"/>
				</g>
				<g>
					
						<rect x="443.8" y="140.4" transform="matrix(-1.836970e-16 1 -1 -1.836970e-16 667.3152 -247.2306)" class="st16" width="26.9" height="139.2"/>
				</g>
				<g>
					
						<rect x="443.8" y="175" transform="matrix(-1.836970e-16 1 -1 -1.836970e-16 701.8809 -212.665)" class="st16" width="26.9" height="139.2"/>
				</g>
				<g>
					
						<rect x="443.8" y="209.6" transform="matrix(-1.836970e-16 1 -1 -1.836970e-16 736.4465 -178.0994)" class="st16" width="26.9" height="139.2"/>
				</g>
				<g>
					
						<rect x="443.8" y="244.1" transform="matrix(-1.836970e-16 1 -1 -1.836970e-16 771.0121 -143.5338)" class="st16" width="26.9" height="139.2"/>
				</g>
				<g>
					
						<rect x="443.8" y="278.7" transform="matrix(-1.836970e-16 1 -1 -1.836970e-16 805.5777 -108.9681)" class="st16" width="26.9" height="139.2"/>
				</g>
			</g>
			<g>
				<g>
					
						<rect x="464.8" y="126.8" transform="matrix(-1.836970e-16 1 -1 -1.836970e-16 646.7136 -295.7602)" class="st31" width="12.9" height="97.3"/>
				</g>
				<g>
					<circle class="st21" cx="411.9" cy="175.5" r="4.2"/>
				</g>
				<g>
					
						<ellipse transform="matrix(0.9732 -0.2298 0.2298 0.9732 -29.6462 96.336)" class="st33" cx="398.9" cy="175.5" rx="4.2" ry="4.2"/>
				</g>
				<g>
					
						<rect x="464.8" y="161.4" transform="matrix(-1.836970e-16 1 -1 -1.836970e-16 681.2792 -261.1946)" class="st31" width="12.9" height="97.3"/>
				</g>
				<g>
					
						<ellipse transform="matrix(0.9732 -0.2298 0.2298 0.9732 -37.2394 100.2511)" class="st21" cx="411.9" cy="210" rx="4.2" ry="4.2"/>
				</g>
				<g>
					<circle class="st33" cx="398.9" cy="210" r="4.2"/>
				</g>
				<g>
					
						<rect x="464.8" y="198.2" transform="matrix(-1.836970e-16 1 -1 -1.836970e-16 718.0876 -224.3863)" class="st31" width="12.9" height="97.3"/>
				</g>
				<g>
					<circle class="st21" cx="411.9" cy="246.9" r="4.2"/>
				</g>
				<g>
					
						<ellipse transform="matrix(0.9871 -0.1602 0.1602 0.9871 -34.3907 67.0795)" class="st33" cx="398.9" cy="246.9" rx="4.2" ry="4.2"/>
				</g>
				<g>
					
						<rect x="464.8" y="230.2" transform="matrix(-1.836970e-16 1 -1 -1.836970e-16 750.0977 -192.3762)" class="st31" width="12.9" height="97.3"/>
				</g>
				<g>
					<circle class="st21" cx="411.9" cy="278.9" r="4.2"/>
				</g>
				<g>
					
						<ellipse transform="matrix(0.9732 -0.2298 0.2298 0.9732 -53.399 99.1016)" class="st33" cx="398.9" cy="278.9" rx="4.2" ry="4.2"/>
				</g>
				<g>
					
						<rect x="464.8" y="265.1" transform="matrix(-1.836970e-16 1 -1 -1.836970e-16 784.9761 -157.4978)" class="st31" width="12.9" height="97.3"/>
				</g>
				<g>
					
						<ellipse transform="matrix(0.9732 -0.2298 0.2298 0.9732 -61.064 103.0252)" class="st21" cx="411.9" cy="313.7" rx="4.2" ry="4.2"/>
				</g>
				<g>
					<circle class="st33" cx="398.9" cy="313.7" r="4.2"/>
				</g>
			</g>
		</g>
		<g>
			<g>
				<g>
					<rect x="562.7" y="119.8" class="st20" width="156.7" height="276.6"/>
				</g>
				<g>
					
						<rect x="627.6" y="72.3" transform="matrix(-1.836970e-16 1 -1 -1.836970e-16 782.956 -499.0898)" class="st16" width="26.9" height="139.2"/>
				</g>
				<g>
					
						<rect x="627.6" y="106.9" transform="matrix(-1.836970e-16 1 -1 -1.836970e-16 817.5216 -464.5242)" class="st16" width="26.9" height="139.2"/>
				</g>
				<g>
					
						<rect x="627.6" y="141.5" transform="matrix(-1.836970e-16 1 -1 -1.836970e-16 852.0872 -429.9586)" class="st16" width="26.9" height="139.2"/>
				</g>
				<g>
					
						<rect x="627.6" y="176" transform="matrix(-1.836970e-16 1 -1 -1.836970e-16 886.6528 -395.393)" class="st16" width="26.9" height="139.2"/>
				</g>
				<g>
					
						<rect x="627.6" y="210.6" transform="matrix(-1.836970e-16 1 -1 -1.836970e-16 921.2184 -360.8274)" class="st16" width="26.9" height="139.2"/>
				</g>
				<g>
					
						<rect x="627.6" y="245.2" transform="matrix(-1.836970e-16 1 -1 -1.836970e-16 955.7841 -326.2617)" class="st16" width="26.9" height="139.2"/>
				</g>
			</g>
			<g>
				<g>
					
						<rect x="648.5" y="93.3" transform="matrix(-1.836970e-16 1 -1 -1.836970e-16 796.92 -513.0539)" class="st31" width="12.9" height="97.3"/>
				</g>
				<g>
					<circle class="st21" cx="595.6" cy="141.9" r="4.2"/>
				</g>
				<g>
					
						<ellipse transform="matrix(0.9732 -0.2298 0.2298 0.9732 -17.0239 137.6559)" class="st33" cx="582.6" cy="141.9" rx="4.2" ry="4.2"/>
				</g>
				<g>
					
						<rect x="648.5" y="127.8" transform="matrix(-1.836970e-16 1 -1 -1.836970e-16 831.4856 -478.4883)" class="st31" width="12.9" height="97.3"/>
				</g>
				<g>
					
						<ellipse transform="matrix(0.9732 -0.2298 0.2298 0.9732 -24.6172 141.571)" class="st21" cx="595.6" cy="176.5" rx="4.2" ry="4.2"/>
				</g>
				<g>
					<circle class="st33" cx="582.6" cy="176.5" r="4.2"/>
				</g>
				<g>
					
						<rect x="648.5" y="164.7" transform="matrix(-1.836970e-16 1 -1 -1.836970e-16 868.2939 -441.6799)" class="st31" width="12.9" height="97.3"/>
				</g>
				<g>
					<circle class="st21" cx="595.6" cy="213.3" r="4.2"/>
				</g>
				<g>
					
						<ellipse transform="matrix(0.9871 -0.1602 0.1602 0.9871 -26.6449 96.0799)" class="st33" cx="582.6" cy="213.3" rx="4.2" ry="4.2"/>
				</g>
				<g>
					
						<rect x="648.5" y="196.7" transform="matrix(-1.836970e-16 1 -1 -1.836970e-16 900.304 -409.6699)" class="st31" width="12.9" height="97.3"/>
				</g>
				<g>
					<circle class="st21" cx="595.6" cy="245.3" r="4.2"/>
				</g>
				<g>
					
						<ellipse transform="matrix(0.9732 -0.2298 0.2298 0.9732 -40.7767 140.4214)" class="st33" cx="582.6" cy="245.3" rx="4.2" ry="4.2"/>
				</g>
				<g>
					
						<rect x="648.5" y="231.5" transform="matrix(-1.836970e-16 1 -1 -1.836970e-16 935.1825 -374.7914)" class="st31" width="12.9" height="97.3"/>
				</g>
				<g>
					
						<ellipse transform="matrix(0.9732 -0.2298 0.2298 0.9732 -48.4418 144.345)" class="st21" cx="595.6" cy="280.2" rx="4.2" ry="4.2"/>
				</g>
				<g>
					<circle class="st33" cx="582.6" cy="280.2" r="4.2"/>
				</g>
			</g>
		</g>
		<g>
			<g>
				<g>
					<rect x="746.4" y="162" class="st20" width="156.7" height="276.6"/>
				</g>
				<g>
					
						<rect x="811.3" y="114.6" transform="matrix(-1.836970e-16 1 -1 -1.836970e-16 1008.9515 -640.5943)" class="st16" width="26.9" height="139.2"/>
				</g>
				<g>
					
						<rect x="811.3" y="149.1" transform="matrix(-1.836970e-16 1 -1 -1.836970e-16 1043.5171 -606.0287)" class="st16" width="26.9" height="139.2"/>
				</g>
				<g>
					
						<rect x="811.3" y="183.7" transform="matrix(-1.836970e-16 1 -1 -1.836970e-16 1078.0828 -571.4631)" class="st16" width="26.9" height="139.2"/>
				</g>
				<g>
					
						<rect x="811.3" y="218.3" transform="matrix(-1.836970e-16 1 -1 -1.836970e-16 1112.6483 -536.8975)" class="st16" width="26.9" height="139.2"/>
				</g>
				<g>
					
						<rect x="811.3" y="252.8" transform="matrix(-1.836970e-16 1 -1 -1.836970e-16 1147.214 -502.3318)" class="st16" width="26.9" height="139.2"/>
				</g>
				<g>
					
						<rect x="811.3" y="287.4" transform="matrix(-1.836970e-16 1 -1 -1.836970e-16 1181.7795 -467.7662)" class="st16" width="26.9" height="139.2"/>
				</g>
			</g>
			<g>
				<g>
					
						<rect x="832.3" y="135.5" transform="matrix(-1.836970e-16 1 -1 -1.836970e-16 1022.9155 -654.5583)" class="st31" width="12.9" height="97.3"/>
				</g>
				<g>
					<circle class="st21" cx="779.4" cy="184.2" r="4.2"/>
				</g>
				<g>
					
						<ellipse transform="matrix(0.9732 -0.2298 0.2298 0.9732 -21.8144 181.0033)" class="st33" cx="766.4" cy="184.2" rx="4.2" ry="4.2"/>
				</g>
				<g>
					
						<rect x="832.3" y="170.1" transform="matrix(-1.836970e-16 1 -1 -1.836970e-16 1057.4811 -619.9927)" class="st31" width="12.9" height="97.3"/>
				</g>
				<g>
					
						<ellipse transform="matrix(0.9732 -0.2298 0.2298 0.9732 -29.4077 184.918)" class="st21" cx="779.4" cy="218.7" rx="4.2" ry="4.2"/>
				</g>
				<g>
					<circle class="st33" cx="766.4" cy="218.7" r="4.2"/>
				</g>
				<g>
					
						<rect x="832.3" y="206.9" transform="matrix(-1.836970e-16 1 -1 -1.836970e-16 1094.2894 -583.1844)" class="st31" width="12.9" height="97.3"/>
				</g>
				<g>
					<circle class="st21" cx="779.4" cy="255.6" r="4.2"/>
				</g>
				<g>
					
						<ellipse transform="matrix(0.9871 -0.1602 0.1602 0.9871 -31.0392 126.0589)" class="st33" cx="766.4" cy="255.6" rx="4.2" ry="4.2"/>
				</g>
				<g>
					
						<rect x="832.3" y="238.9" transform="matrix(-1.836970e-16 1 -1 -1.836970e-16 1126.2996 -551.1743)" class="st31" width="12.9" height="97.3"/>
				</g>
				<g>
					<circle class="st21" cx="779.4" cy="287.6" r="4.2"/>
				</g>
				<g>
					
						<ellipse transform="matrix(0.9732 -0.2298 0.2298 0.9732 -45.5672 183.7688)" class="st33" cx="766.4" cy="287.6" rx="4.2" ry="4.2"/>
				</g>
				<g>
					
						<rect x="832.3" y="273.8" transform="matrix(-1.836970e-16 1 -1 -1.836970e-16 1161.178 -516.2958)" class="st31" width="12.9" height="97.3"/>
				</g>
				<g>
					
						<ellipse transform="matrix(0.9732 -0.2298 0.2298 0.9732 -53.2323 187.6921)" class="st21" cx="779.4" cy="322.4" rx="4.2" ry="4.2"/>
				</g>
				<g>
					<circle class="st33" cx="766.4" cy="322.4" r="4.2"/>
				</g>
			</g>
		</g>
	</g>
	<g>
		<path class="st20" d="M555.7,83.8c-1.3,0-2.8,0.1-4,0.2v-3.7c1,0.1,2.2,0.2,4,0.2h24.7c1.8,0,2.8,0,4-0.2V84
			c-1.2-0.1-2.5-0.2-4-0.2h-3.9c2.3,1.9,3.8,3.4,6.2,6.1l-3.2,2.1c-1-1.4-1.4-1.8-2.1-2.6c-4.3,0.5-5.1,0.6-9.8,0.9
			c-3.6,0.3-5.5,0.4-8.9,0.5c-2.1,0.1-2.1,0.1-2.8,0.1c-0.8,0-1.1,0-1.7,0.1l-0.6-3.9c0.8,0.1,1.7,0.1,2.6,0.1c1.2,0,1.6,0,3.1,0
			c0.9-1.2,1.7-2.3,2.3-3.5H555.7z M558.2,62.8c-1.6,0-2.6,0-3.7,0.1v-3.7c1.2,0.1,2.7,0.2,4,0.2h19.1c1.4,0,2.8-0.1,4-0.2v3.7
			c-1.1-0.1-2.1-0.1-3.7-0.1h-8.3v1.3h9.7c2.3,0,3.3,0,4.4-0.1c-0.1,0.9-0.1,1.5-0.1,3v2.7c0,1.4,0,2.1,0.2,3.1h-3.7v-5.3h-10.5v4
			c0,1.8,0,2.6,0.2,3.5h-4.2c0.1-0.9,0.2-2,0.2-3.5v-4h-9.9v5.3h-3.7c0.2-1,0.2-1.7,0.2-3.1v-2.7c0-1.3,0-2-0.1-3
			c1.1,0.1,2.1,0.1,4.4,0.1h9.1v-1.3H558.2z M555.3,75.7c1.1,0.1,2.2,0.2,3.8,0.2h17.7c1.8,0,2.6,0,3.7-0.2v3.4
			c-1.1-0.1-2-0.1-3.7-0.1h-17.7c-1.6,0-2.6,0-3.8,0.1V75.7z M557.4,68.4c0.5,0.1,0.9,0.1,1.9,0.1h3.2c0.9,0,1.4,0,1.8-0.1v2.5
			c-0.6-0.1-0.9-0.1-1.8-0.1h-3.2c-0.8,0-1.3,0-1.9,0.1V68.4z M557.4,71.7c0.6,0.1,0.9,0.1,1.9,0.1h3.2c0.8,0,1.4,0,1.8-0.1v2.5
			c-0.6-0.1-0.9-0.1-1.8-0.1h-3.2c-0.9,0-1.3,0-1.9,0.1V71.7z M566.1,83.8c-1,1.6-1.6,2.4-2.3,3.3c4.6-0.2,8.3-0.4,10.9-0.7
			c-0.6-0.5-0.9-0.8-1.8-1.6l1.7-1H566.1z M571.2,68.4c0.5,0.1,0.9,0.1,1.9,0.1h3.7c0.8,0,1.4,0,1.8-0.1v2.5
			c-0.6-0.1-0.9-0.1-1.8-0.1h-3.7c-0.8,0-1.3,0-1.9,0.1V68.4z M571.2,71.7c0.6,0.1,0.9,0.1,1.9,0.1h3.7c0.9,0,1.4,0,1.8-0.1v2.5
			c-0.6-0.1-0.9-0.1-1.8-0.1h-3.7c-0.9,0-1.3,0-1.9,0.1V71.7z"/>
		<path class="st20" d="M587.3,84.9c1,0,2.6-0.4,5.5-1.1c1-3.9,1.6-6.9,2.1-11.1c0.3-2.7,0.4-3.2,0.4-4.3l3.6,1
			c-0.1,0.3-0.5,2.4-1.2,6.3c-0.5,3.1-0.7,3.7-1.5,7.1c0.9-0.3,1.5-0.5,2.9-1l0,3.6c-3.2,1.2-7,2.4-9.5,3.1c-0.4,0.1-1,0.3-1.4,0.5
			L587.3,84.9z M591.9,61.3c0-1.2-0.1-2.1-0.2-2.6h4.1c-0.1,0.6-0.2,1.3-0.2,2.6V64h1.2c1.2,0,1.9,0,2.4-0.1v3.7
			c-0.5-0.1-1.6-0.1-2.5-0.1h-6.4c-0.9,0-1.8,0.1-2.6,0.1v-3.7c0.6,0.1,1.3,0.1,2.4,0.1h1.8V61.3z M591.5,68.9
			c0.8,3.3,1.3,7.2,1.7,12.2l-3.3,1c-0.3-5.1-0.8-9.2-1.6-12.6L591.5,68.9z M603.1,73.4c-1.6,0-2.6,0-3.7,0.1v-3.7
			c0.9,0.1,1.8,0.2,3.7,0.2h13.6c1.7,0,2.9-0.1,3.7-0.2v3.8c-1-0.1-1.9-0.1-3.6-0.1h-5.1c-0.4,0.9-0.8,1.7-1.3,2.7h5.9
			c1.5,0,2.4,0,3.4-0.1c-0.1,0.9-0.1,2-0.1,3.5v9.1c0,1.5-0.4,2.2-1.2,2.6c-0.6,0.3-1.2,0.3-3.1,0.3h-0.4c-0.1-2.1-0.2-2.6-0.9-3.7
			c0.3,0,1.1,0.1,1.4,0.1c0.5,0,0.6-0.1,0.6-0.6v-7.9h-2.1v8c0,1.5,0,2.3,0.1,3.3h-3.5c0.1-1.1,0.1-1.8,0.1-3.3v-7.9h-1.9v8
			c0,1.6,0,2.4,0.1,3.3h-3.5c0.1-1.1,0.1-1.8,0.1-3.3v-7.9h-1.9v8.5c0,2.1,0,3,0.1,3.9h-4c0.2-1.2,0.2-2.2,0.2-4v-8.5
			c0-1.6,0-2.4-0.1-3.2c1.3,0.1,1.9,0.1,3.4,0.1h3.2c0.6-1.2,0.9-1.7,1.2-2.7H603.1z M607.8,61c0-1-0.1-1.8-0.2-2.6h4.2
			c-0.1,0.7-0.2,1.5-0.2,2.6v3.7h3.7v-2.5c0-1,0-1.6-0.1-2.2h4c-0.1,0.6-0.1,1.3-0.1,2.4v3.2c0,1.2,0,1.7,0.1,2.3
			c-1.2-0.1-1.5-0.1-2.6-0.1h-13.3c-1.2,0-1.7,0-2.6,0.1c0.1-0.9,0.1-1.2,0.1-2.1v-3.4c0-0.9,0-1.7-0.2-2.5h3.9
			c-0.1,0.6-0.1,1.3-0.1,2.3v2.4h3.5V61z"/>
		<path class="st20" d="M639,91.2c-2.2-1.3-3.1-1.8-4.6-2.6c-2.4,1.5-5,2.3-9.3,2.9c-0.4-1.4-0.6-2.1-1.3-3.3c3.1-0.1,5.1-0.5,7-1.3
			c-2.3-0.9-2.6-1-5-1.9c1.2-1.3,1.6-1.8,2.3-2.8h-1.8c-1.3,0-2.1,0-2.8,0.1v-3c0.8,0.1,1.5,0.1,2.8,0.1h3.6
			c0.3-0.4,0.5-0.9,0.8-1.5h-2.8c-1.6,0-2.2,0-2.8,0.1c0.1-0.6,0.1-1.2,0.1-2.1v-2.2c0-0.9,0-1.4-0.1-2.1c0.5,0.1,1,0.1,2.8,0.1h3.9
			v-1.4h-3c-1.6,0-2.5,0-3.5,0.1c0.1-0.9,0.1-1.8,0.1-3.1v-0.7c-0.7,0-1.3,0-1.8,0.1V64c0.6,0.1,0.9,0.1,1.8,0.1v-0.6
			c0-1.3,0-2.1-0.1-3.2c0.9,0.1,1.8,0.1,3.3,0.1h3.1c0-1-0.1-1.5-0.2-2.2h3.7c-0.1,0.7-0.2,1.3-0.2,2.2h3.2c1.6,0,2.4,0,3.3-0.1
			c-0.1,0.9-0.1,1.7-0.1,3.1v0.8c1.4,0,1.4,0,2-0.1v3c-0.6-0.1-1-0.1-2-0.1v0.8c0,1.4,0,2.1,0.1,3c-0.9-0.1-1.8-0.1-3.3-0.1h-3.2
			v1.4h3.7c1.8,0,2.2,0,3-0.1c0,0.3,0,0.3-0.1,0.5c2.2-3.3,4-9.6,4-14.2l4,0.6c-0.1,0.4-0.1,0.4-0.8,4.1c-0.1,0.4-0.1,0.6-0.2,1.1
			h4.9c1.5,0,2.6-0.1,3.4-0.2v4c-0.6-0.1-0.9-0.1-1.9-0.2c-0.3,3.5-0.4,4.6-0.9,6.8c-0.6,2.8-1.4,5-2.8,7.6c1.7,2.4,3.3,3.8,6.4,5.8
			c-1.1,1.2-1.8,2.1-2.5,3.7c-3.7-3-4.4-3.7-6.2-6c-1.8,2.4-3.7,4.2-6.7,6.3c-0.5-1-0.7-1.3-1.6-2.4L639,91.2z M628.1,74.3v1.4h3.4
			v-1.4H628.1z M631.5,64.3V63h-3.2v1.3H631.5z M628.3,68h3.2v-1.3h-3.2V68z M631.6,82.4c-0.4,0.6-0.6,0.8-1.2,1.6
			c1.7,0.5,1.9,0.5,3.5,1.2c1-0.8,1.5-1.5,2.1-2.7H631.6z M639.6,82.4c-0.9,2.1-1.4,2.8-2.6,4c0.9,0.4,1.2,0.5,3.3,1.6
			c0.1,0,0.1,0,0.4-0.2c2.2-1.3,4.5-3.5,6.1-5.9c-1.2-2.3-2-4.6-2.6-7.2c-0.4,0.6-0.6,0.9-1.3,1.8c-0.6-1-0.9-1.4-1.6-2.2v1.8
			c0,1,0,1.5,0.1,2.1c-0.7-0.1-1.2-0.1-3-0.1h-4.4c-0.4,0.7-0.4,0.7-0.8,1.5h7.4c1.4,0,2.1,0,2.8-0.1v3c-0.8-0.1-1.4-0.1-2.8-0.1
			H639.6z M638.2,63h-3.3v1.3h3.3V63z M634.8,66.6V68h3.3v-1.3H634.8z M638.3,75.7v-1.4h-3.5v1.4H638.3z M647.4,67.6
			c-0.3,0.8-0.4,1.2-0.7,2.1c0.4,3,1.2,5.9,2.2,8.4c1.4-3.3,1.9-5.9,2.2-10.5H647.4z"/>
		<path class="st20" d="M667.6,64.9c0.9,0,1.6,0,2.2-0.1v3.9c-0.5-0.1-1.4-0.1-2.2-0.1H667v5.6c0.9-0.4,1.4-0.5,2.7-1v3.5
			c-1.3,0.6-1.7,0.7-2.7,1.1v10c0,1.2-0.3,2.1-0.8,2.6c-0.6,0.7-1.6,0.9-3.7,0.9c-0.8,0-1.3,0-2.2-0.1c-0.1-1.5-0.3-2.2-0.9-3.9
			c1.3,0.1,2.3,0.2,2.9,0.2c0.9,0,1.1-0.1,1.1-1V79c-1.6,0.5-2.8,0.9-3.2,1.1l-1-4c1-0.1,2.2-0.4,4.2-0.9v-6.7h-1.3
			c-0.8,0-1.5,0-2.5,0.2v-4c0.9,0.1,1.5,0.2,2.6,0.2h1.2v-2.8c0-1.8,0-2.7-0.2-3.7h4.1c-0.1,1-0.2,1.9-0.2,3.7v2.8H667.6z
			 M674.3,66.8V69c0,5.5-0.3,10-0.7,13.2c-0.5,3.7-1.4,6.4-3,9.1c-1-1.5-1.7-2.3-2.8-3.1c1-1.5,1.4-2.6,2-5
			c0.9-3.6,1.1-5.9,1.1-14.8c0-2.2,0-3.5-0.2-4.8c1.1,0.1,2,0.2,3.6,0.2h3.9v-3.1c0-1-0.1-1.7-0.2-2.4h4c-0.1,0.5-0.1,0.9-0.2,1.7
			h4.8c1.5,0,2.2,0,2.9-0.2v3c-0.8-0.1-1.5-0.1-3-0.1h-4.8v1.2h4.7c1.9,0,2.8,0,3.6-0.2l1.8,2c-0.2,0.3-0.3,0.4-0.8,1.4
			c-0.6,1.2-1.1,1.9-1.5,2.6c-0.8-0.6-1.7-1.1-2.8-1.4c0.5-0.5,0.7-0.8,1-1.5h-6.4V68l2.5-0.2c0.6,0,1.4-0.1,2-0.3l0.2,2.5
			c-0.5,0-1.2,0-2.1,0.1l-2.6,0.2v0.2c0,0.8,0.2,0.8,2.9,0.8c2.1,0,2.8-0.1,3.1-0.4c0.3-0.3,0.3-0.5,0.4-1.5c1.3,0.7,1.3,0.7,3.2,1
			c-0.2,1.4-0.5,2.1-1.2,2.5c-0.8,0.5-1.8,0.6-5.7,0.6c-5.3,0-5.9-0.3-5.9-2.3v-0.6l-1.2,0.1c-1.6,0.1-1.6,0.1-2.1,0.3l-0.2-2.6
			c0.3,0,0.9,0,1,0s0.4,0,1.2-0.1l1.2-0.1v-1.5H674.3z M678.1,77.1c-1.4,0-2.2,0-3.1,0.1v-3.1c1,0.1,1.8,0.2,3.2,0.2h9.9
			c1.4,0,2.3,0,3.3-0.2v3.1c-0.7-0.1-1.4-0.1-3.2-0.1h-1.4c0.4,1.4,0.6,2.2,1.2,3.4c1-0.9,1.4-1.4,2.1-2.5l2.4,2
			c-0.9,1.1-2.1,2.2-3.1,3.1c1.3,1.9,2.2,2.9,3.9,4.1c-1,1.1-1.4,1.7-2.2,3.2c-2.6-2.7-4.1-4.9-5.6-8.6c-0.6-1.6-1.1-3-1.5-4.6h-0.5
			c-0.6,0.6-1,0.8-1.7,1.4c2.4,2.4,3.9,5.8,3.9,8.9c0,1.4-0.4,2.6-1,3.2c-0.6,0.7-1.8,1-3.3,1c-0.1,0-0.9,0-2.3-0.1
			c-0.2-1.2-0.3-1.8-0.8-2.7c-1.5,0.8-2.4,1.2-4,1.8c-0.5-1.1-0.9-1.7-1.7-2.6c4.2-1.3,6.4-2.3,9.3-4.4c-0.2-0.4-0.2-0.5-0.4-1
			c-2.2,1.4-3.5,2.1-6.3,3.2c-0.3-0.9-0.7-1.5-1.4-2.4c2.5-0.7,4.3-1.4,6.5-2.8c-0.3-0.4-0.4-0.5-0.7-0.9c-1.4,0.8-2.3,1.2-3.9,1.8
			c-0.4-0.9-0.8-1.5-1.5-2.3c2.7-0.7,3.9-1.2,5.7-2.3H678.1z M678.5,88.6c1,0.1,1.6,0.1,2.2,0.1c1.4,0,1.8-0.4,1.8-1.9
			c0-0.3,0-0.4,0-0.8C681.1,87.1,680,87.8,678.5,88.6z"/>
		<path class="st20" d="M701.7,64.2c0,10.9-0.3,15.7-1,19.5c-0.6,3.1-1.5,5.5-2.8,7.6c-1.3-1.8-1.8-2.4-3.1-3.5
			c1.3-2.2,2.1-4.7,2.6-8.4c0.3-2,0.4-4.6,0.5-6.9l0.1-8.1c0-0.1,0-0.4,0-0.6c0-1.1-0.1-1.9-0.2-3.1c1.4,0.1,2.6,0.2,4.4,0.2h8.7
			v-0.6c0-0.9-0.1-1.4-0.2-2.1h4.2c-0.1,0.6-0.2,1.2-0.2,2.1V61h9.3c1.7,0,3-0.1,4.1-0.2v3.6c-0.9-0.1-2.1-0.1-3.9-0.1h-7.8v1.9h7.8
			c1.7,0,2.3,0,3.3-0.2v3.4c-1-0.1-1.7-0.2-3.3-0.2h-7.8v1.8h6.1c1.5,0,2.4,0,3.4-0.1c-0.1,0.9-0.1,1.4-0.1,3v5.8c0,1.6,0,2.2,0.1,3
			c-0.9-0.1-1.8-0.1-3.4-0.1h-6.1v2.1h7.8c2.1,0,3,0,4-0.2v3.6c-1.3-0.1-2.5-0.2-4.2-0.2h-7.6v0.5c0,1.7,0,2.7,0.2,3.6h-4.1
			c0.1-1,0.2-1.9,0.2-3.7v-0.4h-7.1c-1.6,0-2.9,0.1-4.1,0.2v-3.5c0.9,0.1,1.8,0.1,3.7,0.1h7.5v-2.1h-5.6c-1.6,0-2.5,0-3.5,0.1
			c0.1-0.9,0.1-1.6,0.1-3.1v-5.8c0-1.4,0-2-0.1-2.9c1,0.1,1.8,0.1,3.5,0.1h5.5v-1.8h-6.7c-1.7,0-2.3,0-3.3,0.2v-3.3
			c1,0.1,1.8,0.1,3.3,0.1h6.6v-1.9H701.7z M707.5,73.7v1.6h5.4v-1.6H707.5z M707.5,78v1.7h5.4V78H707.5z M716.6,75.3h5.8v-1.6h-5.8
			V75.3z M716.6,79.7h5.8V78h-5.8V79.7z"/>
	</g>
</g>
</svg>
