<?xml version="1.0" encoding="utf-8"?>
<!-- Generator: Adobe Illustrator 22.0.1, SVG Export Plug-In . SVG Version: 6.00 Build 0)  -->
<svg version="1.1" xmlns="http://www.w3.org/2000/svg" xmlns:xlink="http://www.w3.org/1999/xlink" x="0px" y="0px"
	 viewBox="0 0 272.1 272.1" style="enable-background:new 0 0 272.1 272.1;" xml:space="preserve">
<style type="text/css">
	.st0{display:none;}
	.st1{display:inline;fill:#FFFFFF;}
	.st2{display:inline;fill:#A1AFB6;}
	.st3{fill:#FFFFFF;stroke:#E73631;stroke-miterlimit:10;stroke-dasharray:5,3;}
	.st4{fill:none;stroke:#505050;stroke-miterlimit:10;}
	.st5{fill:none;stroke:#505050;stroke-miterlimit:10;stroke-dasharray:4.9351,2.9611;}
	.st6{fill-rule:evenodd;clip-rule:evenodd;fill:#505050;}
	.st7{fill:none;stroke:#E73631;stroke-miterlimit:10;}
	.st8{fill:none;stroke:#E73631;stroke-miterlimit:10;stroke-dasharray:4.9415,2.9649;}
	.st9{fill:none;stroke:#E73631;stroke-miterlimit:10;stroke-dasharray:4.7509,2.8505;}
	.st10{fill:none;stroke:#E73631;stroke-miterlimit:10;stroke-dasharray:4.7349,2.8409;}
	.st11{fill:none;stroke:#E73631;stroke-miterlimit:10;stroke-dasharray:5.0073,3.0044;}
	.st12{fill:none;stroke:#E73631;stroke-miterlimit:10;stroke-dasharray:5.4853,3.2912;}
	.st13{fill:none;stroke:#E73631;stroke-miterlimit:10;stroke-dasharray:5.0067,3.004;}
	.st14{fill-rule:evenodd;clip-rule:evenodd;fill:#E73631;}
	.st15{fill:#A1AFB6;stroke:#E73631;stroke-miterlimit:10;stroke-dasharray:5,3;}
	.st16{fill:#697F86;}
	.st17{fill:none;stroke:#FFFFFF;stroke-width:17;stroke-linecap:round;stroke-linejoin:round;stroke-miterlimit:10;}
	.st18{fill:#FFFFFF;}
	.st19{opacity:0.15;fill:#FFFFFF;}
	.st20{fill:#505050;}
	.st21{fill:#78B400;}
	.st22{opacity:0.1;fill:#FFFFFF;}
	.st23{fill:#D6DFDE;}
	.st24{opacity:0.2;fill:#FFFFFF;}
	.st25{fill:#469600;}
	.st26{fill:#FFC800;}
	.st27{opacity:0.8;}
	.st28{opacity:0.3;}
	.st29{fill:#A1AFB6;}
	.st30{opacity:0.76;fill:#A1AFB6;}
	.st31{fill:#231F20;}
	.st32{fill:#D6DFDE;stroke:#E73631;stroke-miterlimit:10;}
	.st33{fill:#E73631;}
	.st34{opacity:0.2;}
</style>
<g id="bg" class="st0">
</g>
<g id="line">
	<circle class="st16" cx="136" cy="136" r="136"/>
</g>
<g id="Layer_1">
	<path class="st18" d="M192.6,39.9c-9.1,18.4-57.5,48.8-69.5,74.5c-19.6,41.8,7.4,77.7,7.4,77.7c55.2,9.6,80-22,85.8-43.8
		C227,108,192.6,39.9,192.6,39.9z"/>
	<g>
		<path class="st16" d="M92.2,216c-12.1,0-24.2-3.9-37.1-12c-0.6-0.4-1-1-1.1-1.7c-0.1-0.7,0.1-1.4,0.5-2l7.4-9.2
			c0.5-0.6,1.2-0.9,1.9-0.9c0.4,0,0.7,0.1,1.1,0.3c10.4,5.1,18.9,7.4,27.8,7.4c0,0,0,0,0,0c3.8,0,7.7-0.4,11.6-1.3c0,0,0.1,0,0.1,0
			c22.5-3.9,41.1-26.4,48.1-35.9c12.7-17.2,23.4-40.8,32.8-61.6c0.4-0.9,1.3-1.5,2.3-1.5c0.3,0,0.6,0,0.9,0.2c1.2,0.4,1.9,1.8,1.6,3
			c-2.9,10.4-11.8,37.9-20.7,56.6c-6.8,14.1-17.3,28.2-28.2,37.6C123.5,209.4,108,216,92.2,216C92.2,216,92.2,216,92.2,216z"/>
		<path class="st18" d="M187.6,100.2c-3,10.9-12,38.1-20.6,56.2c-6.4,13.4-16.5,27.3-27.6,36.8c-15.9,13-31.2,20.4-47.3,20.4
			c-11.3,0-23.1-3.7-35.7-11.6l7.4-9.2c9,4.4,18.3,7.6,28.9,7.6c3.9,0,7.9-0.4,12.1-1.4c19.8-3.5,38-20.9,49.7-36.9
			C167.1,145.1,177.5,122.5,187.6,100.2 M187.6,95.2c-1.9,0-3.7,1.1-4.6,2.9c-9.4,20.7-20,44.1-32.6,61.1
			c-20.4,27.7-39.3,33.6-46.5,34.9c-0.1,0-0.1,0-0.2,0c-3.7,0.8-7.4,1.2-11,1.2c-8.4,0-16.7-2.2-26.7-7.1c-0.7-0.3-1.5-0.5-2.2-0.5
			c-1.5,0-2.9,0.7-3.9,1.9l-7.4,9.2c-0.9,1.1-1.3,2.6-1,4c0.2,1.4,1.1,2.7,2.3,3.4c13.3,8.3,25.9,12.3,38.4,12.3
			c16.4,0,32.5-6.8,50.4-21.5c0,0,0.1-0.1,0.1-0.1c11.1-9.6,21.9-24,28.8-38.5c9-18.8,17.9-46.5,20.9-57c0.7-2.5-0.6-5.2-3.1-6
			C188.8,95.2,188.2,95.2,187.6,95.2L187.6,95.2z"/>
	</g>
</g>
</svg>
