<?xml version="1.0" encoding="utf-8"?>
<!-- Generator: Adobe Illustrator 22.0.1, SVG Export Plug-In . SVG Version: 6.00 Build 0)  -->
<svg version="1.1" xmlns="http://www.w3.org/2000/svg" xmlns:xlink="http://www.w3.org/1999/xlink" x="0px" y="0px"
	 viewBox="0 0 272.1 272.1" style="enable-background:new 0 0 272.1 272.1;" xml:space="preserve">
<style type="text/css">
	.st0{display:none;}
	.st1{display:inline;fill:#FFFFFF;}
	.st2{display:inline;fill:#A1AFB6;}
	.st3{fill:#FFFFFF;stroke:#E73631;stroke-miterlimit:10;stroke-dasharray:5,3;}
	.st4{fill:none;stroke:#505050;stroke-miterlimit:10;}
	.st5{fill:none;stroke:#505050;stroke-miterlimit:10;stroke-dasharray:4.9351,2.9611;}
	.st6{fill-rule:evenodd;clip-rule:evenodd;fill:#505050;}
	.st7{fill:none;stroke:#E73631;stroke-miterlimit:10;}
	.st8{fill:none;stroke:#E73631;stroke-miterlimit:10;stroke-dasharray:4.9415,2.9649;}
	.st9{fill:none;stroke:#E73631;stroke-miterlimit:10;stroke-dasharray:4.7509,2.8505;}
	.st10{fill:none;stroke:#E73631;stroke-miterlimit:10;stroke-dasharray:4.7349,2.8409;}
	.st11{fill:none;stroke:#E73631;stroke-miterlimit:10;stroke-dasharray:5.0073,3.0044;}
	.st12{fill:none;stroke:#E73631;stroke-miterlimit:10;stroke-dasharray:5.4853,3.2912;}
	.st13{fill:none;stroke:#E73631;stroke-miterlimit:10;stroke-dasharray:5.0067,3.004;}
	.st14{fill-rule:evenodd;clip-rule:evenodd;fill:#E73631;}
	.st15{fill:#A1AFB6;stroke:#E73631;stroke-miterlimit:10;stroke-dasharray:5,3;}
	.st16{fill:#697F86;}
	.st17{fill:none;stroke:#FFFFFF;stroke-width:17;stroke-linecap:round;stroke-linejoin:round;stroke-miterlimit:10;}
	.st18{fill:#FFFFFF;}
	.st19{opacity:0.15;fill:#FFFFFF;}
	.st20{fill:#505050;}
	.st21{fill:#78B400;}
	.st22{opacity:0.1;fill:#FFFFFF;}
	.st23{fill:#D6DFDE;}
	.st24{opacity:0.2;fill:#FFFFFF;}
	.st25{fill:#469600;}
	.st26{fill:#FFC800;}
	.st27{opacity:0.8;}
	.st28{opacity:0.3;}
	.st29{fill:#A1AFB6;}
	.st30{opacity:0.76;fill:#A1AFB6;}
	.st31{fill:#231F20;}
	.st32{fill:#D6DFDE;stroke:#E73631;stroke-miterlimit:10;}
	.st33{fill:#E73631;}
	.st34{opacity:0.2;}
</style>
<g id="bg" class="st0">
</g>
<g id="line">
	<circle class="st16" cx="136" cy="136" r="136"/>
	<rect x="67.7" y="67.7" class="st17" width="136.6" height="136.6"/>
	<g>
		<g>
			<path class="st18" d="M139.9,132l69-69c2.6-2.6,6.2-4.1,9.9-4.1c3.7,0,7.3,1.5,9.9,4.1L248,82.3c5.5,5.5,5.5,14.3,0,19.8l-69,69
				L139.9,132z"/>
			<path class="st16" d="M218.8,64.9c2.1,0,4.1,0.8,5.7,2.3l19.3,19.3c3.1,3.1,3.1,8.2,0,11.3L179,162.6L148.4,132l64.7-64.7
				C214.7,65.7,216.7,64.9,218.8,64.9 M218.8,52.9c-5.3,0-10.4,2.1-14.1,5.8l-64.7,64.7l-8.5,8.5l8.5,8.5l30.6,30.6l8.5,8.5l8.5-8.5
				l64.7-64.7c7.8-7.8,7.8-20.5,0-28.3l-19.3-19.3C229.2,55,224.1,52.9,218.8,52.9L218.8,52.9z"/>
		</g>
		<path class="st18" d="M173.6,168L143,137.4l-11.6,37c-1.3,4.2,1,6.6,5.2,5.2L173.6,168z"/>
	</g>
</g>
<g id="Layer_1">
</g>
</svg>
