<?xml version="1.0" encoding="utf-8"?>
<!-- Generator: Adobe Illustrator 22.0.1, SVG Export Plug-In . SVG Version: 6.00 Build 0)  -->
<svg version="1.1" xmlns="http://www.w3.org/2000/svg" xmlns:xlink="http://www.w3.org/1999/xlink" x="0px" y="0px"
	 viewBox="0 0 1280 550" style="enable-background:new 0 0 1280 550;" xml:space="preserve">
<style type="text/css">
	.st0{display:none;}
	.st1{display:inline;fill:#FFFFFF;}
	.st2{display:inline;fill:#A1AFB6;}
	.st3{fill:#FFFFFF;stroke:#E73631;stroke-miterlimit:10;stroke-dasharray:5,3;}
	.st4{fill:none;stroke:#505050;stroke-miterlimit:10;}
	.st5{fill:none;stroke:#505050;stroke-miterlimit:10;stroke-dasharray:4.9351,2.9611;}
	.st6{fill-rule:evenodd;clip-rule:evenodd;fill:#505050;}
	.st7{fill:none;stroke:#E73631;stroke-miterlimit:10;}
	.st8{fill:none;stroke:#E73631;stroke-miterlimit:10;stroke-dasharray:4.9415,2.9649;}
	.st9{fill:none;stroke:#E73631;stroke-miterlimit:10;stroke-dasharray:4.7509,2.8505;}
	.st10{fill:none;stroke:#E73631;stroke-miterlimit:10;stroke-dasharray:4.7349,2.8409;}
	.st11{fill:none;stroke:#E73631;stroke-miterlimit:10;stroke-dasharray:5.0073,3.0044;}
	.st12{fill:none;stroke:#E73631;stroke-miterlimit:10;stroke-dasharray:5.4853,3.2912;}
	.st13{fill:none;stroke:#E73631;stroke-miterlimit:10;stroke-dasharray:5.0067,3.004;}
	.st14{fill-rule:evenodd;clip-rule:evenodd;fill:#E73631;}
	.st15{fill:#A1AFB6;stroke:#E73631;stroke-miterlimit:10;stroke-dasharray:5,3;}
	.st16{fill:#697F86;}
	.st17{fill:none;stroke:#FFFFFF;stroke-width:17;stroke-linecap:round;stroke-linejoin:round;stroke-miterlimit:10;}
	.st18{fill:#FFFFFF;}
	.st19{opacity:0.15;fill:#FFFFFF;}
	.st20{fill:#505050;}
	.st21{fill:#78B400;}
	.st22{opacity:0.1;fill:#FFFFFF;}
	.st23{fill:#D6DFDE;}
	.st24{opacity:0.2;fill:#FFFFFF;}
	.st25{fill:#469600;}
	.st26{fill:#FFC800;}
	.st27{opacity:0.8;}
	.st28{opacity:0.3;}
	.st29{fill:#A1AFB6;}
	.st30{opacity:0.76;fill:#A1AFB6;}
	.st31{fill:#231F20;}
	.st32{fill:#D6DFDE;stroke:#E73631;stroke-miterlimit:10;}
	.st33{fill:#E73631;}
	.st34{opacity:0.2;}
</style>
<g id="bg" class="st0">
	<rect y="-1.1" class="st2" width="1280" height="550"/>
</g>
<g id="line">
	<g>
		<g>
			<g>
				<line class="st4" x1="405.5" y1="350.7" x2="408" y2="350.7"/>
				<line class="st5" x1="411" y1="350.7" x2="488.5" y2="350.7"/>
				<line class="st4" x1="490" y1="350.7" x2="492.5" y2="350.7"/>
			</g>
		</g>
		<polygon class="st6" points="488.5,346.1 488.5,355.3 496.5,350.7 		"/>
	</g>
	<g>
		<g>
			<line class="st7" x1="256.7" y1="126.6" x2="256.7" y2="124.1"/>
			<line class="st8" x1="256.7" y1="121.1" x2="256.7" y2="-162.1"/>
		</g>
	</g>
	<g>
		<g>
			<line class="st7" x1="1023.3" y1="126.6" x2="1023.3" y2="124.1"/>
			<line class="st8" x1="1023.3" y1="121.1" x2="1023.3" y2="-162.1"/>
		</g>
	</g>
	<g>
		<g>
			<line class="st7" x1="639.6" y1="187.3" x2="639.6" y2="184.8"/>
			<line class="st9" x1="639.6" y1="182" x2="639.6" y2="115"/>
			<line class="st7" x1="639.6" y1="113.6" x2="639.6" y2="111.1"/>
		</g>
	</g>
	<g>
		<g>
			<line class="st7" x1="448.4" y1="252.4" x2="448.4" y2="249.9"/>
			<line class="st13" x1="448.4" y1="246.9" x2="448.4" y2="-80"/>
		</g>
	</g>
	<g>
		<g>
			<line class="st7" x1="831.6" y1="252.4" x2="831.6" y2="249.9"/>
			<line class="st13" x1="831.6" y1="246.9" x2="831.6" y2="-80"/>
		</g>
	</g>
	<polygon class="st14" points="639.6,109.1 635,117.1 644.2,117.1 	"/>
	<g>
		<g>
			<g>
				<line class="st4" x1="792.9" y1="350.7" x2="795.4" y2="350.7"/>
				<line class="st5" x1="798.4" y1="350.7" x2="875.9" y2="350.7"/>
				<line class="st4" x1="877.4" y1="350.7" x2="879.9" y2="350.7"/>
			</g>
		</g>
		<polygon class="st6" points="875.9,346.1 875.9,355.3 883.9,350.7 		"/>
	</g>
</g>
<g id="Layer_1">
	<g>
		<path class="st16" d="M711.1,410.7h-78.2V240.3c0-21.4,17.3-38.7,38.7-38.7h0.9c21.4,0,38.7,17.3,38.7,38.7V410.7z"/>
		<path class="st19" d="M711.1,410.7V240.3c0-21.4-17.3-38.7-38.7-38.7h-0.9v209.1H711.1z"/>
		<polygon class="st20" points="517.1,414.6 511.9,414.6 511.9,334.7 533.6,334.7 533.6,339.8 517.1,339.8 		"/>
		<polygon class="st20" points="526.6,414.6 521.5,414.6 521.5,348.6 533.6,348.6 533.6,353.8 526.6,353.8 		"/>
		<polygon class="st20" points="773.2,412.4 768.1,412.4 768.1,287.3 750.2,287.3 750.2,282.1 773.2,282.1 		"/>
		<polygon class="st21" points="658.5,297.9 617,326.6 575.4,297.9 533.6,326.7 533.6,414.6 700.3,414.6 700.3,326.7 700.3,326.7 		
			"/>
		<rect x="502" y="410.7" class="st20" width="279.1" height="7.7"/>
		<polygon class="st20" points="551,314.7 551,297.9 544.6,297.9 544.6,319.2 		"/>
		<path class="st20" d="M755.4,410.7h-34V188.3c0-8.5,6.9-15.5,15.5-15.5h3c8.5,0,15.5,6.9,15.5,15.5V410.7z"/>
		<path class="st22" d="M755.4,410.7V188.3c0-8.5-6.9-15.5-15.5-15.5h-3v237.9H755.4z"/>
		<g>
			<rect x="627.8" y="230.3" class="st21" width="88.4" height="5.2"/>
			<rect x="627.8" y="224.5" class="st21" width="88.4" height="2.6"/>
			<rect x="627.8" y="275.5" class="st21" width="88.4" height="5.2"/>
			<rect x="627.8" y="285.3" class="st21" width="88.4" height="2.6"/>
		</g>
		<g>
			<rect x="716.1" y="190.9" class="st21" width="44.6" height="5.2"/>
			<rect x="716.1" y="200.4" class="st21" width="44.6" height="2.6"/>
			<rect x="716.1" y="241.8" class="st21" width="44.6" height="5.2"/>
			<rect x="716.1" y="251.3" class="st21" width="44.6" height="2.6"/>
			<rect x="716.1" y="291.9" class="st21" width="44.6" height="5.2"/>
			<rect x="716.1" y="301.4" class="st21" width="44.6" height="2.6"/>
			<rect x="716.1" y="315.6" class="st21" width="44.6" height="5.2"/>
		</g>
		<rect x="566.3" y="372.2" class="st20" width="17.6" height="42.4"/>
		<g>
			<g>
				<g>
					<rect x="597.2" y="386.2" class="st23" width="16.8" height="16.8"/>
					<rect x="621" y="386.2" class="st23" width="16.8" height="16.8"/>
					<rect x="644.9" y="386.2" class="st23" width="16.8" height="16.8"/>
					<rect x="668.8" y="386.2" class="st23" width="16.8" height="16.8"/>
				</g>
				<g>
					<rect x="597.2" y="363.6" class="st23" width="16.8" height="16.8"/>
				</g>
				<g>
					<rect x="621" y="363.6" class="st23" width="16.8" height="16.8"/>
				</g>
				<g>
					<rect x="644.9" y="363.6" class="st23" width="16.8" height="16.8"/>
				</g>
				<g>
					<rect x="668.8" y="363.6" class="st23" width="16.8" height="16.8"/>
				</g>
			</g>
			<g>
				<g>
					<rect x="677.2" y="328.6" class="st23" width="11.6" height="25.8"/>
					<rect x="660.7" y="328.6" class="st23" width="11.6" height="25.8"/>
					<rect x="644.2" y="328.6" class="st23" width="11.6" height="25.8"/>
					<rect x="627.8" y="328.6" class="st23" width="11.6" height="25.8"/>
				</g>
				<g>
					<rect x="593.9" y="328.6" class="st23" width="11.6" height="25.8"/>
				</g>
				<g>
					<rect x="577.5" y="328.6" class="st23" width="11.6" height="25.8"/>
				</g>
				<g>
					<rect x="561" y="328.6" class="st23" width="11.6" height="25.8"/>
				</g>
				<g>
					<rect x="544.6" y="328.6" class="st23" width="11.6" height="25.8"/>
				</g>
			</g>
			<g>
				<rect x="545.2" y="366" class="st23" width="10.3" height="33.5"/>
			</g>
		</g>
		<rect x="735.6" y="146.9" class="st20" width="2.6" height="26"/>
		<path class="st21" d="M740.8,146.2c0,2.1-1.7,3.9-3.9,3.9c-2.1,0-3.9-1.7-3.9-3.9s1.7-3.9,3.9-3.9
			C739,142.3,740.8,144.1,740.8,146.2z"/>
		<rect x="632.9" y="253.1" class="st24" width="78.2" height="10.5"/>
		<polygon class="st20" points="617,326.6 621.5,323.5 621.5,249.5 632.9,249.5 632.9,244.4 616.3,244.4 616.3,326.2 		"/>
		<path class="st21" d="M791.6,365.8c-7.4,7.4-35.6,14.2-45.6,24.6c-16.2,17-9.1,38.7-9.1,38.7c25.1,13.6,42.1,2.4,48.5-7.2
			C797.1,404.2,791.6,365.8,791.6,365.8z"/>
		<path class="st25" d="M779.5,394c-3.2,4.8-6.8,9.8-10.7,14.6c-2.8,3.5-5.8,6.8-9.1,9.9c-5.5,5.2-11.6,9.7-18.5,12.5
			c-16.7,6.3-30.9,3.6-42.6-10.6l-1.6-1.9h7.8c4.9,4.9,10.5,8.8,18.7,9.7c10.1,1.5,21.6-4.1,29.9-9.7c4.9-3.3,8.7-6.6,10.5-8.5
			c2.3-2.2,3.8-3.6,4.8-4.6C772.1,402.2,771,403.2,779.5,394z"/>
	</g>
	<g>
		<g>
			<polygon class="st16" points="397.3,379.9 131.2,379.9 150.4,215.7 378,215.7 			"/>
			<polygon class="st24" points="144.2,368.4 160.7,227.2 367.8,227.2 384.3,368.4 			"/>
			<g>
				<g>
					<rect x="262.3" y="227.2" class="st16" width="3.8" height="141.2"/>
					
						<rect x="299.6" y="227.1" transform="matrix(0.9992 -3.898234e-02 3.898234e-02 0.9992 -11.3795 11.9797)" class="st16" width="3.8" height="141.3"/>
					
						<rect x="336.9" y="227" transform="matrix(0.997 -7.776840e-02 7.776840e-02 0.997 -22.1329 27.2478)" class="st16" width="3.8" height="141.6"/>
				</g>
				<g>
					
						<rect x="156.3" y="295.9" transform="matrix(3.903982e-02 -0.9992 0.9992 3.903982e-02 -79.4606 512.9613)" class="st16" width="141.3" height="3.8"/>
					
						<rect x="118.9" y="295.9" transform="matrix(7.815756e-02 -0.9969 0.9969 7.815756e-02 -122.012 463.6354)" class="st16" width="141.6" height="3.8"/>
				</g>
				<g>
					<rect x="157.4" y="253.5" class="st16" width="213.7" height="3.8"/>
					<rect x="154.1" y="281.8" class="st16" width="220.3" height="3.8"/>
					<rect x="150.8" y="310" class="st16" width="226.9" height="3.8"/>
					<rect x="147.5" y="338.2" class="st16" width="233.5" height="3.8"/>
				</g>
			</g>
			<rect x="243.4" y="378.3" class="st20" width="41.6" height="34.6"/>
			<rect x="231.6" y="404.6" class="st20" width="65.3" height="16.6"/>
			<polygon class="st22" points="397.3,379.9 378,215.7 264.2,215.7 264.2,421.2 296.9,421.2 296.9,404.6 285,404.6 285,379.9 			
				"/>
		</g>
		<g>
			<circle class="st26" cx="264.2" cy="205.5" r="33.2"/>
			<polygon class="st26" points="264.2,142.3 256.2,166.9 272.3,166.9 			"/>
			<polygon class="st26" points="232.7,150.8 238,176.1 251.9,168 			"/>
			<polygon class="st26" points="209.6,173.9 226.8,193.1 234.8,179.2 			"/>
			<polygon class="st26" points="201.1,205.5 225.6,213.5 225.6,197.4 			"/>
			<polygon class="st26" points="209.6,237.1 234.8,231.8 226.8,217.8 			"/>
			<polygon class="st26" points="232.7,260.2 251.9,243 238,234.9 			"/>
			<polygon class="st26" points="264.2,268.6 272.3,244.1 256.2,244.1 			"/>
			<polygon class="st26" points="295.8,260.2 290.5,234.9 276.6,243 			"/>
			<polygon class="st26" points="318.9,237 301.7,217.8 293.7,231.8 			"/>
			<polygon class="st26" points="327.4,205.5 302.9,197.4 302.9,213.5 			"/>
			<polygon class="st26" points="318.9,173.9 293.7,179.2 301.7,193.1 			"/>
			<polygon class="st26" points="295.8,150.8 276.6,168 290.5,176.1 			"/>
		</g>
	</g>
	<g>
		<g>
			<g>
				<rect x="1012.1" y="292.8" class="st23" width="85.7" height="97.7"/>
			</g>
			<g>
				<g>
					<g>
						<path class="st18" d="M1083.8,304.7h-59.6c-0.6,0-1.2-0.5-1.2-1.2s0.5-1.2,1.2-1.2h59.6c0.6,0,1.2,0.5,1.2,1.2
							S1084.5,304.7,1083.8,304.7z"/>
					</g>
				</g>
				<g>
					<g>
						<g>
							<path class="st18" d="M1083.8,314.9h-59.6c-0.6,0-1.2-0.5-1.2-1.2c0-0.6,0.5-1.2,1.2-1.2h59.6c0.6,0,1.2,0.5,1.2,1.2
								C1085,314.4,1084.5,314.9,1083.8,314.9z"/>
						</g>
					</g>
				</g>
				<g>
					<g>
						<g>
							<path class="st18" d="M1083.8,325.1h-59.6c-0.6,0-1.2-0.5-1.2-1.2c0-0.6,0.5-1.2,1.2-1.2h59.6c0.6,0,1.2,0.5,1.2,1.2
								C1085,324.6,1084.5,325.1,1083.8,325.1z"/>
						</g>
					</g>
				</g>
				<g>
					<g>
						<g>
							<path class="st18" d="M1083.8,335.3h-59.6c-0.6,0-1.2-0.5-1.2-1.2c0-0.6,0.5-1.2,1.2-1.2h59.6c0.6,0,1.2,0.5,1.2,1.2
								C1085,334.8,1084.5,335.3,1083.8,335.3z"/>
						</g>
					</g>
				</g>
				<g>
					<g>
						<g>
							<path class="st18" d="M1083.8,345.5h-59.6c-0.6,0-1.2-0.5-1.2-1.2c0-0.6,0.5-1.2,1.2-1.2h59.6c0.6,0,1.2,0.5,1.2,1.2
								C1085,345,1084.5,345.5,1083.8,345.5z"/>
						</g>
					</g>
				</g>
				<g>
					<g>
						<g>
							<path class="st18" d="M1083.8,355.7h-59.6c-0.6,0-1.2-0.5-1.2-1.2s0.5-1.2,1.2-1.2h59.6c0.6,0,1.2,0.5,1.2,1.2
								S1084.5,355.7,1083.8,355.7z"/>
						</g>
					</g>
				</g>
				<g>
					<g>
						<g>
							<path class="st18" d="M1083.8,365.9h-59.6c-0.6,0-1.2-0.5-1.2-1.2c0-0.6,0.5-1.2,1.2-1.2h59.6c0.6,0,1.2,0.5,1.2,1.2
								C1085,365.4,1084.5,365.9,1083.8,365.9z"/>
						</g>
					</g>
				</g>
				<g>
					<g>
						<g>
							<path class="st18" d="M1083.8,376.2h-59.6c-0.6,0-1.2-0.5-1.2-1.2s0.5-1.2,1.2-1.2h59.6c0.6,0,1.2,0.5,1.2,1.2
								S1084.5,376.2,1083.8,376.2z"/>
						</g>
					</g>
				</g>
			</g>
		</g>
		<g>
			<rect x="945.3" y="246.1" class="st23" width="57" height="183.8"/>
		</g>
		<g>
			<rect x="897.7" y="333" class="st16" width="88.6" height="9.9"/>
		</g>
		<g>
			<rect x="897.7" y="340.2" class="st23" width="88.6" height="89.7"/>
		</g>
		<g>
			<g>
				<g>
					<rect x="907.1" y="347" class="st20" width="11.3" height="11.6"/>
				</g>
			</g>
		</g>
		<g>
			<g>
				<g>
					<rect x="926.2" y="347" class="st18" width="11.3" height="11.6"/>
				</g>
			</g>
		</g>
		<g>
			<g>
				<g class="st27">
					<rect x="945.3" y="347" class="st18" width="11.3" height="11.6"/>
				</g>
			</g>
		</g>
		<g>
			<g>
				<g class="st27">
					<rect x="964.4" y="347" class="st18" width="11.3" height="11.6"/>
				</g>
			</g>
		</g>
		<g>
			<g>
				<g>
					<rect x="907.1" y="367.5" class="st18" width="11.3" height="11.6"/>
				</g>
			</g>
		</g>
		<g>
			<g>
				<g>
					<rect x="926.2" y="367.5" class="st20" width="11.3" height="11.6"/>
				</g>
			</g>
		</g>
		<g>
			<g>
				<g>
					<rect x="945.3" y="367.5" class="st18" width="11.3" height="11.6"/>
				</g>
			</g>
		</g>
		<g>
			<g>
				<g>
					<rect x="964.4" y="367.5" class="st18" width="11.3" height="11.6"/>
				</g>
			</g>
		</g>
		<g>
			<g>
				<g class="st27">
					<rect x="907.1" y="388" class="st18" width="11.3" height="11.6"/>
				</g>
			</g>
		</g>
		<g>
			<g>
				<g>
					<rect x="926.2" y="388" class="st18" width="11.3" height="11.6"/>
				</g>
			</g>
		</g>
		<g>
			<g>
				<g>
					<rect x="945.3" y="388" class="st20" width="11.3" height="11.6"/>
				</g>
			</g>
		</g>
		<g>
			<g>
				<g>
					<rect x="964.4" y="388" class="st20" width="11.3" height="11.6"/>
				</g>
			</g>
		</g>
		<g class="st28">
			<rect x="953.9" y="263.2" class="st29" width="12.4" height="5.6"/>
		</g>
		<g class="st28">
			<rect x="981.9" y="263.2" class="st29" width="12.4" height="5.6"/>
		</g>
		<g class="st28">
			<rect x="953.9" y="278" class="st29" width="12.4" height="5.6"/>
		</g>
		<g class="st28">
			<rect x="981.9" y="278" class="st29" width="12.4" height="5.6"/>
		</g>
		<g class="st28">
			<rect x="953.9" y="292.7" class="st29" width="12.4" height="5.6"/>
		</g>
		<g class="st28">
			<rect x="981.9" y="292.7" class="st29" width="12.4" height="5.6"/>
		</g>
		<g class="st28">
			<rect x="953.9" y="307.4" class="st29" width="12.4" height="5.6"/>
		</g>
		<g class="st28">
			<rect x="981.9" y="307.4" class="st29" width="12.4" height="5.6"/>
		</g>
		<g class="st28">
			<rect x="953.9" y="322.1" class="st29" width="12.4" height="5.6"/>
		</g>
		<g class="st28">
			<rect x="981.9" y="322.1" class="st29" width="12.4" height="5.6"/>
		</g>
		<g>
			<rect x="1002.3" y="390.1" class="st23" width="105.6" height="39.9"/>
		</g>
		<g>
			<rect x="1012.3" y="399.7" class="st16" width="16.3" height="30.2"/>
		</g>
		<g>
			<rect x="1081.5" y="399.7" class="st16" width="16.3" height="30.2"/>
		</g>
		<g>
			<rect x="1046.9" y="399.7" class="st16" width="16.3" height="30.2"/>
		</g>
	</g>
	<polygon class="st23" points="1036.6,181.7 1013,284 1113.4,253.2 	"/>
	<g>
		<path class="st20" d="M1155.1,205c0,40.9-33.1,74-74,74c-40.9,0-74-33.1-74-74c0-40.9,33.1-74,74-74
			C1122,131,1155.1,164.2,1155.1,205z"/>
		<path class="st23" d="M1131.4,227.5c0,6.2-5,11.2-11.2,11.2H1042c-6.2,0-11.2-5-11.2-11.2v-44.8c0-6.2,5-11.2,11.2-11.2h78.2
			c6.2,0,11.2,5,11.2,11.2V227.5z"/>
		<path class="st22" d="M1119.1,156.7c0,2-1.6,3.5-3.6,3.5h-68.7c-2,0-3.6-1.6-3.6-3.5c0-1,0.4-1.9,1.1-2.5c0.3-0.2,0.5-0.4,0.8-0.6
			c10.2-7.2,22.7-11.4,36.1-11.4c13.3,0,25.6,4.1,35.8,11.2c0,0,0.1,0,0.1,0.1c0.4,0.2,0.7,0.5,1.1,0.8
			C1118.7,154.9,1119.1,155.8,1119.1,156.7z"/>
		<g>
			<rect x="1037.3" y="195.1" class="st16" width="8.6" height="10.7"/>
			<g>
				<path class="st18" d="M1039.2,198.7c0-0.7,0.3-1.3,0.8-1.7c0.4-0.3,1-0.5,1.8-0.5c0.7,0,1.2,0.2,1.7,0.6
					c0.5,0.4,0.7,0.8,0.7,1.4c0,0.5-0.2,1-0.5,1.5c-0.2,0.3-0.6,0.7-1.2,1.4c-0.2,0.2-0.4,0.5-0.7,0.9l-0.3,0.3
					c-0.2,0.2-0.3,0.4-0.4,0.5c0,0.1-0.1,0.1-0.1,0.1h3v1.2h-4.8v-1.1c0,0,0.1-0.2,0.3-0.4c0.1-0.1,0.2-0.3,0.4-0.4l0.4-0.4
					c0.2-0.2,0.6-0.6,1.1-1.2c0.5-0.5,0.8-1,1.1-1.4c0.2-0.3,0.3-0.7,0.3-0.9c0-0.2-0.1-0.4-0.3-0.6c-0.2-0.2-0.4-0.3-0.7-0.3
					c-0.4,0-0.7,0.2-0.9,0.6c-0.1,0.1-0.1,0.3-0.1,0.5v0.3h-1.5V198.7z"/>
			</g>
			<rect x="1047.5" y="195.1" class="st16" width="8.6" height="10.7"/>
			<g>
				<path class="st18" d="M1051.3,204.3v-6h-1.3v-0.8c0.4,0,0.7-0.1,1-0.3c0.3-0.2,0.6-0.4,0.7-0.7h1.1v7.8H1051.3z"/>
			</g>
			<rect x="1057.7" y="195.1" class="st16" width="8.6" height="10.7"/>
			<g>
				<path class="st18" d="M1061.2,197.7v1.7c0.2-0.2,0.4-0.3,0.6-0.4c0.2,0,0.3-0.1,0.5-0.1c0.7,0,1.2,0.2,1.5,0.5
					c0.3,0.3,0.4,0.7,0.4,1.3v1.7c0,0.6-0.2,1.1-0.7,1.4c-0.5,0.4-1,0.5-1.7,0.5c-0.7,0-1.2-0.2-1.7-0.6c-0.4-0.4-0.6-0.8-0.6-1.3
					v-0.2l1.5-0.1l0,0.3c0,0.3,0.2,0.5,0.5,0.6c0.1,0,0.2,0.1,0.3,0.1c0.6,0,0.9-0.3,0.9-0.8v-1.9c0-0.2-0.1-0.4-0.3-0.6
					c-0.1-0.1-0.2-0.1-0.4-0.1c-0.3,0-0.5,0.1-0.6,0.2c-0.1,0.1-0.2,0.3-0.2,0.4v0.2h-1.5v-4.3h4.4v1.2H1061.2z"/>
			</g>
			<rect x="1068" y="195.1" class="st16" width="8.6" height="10.7"/>
			<g>
				<path class="st18" d="M1069.8,201.4l2.7-4.9h1.5v4.9h1v1.2h-1v1.7h-1.5v-1.7h-2.7V201.4z M1072.5,201.4V199l-1.3,2.4H1072.5z"/>
			</g>
			<rect x="1078.2" y="195.1" class="st16" width="8.6" height="10.7"/>
			<g>
				<path class="st18" d="M1083,198.4v-0.2c0-0.2-0.1-0.3-0.2-0.5c-0.1-0.1-0.3-0.2-0.6-0.2c-0.2,0-0.4,0.1-0.6,0.2
					c-0.1,0.1-0.2,0.3-0.2,0.5v1.6c0.4-0.2,0.7-0.4,1.2-0.4c0.7,0,1.2,0.2,1.5,0.5c0.3,0.3,0.4,0.8,0.4,1.3v1.3h0
					c0,0.5-0.3,0.9-0.7,1.2c-0.4,0.3-1,0.5-1.6,0.5c-0.7,0-1.2-0.2-1.6-0.6c-0.4-0.4-0.6-0.8-0.6-1.3v-4.3c0-0.4,0.1-0.7,0.4-1
					c0.2-0.3,0.6-0.5,1-0.7c0.3-0.1,0.6-0.2,0.9-0.2c0.7,0,1.2,0.2,1.7,0.6c0.4,0.4,0.6,0.8,0.6,1.3v0.2H1083z M1081.5,202.5
					c0,0.2,0.1,0.3,0.2,0.5c0.1,0.1,0.3,0.2,0.6,0.2c0.2,0,0.4-0.1,0.6-0.2c0.1-0.1,0.2-0.3,0.2-0.5v-1.4c0-0.2-0.1-0.4-0.3-0.6
					c-0.1-0.1-0.3-0.1-0.4-0.1c-0.3,0-0.5,0.1-0.6,0.2c-0.1,0.1-0.2,0.3-0.2,0.4V202.5z"/>
			</g>
			<rect x="1088.4" y="195.1" class="st16" width="8.6" height="10.7"/>
			<g>
				<path class="st18" d="M1095.1,202.5c0,0.5-0.2,1-0.7,1.3c-0.5,0.4-1,0.5-1.7,0.5h-0.1c-0.7,0-1.2-0.2-1.7-0.6
					c-0.5-0.4-0.7-0.8-0.7-1.3v-0.7c0-0.5,0.2-0.9,0.6-1.3c0.2-0.2,0.4-0.3,0.6-0.4c-0.4-0.2-0.7-0.4-0.9-0.8
					c-0.1-0.2-0.2-0.4-0.2-0.7v-0.4c0-0.5,0.2-0.9,0.6-1.2c0.4-0.4,1-0.6,1.7-0.6h0.1c0.7,0,1.3,0.2,1.7,0.6
					c0.4,0.3,0.6,0.8,0.6,1.2v0.4c0,0.5-0.2,0.9-0.6,1.2c-0.2,0.1-0.4,0.2-0.5,0.3c0.4,0.2,0.8,0.5,1,0.9c0.1,0.2,0.2,0.5,0.2,0.7
					V202.5z M1093.7,198.5c0-0.5-0.2-0.9-0.6-1c-0.1,0-0.2-0.1-0.4-0.1c-0.3,0-0.5,0.1-0.6,0.2c-0.1,0.1-0.2,0.2-0.3,0.4
					c-0.1,0.1-0.1,0.3-0.1,0.5c0,0.3,0.1,0.6,0.2,0.7c0.2,0.2,0.4,0.3,0.8,0.3c0.4,0,0.6-0.1,0.8-0.3
					C1093.6,199.1,1093.7,198.8,1093.7,198.5z M1093.6,202c0-0.5-0.1-0.8-0.4-0.9c-0.1-0.1-0.3-0.1-0.5-0.1c-0.4,0-0.7,0.1-0.8,0.4
					c-0.1,0.2-0.1,0.4-0.1,0.6v0.4c0,0.3,0.1,0.5,0.3,0.6c0.2,0.1,0.4,0.2,0.6,0.2c0.4,0,0.7-0.2,0.9-0.5c0.1-0.1,0.1-0.2,0.1-0.4
					V202z"/>
			</g>
			<rect x="1037.3" y="195.1" class="st29" width="8.6" height="3.3"/>
			<rect x="1037.3" y="202.4" class="st29" width="8.6" height="3.3"/>
			<rect x="1047.5" y="195.1" class="st29" width="8.6" height="3.3"/>
			<rect x="1047.5" y="202.4" class="st29" width="8.6" height="3.3"/>
			<rect x="1057.7" y="195.1" class="st29" width="8.6" height="3.3"/>
			<rect x="1057.7" y="202.4" class="st29" width="8.6" height="3.3"/>
			<rect x="1068" y="195.1" class="st29" width="8.6" height="3.3"/>
			<rect x="1068" y="202.4" class="st29" width="8.6" height="3.3"/>
			<rect x="1078.2" y="195.1" class="st29" width="8.6" height="3.3"/>
			<rect x="1078.2" y="202.4" class="st29" width="8.6" height="3.3"/>
			<rect x="1088.4" y="195.1" class="st29" width="8.6" height="3.3"/>
			<rect x="1088.4" y="202.4" class="st29" width="8.6" height="3.3"/>
		</g>
		<rect x="1063.9" y="211.8" class="st16" width="62" height="10.1"/>
		<rect x="1067.1" y="215" class="st23" width="56.6" height="3.5"/>
		<rect x="1103.6" y="215" class="st26" width="15.3" height="3.5"/>
		<path class="st16" d="M1116.2,187.8c0.1,0.2,0.1,0.5,0.1,0.8c0,1.4-1.1,2.6-2.6,2.6c-1.4,0-2.6-1.1-2.6-2.6c0-1.4,1.1-2.6,2.6-2.6
			c0.1,0,0.3,0,0.5,0l8.6-8.6L1116.2,187.8z"/>
		<rect x="1043.3" y="226.9" class="st29" width="40.2" height="6"/>
		<rect x="1089.7" y="226.9" class="st29" width="21.6" height="6"/>
		<rect x="1038" y="178.3" class="st29" width="27.1" height="6"/>
		<rect x="1068.8" y="178.3" class="st29" width="12.3" height="6"/>
		<rect x="1084.6" y="178.3" class="st29" width="16.9" height="6"/>
		<path class="st30" d="M1129.8,177h-78.1c-8.3,0-11.2,3.1-11.2,11.2v50.4c-5.5-0.7-9.7-5.4-9.7-11.1v-44.8c0-6.2,5-11.2,11.2-11.2
			h78.2C1124.3,171.5,1127.9,173.7,1129.8,177z"/>
		<path class="st31" d="M1025.6,205.8c0,3.7-3,6.7-6.7,6.7c-3.7,0-6.7-3-6.7-6.7c0-3.7,3-6.7,6.7-6.7
			C1022.6,199.1,1025.6,202.1,1025.6,205.8z"/>
		<path class="st31" d="M1149.9,205.8c0,3.7-3,6.7-6.7,6.7c-3.7,0-6.7-3-6.7-6.7c0-3.7,3-6.7,6.7-6.7
			C1146.9,199.1,1149.9,202.1,1149.9,205.8z"/>
	</g>
	<g>
		<path class="st20" d="M490.2,78.8c0.5,0.1,0.6,0.1,1,0.1c-0.9-1.2-1.3-1.6-2.4-2.5c0,0.8,0.1,1.2,0.1,1.6
			c-0.8-0.1-1.2-0.1-2.8-0.1h-4.9c-0.2,1.4-0.3,1.7-0.5,2.5h5.5c1.4,0,2.2,0,3.1-0.1c-0.1,0.6-0.1,0.8-0.1,1.4c-0.2,4-0.5,6.2-1,7.6
			c-0.3,0.8-0.9,1.4-1.7,1.7c-0.7,0.3-1.5,0.4-3.4,0.4c-1.5,0-2.1,0-3.3-0.1c-0.2-1.5-0.4-2.4-0.8-3.8c1.7,0.3,3.1,0.5,4.4,0.5
			c1.1,0,1.5-0.2,1.7-0.9c0.2-0.7,0.4-1.7,0.5-3.7h-6.7c-1.2,0-1.2,0-2.4,0.1c0.9-2.6,1.3-4.9,1.5-7.3c0-0.2,0-0.7,0-1.5
			c0.9,0.1,1.7,0.1,2.9,0.1h4.5v-2.4H483c-1.2,0-1.9,0-2.7,0.1v-1c-1.1,0.5-1.6,0.6-3.2,1.2c-0.6-1.6-0.9-2.1-1.8-3.3
			c2.8-0.8,4.5-1.3,6.7-2.4c-1.1-1-3-2.6-4.5-3.6l2.4-2.3c0.6,0.5,0.9,0.7,1.3,1v-3.1c0.9,0.1,1.6,0.2,3.2,0.2h6.6
			c1.5,0,2.3,0,3.1-0.1c0.4,1.4,0.9,2.1,2.6,3.6c1.5-1.5,2.4-2.4,3-3.5l3,1.9c-0.1,0.2-0.1,0.2-0.4,0.4l-0.1,0.1l-1.8,1.9
			c-0.2,0.3-0.4,0.4-1.2,1.1c0.9,0.6,1.2,0.8,2.1,1.3c1.7-1.5,2.7-2.6,3.4-3.8l3,1.9c-0.1,0.1-0.1,0.1-0.4,0.4c0,0-0.1,0.1-0.2,0.2
			c-0.4,0.5-2.1,2.1-2.9,2.8c1.7,0.7,2.7,1,5,1.6c-0.9,1.2-1.3,1.9-1.8,3.4c-2.3-0.8-3.5-1.3-5.1-2.1c0,0.4,0,0.8,0,1.2v2.5
			c0,0.4,0.3,0.6,1.4,0.6c0.7,0,1.1-0.1,1.3-0.4c0.2-0.4,0.2-0.4,0.2-1.9c1.4,0.8,2.1,1.1,3.2,1.4c-0.3,3.3-0.9,3.8-4.8,3.8
			c-3.9,0-4.6-0.3-4.6-1.8v-3.6h-3.6c-0.3,2.2-0.7,3.3-1.7,4.6c-0.6,0.8-1,1.2-2.3,2.1c0.5,0,1,0,1.7,0h9.2c1.3,0,1.8,0,2.4-0.1
			l1.9,1.9c-0.3,0.3-0.3,0.4-0.8,1c-1.6,2.2-2.8,3.5-4.4,4.7c2.4,0.9,4.4,1.4,7.7,1.7c-0.9,1.4-1.3,2.3-1.7,3.6
			c-3.9-0.8-6.6-1.7-9.3-3.1c-2.6,1.5-4.5,2.2-8,3.2c-0.5-1.4-0.8-2.1-1.5-3.3c2.7-0.4,4.1-0.9,6.4-1.9c-1.4-1.1-2-1.7-3.3-3.2
			l2-1.4h-0.9c-1.4,0-1.9,0-2.7,0.1V78.8z M483.8,62.3c-0.8,0-1.5,0-2.1,0.1c1.4,1.2,2.3,1.9,3.3,2.9c1.4-1,2.2-1.7,3.6-3H483.8z
			 M488.8,75.4c0,0.4,0,0.6,0,1c2.4-1.5,3.4-3.3,3.4-6.4c0-0.2,0-0.5-0.1-0.9c0.8,0.1,1.4,0.1,2.5,0.1h5.5c-3.2-1.9-5.3-3.7-7.6-6.7
			c-2.6,3.1-4.7,5-8,7h1.5c1.3,0,2.2,0,3-0.1c-0.1,0.8-0.1,1.4-0.1,2.7V75.4z M494.8,82c1.3,1.3,2.1,1.9,3.5,2.8
			c1.2-0.8,1.9-1.5,3.3-2.8H494.8z"/>
		<path class="st20" d="M518.8,62.3c-1.6,0-2.6,0-3.8,0.1V59c1.3,0.1,2.6,0.2,4.1,0.2h19c1.6,0,2.8-0.1,4.1-0.2v3.5
			c-1.2-0.1-2.1-0.1-3.7-0.1h-8.2v1.4h9.6c2.4,0,3.4,0,4.5-0.1c-0.1,0.9-0.1,1.6-0.1,3v2.3c0,1.3,0,1.9,0.2,2.8h-3.7v-5.1h-10.4v3.6
			c0,1.7,0,2.4,0.1,3.4h-4.1c0.1-1,0.2-1.9,0.2-3.4v-3.6h-9.9v5.1h-3.7c0.1-1,0.2-1.6,0.2-2.8v-2.3c0-1.3,0-2-0.1-3
			c1,0.1,2,0.1,4.4,0.1h9.1v-1.4H518.8z M541.4,83.3c1.3,0.7,2.3,1.1,3.8,1.4c-0.1,3.1-0.5,4.6-1.4,5.4c-1,0.9-3.1,1.2-9.3,1.2
			c-7.1,0-8.1-0.4-8.1-2.8v-2.4h-6.9v1.8h-4c0.1-1.1,0.2-2.3,0.2-3.6v-6.6c0-1.4-0.1-2.4-0.2-3.5c1,0.1,1.9,0.1,3.4,0.1h19
			c1.6,0,2.6,0,3.6-0.1c-0.1,1-0.1,1.9-0.1,3.5V83.3z M518,67.5c0.6,0.1,0.9,0.1,1.9,0.1h3.2c0.8,0,1.4,0,1.8-0.1v2.4
			c-0.6-0.1-1-0.1-1.8-0.1h-3.2c-0.9,0-1.3,0-1.9,0.1V67.5z M518,70.9c0.6,0.1,0.9,0.1,1.9,0.1h3.2c0.8,0,1.4,0,1.8-0.1v2.4
			c-0.5-0.1-0.9-0.1-1.8-0.1h-3.2c-0.9,0-1.3,0-1.9,0.1V70.9z M519.5,77.2v1.7h6.9v-1.7H519.5z M519.5,81.4v1.8h6.9v-1.8H519.5z
			 M530.1,78.8h7.5v-1.7h-7.5V78.8z M530.1,83.2h7.5v-1.8h-7.5V83.2z M530.1,87.4c0,0.3,0.1,0.5,0.3,0.5c0.5,0.3,2.2,0.4,5.1,0.4
			c2.6,0,4.5-0.2,5.1-0.5c0.4-0.2,0.6-0.5,0.7-1.8h-11.1V87.4z M531.8,67.5c0.5,0.1,0.9,0.1,1.9,0.1h3.7c0.8,0,1.3,0,1.8-0.1v2.4
			c-0.6-0.1-1-0.1-1.8-0.1h-3.7c-0.9,0-1.3,0-1.9,0.1V67.5z M531.8,70.9c0.5,0.1,0.9,0.1,1.9,0.1h3.7c0.8,0,1.4,0,1.8-0.1v2.4
			c-0.5-0.1-0.9-0.1-1.8-0.1h-3.7c-0.9,0-1.3,0-1.9,0.1V70.9z"/>
		<path class="st20" d="M554.7,64.2c-0.9-1.4-2.1-2.7-3.5-3.9l2.7-2.3c1.8,1.5,3,2.7,4.2,4.4l-2.1,1.8h2.4c1.5,0,2.1,0,2.9-0.1v3.7
			c-0.8-0.1-1.2-0.1-2.7-0.1h-7.2c-1.3,0-2,0-2.9,0.1V64c0.9,0.1,1.5,0.2,2.9,0.2H554.7z M549.6,91.6c0.1-1.1,0.2-2.4,0.2-3.5v-5.7
			c0-1.1,0-1.9-0.1-2.8c0.6,0.1,1.1,0.1,2.4,0.1h6c1.2,0,1.7,0,2.2-0.1c-0.1,0.6-0.1,1.1-0.1,2.6v6.4c0,0.8,0,1.5,0.1,2.2h-3.4v-1
			h-3.6v1.8H549.6z M549.6,69.4c0.6,0.1,1.2,0.1,2.3,0.1h6c1.2,0,1.6,0,2.2-0.1v3.3c-0.7-0.1-1.2-0.1-2.2-0.1h-6
			c-1.1,0-1.6,0-2.3,0.1V69.4z M549.6,74.4c0.6,0.1,1.2,0.1,2.3,0.1h5.9c1.2,0,1.6,0,2.2-0.1v3.3c-0.7-0.1-1.2-0.1-2.3-0.1h-5.9
			c-1.1,0-1.5,0-2.2,0.1V74.4z M553.1,86.6h3.7v-3.8h-3.7V86.6z M565.2,63.5c-1.6,0-2.6,0-3.5,0.2v-3.9c1.1,0.1,2.3,0.2,4,0.2h8.2
			c1.7,0,2.8,0,3.6-0.1c-0.1,1.4-0.2,3.8-0.2,7.1c0,6.3,0.2,11.2,0.5,14c0.3,2.9,0.7,4.6,1,4.6c0.2,0,0.4-1.9,0.6-4.6
			c0.7,0.9,1.3,1.6,2.6,2.5c-0.6,5.6-1.5,7.6-3.3,7.6c-1.6,0-3.1-2-3.9-5.1c-0.6-2.3-1-5.5-1.2-9.6h-4.3v10.4c0,1.6,0.1,3.3,0.2,4.9
			h-4.1c0.1-1.5,0.2-3.1,0.2-4.9V76.2h-0.9c-1.1,0-2.4,0.1-3.6,0.2v-3.9c1.6,0.1,2.6,0.2,3.6,0.2h0.8v-9.2H565.2z M569.3,72.6h4.2
			c0-1.6-0.1-4.7-0.1-9.2h-4.1V72.6z"/>
		<path class="st20" d="M584,88.3c2.1-2.6,2.8-4.1,3.9-7.5l3.5,1.3c-1.2,3.7-2.1,5.7-4.1,8.6L584,88.3z M597,61.4
			c0.7-1.4,1-2.3,1.3-3.4l4.3,0.5c-0.7,1.6-0.9,2-1.4,2.9h7.3c2.1,0,3.2,0,4.4-0.1c-0.1,1.1-0.1,2.1-0.1,4.2v9.9
			c0,2.2,0,3.1,0.1,4.1c-1-0.1-2.2-0.1-4-0.1h-16.4c-1.9,0-2.9,0-4,0.1c0.1-1.1,0.1-1.8,0.1-4.1v-9.9c0-1.9,0-3.1-0.1-4.2
			c1.2,0.1,2.3,0.1,4.4,0.1H597z M592.3,66.6h16.6v-2.1h-16.6V66.6z M592.3,71.3h16.6v-1.9h-16.6V71.3z M592.3,76.2h16.6v-2h-16.6
			V76.2z M596.9,86.5c0,0.7,0.1,0.9,0.5,1.1c0.4,0.1,1.4,0.2,3,0.2c2.8,0,4.2-0.1,4.8-0.4c0.6-0.3,0.8-1.2,0.9-3.4
			c1.5,0.7,2.4,1,3.9,1.2c-0.4,3.2-0.7,4.1-1.5,4.8c-1,0.9-3.1,1.2-7.7,1.2c-3.8,0-5.2-0.1-6.3-0.6c-1-0.5-1.4-1.2-1.4-2.9v-4.2
			c0-1.3,0-1.9-0.2-2.9h4.2c-0.1,0.8-0.2,1.5-0.2,2.9V86.5z M602.7,85.9c-1.4-1.7-2.8-3.1-4.5-4.5l2.8-2.1c1.9,1.5,2.8,2.3,4.5,4.1
			L602.7,85.9z M613.7,90.3c-1.3-3.1-2.4-5.2-4.6-8.2l3.2-1.5c2.3,2.8,3.2,4.4,5,7.8L613.7,90.3z"/>
		<path class="st20" d="M648.7,60.5l-13,34.1h-4.4l13-34.1H648.7z"/>
		<path class="st20" d="M663.1,64.3c0.9,0.1,1.5,0.2,2.9,0.2h7.4c1.5,0,2.1,0,2.9-0.1v3.7c-0.8-0.1-1.2-0.1-2.7-0.1H666
			c-1.3,0-2.1,0-2.9,0.1V64.3z M694.2,75.3c-0.2,0.4-0.2,0.4-0.7,1.5c-1.5,3.3-2.9,5.5-4.9,7.6c2.4,1.5,4.1,2.2,8,3.3
			c-0.8,1.4-1.3,2.4-1.8,3.9c-4.2-1.4-6.6-2.6-9-4.5c-2.4,1.9-5,3.3-8.6,4.6c-0.6-1.3-1.1-2.1-1.8-3.1c0,1.2,0,1.7,0.1,2.6H672v-1.2
			h-4.2v1.7h-3.7c0.1-1.1,0.2-2.3,0.2-3.6v-5.3c0-1.2,0-2-0.2-2.8c0.9,0.1,1.7,0.1,2.8,0.1h6.2c1.4,0,1.8,0,2.4-0.1
			c-0.1,0.8-0.1,1.3-0.1,2.6V88c3.2-0.9,5.5-2,7.7-3.5c-2.2-2.3-3.2-4-4.6-7.5c-0.7,0-1,0-1.6,0.1v-3.8c0.7,0.1,1.4,0.2,2.3,0.2
			h10.6c1.4,0,2,0,2.5-0.1L694.2,75.3z M664.2,59.2c1,0.1,1.5,0.2,3,0.2h5.2c1.5,0,2.1,0,3-0.2v3.5c-1-0.1-1.7-0.1-3-0.1h-5.2
			c-1.3,0-2.1,0-3,0.1V59.2z M664.3,69.8c0.7,0.1,1.2,0.1,2.4,0.1h6.4c1.2,0,1.7,0,2.3-0.1v3.3c-0.8-0.1-1.2-0.1-2.3-0.1h-6.4
			c-1.2,0-1.7,0-2.4,0.1V69.8z M664.3,74.9c0.7,0.1,1.2,0.1,2.4,0.1h6.4c1.2,0,1.7,0,2.3-0.1v3.3c-0.8-0.1-1.2-0.1-2.4-0.1h-6.4
			c-1.1,0-1.6,0-2.3,0.1V74.9z M667.8,86.7h4.2v-3.6h-4.2V86.7z M682.9,63.1c-0.1,3.1-0.5,4.8-1.5,6.8c-0.7,1.4-1.4,2.3-2.7,3.4
			c-1-1-2.1-1.8-3.1-2.5c2.8-2.1,3.7-4.3,3.7-9c0-1.1,0-1.5-0.2-2.4c0.9,0.1,1.7,0.1,2.8,0.1h5.5c1.3,0,2.1,0,3.1-0.1
			c-0.1,0.8-0.1,1.7-0.1,3.1v5.3c0,0.5,0.3,0.6,1.1,0.6c1.4,0,1.4,0,1.7-4.3c1.1,0.6,2,1,3.2,1.3c-0.4,5.9-0.8,6.3-5.4,6.3
			c-3.5,0-4.2-0.4-4.2-2.3v-6.3H682.9z M682.2,77c0.9,2.1,1.9,3.5,3.6,5.2c1.5-1.6,2.3-2.7,3.6-5.2H682.2z"/>
		<path class="st20" d="M701.8,77.3c0-1.3,0-3,0.1-4.7c-0.7,1.5-1.4,2.6-2.4,3.9c-0.6-2.3-0.6-2.3-1.6-4.3c2-2.2,3.6-4.9,4.9-8.1
			c0.9-2.2,1.5-4.3,1.8-5.9l3.9,1c-0.2,0.5-0.4,1.1-0.6,1.8c-0.7,2.3-1.2,3.7-2.3,5.8v20.6c0,1.9,0,2.9,0.2,4.3h-4.1
			c0.2-1.5,0.2-2.4,0.2-4.3V77.3z M721.9,87.1c0,2.1,0,3.1,0.2,4h-3.7c0.2-1.1,0.2-2.1,0.2-4v-1.7H714v2.2c0,2.3,0,3.1,0.2,3.9h-3.8
			c0.2-1,0.2-2,0.2-3.9v-8.6c-0.7,0.8-1.6,1.7-2.7,2.5c-0.4-1.5-0.8-2.3-1.8-3.5c1.9-1.4,3.1-2.6,4.4-4.4c0.8-1.1,1.5-2.3,1.9-3.2
			h-1.1c-1.9,0-2.6,0-3.6,0.1V67c1,0.1,2.2,0.2,3.6,0.2h2v-2.6h-0.7c-1.9,0-2.6,0-3.6,0.1v-3.6c1,0.1,2.2,0.2,3.6,0.2h0.7v-0.8
			c0-1.1,0-1.6-0.1-2.2h4c-0.1,0.6-0.1,1.2-0.1,2.2v0.8h4.9v-0.8c0-1.1,0-1.6-0.2-2.2h4c-0.1,0.6-0.1,1.2-0.1,2.2v0.8h1.6
			c1.5,0,3-0.1,3.7-0.2v3.6c-1.1-0.1-1.9-0.1-3.7-0.1h-1.6v2.6h2.2c1.9,0,2.8,0,3.9-0.2v3.6c-1-0.1-2.1-0.1-3.5-0.1h-12
			c-0.3,0.7-0.6,1.2-1,2h11.8c1.7,0,2.5,0,3.5-0.1c-0.1,0.8-0.1,1.9-0.1,3.9v12.3c0,2.4-0.8,2.9-4.1,2.9c-0.5,0-0.8,0-1.6,0
			c-0.1-1.4-0.3-2.2-0.8-3.4c0.9,0.1,1.5,0.2,2.2,0.2c0.7,0,0.8-0.1,0.8-0.8v-1.8h-5.1V87.1z M718.6,75.5H714v2h4.6V75.5z
			 M718.6,80.4H714v2h4.6V80.4z M717.1,67.2h4.9v-2.6h-4.9V67.2z M727,77.5v-2h-5.1v2H727z M727,82.4v-2h-5.1v2H727z"/>
		<path class="st20" d="M746.6,87.7c2.2-1.8,3.7-3.5,5-6c1.6-2.9,2.7-6.4,3-10.2h-3.2c-1.5,0-2.7,0.1-3.7,0.2v-4
			c1,0.1,2.2,0.2,3.7,0.2h3.5c0.1-1.8,0.1-4.7,0.1-6.6c0-1.1-0.1-2-0.2-2.8h4.3c-0.1,0.7-0.1,1.2-0.3,7.5c0,0.4,0,0.9-0.1,1.8h5.7
			c1.7,0,2.7-0.1,3.7-0.2v4c-1.1-0.1-2.2-0.2-3.6-0.2h-5.3c0.9,4.1,1.5,6,2.8,8.6c1.7,3.4,3.3,5.3,6.5,7.7c-1.2,1.4-1.7,2.2-2.6,3.8
			c-2.8-2.3-4.4-4.2-6.1-7.4c-1.3-2.3-2-4.2-2.7-6.8c-0.5,2.1-1.3,4.3-2.4,6.6c-1.6,3.2-3.2,5.2-5.9,7.5c-1-1.9-1-1.9-1.9-3
			c-0.1-0.1-0.1-0.1-0.3-0.4c0,1.6,0,2.6,0.2,3.6h-4.2c0.2-1.1,0.2-2.1,0.2-4.3v-9.6h-2.3c0,2.9-0.1,4.6-0.4,6.3
			c-0.4,3-1.2,5.3-2.7,7.6c-1.2-1.4-1.9-2-3.1-2.7c1.9-2.7,2.6-5.7,2.6-11.2c-0.9,0-1.5,0-2.3,0.1v-3.7c0.9,0.1,1.5,0.1,3.2,0.1h5
			v-3.7h-4.5c-1.2,0-1.7,0-2.7,0.1c0.1-0.8,0.1-1.5,0.1-2.4v-5.5c0-1.5,0-2.4-0.2-3.1h3.9c-0.1,0.8-0.1,1.3-0.1,2.8v4.8h3.5v-4.6
			c0-2.6,0-3.3-0.2-4.3h4.1c-0.1,1.1-0.2,1.8-0.2,4.3v24.7V87.7z M763.9,67.4c-1.2-2.5-2.1-3.9-4-6.2l2.7-1.9
			c1.9,2.2,2.5,3.1,4.3,6.2L763.9,67.4z"/>
		<path class="st20" d="M770.8,88.8c2-2.3,2.8-3.6,3.8-6.4l3.2,1.4c-1,3.2-1.8,4.7-3.7,7.3L770.8,88.8z M774,63.2
			c1.3-2,2.1-3.5,2.6-5.1l3.9,0.7c-1.8,3.1-1.8,3.1-2.7,4.4c2.6-0.1,2.6-0.1,5.2-0.4c-0.5-0.7-0.8-1.1-1.7-2.1l2.7-1.3
			c1.6,1.8,2.8,3.4,4.5,5.9v-3.9c0-1.3,0-2-0.2-2.8h4c-0.1,0.8-0.2,1.4-0.2,2.7v0.6c2.3-0.5,3.2-0.7,5.1-1.4c1.7-0.6,1.9-0.8,3-1.4
			l2.8,2.9c-0.6,0.3-4.1,1.3-5,1.6c-2.2,0.6-3.4,0.9-5.9,1.3v0.9c0,1,0.5,1.1,4.1,1.1c1.9,0,2.9-0.1,3.2-0.5
			c0.4-0.4,0.5-0.9,0.5-2.8c1.5,0.6,1.9,0.7,3.4,1c-0.3,2.7-0.6,3.7-1.5,4.4c-0.9,0.6-2.4,0.9-6.2,0.9c-3.1,0-4.6-0.1-5.5-0.4
			c-1.2-0.5-1.7-1.2-1.7-2.6v-1.3l-2.9,1.5c-0.4-0.8-0.6-1.1-0.9-1.5c-3.5,0.4-5.4,0.6-10.9,1c-0.7,0-1.4,0.1-2.5,0.3l-0.4-3.5
			c0.5,0,1,0.1,1.7,0.1h0.9H774z M776.5,78.6c0,1.6,0,2.3,0.1,3.1h-3.8c0.1-1.1,0.2-2.1,0.2-3.8v-8.1c0-1.4,0-2-0.1-2.9
			c1,0.1,1.7,0.1,2.8,0.1h7.5c1.4,0,2.2,0,3.2-0.1c-0.1,0.7-0.1,1.6-0.1,3.4v7.7c0,1.6-0.4,2.3-1.5,2.8c-0.7,0.3-2,0.5-3.6,0.5
			c-0.3,0-0.6,0-1.4,0c-0.1-0.9-0.3-1.8-0.8-2.9c0.9,0.1,1.9,0.2,2.5,0.2c1.2,0,1.4-0.1,1.4-0.8v-0.6h-6.4V78.6z M782.9,71.2V70
			h-6.4v1.2H782.9z M782.9,74.9v-1.3h-6.4v1.3H782.9z M783.4,82.1c-0.1,0.8-0.2,1.2-0.2,2.1V87c0,0.8,0.6,0.9,4,0.9
			c3.7,0,4.9-0.1,5.3-0.7c0.3-0.4,0.4-1.3,0.5-3c1.3,0.6,2.2,0.9,3.7,1.1c-0.2,3.2-0.7,4.5-1.9,5.2c-1,0.5-2.6,0.7-8,0.7
			c-6.3,0-7.3-0.4-7.3-2.9v-3.7c0-1,0-1.7-0.2-2.5H783.4z M788.8,86.7c-1.4-1.7-2.2-2.7-3.9-4l2.6-1.8c1.8,1.4,2.6,2.2,4,3.7
			L788.8,86.7z M792.3,70.4c-0.1,0.9-0.2,1.3-0.2,2.7c3.3-0.5,6.4-1.5,7.8-2.5l2.6,2.9c-0.6,0.1-0.6,0.1-1.5,0.5
			c-2.2,0.8-5.1,1.4-8.9,2.1v1.2c0,0.9,0.5,1.1,3.4,1.1c2.9,0,3.5-0.1,4-0.4c0.4-0.3,0.5-1,0.6-2.9c1.4,0.6,1.9,0.7,3.5,1
			c-0.3,2.8-0.5,3.8-1.5,4.5c-0.9,0.7-2.8,0.9-6.9,0.9c-5.4,0-6.7-0.6-6.7-3.1v-5.1c0-1.3,0-2.1-0.2-2.8H792.3z M800.4,90.8
			c-1.4-3-2.7-5.2-4.4-7.2l3.1-1.5c2.1,2.4,3.3,4.3,4.7,6.7L800.4,90.8z"/>
	</g>
	<g>
		<path class="st20" d="M237.1,460.3c1,0,1.6,0,2.3-0.1v1.4c-0.7-0.1-1.4-0.1-2.3-0.1h-5.4c2.4,2.1,4.8,3.3,8.2,4.2
			c-0.3,0.4-0.5,0.7-0.9,1.3c-1.2-0.4-2.5-0.9-3.6-1.5c-1.8-0.9-3.1-1.8-4.8-3.5c0,0.8,0.1,1.8,0.1,2.3v0.9c0,1,0,1.7,0.1,2.1h-1.5
			c0.1-0.5,0.1-1.1,0.1-2.1v-0.9c0-0.4,0-1,0.1-2.2c-1.5,1.5-2.7,2.4-4.6,3.4c-1.1,0.6-2.3,1.1-3.5,1.6c-0.3-0.5-0.5-0.8-0.9-1.2
			c1.9-0.6,3.2-1.1,4.7-2c1.3-0.7,2-1.2,3.1-2.3h-5c-1,0-1.6,0-2.3,0.1v-1.4c0.7,0.1,1.3,0.1,2.3,0.1h6V460c0-0.6,0-1-0.1-1.4h1.4
			c-0.1,0.4-0.1,0.8-0.1,1.4v0.3H237.1z M234.9,454c-0.8,1.2-1.3,1.7-2.4,2.4c2.1,0.5,3.7,1,6,1.9l-0.8,1c-2-0.9-3.7-1.4-6.5-2.1
			c-2.4,1.2-5,1.7-9.1,2c-0.1-0.5-0.3-0.7-0.6-1.1c3.4-0.1,5.5-0.4,7.9-1.3c-1.4-0.3-2.5-0.5-4.7-0.8c1-0.8,1.3-1.2,2-2h-3.1
			c-0.8,0-1.5,0-2.1,0.1v-1.3c0.5,0.1,1.1,0.1,2.1,0.1h4c0.8-1,0.9-1.2,1.2-2l1.4,0.4c-0.7,1-0.7,1-1.2,1.6h8.2c1,0,1.5,0,2.1-0.1
			v1.3c-0.6-0.1-1.2-0.1-2.1-0.1H234.9z M229.5,449.4c0-0.6,0-1-0.1-1.6h1.6c-0.1,0.5-0.1,0.9-0.1,1.6v0.1h6.2c0.9,0,1.5,0,2.1-0.1
			c-0.1,0.4-0.1,0.7-0.1,1.2v0.4c0,0.5,0,0.8,0.1,1.2h-1.3v-1.6H223v1.6h-1.3c0-0.4,0.1-0.7,0.1-1.2v-0.4c0-0.5,0-0.8-0.1-1.2
			c0.7,0.1,1.2,0.1,2.1,0.1h5.7V449.4z M228.1,454c-0.5,0.5-0.7,0.7-1.2,1.3c1.5,0.2,2.6,0.4,4,0.8c1.1-0.6,1.8-1.2,2.5-2.1H228.1z"
			/>
		<path class="st20" d="M246.2,450.6c0-1,0-1.7-0.1-2.3h1.6c-0.1,0.7-0.1,1.3-0.1,2.3v2.9h0.5c0.8,0,1.3,0,1.7-0.1v1.3
			c-0.6-0.1-1.2-0.1-1.7-0.1h-0.5v5.4c0.7-0.4,1-0.5,1.8-1.1l0.1,1.3c-1.2,0.8-3.1,1.8-4.4,2.4c-0.3,0.1-0.9,0.4-1.1,0.5l-0.4-1.5
			c0.8-0.2,1-0.3,2.7-1v-6h-0.9c-0.7,0-1.2,0-1.8,0.1v-1.4c0.6,0.1,1.1,0.1,1.8,0.1h0.9V450.6z M252.1,460.2c-1,1.1-2,1.9-3.5,2.8
			c-0.3-0.4-0.5-0.7-0.9-0.9c2.5-1.3,4-2.7,4.9-4.4h-1.3c-0.9,0-1.5,0-1.9,0.1v-1.4c0.5,0.1,1,0.1,1.9,0.1h9c1,0,1.6,0,2.1-0.1v1.3
			c-0.5-0.1-1.2-0.1-2.1-0.1h-6.4c-0.3,0.6-0.5,0.9-1,1.5h6.9c1,0,1.5,0,2.1-0.1c0,0.3-0.1,0.4-0.1,1.2c-0.2,2.5-0.5,4.9-0.9,5.6
			c-0.4,0.8-0.9,1-2.3,1c-0.5,0-1.2,0-1.8-0.1c-0.1-0.5-0.2-0.9-0.4-1.4c1,0.2,1.8,0.2,2.5,0.2c0.8,0,1-0.2,1.3-1.4
			c0.2-1,0.4-2.4,0.5-4h-1.4c-0.6,1.3-1.1,2.2-1.9,3.2c-0.6,0.8-1.8,2-2.6,2.6c-0.5,0.4-0.9,0.7-1.7,1.2c-0.3-0.5-0.5-0.6-1-1
			c1.9-1,3-1.9,4.1-3.2c0.7-0.9,1.3-1.7,1.7-2.8h-2.1c-1.2,2.1-3.1,3.8-5.8,5.2c-0.2-0.4-0.5-0.7-0.9-1c2.4-1.1,4.3-2.6,5.3-4.3
			H252.1z M252.8,455.1c-0.9,0-1.4,0-1.9,0.1c0.1-0.6,0.1-1.1,0.1-1.9v-2.7c0-1,0-1.2-0.1-1.8c0.6,0.1,1.1,0.1,2,0.1h5.5
			c1,0,1.6,0,2.2-0.1c-0.1,0.5-0.1,1-0.1,2v2.6c0,1,0,1.5,0.1,1.9c-0.5,0-1.1-0.1-1.9-0.1H252.8z M252.2,451.4h7v-1.5h-7V451.4z
			 M252.2,454.1h7v-1.6h-7V454.1z"/>
		<path class="st20" d="M266.3,451.6c0.5,0.1,0.9,0.1,1.7,0.1h4c0.9,0,1.2,0,1.7-0.1v1.4c-0.4-0.1-0.8-0.1-1.5-0.1H268
			c-0.7,0-1.1,0-1.7,0.1V451.6z M267,448.7c0.5,0.1,0.9,0.1,1.6,0.1h2.8c0.7,0,1.1,0,1.6-0.1v1.3c-0.5-0.1-0.9-0.1-1.6-0.1h-2.8
			c-0.7,0-1.1,0-1.6,0.1V448.7z M267,467.1c0.1-0.6,0.1-1.2,0.1-2v-2.8c0-0.7,0-1.2-0.1-1.8c0.5,0.1,1.1,0.1,1.7,0.1h2.8
			c0.9,0,1.2,0,1.5-0.1c0,0.5-0.1,0.9-0.1,1.7v3c0,0.7,0,1.2,0.1,1.7h-1.3V466h-3.4v1.1H267z M267.1,454.7c0.4,0.1,0.8,0.1,1.5,0.1
			h3c0.8,0,1,0,1.5-0.1v1.3c-0.5-0.1-0.8-0.1-1.5-0.1h-3c-0.7,0-1,0-1.5,0.1V454.7z M267.1,457.6c0.4,0.1,0.8,0.1,1.5,0.1h3
			c0.7,0,1.1,0,1.5-0.1v1.3c-0.6-0.1-0.8-0.1-1.5-0.1h-3c-0.7,0-1,0-1.5,0.1V457.6z M268.4,464.9h3.4v-3.2h-3.4V464.9z M283.8,457.8
			c-0.1,0.2-0.1,0.2-0.4,0.8c-0.8,1.6-1.8,3.1-3.1,4.4c1.5,1.2,3,1.9,5.3,2.6c-0.3,0.5-0.5,0.8-0.8,1.3c-2.5-1-3.9-1.7-5.4-3
			c-1.4,1.2-3.1,2.2-5.3,3.1c-0.3-0.5-0.4-0.8-0.8-1.2c2.2-0.7,3.7-1.6,5.2-2.8c-1.4-1.4-2-2.4-3.1-4.8c-0.6,0-0.8,0-1.3,0.1V457
			c0.4,0.1,0.9,0.1,1.5,0.1h5.9c0.9,0,1.3,0,1.6-0.1L283.8,457.8z M277.3,450c-0.1,2.3-0.3,3.4-1,4.6c-0.4,0.8-0.9,1.3-1.7,2
			c-0.4-0.4-0.7-0.7-1.1-0.9c1.1-0.7,1.6-1.4,2.1-2.5c0.3-0.9,0.5-1.8,0.5-3.2c0-0.5,0-0.7-0.1-1.3c0.6,0.1,1.1,0.1,1.6,0.1h2.6
			c0.8,0,1.3,0,1.8-0.1c-0.1,0.6-0.1,1.1-0.1,2v3.3c0,0.4,0.2,0.4,0.9,0.4c0.9,0,1.1-0.1,1.2-0.3c0.2-0.4,0.3-1.1,0.3-2.4
			c0.5,0.3,0.7,0.4,1.2,0.6c-0.1,1.7-0.3,2.5-0.7,2.8c-0.3,0.3-0.8,0.4-2,0.4c-1.7,0-2.1-0.2-2.1-1.2V450H277.3z M276.6,458.3
			c0.8,1.7,1.4,2.6,2.8,3.9c1.2-1.2,1.9-2.2,2.8-3.9H276.6z"/>
		<path class="st20" d="M290.6,458c0-1.1,0-2.1,0.1-3.1c-0.5,1.2-1,2-1.8,3.1c-0.1-0.1-0.1-0.2-0.1-0.3c-0.2-0.4-0.2-0.4-0.7-0.9
			c1.3-1.6,2.4-3.2,3.3-5.4c0.6-1.3,0.9-2.5,1.1-3.5l1.4,0.4c-0.1,0.3-0.1,0.3-0.4,1c-0.5,1.6-0.8,2.2-1.4,3.5v11.6
			c0,1.2,0,2,0.1,2.6h-1.5c0.1-0.8,0.1-1.4,0.1-2.6V458z M295.4,454.7c-1,0-1.4,0-2,0.1v-1.3c0.6,0.1,1.2,0.1,2,0.1h1.9v-2.2h-1.3
			c-1,0-1.4,0-2,0.1v-1.3c0.6,0.1,1.2,0.1,2,0.1h1.3v-0.8c0-0.7,0-1.1-0.1-1.4h1.4c-0.1,0.3-0.1,0.8-0.1,1.4v0.8h3.6v-0.8
			c0-0.7,0-1.1-0.1-1.4h1.4c-0.1,0.4-0.1,0.7-0.1,1.4v0.8h1.3c0.8,0,1.5,0,2-0.1v1.3c-0.6-0.1-1.2-0.1-2-0.1h-1.3v2.2h1.9
			c1,0,1.7,0,2.2-0.1v1.3c-0.6-0.1-1.3-0.1-2.1-0.1h-7.2c-0.3,0.7-0.4,0.8-1,1.8h6.8c1.1,0,1.6,0,2.1-0.1c-0.1,0.5-0.1,1.2-0.1,2.4
			v6.7c0,1.1-0.4,1.4-1.9,1.4c-0.3,0-0.7,0-1.3,0c-0.1-0.5-0.1-0.8-0.3-1.2c0.7,0.1,1.2,0.2,1.7,0.2c0.5,0,0.6-0.1,0.6-0.6v-2.1H301
			v1.3c0,1.1,0,1.7,0.1,2.3h-1.4c0.1-0.6,0.1-1.2,0.1-2.3v-1.3h-3.3v1.6c0,1.2,0,1.6,0.1,2.2h-1.4c0.1-0.5,0.1-1.1,0.1-2.2v-5.9
			c-0.6,0.6-0.9,0.9-2,1.8c-0.4-0.6-0.5-0.7-0.9-1.1c2-1.3,3.4-2.9,4.3-4.8H295.4z M299.9,457.7h-3.3v1.7h3.3V457.7z M299.9,460.4
			h-3.3v1.7h3.3V460.4z M302.1,453.6v-2.2h-3.6v2.2H302.1z M304.7,459.3v-1.7H301v1.7H304.7z M304.7,462.1v-1.7H301v1.7H304.7z"/>
	</g>
	<g>
		<path class="st20" d="M624.3,464.5c0,1.3,0,1.9,0.1,2.6h-1.5c0.1-0.7,0.1-1.4,0.1-2.6v-6.5c0-1.2,0-1.9,0.1-3.1
			c-0.6,1.3-1,2-1.8,3.1c-0.1-0.1-0.1-0.2-0.1-0.3c-0.3-0.4-0.3-0.5-0.7-0.9c1.1-1.4,2-2.9,2.8-4.8c0.7-1.6,1.1-2.9,1.3-4.1l1.4,0.4
			c-0.1,0.3-0.2,0.5-0.4,1.1c-0.5,1.4-0.7,2-1.3,3.3V464.5z M631.7,453.4c-0.7-0.1-0.8-0.1-1.4-0.1H627c-0.7,0-1,0-1.5,0.1V452
			c0.5,0.1,0.8,0.1,1.5,0.1h3.2c0.8,0,1.1,0,1.5-0.1V453.4z M626,462.3c0-0.8,0-1.3-0.1-1.9c0.4,0,0.7,0.1,1.4,0.1h2.5
			c0.8,0,1,0,1.4-0.1c-0.1,0.6-0.1,0.8-0.1,1.8v2.7c0,0.8,0,1.2,0.1,1.8H630V466h-2.9v1.2h-1.2c0.1-0.5,0.1-1,0.1-2V462.3z
			 M626.1,454.8c0.4,0.1,0.7,0.1,1.4,0.1h2.1c0.8,0,1,0,1.4-0.1v1.3c-0.5-0.1-0.8-0.1-1.4-0.1h-2.1c-0.7,0-1,0-1.4,0.1V454.8z
			 M626.1,457.6c0.4,0.1,0.7,0.1,1.4,0.1h2.1c0.7,0,1,0,1.4-0.1v1.3c-0.5-0.1-0.8-0.1-1.4-0.1h-2.1c-0.7,0-1,0-1.4,0.1V457.6z
			 M626.2,449.1c0.5,0.1,0.8,0.1,1.4,0.1h2.2c0.7,0,1,0,1.4-0.1v1.3c-0.4-0.1-0.8-0.1-1.4-0.1h-2.2c-0.6,0-1,0-1.4,0.1V449.1z
			 M627.1,464.9h2.9v-3.3h-2.9V464.9z M633.6,455.8c-0.8,0-1.3,0-1.9,0.1v-1.3c0.6,0.1,1,0.1,1.9,0.1h1v-2.8h-0.6
			c-1,0-1.2,0-1.6,0.1v-1.3c0.5,0.1,0.8,0.1,1.6,0.1h0.6v-0.6c0-0.9,0-1.3-0.1-1.8h1.4c-0.1,0.4-0.1,0.9-0.1,1.8v0.6h0.5
			c0.7,0,1.2,0,1.6-0.1v1.2c-0.4,0-0.9-0.1-1.6-0.1h-0.5v2.8h0.4c0.9-1.2,1.6-2.4,2.1-3.4l0.1-0.3c0.4-0.9,0.5-1.1,0.7-1.7l1.2,0.6
			c-0.1,0.3-0.2,0.3-0.7,1.3c-0.7,1.3-1.3,2.4-2.2,3.5h0.9c1.1,0,1.6,0,2.1-0.1v1.3c-0.6-0.1-1.2-0.1-2.1-0.1h-1.7
			c-0.7,0.8-1,1.2-1.8,2h3c0.8,0,1.2,0,1.6-0.1c-0.1,0.5-0.1,1.1-0.1,2.2v5.3c0,0.8,0,1.2,0.1,1.9h-1.3v-1.1h-3.9v1.1H633
			c0.1-0.7,0.1-1.2,0.1-2.1v-5.6c-0.5,0.4-0.8,0.7-1.4,1.2c-0.3-0.4-0.5-0.7-0.9-0.9c1.7-1.1,3.1-2.3,4.5-3.9H633.6z M634.3,464.9
			h3.9v-2.6h-3.9V464.9z M634.3,461.2h3.9v-2.4h-3.9V461.2z"/>
		<path class="st20" d="M643.8,452.4c0.3,0,0.8,0,0.9,0c0.1,0,0.1,0,0.7,0c0.4-0.5,0.6-0.9,0.9-1.6c0.7-1.4,0.9-1.9,1.2-2.8l1.5,0.4
			c-0.2,0.3-0.3,0.5-0.4,0.8c-0.2,0.5-1.2,2.3-1.7,3.2c2.1-0.1,2.9-0.2,4.4-0.4c-0.6-1-0.7-1.2-1.3-2.1l1-0.5c1,1.4,1.7,2.4,2.7,4.2
			l-1.1,0.7c-0.3-0.7-0.4-0.8-0.7-1.3c-1.6,0.3-4.6,0.6-6.6,0.7c-0.8,0.1-1,0.1-1.2,0.1L643.8,452.4z M645.2,456.7
			c0-0.8,0-1.4-0.1-1.9c0.5,0.1,0.9,0.1,1.7,0.1h3.7c0.9,0,1.4,0,1.9-0.1c0,0.4-0.1,1-0.1,1.4v8.9c0,1.3-0.3,1.6-2.6,1.6
			c-0.1,0-0.4,0-0.7,0c0-0.4-0.2-0.9-0.3-1.3c0.5,0.1,1,0.1,1.6,0.1c0.6,0,0.7-0.1,0.7-0.5v-2.7h-4.6v2.6c0,1,0,1.6,0.1,2.1h-1.5
			c0.1-0.6,0.1-1.1,0.1-2.1V456.7z M646.5,458h4.6v-2h-4.6V458z M646.5,461.2h4.6v-2.1h-4.6V461.2z M655.7,451.5
			c2.1-0.6,4.3-1.7,5.6-2.7l0.9,1.1c-0.3,0.2-0.3,0.2-1.2,0.6c-1.5,0.9-3.1,1.5-5.3,2.2v1.9c0,0.6,0.2,0.7,2.2,0.7
			c1.9,0,2.5,0,2.8-0.2c0.3-0.2,0.4-0.8,0.5-2.6c0.4,0.3,0.8,0.4,1.2,0.5c-0.1,1.8-0.3,2.6-0.7,3c-0.4,0.4-1.2,0.5-3.9,0.5
			c-3,0-3.5-0.2-3.5-1.4v-5c0-0.8,0-1.3-0.1-1.8h1.5c-0.1,0.5-0.1,0.9-0.1,1.8V451.5z M655.7,460.8c2.2-0.5,4.2-1.5,5.6-2.6l1,1.1
			c-0.9,0.5-2.5,1.3-3.3,1.7c-1.2,0.5-1.8,0.7-3.4,1.1v2.5c0,0.4,0.1,0.6,0.7,0.7c0.5,0.1,1,0.1,2,0.1c1.7,0,2.3-0.1,2.6-0.5
			c0.2-0.3,0.4-1.2,0.4-2.7c0.4,0.2,0.8,0.4,1.3,0.5c-0.2,2-0.4,2.8-0.9,3.3c-0.5,0.4-1.2,0.5-3.5,0.5c-2,0-2.6-0.1-3.2-0.3
			c-0.5-0.2-0.7-0.5-0.7-1.2v-5.2c0-1,0-1.4-0.1-1.9h1.5c-0.1,0.4-0.1,0.8-0.1,1.8V460.8z"/>
		<path class="st20" d="M666.3,463.6c0.8-0.1,2-0.4,4.2-1.1c0.8-2.9,1-3.9,1.4-6c0.2-1.3,0.4-2.1,0.4-2.7l1.4,0.4
			c-0.1,0.3-0.1,0.3-0.5,2.4c-0.3,1.7-0.8,3.4-1.4,5.5c0.8-0.3,1.2-0.4,2.4-0.9v1.3c-2.5,0.9-3.7,1.3-6.5,2.2
			c-0.4,0.1-0.7,0.2-1,0.3L666.3,463.6z M669.9,449.9c0-0.6,0-1.1-0.1-1.6h1.5c-0.1,0.4-0.1,0.8-0.1,1.6v1.8h1.8
			c0.7,0,1.1,0,1.4-0.1v1.4c-0.4-0.1-0.9-0.1-1.5-0.1h-4.7c-0.5,0-0.9,0-1.5,0.1v-1.4c0.5,0.1,1,0.1,1.5,0.1h1.7V449.9z
			 M668.7,454.1c0.7,2.7,0.9,4.1,1.3,7l-1.3,0.3c-0.3-2.6-0.6-4.2-1.3-7L668.7,454.1z M682.6,457.7c0.8,0,1.3,0,1.9-0.1
			c-0.1,0.6-0.1,1.3-0.1,2.2v4.4c0,1.1,0,1.9,0.1,2.7h-1.4v-1.2h-6.8v1.2h-1.4c0.1-0.7,0.1-1.5,0.1-2.5v-4.8c0-0.8,0-1.3-0.1-2
			c0.5,0.1,1,0.1,1.7,0.1h2v-7.5c0-0.9,0-1.5-0.1-2.1h1.6c-0.1,0.6-0.1,1.2-0.1,2.1v2h3.6c0.9,0,1.4,0,1.9-0.1v1.4
			c-0.6-0.1-1.1-0.1-1.9-0.1h-3.6v4.3H682.6z M676.2,464.6h6.8v-5.7h-6.8V464.6z"/>
	</g>
	<g>
		<path class="st20" d="M989.4,464.1c0,1.1,0,1.8,0.1,2.3H988c0.1-0.5,0.1-1.2,0.1-2.3v-4h-5.8c-0.3,3.2-0.9,4.9-2.3,6.9
			c-0.5-0.4-0.7-0.6-1.2-0.9c0.9-1.2,1.4-2.1,1.7-3.5c0.5-1.9,0.7-5,0.7-10.2c0-2.1,0-2.5-0.1-3.4c0.6,0.1,1.3,0.1,2.3,0.1h11.3
			c1,0,1.6,0,2.2-0.1c-0.1,0.6-0.1,1.1-0.1,2.1v14.1c0,1.3-0.5,1.6-2.5,1.6c-0.7,0-1.7,0-2.6-0.1c0-0.5-0.1-0.8-0.3-1.4
			c1.2,0.1,2.2,0.2,3,0.2c0.9,0,1.1-0.1,1.1-0.6v-4.7h-6.2V464.1z M982.5,455.2c0,0.6,0,1.1,0,1.4c0,1.3,0,1.4-0.1,2.4h5.7v-3.7
			H982.5z M988.1,450.3h-5.5v2.5l0,1.2h5.5V450.3z M995.5,454v-3.7h-6.2v3.7H995.5z M989.4,458.9h6.2v-3.7h-6.2V458.9z"/>
		<path class="st20" d="M1005.6,449.8c-0.9,0-1.4,0-2.1,0.1v-1.3c0.7,0.1,1.3,0.1,2.1,0.1h10.9c0.9,0,1.5,0,2.1-0.1v1.3
			c-0.7-0.1-1.1-0.1-2-0.1h-5.1v1.3h6.2c1.2,0,1.7,0,2.3-0.1c-0.1,0.5-0.1,0.9-0.1,1.6v1.2c0,0.7,0,1,0.1,1.6h-1.4v-3.3h-7.2v2.5
			c0,1,0,1.5,0.1,2.1h-1.5c0.1-0.5,0.1-1.1,0.1-2.1v-2.5h-6.8v3.3h-1.4c0.1-0.5,0.1-0.9,0.1-1.6v-1.2c0-0.6,0-1.1-0.1-1.6
			c0.6,0.1,1.1,0.1,2.3,0.1h5.8v-1.3H1005.6z M1005.3,463.6v1.2h-1.4c0.1-0.5,0.1-1.1,0.1-1.8v-3.9c0-0.8,0-1.3-0.1-1.9
			c0.5,0.1,1,0.1,1.8,0.1h10.6c0.9,0,1.4,0,1.9-0.1c-0.1,0.5-0.1,1-0.1,1.9v3.1c0,0.7,0,1.1,0.1,1.5c-0.6-0.1-1.1-0.1-1.9-0.1h-4.9
			v1.4c0,0.5,0.4,0.6,3.4,0.6c2.5,0,3.6-0.1,4-0.4c0.3-0.2,0.4-0.8,0.4-2.5c0.5,0.3,0.5,0.3,1.3,0.6c0,1.7-0.3,2.5-0.8,2.9
			c-0.6,0.4-1.8,0.6-5.1,0.6c-3.9,0-4.5-0.2-4.5-1.4v-1.7H1005.3z M1004.6,453.1c0.4,0,0.7,0.1,1.3,0.1h2c0.5,0,0.9,0,1.2-0.1v1
			c-0.4-0.1-0.7-0.1-1.2-0.1h-2c-0.5,0-0.9,0-1.3,0.1V453.1z M1004.6,455.1c0.3,0.1,0.7,0.1,1.3,0.1h2c0.5,0,0.9,0,1.2-0.1v1
			c-0.4-0.1-0.7-0.1-1.2-0.1h-2c-0.6,0-0.9,0-1.3,0.1V455.1z M1005.3,458.4v1.5h4.9v-1.5H1005.3z M1005.3,460.9v1.7h4.9v-1.7H1005.3
			z M1016.9,459.8v-1.5h-5.4v1.5H1016.9z M1016.9,462.6v-1.7h-5.4v1.7H1016.9z M1012.8,453.1c0.3,0.1,0.7,0.1,1.3,0.1h2.3
			c0.5,0,0.9,0,1.2-0.1v1c-0.4-0.1-0.7-0.1-1.2-0.1h-2.3c-0.6,0-0.9,0-1.3,0.1V453.1z M1012.8,455.1c0.3,0.1,0.7,0.1,1.3,0.1h2.3
			c0.5,0,0.9,0,1.2-0.1v1c-0.4-0.1-0.7-0.1-1.2-0.1h-2.3c-0.6,0-0.9,0-1.3,0.1V455.1z"/>
		<path class="st20" d="M1028.9,461.4c-0.9,0-1.6,0-2.1,0.1c0-0.5,0.1-0.9,0.1-2v-3.2c0-1.1,0-1.6-0.1-2c0.5,0.1,0.9,0.1,1.8,0.1
			h10.1c0.9,0,1.4,0,1.9-0.1c0,0.4-0.1,0.9-0.1,2v3.1c0,0.8,0,1.5,0.1,2.1c-0.5-0.1-1.1-0.1-2-0.1h-4.3v1.4h6.6c0.9,0,1.7,0,2.2-0.1
			v1.4c-0.5-0.1-1.4-0.1-2.3-0.1h-6.5v1c0,0.9,0,1.6,0.1,2.1h-1.5c0.1-0.6,0.1-1.2,0.1-2.1v-1h-6.5c-0.9,0-1.5,0-2,0.1v-1.4
			c0.6,0.1,1.1,0.1,2,0.1h6.6v-1.4H1028.9z M1030.9,448.8c0.8,0,1.3,0,1.8-0.1c-0.1,0.5-0.1,1-0.1,1.7v1.3c0,0.8,0,1.1,0,1.5
			c-0.6,0-0.8,0-1.8,0h-3.3c-0.7,0-1.2,0-1.8,0.1c0.1-0.5,0.1-1.1,0.1-1.7v-1.2c0-0.7,0-1.2-0.1-1.7c0.5,0.1,1,0.1,1.8,0.1H1030.9z
			 M1027.2,452.1h4.2v-2.3h-4.2V452.1z M1033,455.4h-4.9v1.8h4.9V455.4z M1033,458.3h-4.9v2h4.9V458.3z M1039.3,457.2v-1.8h-5v1.8
			H1039.3z M1039.3,460.3v-2h-5v2H1039.3z M1041.6,451.6c0,0.6,0,1.1,0.1,1.7c-0.6-0.1-1.1-0.1-1.8-0.1h-3.5c-0.8,0-1.3,0-1.8,0.1
			c0.1-0.5,0.1-0.9,0.1-1.5v-1.3c0-0.7,0-1.2-0.1-1.7c0.6,0.1,1,0.1,1.8,0.1h3.5c0.8,0,1.3,0,1.8-0.1c-0.1,0.5-0.1,1-0.1,1.7V451.6z
			 M1035.9,452.1h4.4v-2.3h-4.4V452.1z"/>
		<path class="st20" d="M1049.2,457.9c0-0.9,0-1.6,0.1-2.6c-0.7,1.3-1.2,2-2.1,3.1c-0.1-0.4-0.5-0.9-0.8-1.2c1.7-1.8,3.1-4,4-6.4
			c0.4-1,0.7-2.1,0.8-2.9l1.5,0.5c-0.1,0.4-0.2,0.5-0.4,1.1c-0.5,1.5-0.9,2.4-1.7,4v11.2c0,1,0,1.7,0.1,2.5h-1.6
			c0.1-0.7,0.1-1.4,0.1-2.5V457.9z M1059.1,464.7c1.2-2.9,2.6-7.8,2.9-10.1l1.6,0.5c-0.2,0.7-0.2,0.7-0.7,2.5
			c-0.6,2.3-1.5,4.9-2.4,7.1h3.3c1,0,1.7,0,2.3-0.1v1.5c-0.7-0.1-1.4-0.1-2.3-0.1h-9.5c-0.9,0-1.6,0-2.3,0.1v-1.5
			c0.6,0.1,1.2,0.1,2.3,0.1H1059.1z M1057.9,449.9c0-0.6,0-1.1-0.1-1.6h1.6c-0.1,0.5-0.1,0.9-0.1,1.6v2.3h3.9c1,0,1.6,0,2.2-0.1v1.4
			c-0.6-0.1-1.3-0.1-2.2-0.1h-8.5c-1.1,0-1.7,0-2.2,0.1V452c0.6,0.1,1.2,0.1,2.2,0.1h3.3V449.9z M1055.9,463.5
			c-0.6-3.4-1.2-5.6-2.2-8.2l1.3-0.5c1,2.8,1.6,4.7,2.3,8.3L1055.9,463.5z"/>
	</g>
	<g>
		<path class="st18" d="M1041.7,247.3c-0.4,0.6-0.7,1-1.4,1.6c-0.4-0.4-0.5-0.5-0.9-0.8c1.4-1.2,2.2-2.4,2.6-3.9l1.3,0.4
			c-0.1,0.1-0.1,0.2-0.2,0.3c-0.2,0.4-0.4,0.8-0.7,1.2h4c0.8,0,1.4,0,2-0.1v1.3c-0.6-0.1-1.1-0.1-1.9-0.1h-1.4
			c-0.1,1.3-0.1,1.3-0.2,2.1h2.1c0.8,0,1.4,0,1.9-0.1v1.3c-0.5-0.1-1.1-0.1-1.9-0.1h-2.5c0,0.1,0,0.1-0.1,0.3c1.1,0.5,2.7,1.4,4,2.3
			l-0.7,1.1c-1.2-1-2-1.5-3.7-2.5c-0.9,1.6-2.2,2.8-4.3,3.8c-0.2-0.4-0.4-0.6-0.9-1c2.3-0.9,3.7-2.2,4.4-4.1h-2.3
			c-0.8,0-1.5,0-2,0.1v-1.3c0.5,0.1,1.1,0.1,1.9,0.1h2.7c0.1-0.8,0.2-0.9,0.2-2.1H1041.7z M1042.1,263.5c0.1-0.5,0.1-1.2,0.1-2.1
			v-4.4c0-1.2,0-1.7-0.1-2.3c0.7,0.1,1.2,0.1,2.3,0.1h8c1,0,1.6,0,2.3-0.1c-0.1,0.7-0.1,1.1-0.1,2.3v4.4c0,1,0,1.6,0.1,2.1h-1.4v-1
			h-9.8v1H1042.1z M1043.5,258h9.8v-2.1h-9.8V258z M1043.5,261.3h9.8v-2.2h-9.8V261.3z M1051.2,253.3c-0.8,0-1.2,0-1.7,0.1
			c0.1-0.6,0.1-0.9,0.1-1.6v-4.2c0-0.7,0-1.1-0.1-1.7c0.5,0.1,0.9,0.1,1.7,0.1h3.7c0.8,0,1.2,0,1.7-0.1c-0.1,0.5-0.1,1-0.1,1.7v4.1
			c0,0.7,0,1.1,0.1,1.6c-0.5-0.1-0.9-0.1-1.7-0.1H1051.2z M1050.8,252.2h4.5v-5.1h-4.5V252.2z"/>
		<path class="st18" d="M1061.5,262c1.4-1.2,2-2.1,2.7-3.7l1.1,0.6c-0.8,1.8-1.4,2.6-2.7,3.9L1061.5,262z M1065.9,245.8
			c0-0.7,0-0.9-0.1-1.3h1.4c-0.1,0.5-0.1,0.9-0.1,1.3h1.5c0.8,0,1.2,0,1.7-0.1v1.2c-0.5-0.1-0.9-0.1-1.7-0.1h-1.5v1.1h1.2
			c0.8,0,1.1,0,1.7-0.1v1.1c-0.5-0.1-0.9-0.1-1.7-0.1h-1.1v1.2c1.4-0.1,1.8-0.1,3-0.2l0,0.9c-1,0.1-1,0.1-3,0.2c0,0.5,0,0.7,0.1,1
			h-1.3c0-0.3,0.1-0.5,0.1-1c-2.5,0.1-3.8,0.2-4,0.2l-0.3-1.2c0.4,0,0.9,0.1,1.3,0.1c0.7,0,0.8,0,2.9-0.1v-1.2h-2
			c-0.8,0-1.2,0-1.7,0.1v-1.1c0.5,0.1,0.8,0.1,1.7,0.1h2v-1.1h-2.3c-0.8,0-1.2,0-1.7,0.1v-1.2c0.5,0.1,1,0.1,1.7,0.1H1065.9z
			 M1076.9,253.4h-12.2c-0.8,0-1.1,0-1.7,0.1v-1.2c0.5,0.1,0.9,0.1,1.7,0.1h11.9c0.8,0,1.2,0,1.6-0.1c0,0.4-0.1,0.8-0.1,1.5v2.3
			c0,0.7,0,1.2,0.1,1.6c-0.5,0-0.8-0.1-1.7-0.1h-12c-0.8,0-1.2,0-1.7,0.1v-1.2c0.5,0.1,0.9,0.1,1.7,0.1h12.4v-1.2h-11.7
			c-0.8,0-1.2,0-1.7,0.1v-1.1c0.5,0.1,0.8,0.1,1.7,0.1h11.7V253.4z M1068.3,258.4c-0.1,0.5-0.1,0.8-0.1,1.4v1.6c0,0.5,0.5,0.6,3,0.6
			c2.4,0,3.2-0.1,3.4-0.5c0.2-0.3,0.3-0.8,0.3-1.8c0.6,0.3,0.7,0.4,1.3,0.5c-0.2,1.5-0.4,2.2-0.8,2.6c-0.5,0.4-1.6,0.5-5.1,0.5
			c-1.8,0-2.7-0.1-3.1-0.4c-0.2-0.2-0.3-0.4-0.3-1v-1.8c0-0.7,0-1-0.1-1.5H1068.3z M1072.2,261c-0.9-1-1.4-1.6-2.6-2.3l0.9-0.7
			c1.2,0.7,1.8,1.2,2.6,2.2L1072.2,261z M1074.5,245.8c0-0.7,0-0.9-0.1-1.3h1.4c-0.1,0.4-0.1,0.9-0.1,1.3h2.4c0.8,0,1.2,0,1.7-0.1
			v1.2c-0.5-0.1-0.9-0.1-1.7-0.1h-2.4v1.2h2c0.8,0,1.2,0,1.7-0.1v1.1c-0.5-0.1-0.9-0.1-1.7-0.1h-2v1.2h2.6c0.9,0,1.3,0,1.8-0.1v1.2
			c-0.5-0.1-1-0.1-1.8-0.1h-2.6c0,0.4,0,0.6,0.1,0.9h-1.3c0-0.3,0.1-0.5,0.1-0.9h-2c-0.9,0-1.2,0-1.8,0.1V250
			c0.5,0.1,0.9,0.1,1.8,0.1h2v-1.2h-1.5c-0.8,0-1.2,0-1.7,0.1v-1.1c0.5,0.1,0.8,0.1,1.7,0.1h1.5v-1.2h-1.8c-0.8,0-1.2,0-1.7,0.1
			v-1.2c0.5,0.1,1,0.1,1.7,0.1H1074.5z M1079.2,262.9c-0.9-1.7-1.6-2.5-2.8-3.8l1-0.6c1.2,1.3,1.9,2.1,2.9,3.6L1079.2,262.9z"/>
		<path class="st18" d="M1087.9,246.2c-0.9,0-1.4,0-2.1,0.1V245c0.7,0.1,1.3,0.1,2.1,0.1h10.9c0.9,0,1.5,0,2.1-0.1v1.3
			c-0.7-0.1-1.1-0.1-2-0.1h-5.1v1.3h6.2c1.2,0,1.7,0,2.3-0.1c-0.1,0.5-0.1,0.9-0.1,1.6v1.2c0,0.7,0,1,0.1,1.6h-1.4v-3.3h-7.2v2.5
			c0,1,0,1.5,0.1,2.1h-1.5c0.1-0.5,0.1-1.1,0.1-2.1v-2.5h-6.8v3.3h-1.4c0.1-0.5,0.1-0.9,0.1-1.6V249c0-0.6,0-1.1-0.1-1.6
			c0.6,0.1,1.1,0.1,2.3,0.1h5.8v-1.3H1087.9z M1087.6,260v1.2h-1.4c0.1-0.5,0.1-1.1,0.1-1.8v-3.9c0-0.8,0-1.3-0.1-1.9
			c0.5,0.1,1,0.1,1.8,0.1h10.6c0.9,0,1.4,0,1.9-0.1c-0.1,0.5-0.1,1-0.1,1.9v3.1c0,0.7,0,1.1,0.1,1.5c-0.6-0.1-1.1-0.1-1.9-0.1h-4.9
			v1.4c0,0.5,0.4,0.6,3.4,0.6c2.5,0,3.6-0.1,4-0.4c0.3-0.2,0.4-0.8,0.4-2.5c0.5,0.3,0.5,0.3,1.3,0.6c0,1.7-0.3,2.5-0.8,2.9
			c-0.6,0.4-1.8,0.6-5.1,0.6c-3.9,0-4.5-0.2-4.5-1.4V260H1087.6z M1086.9,249.5c0.4,0,0.7,0.1,1.3,0.1h2c0.5,0,0.9,0,1.2-0.1v1
			c-0.4-0.1-0.7-0.1-1.2-0.1h-2c-0.5,0-0.9,0-1.3,0.1V249.5z M1086.9,251.5c0.3,0.1,0.7,0.1,1.3,0.1h2c0.5,0,0.9,0,1.2-0.1v1
			c-0.4-0.1-0.7-0.1-1.2-0.1h-2c-0.6,0-0.9,0-1.3,0.1V251.5z M1087.6,254.8v1.5h4.9v-1.5H1087.6z M1087.6,257.3v1.7h4.9v-1.7H1087.6
			z M1099.2,256.3v-1.5h-5.4v1.5H1099.2z M1099.2,259v-1.7h-5.4v1.7H1099.2z M1095.1,249.5c0.3,0.1,0.7,0.1,1.3,0.1h2.3
			c0.5,0,0.9,0,1.2-0.1v1c-0.4-0.1-0.7-0.1-1.2-0.1h-2.3c-0.6,0-0.9,0-1.3,0.1V249.5z M1095.1,251.5c0.3,0.1,0.7,0.1,1.3,0.1h2.3
			c0.5,0,0.9,0,1.2-0.1v1c-0.4-0.1-0.7-0.1-1.2-0.1h-2.3c-0.6,0-0.9,0-1.3,0.1V251.5z"/>
		<path class="st18" d="M1112.3,257.3c-1.7,1.2-2.8,1.8-5,2.8c-0.2-0.4-0.4-0.7-0.8-1.2c3.2-1.1,5.7-2.6,7.6-4.6h-5.1
			c-0.9,0-1.7,0-2.3,0.1V253c0.5,0.1,1.1,0.1,2.3,0.1h6.2v-2h-4.3c-1.2,0-1.7,0-2.1,0.1v-1.3c0.5,0.1,1,0.1,2.1,0.1h4.3v-2h-5.4
			c-1,0-1.7,0-2.2,0.1v-1.4c0.5,0.1,1.2,0.1,2.3,0.1h5.4v-0.5c0-0.9,0-1.3-0.1-1.8h1.5c-0.1,0.6-0.1,1-0.1,1.8v0.5h5.8
			c1.1,0,1.7,0,2.3-0.1v1.4c-0.6-0.1-1.2-0.1-2.3-0.1h-5.8v2h4.7c1.2,0,1.7,0,2.2-0.1v1.3c-0.5-0.1-1-0.1-2.2-0.1h-4.7v2h6.6
			c1.1,0,1.8,0,2.3-0.1v1.4c-0.7-0.1-1.4-0.1-2.3-0.1h-5.9c0.7,1.5,1.2,2.2,2.2,3.4c1.4-1.1,2.4-2.1,3.1-2.9l1.2,0.8
			c-0.1,0.1-0.1,0.1-0.4,0.4c-0.9,0.9-1.9,1.7-3,2.6c1.5,1.4,3.2,2.4,5.6,3.3c-0.4,0.4-0.7,0.8-0.9,1.3c-4.6-2.1-7.2-4.6-9-8.8h-0.2
			c-0.8,0.9-1,1.1-2,2v4.9c1.7-0.4,2.6-0.6,4.7-1.3v1.3c-2.7,0.8-4.7,1.3-7.8,1.9c-0.3,0.1-0.7,0.2-1,0.3l-0.4-1.5
			c0.9,0,1.8-0.1,3.1-0.4V257.3z"/>
	</g>
	<g>
		<path class="st20" d="M431.5,338.7c0.1,0.1,0.2,0.2,0.4,0.5c1.4,1.6,2.4,1.9,7.3,1.9c3,0,5.4-0.1,7.2-0.4
			c-0.3,0.8-0.4,0.9-0.5,1.5c-2,0.1-4.3,0.1-7.2,0.1c-1.3,0-3-0.1-3.9-0.2c-1-0.1-1.7-0.4-2.5-0.9c-0.4-0.3-0.4-0.3-1.1-1.2
			c-0.2-0.2-0.4-0.3-0.6-0.3c-0.5,0-1.7,1.1-2.8,2.6l-0.9-1.1c0.9-1,1.7-1.7,2.2-2.1c0.5-0.4,0.9-0.6,1.1-0.7v-5.3h-1.4
			c-0.7,0-1,0-1.5,0.1v-1.4c0.5,0.1,0.8,0.1,1.6,0.1h1.1c0.7,0,1,0,1.6-0.1c-0.1,0.6-0.1,1.2-0.1,2.1V338.7z M428.8,324.5
			c1.4,1.3,2.1,2.1,3.4,3.7l-1,0.9c-1.2-1.7-1.9-2.5-3.3-3.8L428.8,324.5z M435.5,329.1c-0.8,0-1.4,0-2,0.1v-1.4
			c0.5,0.1,1.2,0.1,2,0.1h4.5c0.8-1.3,1.3-2.4,2-3.9l1.3,0.5c-0.9,1.8-1.3,2.6-1.7,3.2c0,0.1,0,0.1-0.1,0.1h1.9c0.8,0,1.4,0,2-0.1
			v1.4c-0.6-0.1-1.2-0.1-2-0.1h-3.6c0,1.1-0.1,2.3-0.2,3.3h4.4c0.8,0,1.5,0,2-0.1v1.4c-0.5-0.1-1.3-0.1-2.1-0.1h-4.6
			c0,0.1,0,0.1-0.1,0.3c3.2,2.1,4.6,3.1,6.4,4.8l-0.9,1c-1.9-1.9-3-2.9-5.8-4.8c-0.8,2-2.4,3.5-4.9,4.8c-0.3-0.4-0.5-0.8-0.9-1.1
			c2.8-1.3,4.3-2.8,4.9-5h-2.9c-0.8,0-1.5,0-2.1,0.1v-1.4c0.5,0.1,1.3,0.1,2.1,0.1h3.2c0.1-1,0.2-1.8,0.2-3.3H435.5z M436,324
			c0.8,1,1.3,1.8,1.9,3.1l-1.2,0.7c-0.6-1.3-1.1-2.1-1.8-3.1L436,324z"/>
		<path class="st20" d="M453.7,325.8c-0.9,0-1.4,0-2.1,0.1v-1.3c0.7,0.1,1.3,0.1,2.1,0.1h10.9c0.9,0,1.5,0,2.1-0.1v1.3
			c-0.7-0.1-1.1-0.1-2-0.1h-5.1v1.3h6.2c1.2,0,1.7,0,2.3-0.1c-0.1,0.5-0.1,0.9-0.1,1.6v1.2c0,0.7,0,1,0.1,1.6h-1.4v-3.3h-7.2v2.5
			c0,1,0,1.5,0.1,2.1h-1.5c0.1-0.5,0.1-1.1,0.1-2.1v-2.5h-6.8v3.3h-1.4c0.1-0.5,0.1-0.9,0.1-1.6v-1.2c0-0.6,0-1.1-0.1-1.6
			c0.6,0.1,1.1,0.1,2.3,0.1h5.8v-1.3H453.7z M453.4,339.6v1.2H452c0.1-0.5,0.1-1.1,0.1-1.8v-3.9c0-0.8,0-1.3-0.1-1.9
			c0.5,0.1,1,0.1,1.8,0.1h10.6c0.9,0,1.4,0,1.9-0.1c-0.1,0.5-0.1,1-0.1,1.9v3.1c0,0.7,0,1.1,0.1,1.5c-0.6-0.1-1.1-0.1-1.9-0.1h-4.9
			v1.4c0,0.5,0.4,0.6,3.4,0.6c2.5,0,3.6-0.1,4-0.4c0.3-0.2,0.4-0.8,0.4-2.5c0.5,0.3,0.5,0.3,1.3,0.6c0,1.7-0.3,2.5-0.8,2.9
			c-0.6,0.4-1.8,0.6-5.1,0.6c-3.9,0-4.5-0.2-4.5-1.4v-1.7H453.4z M452.7,329.1c0.4,0,0.7,0.1,1.3,0.1h2c0.5,0,0.9,0,1.2-0.1v1
			c-0.4-0.1-0.7-0.1-1.2-0.1h-2c-0.5,0-0.9,0-1.3,0.1V329.1z M452.7,331.1c0.3,0.1,0.7,0.1,1.3,0.1h2c0.5,0,0.9,0,1.2-0.1v1
			c-0.4-0.1-0.7-0.1-1.2-0.1h-2c-0.6,0-0.9,0-1.3,0.1V331.1z M453.4,334.4v1.5h4.9v-1.5H453.4z M453.4,336.9v1.7h4.9v-1.7H453.4z
			 M465,335.9v-1.5h-5.4v1.5H465z M465,338.6v-1.7h-5.4v1.7H465z M460.9,329.1c0.3,0.1,0.7,0.1,1.3,0.1h2.3c0.5,0,0.9,0,1.2-0.1v1
			c-0.4-0.1-0.7-0.1-1.2-0.1h-2.3c-0.6,0-0.9,0-1.3,0.1V329.1z M460.9,331.1c0.3,0.1,0.7,0.1,1.3,0.1h2.3c0.5,0,0.9,0,1.2-0.1v1
			c-0.4-0.1-0.7-0.1-1.2-0.1h-2.3c-0.6,0-0.9,0-1.3,0.1V331.1z"/>
	</g>
	<g>
		<path class="st20" d="M815.4,338.7c0.1,0.1,0.2,0.2,0.4,0.5c1.4,1.6,2.4,1.9,7.3,1.9c3,0,5.4-0.1,7.2-0.4
			c-0.3,0.8-0.4,0.9-0.5,1.5c-2,0.1-4.3,0.1-7.2,0.1c-1.3,0-3-0.1-3.9-0.2c-1-0.1-1.7-0.4-2.5-0.9c-0.4-0.3-0.4-0.3-1.1-1.2
			c-0.2-0.2-0.4-0.3-0.6-0.3c-0.5,0-1.7,1.1-2.8,2.6l-0.9-1.1c0.9-1,1.7-1.7,2.2-2.1c0.5-0.4,0.9-0.6,1.1-0.7v-5.3h-1.4
			c-0.7,0-1,0-1.5,0.1v-1.4c0.5,0.1,0.8,0.1,1.6,0.1h1.1c0.7,0,1,0,1.6-0.1c-0.1,0.6-0.1,1.2-0.1,2.1V338.7z M812.6,324.5
			c1.4,1.3,2.1,2.1,3.4,3.7l-1,0.9c-1.2-1.7-1.9-2.5-3.3-3.8L812.6,324.5z M819.3,329.1c-0.8,0-1.4,0-2,0.1v-1.4
			c0.5,0.1,1.2,0.1,2,0.1h4.5c0.8-1.3,1.3-2.4,2-3.9l1.3,0.5c-0.9,1.8-1.3,2.6-1.7,3.2c0,0.1,0,0.1-0.1,0.1h1.9c0.8,0,1.4,0,2-0.1
			v1.4c-0.6-0.1-1.2-0.1-2-0.1h-3.6c0,1.1-0.1,2.3-0.2,3.3h4.4c0.8,0,1.5,0,2-0.1v1.4c-0.5-0.1-1.3-0.1-2.1-0.1H823
			c0,0.1,0,0.1-0.1,0.3c3.2,2.1,4.6,3.1,6.4,4.8l-0.9,1c-1.9-1.9-3-2.9-5.8-4.8c-0.8,2-2.4,3.5-4.9,4.8c-0.3-0.4-0.5-0.8-0.9-1.1
			c2.8-1.3,4.3-2.8,4.9-5h-2.9c-0.8,0-1.5,0-2.1,0.1v-1.4c0.5,0.1,1.3,0.1,2.1,0.1h3.2c0.1-1,0.2-1.8,0.2-3.3H819.3z M819.9,324
			c0.8,1,1.3,1.8,1.9,3.1l-1.2,0.7c-0.6-1.3-1.1-2.1-1.8-3.1L819.9,324z"/>
		<path class="st20" d="M837.6,325.8c-0.9,0-1.4,0-2.1,0.1v-1.3c0.7,0.1,1.3,0.1,2.1,0.1h10.9c0.9,0,1.5,0,2.1-0.1v1.3
			c-0.7-0.1-1.1-0.1-2-0.1h-5.1v1.3h6.2c1.2,0,1.7,0,2.3-0.1c-0.1,0.5-0.1,0.9-0.1,1.6v1.2c0,0.7,0,1,0.1,1.6h-1.4v-3.3h-7.2v2.5
			c0,1,0,1.5,0.1,2.1h-1.5c0.1-0.5,0.1-1.1,0.1-2.1v-2.5h-6.8v3.3h-1.4c0.1-0.5,0.1-0.9,0.1-1.6v-1.2c0-0.6,0-1.1-0.1-1.6
			c0.6,0.1,1.1,0.1,2.3,0.1h5.8v-1.3H837.6z M837.3,339.6v1.2h-1.4c0.1-0.5,0.1-1.1,0.1-1.8v-3.9c0-0.8,0-1.3-0.1-1.9
			c0.5,0.1,1,0.1,1.8,0.1h10.6c0.9,0,1.4,0,1.9-0.1c-0.1,0.5-0.1,1-0.1,1.9v3.1c0,0.7,0,1.1,0.1,1.5c-0.6-0.1-1.1-0.1-1.9-0.1h-4.9
			v1.4c0,0.5,0.4,0.6,3.4,0.6c2.5,0,3.6-0.1,4-0.4c0.3-0.2,0.4-0.8,0.4-2.5c0.5,0.3,0.5,0.3,1.3,0.6c0,1.7-0.3,2.5-0.8,2.9
			c-0.6,0.4-1.8,0.6-5.1,0.6c-3.9,0-4.5-0.2-4.5-1.4v-1.7H837.3z M836.6,329.1c0.4,0,0.7,0.1,1.3,0.1h2c0.5,0,0.9,0,1.2-0.1v1
			c-0.4-0.1-0.7-0.1-1.2-0.1h-2c-0.5,0-0.9,0-1.3,0.1V329.1z M836.6,331.1c0.3,0.1,0.7,0.1,1.3,0.1h2c0.5,0,0.9,0,1.2-0.1v1
			c-0.4-0.1-0.7-0.1-1.2-0.1h-2c-0.6,0-0.9,0-1.3,0.1V331.1z M837.3,334.4v1.5h4.9v-1.5H837.3z M837.3,336.9v1.7h4.9v-1.7H837.3z
			 M848.8,335.9v-1.5h-5.4v1.5H848.8z M848.8,338.6v-1.7h-5.4v1.7H848.8z M844.8,329.1c0.3,0.1,0.7,0.1,1.3,0.1h2.3
			c0.5,0,0.9,0,1.2-0.1v1c-0.4-0.1-0.7-0.1-1.2-0.1H846c-0.6,0-0.9,0-1.3,0.1V329.1z M844.8,331.1c0.3,0.1,0.7,0.1,1.3,0.1h2.3
			c0.5,0,0.9,0,1.2-0.1v1c-0.4-0.1-0.7-0.1-1.2-0.1H846c-0.6,0-0.9,0-1.3,0.1V331.1z"/>
	</g>
</g>
</svg>
