<?xml version="1.0" encoding="utf-8"?>
<!-- Generator: Adobe Illustrator 22.1.0, SVG Export Plug-In . SVG Version: 6.00 Build 0)  -->
<svg version="1.1" xmlns="http://www.w3.org/2000/svg" xmlns:xlink="http://www.w3.org/1999/xlink" x="0px" y="0px"
	 viewBox="0 0 360 236" style="enable-background:new 0 0 360 236;" xml:space="preserve">
<style type="text/css">
	.st0{fill:#40515E;}
	.st1{fill-rule:evenodd;clip-rule:evenodd;fill:#ED1E79;}
	.st2{fill-rule:evenodd;clip-rule:evenodd;fill:#CBD077;}
	.st3{fill-rule:evenodd;clip-rule:evenodd;fill:#71C3DB;}
	.st4{fill:#CBD077;}
	.st5{fill:#ED1E79;}
	.st6{fill:#71C3DB;}
</style>
<g id="bg">
	<rect class="st0" width="360" height="236"/>
</g>
<g id="Layer_1">
	<path class="st1" d="M137.1,227.5c8.2,7,24.6,0.2,32.1-8.2c4.8-5.3,5.8-8.9,6.7-9.8c-3.3,8.8-3.4,15.9-1.2,18.3
		c3.9,4.2,13.1-1,15.4-5.6c5.1-10.3-5.4,5.2-4.5-13c0-0.1,10.1-19.9,10.5-32.7c0.3-11.4-8.8-17.2-12.1-1.6c-1.9,9-9.2,37-20.1,45.7
		c-5.7,4.5-13.1,3.8-16.5-0.3c-4.1-4.9-1.5-20.4,7.6-32.3c9.5-12.3,32.4-24,32.4-24.2C187.6,132.4,104.4,199.5,137.1,227.5z"/>
	<path class="st2" d="M251.4,54.9c-26.4-2.4-63.9,43.6-44.5,69.4c5.8,7.7,23.5,6.4,30.5,2.3c4.4-2.6,14.6-7.2,17.4-11.3
		c-0.1-0.1-13.1,7-15.1,7.2c-75.7,7.3,26.2-84,6.3-38.2c-5.7,13.2-28.9,8.1-28.4,10.3c0.8,3.9,25.4,12.3,36.2,1.4
		C266.2,83.4,264.6,56.1,251.4,54.9z"/>
	<path class="st1" d="M86.8,2.8C64.2-25.9,46,8.7,36.3,36.2c-8.3,0.8-15.4,2.2-19.2,3.6c0.2,2.6,7.6,1.8,17.6,1.3
		c-3.4,10.4-5.5,19.1-5.9,21.7c-2.6,16-28.7,89.5,10.8,37.7C48.9,88.2,53.8,62,60.7,42c3.2,0.3,49.4,18.1,40,2.6
		c-4.3-7.1-29.2-8.1-37.7-8.9c4.3-10.9,9.6-18.9,17.1-19.8C82.4,15.6,89.9,12.8,86.8,2.8z"/>
	<path class="st2" d="M80.4,87.9c-7.6,31.6,5,46.2,27.8,22.1c6.8-7.2,11.1-19.7,11.2-20.3c2.1-10.1-0.1-4.8-5.2,5.2
		c-11.1,21.8-21.4,20.7-24.1,19.1c-9-5.5,35.9-50.6,25.6-64.8C100.1,27.8,82.5,79.1,80.4,87.9L80.4,87.9z M111.4,38.2
		C107.3,26,111.7,0,133.3,12.6c5.8,3.4-6.1,32.2-18.7,28.9C113.9,41.3,112.6,41.8,111.4,38.2z"/>
	<path class="st3" d="M126.8,43.6c9-2.8,16.9-1.6,17.3,6.1c1.1,17.8,1.8,27.6,0.6,40c0,0,5.2-13.1,14.3-25.1
		c13.6-18,29.3-34,28-12.8c-1,16.7-8.6,48.4-7,60.5c0.8,6,11.1,0.4,15-7c1.3-2.4,6.3-8.3,6.3-8.2c-0.8,8.9-10.8,23.9-19.4,27.3
		c-6.1,2.4-10.1,0.2-13.6-5.2c-9.5-14.5,1.8-43.2,1.3-58.7c-0.3-8.3-24.4,28.4-25.6,41.8c-0.8,8.8-3.6,29.1-8.1,30.9
		c-4.3,1.8-4.8-1.9-6.4-6.3C121.9,106.5,124.2,44.3,126.8,43.6z"/>
	<path class="st3" d="M229,176.3c13.9,1.9,38.6-41.8,36-1.1c-0.4,6.5-39,52.9-18.6,53.8c5.7,0.3,29.2-40,18.2-14.8
		c-8.6,19.9-27.5,33-38.2,12.5c-5.9-11.2,15.2-52.3,15.1-52.2c-7.7,9-17.8,15.5-32.1,2.9c-18.3-16.1,1.7-41.5,11.1-39.8
		C230.1,139.4,216.5,174.5,229,176.3z"/>
	<path class="st1" d="M305.2,128.9c22.2-8,10,18.2-1.2,45.2c3.2-0.5,6.2-1.4,8.4-2.8c29.3-18.1,35.4,0.4,22.7,6.7
		c-4.3,2.2-18.9,4.4-34.4,4.2c-7.9,19.7-13.4,38.1-2.3,41.7c8.1,2.7,14.7,1.6,24.7-10c3.5-4.1,11.4-13.7,11.4-13.5
		c-1,11-12.8,36.1-27.7,36.5c-18.7,0.5-31.2-16.2-29.4-35.3c0.4-4.7,1.5-12.5,3.2-21.4c-13.2-2.7-23.9-7.9-27.4-10
		c0.8-3.2,13.5,2,27.6,3.7c0.3,0,0.7,0.1,1.1,0.1C286,154.5,293.5,132.6,305.2,128.9z"/>
</g>
</svg>
