<?xml version="1.0" encoding="utf-8"?>
<!-- Generator: Adobe Illustrator 22.1.0, SVG Export Plug-In . SVG Version: 6.00 Build 0)  -->
<svg version="1.1" xmlns="http://www.w3.org/2000/svg" xmlns:xlink="http://www.w3.org/1999/xlink" x="0px" y="0px"
	 viewBox="0 0 360 236" style="enable-background:new 0 0 360 236;" xml:space="preserve">
<style type="text/css">
	.st0{fill:#40515E;}
	.st1{fill-rule:evenodd;clip-rule:evenodd;fill:#ED1E79;}
	.st2{fill-rule:evenodd;clip-rule:evenodd;fill:#CBD077;}
	.st3{fill-rule:evenodd;clip-rule:evenodd;fill:#71C3DB;}
	.st4{fill:#CBD077;}
	.st5{fill:#ED1E79;}
	.st6{fill:#71C3DB;}
</style>
<g id="bg">
	<rect class="st0" width="360" height="236"/>
</g>
<g id="Layer_1">
	<path class="st4" d="M58.4,55.7l-8,7.9c-5.1-5.3-10.9-8-17.7-8c-5.9,0-10.8,1.9-14.7,5.8c-4,3.9-5.9,8.6-5.9,14.2
		c0,5.8,2.1,10.6,6.2,14.6c4.1,4,9.2,6,15.2,6c3.9,0,7.2-0.8,9.9-2.5c2.7-1.6,4.9-4.2,6.5-7.7H32.6V75.4h30l0.1,2.5
		c0,5.2-1.4,10.2-4,14.8c-2.7,4.7-6.2,8.2-10.5,10.7c-4.3,2.5-9.3,3.7-15.1,3.7c-6.2,0-11.7-1.3-16.5-4S7.7,96.5,4.9,91.6
		c-2.8-5-4.2-10.3-4.2-16.1c0-7.9,2.6-14.7,7.8-20.6c6.2-6.9,14.2-10.4,24.1-10.4c5.2,0,10,1,14.5,2.9C51,49,54.7,51.8,58.4,55.7z"
		/>
	<path class="st4" d="M69.2,61.5h9.5v5.5c1-2.2,2.4-3.8,4.1-5c1.7-1.1,3.6-1.7,5.6-1.7c1.4,0,2.9,0.4,4.5,1.1L89.4,71
		c-1.3-0.6-2.4-1-3.2-1c-1.7,0-3.1,1.1-4.3,3.2c-1.2,2.1-1.8,6.2-1.8,12.4l0,2.1v17.8h-11V61.5z"/>
	<path class="st4" d="M130.8,61.5h11.1v44.1h-11.1v-4.7c-2.2,2.1-4.3,3.5-6.5,4.4c-2.2,0.9-4.5,1.4-7.1,1.4
		c-5.7,0-10.6-2.2-14.8-6.6c-4.2-4.4-6.2-9.9-6.2-16.5c0-6.8,2-12.4,6-16.7c4-4.3,8.9-6.5,14.6-6.5c2.6,0,5.1,0.5,7.4,1.5
		c2.3,1,4.5,2.5,6.4,4.5V61.5z M119.2,70.6c-3.4,0-6.3,1.2-8.5,3.6c-2.3,2.4-3.4,5.5-3.4,9.3c0,3.8,1.1,6.9,3.5,9.4
		c2.3,2.5,5.1,3.7,8.5,3.7c3.5,0,6.3-1.2,8.6-3.6c2.3-2.4,3.4-5.6,3.4-9.5c0-3.8-1.1-6.9-3.4-9.3C125.6,71.8,122.7,70.6,119.2,70.6z
		"/>
	<path class="st4" d="M164.1,61.5v4.9c2-2,4.2-3.5,6.5-4.5c2.3-1,4.8-1.5,7.5-1.5c5.8,0,10.6,2.2,14.7,6.5s6,9.9,6,16.7
		c0,6.6-2.1,12-6.2,16.5c-4.2,4.4-9.1,6.6-14.8,6.6c-2.5,0-4.9-0.5-7.1-1.4s-4.4-2.4-6.5-4.4v20.8h-11V61.5H164.1z M175.7,70.6
		c-3.5,0-6.4,1.2-8.7,3.6c-2.3,2.4-3.4,5.5-3.4,9.3c0,3.9,1.1,7.1,3.4,9.5c2.3,2.4,5.2,3.6,8.7,3.6c3.4,0,6.2-1.2,8.5-3.7
		c2.3-2.5,3.5-5.6,3.5-9.4c0-3.8-1.1-6.9-3.4-9.3C182,71.8,179.1,70.6,175.7,70.6z"/>
	<path class="st4" d="M207.9,44.5h11V66c2.2-1.9,4.3-3.3,6.5-4.2c2.2-0.9,4.4-1.4,6.6-1.4c4.4,0,8.1,1.5,11.1,4.5
		c2.6,2.6,3.8,6.5,3.8,11.5v29.1H236V86.3c0-5.1-0.2-8.6-0.7-10.4s-1.3-3.2-2.5-4c-1.2-0.9-2.6-1.3-4.4-1.3c-2.2,0-4.2,0.7-5.8,2.2
		c-1.6,1.5-2.7,3.5-3.3,6.1c-0.3,1.3-0.5,4.3-0.5,9.1v17.7h-11V44.5z"/>
	<path class="st5" d="M261.9,43.4c1.9,0,3.6,0.7,5,2.1c1.4,1.4,2.1,3.1,2.1,5.1c0,2-0.7,3.7-2.1,5c-1.4,1.4-3,2.1-4.9,2.1
		c-2,0-3.6-0.7-5-2.1c-1.4-1.4-2.1-3.1-2.1-5.2c0-1.9,0.7-3.6,2.1-5S260,43.4,261.9,43.4z M256.4,61.5h11.1v44.1h-11.1V61.5z"/>
	<path class="st4" d="M320.6,70.4l-9.2,5.1c-1.7-1.8-3.4-3.1-5.1-3.8c-1.7-0.7-3.7-1.1-5.9-1.1c-4.1,0-7.5,1.2-10,3.7
		c-2.6,2.5-3.8,5.6-3.8,9.5c0,3.7,1.2,6.8,3.7,9.2c2.5,2.4,5.7,3.6,9.7,3.6c4.9,0,8.8-1.7,11.6-5.1l8.7,6c-4.7,6.1-11.4,9.2-20,9.2
		c-7.7,0-13.8-2.3-18.2-6.9c-4.4-4.6-6.6-10-6.6-16.1c0-4.3,1.1-8.2,3.2-11.8c2.1-3.6,5.1-6.4,8.9-8.5c3.8-2.1,8.1-3.1,12.8-3.1
		c4.4,0,8.3,0.9,11.8,2.6C315.5,64.8,318.4,67.2,320.6,70.4z"/>
	<path class="st6" d="M102.5,180.2v-59.6h12.4c8.9,0,15.4,0.7,19.4,2.1c5.8,2,10.3,5.5,13.5,10.5c3.3,5,4.9,10.9,4.9,17.9
		c0,6-1.3,11.2-3.9,15.8c-2.6,4.5-5.9,7.9-10,10c-4.1,2.2-9.9,3.2-17.3,3.2H102.5z M108.2,174.6h6.9c8.2,0,13.9-0.5,17.1-1.5
		c4.5-1.5,8-4.1,10.6-7.9c2.6-3.8,3.8-8.4,3.8-13.9c0-5.7-1.4-10.7-4.2-14.7c-2.8-4.1-6.7-6.9-11.6-8.4c-3.7-1.1-9.9-1.7-18.4-1.7
		h-4.2V174.6z"/>
	<path class="st6" d="M200.3,165.6l4.8,2.5c-1.6,3.1-3.4,5.6-5.4,7.5c-2.1,1.9-4.4,3.3-6.9,4.3c-2.6,1-5.5,1.5-8.7,1.5
		c-7.2,0-12.8-2.4-16.9-7.1c-4.1-4.7-6.1-10-6.1-16c0-5.6,1.7-10.6,5.1-14.9c4.4-5.6,10.2-8.3,17.5-8.3c7.5,0,13.5,2.8,18,8.5
		c3.2,4,4.8,9,4.9,15.1h-39.6c0.1,5.1,1.7,9.3,4.9,12.6c3.2,3.3,7.1,4.9,11.7,4.9c2.2,0,4.4-0.4,6.5-1.2s3.9-1.8,5.4-3.1
		C197,170.5,198.6,168.5,200.3,165.6z M200.3,153.7c-0.8-3-1.9-5.4-3.3-7.2s-3.4-3.3-5.7-4.4c-2.4-1.1-4.9-1.7-7.5-1.7
		c-4.3,0-8,1.4-11.2,4.2c-2.3,2-4,5.1-5.1,9.1H200.3z"/>
	<path class="st6" d="M239.3,141l-3.6,3.8c-3-2.9-6-4.4-8.9-4.4c-1.8,0-3.4,0.6-4.7,1.8s-2,2.6-2,4.3c0,1.4,0.5,2.8,1.6,4.1
		c1.1,1.3,3.4,2.9,6.8,4.7c4.2,2.2,7.1,4.3,8.6,6.3c1.5,2.1,2.2,4.4,2.2,6.9c0,3.6-1.3,6.7-3.8,9.2s-5.7,3.8-9.5,3.8
		c-2.5,0-5-0.6-7.3-1.7c-2.3-1.1-4.2-2.6-5.7-4.6l3.6-4c2.9,3.3,6,4.9,9.2,4.9c2.3,0,4.2-0.7,5.8-2.2c1.6-1.5,2.4-3.2,2.4-5.1
		c0-1.6-0.5-3.1-1.6-4.3c-1.1-1.2-3.4-2.8-7.1-4.7c-4-2.1-6.7-4.1-8.1-6.1c-1.4-2-2.2-4.3-2.2-6.8c0-3.3,1.1-6.1,3.4-8.3
		c2.3-2.2,5.2-3.3,8.7-3.3C231.1,135,235.2,137,239.3,141z"/>
	<path class="st5" d="M251.3,118c1.3,0,2.4,0.5,3.3,1.4c0.9,0.9,1.4,2,1.4,3.3c0,1.3-0.5,2.4-1.4,3.3c-0.9,0.9-2,1.4-3.3,1.4
		c-1.3,0-2.4-0.5-3.3-1.4c-0.9-0.9-1.4-2-1.4-3.3c0-1.3,0.5-2.4,1.4-3.3C248.9,118.5,250,118,251.3,118z M248.5,136.1h5.7v44.1h-5.7
		V136.1z"/>
	<path class="st6" d="M303.9,136.1h5.7v35.1c0,6.2-0.5,10.7-1.6,13.6c-1.5,4-4.1,7.2-7.7,9.4c-3.7,2.2-8.1,3.3-13.2,3.3
		c-3.8,0-7.2-0.5-10.2-1.6c-3-1.1-5.5-2.5-7.3-4.3c-1.9-1.8-3.6-4.4-5.2-7.9h6.2c1.7,2.9,3.8,5.1,6.5,6.5c2.6,1.4,5.9,2.1,9.9,2.1
		c3.9,0,7.1-0.7,9.8-2.2c2.7-1.4,4.6-3.3,5.7-5.4c1.1-2.2,1.7-5.7,1.7-10.6v-2.3c-2.1,2.7-4.7,4.8-7.8,6.2c-3.1,1.4-6.4,2.2-9.8,2.2
		c-4.1,0-7.9-1-11.4-3c-3.6-2-6.3-4.7-8.3-8.1c-1.9-3.4-2.9-7.1-2.9-11.2c0-4.1,1-7.9,3-11.4s4.8-6.3,8.4-8.4
		c3.6-2.1,7.4-3.1,11.3-3.1c3.3,0,6.4,0.7,9.2,2s5.6,3.6,8.2,6.7V136.1z M287.2,140.5c-3.2,0-6.2,0.8-9,2.3
		c-2.8,1.6-4.9,3.7-6.5,6.4s-2.3,5.7-2.3,8.9c0,4.8,1.6,8.8,4.9,12c3.2,3.2,7.4,4.7,12.6,4.7c5.2,0,9.4-1.6,12.6-4.7
		c3.2-3.1,4.8-7.2,4.8-12.4c0-3.3-0.7-6.3-2.2-8.9s-3.5-4.7-6.2-6.2S290.3,140.5,287.2,140.5z"/>
	<path class="st6" d="M321.7,136.1h5.7v7.9c2.3-3,4.8-5.3,7.5-6.8s5.8-2.2,9-2.2c3.3,0,6.2,0.8,8.8,2.5c2.6,1.7,4.4,3.9,5.6,6.8
		c1.2,2.8,1.8,7.2,1.8,13.2v22.7h-5.7v-21c0-5.1-0.2-8.5-0.6-10.2c-0.7-2.9-1.9-5.1-3.8-6.6c-1.9-1.5-4.3-2.2-7.3-2.2
		c-3.4,0-6.5,1.1-9.2,3.4s-4.5,5.1-5.4,8.4c-0.5,2.2-0.8,6.2-0.8,12v16.2h-5.7V136.1z"/>
</g>
</svg>
