<?xml version="1.0" encoding="utf-8"?>
<!-- Generator: Adobe Illustrator 23.0.6, SVG Export Plug-In . SVG Version: 6.00 Build 0)  -->
<svg version="1.1" id="artwork" xmlns="http://www.w3.org/2000/svg" xmlns:xlink="http://www.w3.org/1999/xlink" x="0px" y="0px"
	 viewBox="0 0 251.42 249.45" style="enable-background:new 0 0 251.42 249.45;" xml:space="preserve">
<style type="text/css">
	.st0{fill:#FFAD00;}
	.st1{fill-rule:evenodd;clip-rule:evenodd;fill:url(#SVGID_1_);}
	.st2{fill:none;stroke:#1F9BD7;stroke-width:6;stroke-linecap:round;stroke-linejoin:round;stroke-miterlimit:10;}
	.st3{fill:none;stroke:#1F9BD7;stroke-width:1.5;stroke-linecap:round;stroke-linejoin:round;stroke-miterlimit:10;}
</style>
<g>
	<g>
		<path class="st0" d="M51.66,178.42c-3.28-2.11-7.37-3.85-11.24-2.35c-2.7,1.05-4.4,3.83-4.7,6.62c-0.33,2.97,0.94,5.82,3.25,7.67
			c3.34,2.69,8.22,2.23,12.07,1.16c1.03-0.29,1.67-2.66,0.37-2.29c-5.38,1.5-13.62,0.9-13.76-6.38c-0.04-2.14,1.18-3.96,3.15-4.73
			c3.19-1.23,6.96,0.75,9.57,2.42C51.35,181.17,52.66,179.05,51.66,178.42z"/>
		<path class="st0" d="M57.42,182.73c-1.39-0.21-3.85-0.64-4.88,0.69c-0.81,1.05-0.3,2.2,0.52,3.05c0.8,0.82,1.89,1.54,3.04,1.74
			c1.39,0.23,2.26-0.85,2.32-2.15c0.05-1.02-0.4-2.1-0.8-3.02c-0.35-0.82-1.46,0.24-1.18,0.87c0.34,0.78,0.68,1.61,0.73,2.47
			c0.02,0.25-0.02,0.35-0.05,0.44l0.01-0.07l-0.32,0.03c-0.24-0.02-0.47-0.08-0.69-0.15c-0.43-0.14-0.96-0.46-1.38-0.76
			c-0.41-0.3-0.75-0.61-1.06-1.03c-0.15-0.2-0.2-0.3-0.26-0.45c-0.02-0.05-0.08-0.33-0.06-0.16c-0.04-0.22-0.03,0.04,0-0.12
			c-0.02,0.11-0.15,0.22-0.03,0.14c-0.01,0,0.06-0.04,0.22-0.09c0.08-0.03,0.21-0.06,0.35-0.08c0.98-0.17,2.01-0.03,2.98,0.12
			C57.58,184.28,58.21,182.84,57.42,182.73z"/>
		<path class="st0" d="M59.91,182.5c0.23,1.51,0.45,3.02,0.68,4.53c0.15,0.96,1.35,0.16,1.25-0.54c-0.23-1.51-0.45-3.02-0.68-4.53
			C61.01,180.99,59.8,181.79,59.91,182.5z"/>
		<path class="st0" d="M61.25,184.14c-0.09,0.15,0.15-0.11,0.23-0.16c0.26-0.2,0.54-0.37,0.82-0.54c0.51-0.3,1.07-0.61,1.64-0.78
			c0.38-0.11,0.67-0.41,0.73-0.82c0.05-0.28-0.12-0.74-0.5-0.64c-0.81,0.24-1.55,0.63-2.27,1.06c-0.56,0.33-1.24,0.72-1.59,1.3
			C59.8,184.4,60.74,184.98,61.25,184.14z"/>
		<path class="st0" d="M66.13,181.97c0.68,2.98,1.26,5.98,1.83,8.99c0.16,0.84,1.31-0.21,1.18-0.87c-0.57-3-1.15-6.01-1.83-8.99
			C67.12,180.26,65.97,181.31,66.13,181.97z"/>
		<path class="st0" d="M67.38,183.19c0.7-0.3,2.76-1.08,3.22,0.03c0.41,0.98-1.86,1.84-2.43,2.05c-0.67,0.24-0.83,1.69,0.08,1.36
			c1.58-0.57,4.08-2.05,3.58-4.11c-0.48-1.98-3.29-1.21-4.54-0.68C66.65,182.11,66.49,183.57,67.38,183.19z"/>
		<path class="st0" d="M79.66,180.57c-1.43-0.07-3.01-0.02-4.11,1.02c-0.68,0.64-0.83,1.72-0.29,2.49c0.51,0.72,1.49,0.89,2.28,0.62
			c1.33-0.45,2.11-1.86,2.56-3.09c0.36-0.98-0.83-1.01-1.13-0.2c-0.37,1.02-1.53,2.76-2.59,1.62c-0.14-0.15-0.2-0.31-0.21-0.39
			l0.03-0.1c0.72-0.62,2.03-0.55,2.9-0.51C79.82,182.05,80.43,180.6,79.66,180.57z"/>
		<path class="st0" d="M82.72,179.35c0.57,1.64,0.93,3.29,0.99,5.03c0.03,0.97,1.27,0.16,1.25-0.54c-0.06-1.84-0.44-3.62-1.05-5.35
			C83.61,177.65,82.49,178.7,82.72,179.35z"/>
		<path class="st0" d="M84.26,181.07c0.99-1.05,2.16-1.73,3.63-1.77c0.69-0.02,1.13-1.48,0.23-1.45c-1.81,0.05-3.34,1.02-4.55,2.31
			C82.98,180.79,83.55,181.82,84.26,181.07z"/>
		<path class="st0" d="M91.63,179.21c0.91-0.87,2.19-1.78,3.45-1.08c1.22,0.68,1.42,2.49,1.47,3.73c0.03,0.97,1.27,0.16,1.25-0.54
			c-0.06-1.69-0.45-3.72-2.06-4.62c-1.7-0.95-3.63,0.47-4.8,1.6C90.3,178.91,90.88,179.93,91.63,179.21z"/>
		<path class="st0" d="M96.4,178.59c-0.93,0.23-1.96,0.17-2.84,0.59c-1.17,0.56-1.53,1.9-1.62,3.09c-0.02,0.29,0.04,0.54,0.34,0.63
			c0.69,0.22,1.31,0.24,1.98-0.05c0.6-0.26,1.06-0.72,1.69-0.94c0.67-0.24,0.83-1.68-0.08-1.36c-0.51,0.18-0.95,0.46-1.39,0.76
			c-0.55,0.37-1.03,0.33-1.64,0.14c0.11,0.21,0.23,0.42,0.34,0.63c0.05-0.67,0.05-1.48,0.81-1.68c0.71-0.19,1.46-0.18,2.18-0.36
			C96.83,179.88,97.24,178.38,96.4,178.59z"/>
		<path class="st0" d="M98.55,170.47c0.82,3.74,0.92,7.55,1.05,11.36c0.01,0.23,0.14,0.39,0.35,0.45c0.96,0.28,1.2-0.16,2.11-0.43
			c0.68-0.2,0.85-1.64-0.08-1.36c-0.94,0.28-1.15,0.16-1.19-0.97c-0.04-1.19-0.09-2.37-0.16-3.56c-0.13-2.15-0.43-4.27-0.89-6.37
			C99.55,168.76,98.41,169.81,98.55,170.47z"/>
		<path class="st0" d="M96.36,174.77c1.67-0.25,3.35-0.5,5.02-0.76c0.68-0.1,1.1-1.58,0.23-1.45c-1.67,0.25-3.35,0.5-5.02,0.76
			C95.91,173.42,95.49,174.9,96.36,174.77z"/>
		<path class="st0" d="M104.71,178.53c1.5,0.03,2.95-0.4,4.44-0.46c0.58-0.03,0.88-0.85,0.64-1.3c-0.69-1.31-1.82-2.55-3.43-2.36
			c-1.27,0.14-2.25,1.23-2.73,2.35c-0.49,1.14-0.32,2.53,0.65,3.35c1.55,1.32,4.08,0.97,5.91,0.62c0.67-0.13,1.09-1.62,0.23-1.45
			c-1.42,0.27-6.77,0.79-5.7-2.23c0.21-0.61,0.78-1.11,1.5-1.19c1.2-0.14,2.05,1.17,2.53,2.07c0.21-0.43,0.43-0.87,0.64-1.3
			c-1.39,0.06-2.74,0.49-4.13,0.47C104.55,177.07,103.94,178.52,104.71,178.53z"/>
	</g>
	<g>
		<path class="st0" d="M76.36,196.83c-2.75-0.38-9.57-2.24-11.62,0.75c-1.6,2.34,2.44,4.76,3.88,5.86c2.53,1.92,6.1,3.94,7.6,6.86
			c1.58,3.07-8.99,3.23-10.6,3.31c-1.2,0.06-1.95,2.6-0.41,2.52c3.61-0.18,11.03-0.01,13.03-4.02c1.44-2.89-1.23-5.38-3.22-7.13
			c-2.49-2.19-5.48-3.87-7.81-6.24c-0.27-0.28-0.56-0.58-0.66-0.9c0.37,1.09-1.22,1.08,0.36,0.88c2.77-0.35,5.77,0.25,8.51,0.62
			C76.64,199.52,77.73,197.02,76.36,196.83z"/>
		<path class="st0" d="M86.53,204.94c-1.49-0.64-3.79-1.63-5.31-0.54c-1.11,0.8-1.03,2.28-0.45,3.37c0.53,0.98,1.54,1.9,2.7,1.97
			c1.77,0.11,2.85-1.61,3.39-3.06c0.1-0.27,0.18-0.55,0.26-0.82c0.28-0.99-0.89-1.05-1.13-0.2c-0.2,0.73-0.49,1.55-0.94,2.09
			c-0.29,0.34-0.56,0.5-1.02,0.54c-0.77,0.06-1.57-0.64-2.03-1.32c-0.21-0.3-0.39-0.77-0.42-1.03c-0.01-0.04-0.01-0.33-0.02-0.15
			c0-0.06,0.06-0.33,0-0.12c0.06-0.22,0-0.04,0.03-0.09h0.01c0.08-0.06,0.19-0.11,0.37-0.14c0.29-0.06,0.59-0.04,0.89-0.01
			c0.98,0.11,1.93,0.47,2.83,0.86C86.4,206.58,87.19,205.23,86.53,204.94z"/>
		<path class="st0" d="M92.03,202.53c-1.82,0.01-4.13,1.18-3.64,3.35c0.17,0.78,0.94,1.22,1.66,1.37c1.23,0.26,2.58-0.27,3.66-0.82
			c0.35-0.18,0.61-0.55,0.58-0.95c-0.02-0.34-0.34-0.57-0.67-0.41c-0.86,0.44-3.3,1.51-3.98,0.15c-0.19-0.38-0.08-0.5,0.14-0.72
			c0.47-0.48,1.39-0.51,2.01-0.52C92.49,203.98,92.92,202.53,92.03,202.53z"/>
		<path class="st0" d="M95.44,203.6c0.7,1.54,1.2,3.24,1.47,4.91c0.16,0.96,1.36,0.16,1.25-0.54c-0.29-1.78-0.79-3.59-1.53-5.23
			C96.26,201.92,95.15,202.97,95.44,203.6z"/>
		<path class="st0" d="M95.05,200.75c-0.12,0.11-0.23,0.23-0.35,0.34c0.7,0.04,1.32-1.41,0.54-1.45c-0.68-0.04-1.07,0.3-1.32,0.91
			C93.52,201.51,94.72,201.54,95.05,200.75z"/>
		<path class="st0" d="M99.68,203.76c1.19-1.28,2.73-2.05,4.36-1.1c1.55,0.9,1.95,2.96,1.9,4.6c-0.03,0.96,1.23,0.15,1.25-0.54
			c0.06-2.14-0.62-4.4-2.57-5.54c-2.02-1.18-4.25,0.18-5.63,1.67C98.4,203.49,98.97,204.52,99.68,203.76z"/>
		<path class="st0" d="M105.59,203.59c-1.22-0.16-2.61-0.22-3.71,0.43c-0.7,0.41-1.18,1.23-0.95,2.05c0.21,0.72,1.07,1,1.74,1.02
			c1.36,0.04,2.64-0.68,3.69-1.47c0.61-0.46,0.43-1.79-0.4-1.18c-0.79,0.59-2.86,1.88-3.77,0.87c-0.14-0.15-0.05-0.17-0.1-0.04v0.03
			l0.2-0.11c0.82-0.39,1.89-0.27,2.75-0.16C105.75,205.13,106.38,203.69,105.59,203.59z"/>
		<path class="st0" d="M107.71,195.72c0.88,3.93,1.44,7.92,2.42,11.82c0.21,0.84,1.35-0.21,1.19-0.87
			c-0.97-3.91-1.54-7.9-2.42-11.82C108.71,194.01,107.56,195.05,107.71,195.72z"/>
	</g>
	<g>
		<path class="st0" d="M123.23,188.98c-0.33,6.04-0.16,12.03,0.61,18.04c0.2,1.53,2.12,0.26,1.97-0.86
			c-0.75-5.8-0.96-11.62-0.64-17.46C125.26,187.06,123.3,187.75,123.23,188.98z"/>
		<path class="st0" d="M120.24,190.6c3.62-1.45,7.14-2.07,11.03-1.78c1.98,0.15,5.13,0.24,5.86,2.19c0.29-0.59,0.58-1.18,0.87-1.76
			c-4.43,2.36-7.71,6.08-12.63,7.59c-0.84,0.26-1.39,1.88-0.36,2.22c4.25,1.43,7.45,4.65,11.56,6.35c1.1,0.45,2.35-1.7,1.3-2.13
			c-4.26-1.76-7.59-5.03-12-6.51c-0.12,0.74-0.24,1.48-0.36,2.22c4.95-1.52,8.17-5.22,12.63-7.59c0.58-0.31,1.13-1.07,0.87-1.76
			c-1.06-2.83-4.06-2.75-6.87-3.11c-4.11-0.52-8.22,0.41-12.02,1.93C119.07,188.87,118.81,191.18,120.24,190.6z"/>
		<path class="st0" d="M138.81,196.48c1.6-0.32,3.23-0.43,4.84-0.62c0.46-0.06,1.03-0.88,0.64-1.3c-1.06-1.12-2.34-2.12-3.95-2.1
			c-1.15,0.02-2.12,0.9-2.52,1.93c-0.42,1.06-0.11,2.26,0.7,3.04c1.28,1.23,3.27,1.31,4.94,1.19c0.69-0.05,1.12-1.52,0.23-1.45
			c-1.45,0.1-5.21-0.12-4.78-2.48c0.09-0.52,0.67-0.73,1.19-0.77c1.21-0.08,2.38,0.98,3.14,1.79c0.21-0.43,0.43-0.87,0.64-1.3
			c-1.62,0.2-3.24,0.3-4.84,0.62C138.37,195.16,137.95,196.65,138.81,196.48z"/>
		<path class="st0" d="M152.03,190.75c-1.08,0.11-2.18-0.02-3.25,0.16c-1.18,0.2-2.1,1.07-2.86,1.93c-0.32,0.36-0.47,1.21,0.23,1.18
			c2.52-0.09,4.79,1.23,7.27,1.37c0.02-0.44,0.05-0.88,0.07-1.31c-2.09,1.59-4.41,1.8-6.94,1.89c-0.69,0.03-1.13,1.48-0.23,1.45
			c2.8-0.1,5.29-0.44,7.58-2.17c0.28-0.21,0.77-1.28,0.07-1.31c-2.59-0.14-4.94-1.46-7.58-1.37c0.07,0.39,0.15,0.79,0.23,1.18
			c1.56-1.78,3.09-1.34,5.19-1.55C152.48,192.13,152.91,190.66,152.03,190.75z"/>
		<path class="st0" d="M153.47,191.63c0.84,3.43,1.55,6.88,2.15,10.36c0.16,0.96,1.37,0.16,1.25-0.54
			c-0.62-3.59-1.34-7.15-2.21-10.69C154.45,189.92,153.31,190.97,153.47,191.63z"/>
		<path class="st0" d="M154.98,192.31c0.86-0.33,1.7-0.74,2.57-1.05c1.16-0.41,2.29-0.05,3.34,0.49c-0.02-0.32-0.04-0.64-0.06-0.96
			c-1.29,1.84-3.22,2.46-5.27,3.08c-0.68,0.21-0.85,1.64,0.08,1.36c2.52-0.76,4.58-1.64,6.13-3.86c0.17-0.24,0.27-0.79-0.06-0.96
			c-1.12-0.58-2.22-0.92-3.49-0.71c-1.16,0.19-2.24,0.84-3.32,1.25C154.23,191.2,154.07,192.66,154.98,192.31z"/>
		<path class="st0" d="M170.49,188.52c-1.8-0.31-3.63-0.46-5.33,0.3c-1.75,0.78-2.72,2.63-3.32,4.34c-0.11,0.31-0.09,0.73,0.29,0.82
			c4.06,1.04,8.19,0,8.73-4.7c0.12-1.03-1.14-0.59-1.23,0.18c-0.43,3.79-3.94,3.84-6.95,3.07c0.1,0.27,0.2,0.55,0.29,0.82
			c0.51-1.42,1.16-2.68,2.59-3.32c1.34-0.6,3.01-0.31,4.4-0.07C170.65,190.1,171.28,188.66,170.49,188.52z"/>
		<path class="st0" d="M171.74,188.05c0.34,1.58,0.66,3.17,0.88,4.78c0.13,0.97,1.34,0.16,1.25-0.54c-0.23-1.72-0.58-3.41-0.94-5.1
			C172.75,186.34,171.6,187.38,171.74,188.05z"/>
		<path class="st0" d="M173.6,190.11c0.86-0.65,2.23-1.73,3.39-1.23c1.14,0.5,1.32,2.28,1.44,3.33c0.1,0.97,1.32,0.16,1.25-0.54
			c-0.16-1.47-0.46-3.52-2-4.19s-3.31,0.57-4.47,1.46C172.59,189.4,172.78,190.74,173.6,190.11z"/>
		<path class="st0" d="M185.99,185.82c-1.04,0.04-2.1-0.24-3.13-0.05c-1.1,0.2-1.85,1.1-2.46,1.96c-0.22,0.31-0.25,0.91,0.2,1.01
			c1.94,0.46,3.68,1.45,5.59,2.01c0.08-0.47,0.15-0.94,0.23-1.4c-1.44,0.79-2.99,1.06-4.58,1.39c-0.67,0.14-1.09,1.63-0.23,1.45
			c1.69-0.35,3.36-0.64,4.9-1.48c0.43-0.23,0.96-1.19,0.23-1.4c-1.91-0.56-3.65-1.55-5.59-2.01c0.07,0.34,0.13,0.68,0.2,1.01
			c0.59-0.83,1.19-1.19,2.2-1.13c0.74,0.04,1.47,0.13,2.21,0.1C186.45,187.24,186.88,185.78,185.99,185.82z"/>
		<path class="st0" d="M187.85,186.79c0.66,1.37,0.9,2.84,0.73,4.34c-0.12,1.03,1.14,0.59,1.23-0.18c0.2-1.73,0-3.46-0.77-5.03
			C188.65,185.11,187.55,186.16,187.85,186.79z"/>
		<path class="st0" d="M186.78,183.06l-0.12,0.15c-0.21,0.27-0.42,0.7-0.18,1.03c0.22,0.29,0.68,0.13,0.87-0.12l0.12-0.15
			c0.21-0.27,0.42-0.7,0.18-1.03C187.42,182.65,186.97,182.81,186.78,183.06z"/>
		<path class="st0" d="M189.82,178.74c0.74,3.6,1.47,7.19,2.21,10.79c0.17,0.84,1.32-0.21,1.19-0.87c-0.74-3.6-1.48-7.19-2.21-10.79
			C190.84,177.03,189.69,178.07,189.82,178.74z"/>
		<path class="st0" d="M191.59,185.84c0.65-0.13,4.04-0.88,4.18,0.43c0.04,0.43-0.59,0.92-0.87,1.14c-0.78,0.65-1.72,1.09-2.66,1.46
			c-0.66,0.26-0.82,1.72,0.08,1.36c1.73-0.69,4.72-2.14,4.69-4.41c-0.03-2.38-3.81-1.72-5.19-1.44
			C191.15,184.52,190.73,186.01,191.59,185.84z"/>
		<path class="st0" d="M197.68,184.56c0.36,1.69,0.84,3.35,1.2,5.04c0.18,0.84,1.33-0.21,1.19-0.87c-0.36-1.69-0.83-3.35-1.2-5.04
			C198.69,182.85,197.54,183.9,197.68,184.56z"/>
		<path class="st0" d="M197.42,181.25c0.68-0.1,1.1-1.58,0.23-1.45C196.98,179.9,196.55,181.38,197.42,181.25z"/>
		<path class="st0" d="M199.99,177.01c1.17,3.89,2.22,7.8,3.02,11.78c0.17,0.84,1.32-0.21,1.19-0.87
			c-0.81-3.98-1.86-7.89-3.02-11.78C200.93,175.3,199.8,176.36,199.99,177.01z"/>
		<path class="st0" d="M205.32,183.3c0.56,1.29,1,2.66,1.2,4.05c0.14,0.97,1.35,0.16,1.25-0.54c-0.21-1.51-0.65-2.98-1.26-4.38
			C206.15,181.61,205.04,182.67,205.32,183.3z"/>
		<path class="st0" d="M205.79,183.59c0.68-0.1,1.1-1.58,0.23-1.45C205.34,182.24,204.92,183.72,205.79,183.59z"/>
		<path class="st0" d="M204.72,180.58c0.68-0.1,1.1-1.58,0.23-1.45C204.27,179.24,203.85,180.72,204.72,180.58z"/>
		<path class="st0" d="M208.28,176.63c0.98,3.54,1.72,7.12,2.33,10.74c0.16,0.96,1.37,0.16,1.25-0.54
			c-0.63-3.73-1.39-7.42-2.39-11.07C209.24,174.92,208.1,175.97,208.28,176.63z"/>
		<path class="st0" d="M206.18,181.05c1.68-0.62,3.36-1.22,5.08-1.72c0.65-0.19,1.05-1.69,0.23-1.45c-1.82,0.54-3.62,1.16-5.4,1.82
			C205.43,179.94,205.26,181.39,206.18,181.05z"/>
		<path class="st0" d="M212.21,182.28c1.14,1.69,2.33,3.36,3.52,5.02c0.46,0.65,1.46-0.57,1.04-1.14c-1.19-1.66-2.38-3.32-3.52-5.02
			C212.81,180.48,211.82,181.7,212.21,182.28z"/>
		<path class="st0" d="M216.52,180.96c-0.52,3.56-1.56,6.96-3.12,10.2c-0.45,0.94,0.76,0.96,1.13,0.2c1.61-3.35,2.68-6.9,3.22-10.58
			C217.9,179.75,216.64,180.2,216.52,180.96z"/>
	</g>
</g>
<linearGradient id="SVGID_1_" gradientUnits="userSpaceOnUse" x1="160.343" y1="108.7921" x2="138.0852" y2="165.2609">
	<stop  offset="0" style="stop-color:#99DC00"/>
	<stop  offset="1" style="stop-color:#FFAD00"/>
</linearGradient>
<path class="st1" d="M154.73,111.97c-0.32,0.13-3.01,0.09-3.33,0.22c-0.49,0.22-0.97,0.47-1.43,0.76c-0.56,0.34,2.58,2.47,2.34,3.09
	c-0.23,0.61-3.83-0.38-3.86,0.25c-0.03,1.07-0.16,2.12-0.39,3.17c-0.35,1.57-0.82,3.03-1.78,4.34c-1.75,2.39-0.02,0.05-2.79,3.07
	c-0.44,0.47-0.83,0.96-1.18,1.49c-0.15,0.23-0.28,0.47-0.41,0.72c-0.07,0.14,2.65,0.54,2.58,0.69c-0.11,0.27-3.01-0.06-3.28-0.05
	c-1.14,0.03-1.94,0.81-2.37,1.8c-0.18,0.42,3.7,5.15-0.34,1.33c-1.15,0.58-2.32,1.2-3.31,2.02c-0.6,0.49-1.1,1.13-1.14,1.92
	c-0.04,0.8,0.37,1.59,0.75,2.27c0.57,1.05,1.2,2.07,1.81,3.1c0.82-0.04,1.67,0.03,2.44,0.17c0.18,0.03,0.27-0.21,0.09-0.26
	c-0.19-0.04-0.38-0.07-0.58-0.11c1.44,0.11,2.85,0.54,4.15,1.31c1.23,0.73,2.25,1.73,3.1,2.81c0.9,1.16,1.76,2.57,2.09,3.95
	c0.61,2.52-0.7,5-1.76,7.26c-1.05,2.25,0.44,5.68-1.64,6.98c-1.35,0.84-2.21-2.41-2.88-3.69c-0.8-1.53-1.58-3.33-1.55-5.05
	c0.01-0.07-0.05-0.16-0.14-0.18c-4.01-0.82-6.93-4.21-7.53-7.78c-0.23-1.45-0.02-3.1,1.1-4.22c0.58-0.58,1.32-0.91,2.13-1.07
	c-4.78-1.77-5.05-8.8-8.07-12.8c-2.02-2.67-6.36-8.43-6.6-11.79c-0.25-3.43,1.24-3.27,2.91-6.22c1.06-1.87,2.73-2.8,4.8-3.65
	c5.88-2.44,4.58,0.65,6.69,1.27c2.83,0.82,2.65-2.97,5.48-3.42c2.97-0.47,9.22,2.5,11.22,5.11
	C152.24,111.06,155.18,111.79,154.73,111.97z M185.66,121.42c-2.28-2.51-8.74-3.27-12.02-2.65c-0.15,0.03-0.31,0.06-0.47,0.1
	c-0.16,0.03-0.21,0.19-0.18,0.33c-0.14,0.05-0.28,0.12-0.42,0.18c-1.73,0.84-2.81,2.73-3.35,4.63c-3.58,5.6-4,11.36,3.18,13.54
	c0.69,0.73,1.51,1.32,2.37,1.79c-0.58,2.41-0.33,5.06,0.02,7.43c0.34,2.33,2.02,9,2.95,6.65c1.59-4.03,2.89-7.74,5.21-11.17
	c2.07-3.07,3.97-6.43,3.61-10.3C186.19,128.13,188.09,124.1,185.66,121.42z M171.14,114.02c0.51,0.33,1.06,0.61,1.6,0.89
	c0.38,0.19,0.79,0.38,1.13,0.66c0.95,0.75,0.98,2.06,1.09,2.89c0.01,0.04,0.05,0.09,0.11,0.09c0.96,0.05,1.84-0.05,2.52-0.48
	c0.62-0.37,0.94-1,1.15-1.64c0.54-1.59,0.39-3.44,1.09-4.96c0.32-0.72,0.93-1.24,1.46-1.83c0.39-0.44,0.78-0.89,1.07-1.39
	c0.52-0.81,0.58-1.81-0.03-2.92c-0.37-0.68-0.94-1.32-1.53-1.92c-0.88-0.9-1.87-1.74-2.91-2.5c-1.91-1.38-4.09-2.32-6.29-2.75
	c-2.28-0.46-4.31-0.17-6.47-0.17c-0.16,0-0.33,0-0.5,0c-0.18-0.09-0.16-0.36,0.05-0.37c0.91-0.04,1.81-0.09,2.72-0.14
	c-1.29-1.28-3.42-1.54-5.15-1.61c-1.42-0.06-2.85,0.02-4.27,0.1c0.02,0.02,0.05,0.03,0.07,0.05c0.14,0.11,0.04,0.34-0.13,0.35
	c-2.73,0.13-5.47,0.27-8.16,0.78c-0.11,0.02-0.21-0.02-0.25-0.13c-0.33-0.99-1.09-1.52-1.96-1.7c-0.09,0.02-0.16,0.03-0.25,0.05
	c0.27,0.12,0.53,0.25,0.81,0.38c0.13,0.06,0.02,0.25-0.11,0.19c-0.41-0.16-0.84-0.32-1.27-0.43c-1.47,0.45-2.86,1.25-4.14,2.06
	c-1.63,1.05-3.17,2.22-4.76,3.32c3.18-0.32,6.12-1.77,9.12-2.81c0.11-0.03,0.21,0.04,0.22,0.15l0.02,0.38
	c0,0.06-0.02,0.13-0.07,0.15c-0.22,0.13-0.46,0.25-0.7,0.33c0.78,0.3,1.58,0.53,2.34,0.85c0.07,0.03,0.11,0.12,0.09,0.19
	c-0.05,0.44-0.58,0.57-0.95,0.77c0.6,0.27,1.2,0.53,1.79,0.79c-0.1-0.29-0.22-0.62-0.1-0.88c0.19-0.37,0.85-0.05,1.12,0.01
	c1.44,0.37,2.85,0.86,4.22,1.45c0.11-0.86,0.61-1.64,0.62-2.53c0-0.16,0.25-0.28,0.33-0.11c1.05,2.01,3.52,1.89,5.6,1.23
	c0.34,0.26,0.57,0.61,0.74,0.95c0.37,0.74,0.57,1.49,0.73,2.24c-0.06,0-0.1,0.09-0.01,0.14c0.01,0.01,0.03,0.02,0.04,0.03
	c0.02,0.07,0.03,0.15,0.05,0.23c0.02,0.11,0.21,0.13,0.18,0.02c-0.01-0.04-0.02-0.09-0.03-0.13c1.01,0.65,1.77,1.53,1.31,2.39
	c-0.02,0.02-0.01,0.06,0.03,0.1c1.32,1.08,1.95,2.49,2.82,3.77C168.29,112.01,169.62,113.06,171.14,114.02z"/>
<circle class="st2" cx="154.34" cy="128.71" r="42.9"/>
<g>
	<path class="st3" d="M147.22,66.78"/>
	<g>
		<g>
			<path class="st3" d="M155.41,52.07c-2.06,0-3.73-1.67-3.73-3.73c0-2.06,1.67-3.73,3.73-3.73c2.06,0,3.73,1.67,3.73,3.73
				C159.14,50.4,157.47,52.07,155.41,52.07z"/>
		</g>
		<path class="st3" d="M141.96,50.48l7.4,7.4c0.82,0.82,1.29,1.94,1.29,3.11c0,2.91,0,7.06,0,7.06c0,0,0,0,0,0v7.31v1v2.49
			c0,1.09,0.7,1.97,1.77,1.97c1.07,0,1.93-0.88,1.93-1.97v-3.52v-2.52l0-2.77"/>
		<path class="st3" d="M169.16,50.65l-7.73,7.22c-0.82,0.82-1.29,1.94-1.29,3.11c0,2.91,0,7.06,0,7.06c0,0,0,0,0,0v7.31v1v2.49
			c0,1.09-0.7,1.97-1.77,1.97c-1.07,0-1.93-0.88-1.93-1.97v-3.52v-2.52l0-2.77"/>
		<g>
			<path class="st3" d="M143.88,47.55l6.16,6.16c0.5,0.5,1.17,0.78,1.87,0.78h6.68c0.7,0,1.38-0.28,1.87-0.78l6.16-6.16"/>
		</g>
	</g>
</g>
<g>
	<path class="st3" d="M188.79,76.44"/>
	<g>
		<g>
			<path class="st3" d="M204.52,70.44c-1.58-1.32-1.78-3.68-0.46-5.26c1.32-1.58,3.68-1.78,5.26-0.46c1.58,1.32,1.78,3.68,0.46,5.26
				C208.45,71.56,206.09,71.76,204.52,70.44z"/>
		</g>
		<path class="st3" d="M194.99,60.29l1.17,10.7c0.1,1.16-0.26,2.31-1.01,3.21c-1.87,2.23-4.54,5.41-4.54,5.41c0,0,0,0,0,0l-4.7,5.6
			l-0.64,0.77l-1.6,1.91c-0.7,0.83-0.73,1.96,0.09,2.65c0.82,0.69,2.05,0.57,2.75-0.27l2.26-2.7l1.62-1.93l1.78-2.12"/>
		<path class="st3" d="M215.82,77.84l-10.42,0.91c-1.16,0.1-2.23,0.66-2.98,1.55c-1.87,2.23-4.54,5.41-4.54,5.41c0,0,0,0,0,0
			l-4.7,5.6l-0.64,0.77l-1.6,1.91c-0.7,0.83-1.81,1.06-2.62,0.38c-0.82-0.69-0.91-1.92-0.21-2.75l2.26-2.7l1.62-1.93l1.78-2.12"/>
		<g>
			<path class="st3" d="M198.59,59.56l0.76,8.68c0.06,0.7,0.4,1.35,0.94,1.8l5.12,4.29c0.54,0.45,1.23,0.67,1.93,0.61l8.68-0.76"/>
		</g>
	</g>
</g>
<g>
	<path class="st3" d="M168.86,67.94"/>
	<g>
		<g>
			<path class="st3" d="M181.58,56.92c-1.94-0.7-2.94-2.85-2.23-4.78c0.7-1.94,2.85-2.93,4.78-2.23c1.94,0.7,2.93,2.85,2.23,4.78
				C185.66,56.63,183.52,57.63,181.58,56.92z"/>
		</g>
		<path class="st3" d="M169.16,50.65l4.75,9.65c0.49,1.06,0.55,2.26,0.15,3.36c-0.99,2.73-2.42,6.64-2.42,6.64c0,0,0,0,0,0
			l-2.5,6.87l-0.34,0.94l-0.85,2.34c-0.37,1.02-0.02,2.09,0.99,2.46c1,0.37,2.12-0.17,2.49-1.19l1.2-3.31l0.86-2.37l0.95-2.6"/>
		<path class="st3" d="M194.99,60.29l-9.73,4.14c-1.06,0.49-1.87,1.38-2.27,2.48c-0.99,2.73-2.42,6.64-2.42,6.64c0,0,0,0,0,0
			l-2.5,6.87l-0.34,0.94l-0.85,2.34c-0.37,1.02-1.33,1.62-2.34,1.25c-1-0.37-1.51-1.49-1.14-2.52l1.2-3.31l0.86-2.37l0.95-2.6"/>
		<g>
			<path class="st3" d="M172.29,48.73l3.68,7.89c0.3,0.64,0.83,1.13,1.49,1.37l6.28,2.28c0.66,0.24,1.39,0.21,2.02-0.09l7.89-3.68"
				/>
		</g>
	</g>
</g>
</svg>
