<?xml version="1.0" encoding="utf-8"?>
<!-- Generator: Adobe Illustrator 23.0.6, SVG Export Plug-In . SVG Version: 6.00 Build 0)  -->
<svg version="1.1" id="_x31_" xmlns="http://www.w3.org/2000/svg" xmlns:xlink="http://www.w3.org/1999/xlink" x="0px" y="0px"
	 viewBox="0 0 48 48" style="enable-background:new 0 0 48 48;" xml:space="preserve">
<style type="text/css">
	.st0{fill:#99CC33;stroke:#99CC33;stroke-width:0.5;stroke-miterlimit:10;}
	.st1{fill:none;stroke:#A6CE39;stroke-width:1.5;stroke-linecap:round;stroke-linejoin:round;stroke-miterlimit:10;}
	.st2{fill:#FAF5F5;stroke:#A6CE39;stroke-width:1.5;stroke-linecap:round;stroke-linejoin:round;stroke-miterlimit:10;}
</style>
<g id="INTERNET_OF_THINGS_1_">
	<g>
		<g>
			<g>
				<path class="st0" d="M23.6,37.27l-1.02,2.94c-0.15-0.08-0.3-0.14-0.46-0.2c-0.16-0.05-0.31-0.09-0.47-0.13l0.97-2.78
					C22.93,37.18,23.26,37.23,23.6,37.27z"/>
			</g>
		</g>
	</g>
	<g>
		<g>
			<g>
				<path class="st0" d="M24.16,41.83c-0.34-0.71-0.9-1.27-1.59-1.62c-0.15-0.08-0.3-0.14-0.46-0.2c-0.16-0.05-0.31-0.09-0.47-0.13
					c-0.23-0.05-0.46-0.07-0.7-0.07c-1.53,0-2.9,0.97-3.4,2.42c-0.31,0.91-0.25,1.88,0.17,2.74s1.15,1.51,2.05,1.82
					c0.38,0.13,0.77,0.2,1.17,0.2c1.53,0,2.9-0.97,3.4-2.42C24.64,43.67,24.58,42.7,24.16,41.83z M23.4,44.26
					c-0.36,1.05-1.35,1.76-2.46,1.75c-0.29,0-0.57-0.05-0.85-0.14c-0.66-0.23-1.18-0.7-1.49-1.32c-0.3-0.62-0.34-1.33-0.12-1.99
					c0.36-1.05,1.35-1.76,2.46-1.76c0.12,0,0.25,0.01,0.37,0.03c0.16,0.02,0.32,0.06,0.48,0.12c0.16,0.05,0.31,0.12,0.46,0.21
					c0.45,0.26,0.8,0.64,1.03,1.11C23.58,42.89,23.62,43.6,23.4,44.26z"/>
			</g>
		</g>
	</g>
	<g>
		<path class="st0" d="M14.81,31.45c0.02,0.03,0.04,0.07,0.06,0.11c0-0.02,0.01-0.04,0.01-0.06C14.86,31.48,14.84,31.46,14.81,31.45
			z"/>
		<path class="st0" d="M14.81,31.45c0.02,0.03,0.04,0.07,0.06,0.11c0-0.02,0.01-0.04,0.01-0.06C14.86,31.48,14.84,31.46,14.81,31.45
			z"/>
		<path class="st0" d="M36.52,26.09L36.52,26.09c0.01-0.1,0.01-0.19,0.01-0.29l0-0.06c0-0.05,0-0.1,0-0.14
			c0.25-0.26,0.49-0.52,0.7-0.78c1.38-1.69,1.93-3.36,1.37-4.7c-0.63-1.5-2.5-2.35-5.28-2.4c-0.27-0.28-0.54-0.54-0.83-0.79
			c-0.25-0.22-0.52-0.42-0.79-0.62c-0.06-0.04-0.12-0.08-0.18-0.12c0.07-1.8-0.37-3.14-1.36-3.74c-1.05-0.64-3.23-0.26-5.41,1.68
			c0,0,0,0,0,0c-1.71,0.03-3.33,0.42-4.78,1.11c-0.3,0.14-0.59,0.3-0.87,0.46c-0.05,0.03-0.1,0.06-0.15,0.09
			c-2.62-1.22-4.76-1.27-6.04-0.15c-1.67,1.47-1.52,4.68,0.41,8.62c0.02,0.05,0.05,0.1,0.08,0.16c0,0,0,0,0,0
			c-0.01,0.14-0.03,0.28-0.04,0.42c-0.35,0.13-0.68,0.26-0.98,0.4C10.7,26.03,9.82,27,9.78,28.1c-0.05,1.41,1.31,2.69,3.86,3.7
			c0.05,0.04,0.1,0.09,0.15,0.13c-0.51,2.77-0.1,4.73,1.18,5.51c0.37,0.23,0.8,0.34,1.28,0.34c1.06,0,2.35-0.55,3.73-1.54
			c0.83,0.39,1.71,0.69,2.63,0.87c0.33,0.07,0.65,0.12,0.99,0.16h0c0.43,0.05,0.86,0.07,1.3,0.08c0.29,0,0.58-0.01,0.86-0.03
			c1.51,0.75,2.87,1.12,4.01,1.13c0.96,0,1.77-0.27,2.39-0.8c0.94-0.82,1.28-2.17,1.11-3.85c0.11-0.11,0.21-0.23,0.32-0.34
			c0.22-0.25,0.43-0.5,0.63-0.77c0.01-0.02,0.03-0.03,0.04-0.05l0,0c2.89-0.85,4.5-2.12,4.54-3.58
			C38.83,27.96,38.05,26.96,36.52,26.09z M37.68,20.49c0.43,1.02-0.07,2.35-1.25,3.75c-0.26-2.05-1.06-3.93-2.25-5.5
			C36.03,18.92,37.28,19.54,37.68,20.49z M35.52,25.21L35.52,25.21c-0.09,0.09-0.18,0.17-0.28,0.26c-0.24-0.1-0.5-0.21-0.77-0.3
			c-1.48-0.54-3.24-0.96-5.15-1.26c1.11-2.42,1.82-4.69,2.08-6.58C33.79,19.17,35.37,22,35.52,25.21z M29.25,24.9
			c1.82,0.28,3.48,0.69,4.89,1.2c0.09,0.03,0.18,0.07,0.27,0.1c-0.88,0.71-1.9,1.41-3.03,2.08C30.8,27.17,30.08,26.04,29.25,24.9z
			 M30.51,28.76c-0.89,0.48-1.83,0.93-2.82,1.34c-0.89,0.37-1.79,0.7-2.67,0.97c0.76-1.01,1.51-2.11,2.22-3.28
			c0.45-0.75,0.87-1.49,1.26-2.23C29.29,26.64,29.96,27.72,30.51,28.76z M29.63,13.28c0.56,0.34,0.86,1.14,0.9,2.29
			c-1.3-0.72-2.75-1.2-4.3-1.38C27.78,13.11,29.12,12.97,29.63,13.28z M24.92,15.11c2.04,0,3.94,0.58,5.56,1.58
			c-0.18,1.84-0.88,4.28-2.15,7c-0.33-0.41-0.68-0.82-1.03-1.23c-2.3-2.63-4.87-4.78-7.31-6.13C21.46,15.55,23.14,15.11,24.92,15.11
			z M18.99,16.92c2.49,1.26,5.17,3.45,7.56,6.18c0.15,0.17,0.3,0.35,0.45,0.52c-0.83-0.08-1.68-0.13-2.55-0.16
			c-3.79-0.12-7.37,0.25-10.09,1.04C14.73,21.35,16.48,18.61,18.99,16.92z M12.79,30.32c-1.31-0.69-2.04-1.46-2.02-2.18
			c0.03-0.78,0.95-1.57,2.54-2.22c0.01,0.48,0.04,0.96,0.11,1.43C12.8,28.42,12.59,29.44,12.79,30.32z M13.54,16.38
			c0.87-0.77,2.46-0.74,4.42,0.06c-2.06,1.54-3.58,3.75-4.26,6.3C12.45,19.78,12.37,17.4,13.54,16.38z M14.05,30.77
			c-0.08-0.11-0.15-0.23-0.2-0.36c-0.18-0.44-0.17-0.92-0.06-1.38c0.12,0.4,0.26,0.79,0.42,1.17
			C14.15,30.39,14.09,30.58,14.05,30.77z M14.29,25.72c0-0.05,0-0.11,0-0.16c0.11-0.03,0.22-0.07,0.33-0.1
			c2.63-0.77,6.11-1.13,9.8-1.01c1.17,0.04,2.31,0.12,3.41,0.25c-0.43,0.84-0.9,1.7-1.43,2.57c-0.97,1.61-1.99,3.03-3,4.25
			c-1.74,0.44-3.41,0.67-4.89,0.68l-0.05,0c-0.79,0-1.5-0.07-2.11-0.2C15.06,30.25,14.29,28.07,14.29,25.72z M14.89,31.49
			c0,0.02-0.01,0.04-0.01,0.06c-0.02-0.03-0.04-0.07-0.06-0.11C14.84,31.46,14.86,31.48,14.89,31.49z M15.48,36.6
			c-0.84-0.51-1.11-2.01-0.78-4.1c0.32,0.16,0.69,0.28,1.08,0.39c0.89,1.13,1.98,2.09,3.22,2.83C17.48,36.72,16.22,37.05,15.48,36.6
			z M19.87,35.08c-0.95-0.51-1.81-1.17-2.56-1.93c0.36,0.03,0.74,0.05,1.14,0.05l0.06,0c1.18-0.01,2.46-0.14,3.8-0.41
			C21.47,33.7,20.65,34.47,19.87,35.08z M24.9,36.35c-0.33,0-0.65-0.02-0.97-0.05c-0.34-0.03-0.67-0.08-1-0.14
			c-0.72-0.14-1.41-0.35-2.07-0.62c1.01-0.84,2.06-1.9,3.11-3.14c1.34-0.35,2.73-0.82,4.11-1.39c1.02-0.42,1.98-0.88,2.88-1.36
			c0.65,1.37,1.09,2.65,1.28,3.77C30.33,35.24,27.74,36.36,24.9,36.35z M31.52,36.89c-0.8,0.7-2.18,0.74-3.9,0.14
			c1.77-0.42,3.38-1.25,4.74-2.38C32.34,35.62,32.07,36.4,31.52,36.89z M33.06,32.54c-0.24-1.05-0.66-2.19-1.23-3.38
			c1.37-0.8,2.58-1.65,3.6-2.52c0.02,0.01,0.05,0.02,0.07,0.03C35.3,28.89,34.42,30.92,33.06,32.54z M35.11,31.29
			c0.68-1.24,1.14-2.62,1.33-4.09c0.91,0.59,1.4,1.22,1.38,1.81C37.79,29.81,36.8,30.63,35.11,31.29z"/>
	</g>
	<g>
		<g>
			<g>
				<path class="st0" d="M36.1,13.79l-3.63,3.13c-0.25-0.22-0.52-0.42-0.79-0.62l3.77-3.26c0.11,0.16,0.24,0.32,0.37,0.47
					C35.91,13.62,36,13.71,36.1,13.79z"/>
			</g>
		</g>
	</g>
	<g>
		<g>
			<g>
				<path class="st0" d="M40.92,25.31c0,0.17,0.01,0.33,0.04,0.49l-4.44,0l0-0.06c0-0.05,0-0.1,0-0.14c0.25-0.26,0.49-0.52,0.7-0.78
					l3.74,0C40.93,24.98,40.92,25.14,40.92,25.31z"/>
			</g>
		</g>
	</g>
	<g>
		<g>
			<g>
				<path class="st0" d="M19.95,15.24c-0.3,0.14-0.59,0.3-0.87,0.46l-2.29-4.38c0.31-0.12,0.59-0.3,0.83-0.53L19.95,15.24z"/>
			</g>
		</g>
	</g>
	<g>
		<g>
			<g>
				<path class="st0" d="M36.74,35.22c-0.14,0.09-0.27,0.2-0.39,0.32c-0.12,0.12-0.22,0.24-0.31,0.37l-2.44-2.47
					c0.22-0.25,0.43-0.5,0.63-0.77L36.74,35.22z"/>
			</g>
		</g>
	</g>
	<g>
		<g>
			<g>
				<path class="st0" d="M13.38,24.42C13.38,24.42,13.38,24.42,13.38,24.42c-0.01,0.14-0.03,0.28-0.04,0.42
					c-0.35,0.13-0.68,0.26-0.98,0.4l-6.05-0.01c0.03-0.15,0.05-0.3,0.05-0.46c0-0.18-0.01-0.36-0.05-0.53l6.99,0.01
					C13.32,24.32,13.35,24.37,13.38,24.42z"/>
			</g>
		</g>
	</g>
	<g>
		<g>
			<g>
				<path class="st0" d="M43.77,22.47c-1.4,0-2.57,1.02-2.81,2.35c-0.03,0.16-0.04,0.33-0.04,0.49c0,0.17,0.01,0.33,0.04,0.49
					c0.24,1.33,1.4,2.35,2.8,2.36c1.57,0,2.85-1.28,2.85-2.84C46.61,23.75,45.34,22.47,43.77,22.47z M43.76,27.17
					c-0.86,0-1.58-0.58-1.79-1.37c-0.05-0.16-0.07-0.32-0.07-0.49c0-0.17,0.02-0.34,0.07-0.49c0.22-0.79,0.94-1.37,1.79-1.37
					c1.02,0,1.86,0.84,1.86,1.86C45.62,26.34,44.79,27.18,43.76,27.17z"/>
			</g>
		</g>
	</g>
	<g>
		<g>
			<g>
				<path class="st0" d="M42.09,7.83c-0.8-0.88-1.94-1.39-3.13-1.39c-1.06,0-2.07,0.39-2.85,1.1c-1.58,1.43-1.82,3.79-0.66,5.51
					c0.11,0.16,0.24,0.32,0.37,0.47c0.09,0.1,0.18,0.19,0.27,0.27c0.77,0.71,1.8,1.11,2.86,1.11c1.05,0,2.07-0.39,2.85-1.1
					c0.84-0.76,1.33-1.8,1.38-2.93C43.24,9.75,42.85,8.67,42.09,7.83z M41.14,13.08c-0.6,0.54-1.37,0.84-2.18,0.84
					c-0.77,0-1.52-0.28-2.11-0.78c-0.11-0.09-0.2-0.19-0.3-0.29c-0.13-0.15-0.25-0.3-0.35-0.46c-0.82-1.31-0.61-3.05,0.57-4.13
					c0.6-0.54,1.37-0.84,2.18-0.84c0.91,0,1.79,0.39,2.4,1.06c0.58,0.64,0.88,1.47,0.84,2.34C42.16,11.7,41.78,12.5,41.14,13.08z"/>
			</g>
		</g>
	</g>
	<g>
		<g>
			<g>
				<path class="st0" d="M17.65,7.29c-0.46-0.46-1.08-0.72-1.74-0.72c-0.66,0-1.27,0.26-1.74,0.72c-0.96,0.96-0.96,2.52,0,3.47
					c0.46,0.46,1.08,0.72,1.74,0.72c0.31,0,0.6-0.06,0.88-0.16c0.31-0.12,0.59-0.3,0.83-0.53c0.01-0.01,0.02-0.02,0.02-0.02
					c0.46-0.46,0.72-1.08,0.72-1.74C18.37,8.37,18.11,7.76,17.65,7.29z M14.87,10.06c-0.57-0.57-0.57-1.51,0-2.08
					c0.28-0.28,0.65-0.43,1.04-0.43c0.39,0,0.76,0.15,1.04,0.43c0.28,0.28,0.43,0.65,0.43,1.04c0,0.39-0.15,0.76-0.43,1.04
					c-0.28,0.28-0.65,0.43-1.04,0.43S15.15,10.34,14.87,10.06z"/>
			</g>
		</g>
	</g>
	<g>
		<g>
			<g>
				<path class="st0" d="M39.82,35.54c-0.46-0.46-1.08-0.72-1.74-0.72c-0.48,0-0.95,0.14-1.34,0.4c-0.14,0.09-0.27,0.2-0.39,0.32
					c-0.12,0.12-0.22,0.24-0.31,0.37c-0.27,0.4-0.41,0.87-0.41,1.36c0,0.66,0.26,1.27,0.72,1.74c0.46,0.46,1.08,0.72,1.74,0.72
					c0.66,0,1.27-0.26,1.74-0.72C40.77,38.06,40.77,36.5,39.82,35.54z M39.12,38.32c-0.28,0.28-0.65,0.43-1.04,0.43
					s-0.76-0.15-1.04-0.43c-0.28-0.28-0.43-0.65-0.43-1.04c0-0.22,0.05-0.44,0.15-0.63c0.07-0.15,0.17-0.29,0.29-0.4
					c0.12-0.12,0.26-0.22,0.42-0.29c0.19-0.09,0.4-0.14,0.62-0.14c0.39,0,0.76,0.15,1.04,0.43C39.69,36.81,39.69,37.74,39.12,38.32z
					"/>
			</g>
		</g>
	</g>
	<g>
		<g>
			<g>
				<path class="st0" d="M6.31,24.26c-0.22-1.11-1.19-1.95-2.37-1.97l-0.04,0c-1.33,0-2.43,1.09-2.45,2.43
					c-0.02,1.36,1.06,2.48,2.42,2.51l0.04,0c1.18,0,2.17-0.85,2.4-1.97c0.03-0.15,0.05-0.3,0.05-0.46
					C6.36,24.61,6.35,24.43,6.31,24.26z M3.91,26.23l-0.02,0c-0.81-0.01-1.46-0.69-1.44-1.5c0.01-0.8,0.67-1.45,1.49-1.45l0,0
					c0.63,0.01,1.16,0.42,1.36,0.99c0.06,0.16,0.09,0.34,0.09,0.52c0,0.17-0.03,0.32-0.09,0.47C5.09,25.82,4.54,26.23,3.91,26.23z"
					/>
			</g>
		</g>
	</g>
</g>
</svg>
