<?xml version="1.0" encoding="utf-8"?>
<!-- Generator: Adobe Illustrator 23.0.6, SVG Export Plug-In . SVG Version: 6.00 Build 0)  -->
<svg version="1.1" id="_x31_" xmlns="http://www.w3.org/2000/svg" xmlns:xlink="http://www.w3.org/1999/xlink" x="0px" y="0px"
	 viewBox="0 0 48 48" style="enable-background:new 0 0 48 48;" xml:space="preserve">
<style type="text/css">
	.st0{fill:#99CC33;stroke:#99CC33;stroke-width:0.5;stroke-miterlimit:10;}
	.st1{fill:none;stroke:#A6CE39;stroke-width:1.5;stroke-linecap:round;stroke-linejoin:round;stroke-miterlimit:10;}
	.st2{fill:#FAF5F5;stroke:#A6CE39;stroke-width:1.5;stroke-linecap:round;stroke-linejoin:round;stroke-miterlimit:10;}
</style>
<g>
	<path class="st1" d="M9.2,47l0-9.81c0-1.58-0.47-3.12-1.31-4.45c-1.8-2.85-3.17-5.78-3.77-9.23c-0.72-4.15-0.4-8.54,1.26-12.44
		C8.5,3.78,16.39,0.27,24.06,1.13C33.56,2.18,39,9.39,40.12,19.56c0.32,2.86,2.95,8.68,3.89,10.85c1.54,3.55-5.12,3.28-5.12,3.28
		v4.25c0,2.29-1.86,4.15-4.15,4.15h-8.96V47"/>
	<polyline class="st1" points="16.72,1.65 16.72,9.84 23.35,9.84 	"/>
	<polyline class="st1" points="16.72,7.17 12.49,7.17 12.49,15.98 	"/>
	<circle class="st2" cx="24.39" cy="9.84" r="1.23"/>
	<circle class="st2" cx="32.9" cy="15.08" r="1.23"/>
	<circle class="st2" cx="12.49" cy="17.04" r="1.23"/>
	<circle class="st2" cx="13.72" cy="29.49" r="1.23"/>
	<circle class="st2" cx="22.15" cy="28.26" r="1.23"/>
	<circle class="st2" cx="22.15" cy="40.52" r="1.23"/>
	<circle class="st2" cx="35.15" cy="28.26" r="1.23"/>
	<circle class="st1" cx="24.39" cy="9.84" r="1.23"/>
	<circle class="st1" cx="32.9" cy="15.08" r="1.23"/>
	<circle class="st1" cx="12.49" cy="17.04" r="1.23"/>
	<circle class="st1" cx="13.72" cy="29.49" r="1.23"/>
	<circle class="st2" cx="13.72" cy="41.4" r="1.23"/>
	<circle class="st1" cx="13.72" cy="41.4" r="1.23"/>
	<circle class="st1" cx="22.15" cy="28.26" r="1.23"/>
	<circle class="st1" cx="22.15" cy="40.52" r="1.23"/>
	<circle class="st1" cx="35.15" cy="28.26" r="1.23"/>
	<polyline class="st1" points="12.49,12.6 20.34,12.6 20.34,21 24.06,21 24.06,15.06 31.81,15.06 	"/>
	<polyline class="st1" points="4.8,12.6 9.52,12.6 9.52,21.61 16.72,21.61 16.72,28.26 20.89,28.26 	"/>
	<polyline class="st1" points="3.9,16.8 6.56,16.8 6.56,24.27 13.72,24.27 13.72,28.26 	"/>
	<line class="st1" x1="22.15" y1="21.3" x2="22.15" y2="24.94"/>
	<line class="st1" x1="16.72" y1="12.94" x2="16.72" y2="19.15"/>
	<polyline class="st1" points="20.92,1.13 20.92,5.74 29.35,5.74 29.35,10.35 	"/>
	<polyline class="st1" points="40,18.61 27.85,18.61 27.85,24.94 32.15,24.94 32.15,21 35.22,21 35.22,27.04 	"/>
	<line class="st1" x1="29.83" y1="24.94" x2="29.83" y2="29.49"/>
	<polyline class="st1" points="18.23,28.26 18.23,33.69 13.72,33.69 13.72,40.52 	"/>
	<polyline class="st1" points="16.72,33.69 16.72,40.52 20.92,40.52 	"/>
	<polyline class="st1" points="18.23,31.58 25.79,31.58 25.79,34.39 21.5,34.39 21.5,37.1 19.18,37.1 	"/>
	<polyline class="st1" points="5.39,27.95 9.9,27.95 9.9,31.17 	"/>
</g>
</svg>
