<?xml version="1.0" encoding="utf-8"?>
<!-- Generator: Adobe Illustrator 23.0.6, SVG Export Plug-In . SVG Version: 6.00 Build 0)  -->
<svg version="1.1" id="_x31_" xmlns="http://www.w3.org/2000/svg" xmlns:xlink="http://www.w3.org/1999/xlink" x="0px" y="0px"
	 viewBox="0 0 48 48" style="enable-background:new 0 0 48 48;" xml:space="preserve">
<style type="text/css">
	.st0{fill:#99CC33;stroke:#99CC33;stroke-width:0.5;stroke-miterlimit:10;}
	.st1{fill:none;stroke:#A6CE39;stroke-width:1.5;stroke-linecap:round;stroke-linejoin:round;stroke-miterlimit:10;}
	.st2{fill:#FAF5F5;stroke:#A6CE39;stroke-width:1.5;stroke-linecap:round;stroke-linejoin:round;stroke-miterlimit:10;}
</style>
<g>
	<g>
		<g>
			<g>
				<path class="st1" d="M24.23,47L24.23,47c-8.1,0-14.67-6.57-14.67-14.67V20.59H38.9v11.74C38.9,40.43,32.33,47,24.23,47z"/>
				<path class="st1" d="M38.9,22.54L38.9,22.54c2.16,0,3.91,1.75,3.91,3.91v0c0,2.16-1.75,3.91-3.91,3.91h0"/>
				<path class="st1" d="M9.55,30.37L9.55,30.37c-2.16,0-3.91-1.75-3.91-3.91v0c0-2.16,1.75-3.91,3.91-3.91h0"/>
			</g>
			<g>
				<circle class="st1" cx="18.36" cy="28.41" r="1.96"/>
				<circle class="st1" cx="30.1" cy="28.41" r="1.96"/>
			</g>
			<path class="st1" d="M30.1,34.28c0,3.24-2.63,5.87-5.87,5.87s-5.87-2.63-5.87-5.87"/>
		</g>
		<path class="st1" d="M27.16,20.59v-3.51c2.87-1.16,4.89-3.97,4.89-7.25c0-4.32-3.5-7.83-7.83-7.83S16.4,5.5,16.4,9.83
			c0,3.28,2.02,6.09,4.89,7.25v3.51"/>
		<line class="st1" x1="27.16" y1="17.65" x2="21.29" y2="17.65"/>
		<g>
			<line class="st1" x1="35.96" y1="4.93" x2="38.9" y2="2"/>
			<line class="st1" x1="35.96" y1="14.72" x2="38.9" y2="17.65"/>
			<line class="st1" x1="35.96" y1="9.83" x2="39.88" y2="9.83"/>
		</g>
		<g>
			<line class="st1" x1="12.49" y1="14.72" x2="9.55" y2="17.65"/>
			<line class="st1" x1="12.49" y1="4.93" x2="9.55" y2="2"/>
			<line class="st1" x1="12.49" y1="9.83" x2="8.57" y2="9.83"/>
		</g>
	</g>
	<g>
		<polyline class="st1" points="24.23,17.08 24.23,8.28 21.29,8.28 21.29,6.32 		"/>
		<polyline class="st1" points="24.23,8.28 27.16,8.28 27.16,6.32 		"/>
	</g>
</g>
</svg>
