<?xml version="1.0" encoding="utf-8"?>
<!-- Generator: Adobe Illustrator 23.0.6, SVG Export Plug-In . SVG Version: 6.00 Build 0)  -->
<svg version="1.1" id="artwork" xmlns="http://www.w3.org/2000/svg" xmlns:xlink="http://www.w3.org/1999/xlink" x="0px" y="0px"
	 viewBox="0 0 249.45 249.45" style="enable-background:new 0 0 249.45 249.45;" xml:space="preserve">
<style type="text/css">
	.st0{fill:none;stroke:#FFAD00;stroke-width:2;stroke-linecap:round;stroke-linejoin:round;}
	.st1{fill:none;stroke:#FFAD00;stroke-width:2;stroke-linecap:round;stroke-linejoin:round;stroke-dasharray:2.0479,3.0719;}
	.st2{fill:none;stroke:#FFAD00;stroke-width:2;stroke-linecap:round;stroke-linejoin:round;stroke-dasharray:2.1278,3.1917;}
	.st3{fill:#FFFFFF;stroke:#1F9BD7;stroke-linecap:round;stroke-linejoin:round;stroke-miterlimit:10;}
	.st4{fill:none;stroke:#1F9BD7;stroke-width:2;stroke-linecap:round;stroke-linejoin:round;stroke-miterlimit:10;}
	.st5{fill:#FF0000;}
	.st6{fill-rule:evenodd;clip-rule:evenodd;fill:url(#SVGID_1_);}
	.st7{fill-rule:evenodd;clip-rule:evenodd;fill:url(#SVGID_2_);}
	.st8{fill-rule:evenodd;clip-rule:evenodd;fill:#FF0000;}
	.st9{fill:url(#XMLID_2_);}
	.st10{fill:#F8F8F8;}
	.st11{fill:#218FCF;}
	.st12{fill:#E41E26;}
	.st13{fill:url(#XMLID_3_);}
	.st14{fill:url(#XMLID_4_);}
	.st15{fill:url(#XMLID_5_);}
	.st16{fill:url(#XMLID_6_);}
	.st17{fill:url(#XMLID_7_);}
	.st18{fill:url(#XMLID_8_);}
	.st19{fill:#065CAA;}
	.st20{fill:url(#icon_1_);}
	.st21{fill:#FFFFFF;}
	.st22{fill:url(#icon_2_);}
	.st23{fill:url(#Path_865_1_);}
	.st24{fill:url(#Path_866_1_);}
	.st25{fill:url(#Path_867_1_);}
	.st26{fill:url(#Path_868_1_);}
	.st27{fill:url(#Path_869_1_);}
	.st28{fill:url(#Path_870_1_);}
	.st29{fill:url(#Path_873_1_);}
	.st30{fill:url(#Path_874_1_);}
	.st31{fill:url(#Path_875_1_);}
	.st32{fill:url(#Path_876_1_);}
	.st33{fill:url(#Path_877_1_);}
	.st34{fill:url(#Path_878_1_);}
	.st35{fill:url(#Path_871_1_);}
	.st36{fill:url(#Path_872_1_);}
	.st37{fill:url(#Path_879_1_);}
	.st38{fill:url(#Path_880_1_);}
	.st39{fill:url(#Path_881_1_);}
	.st40{fill:url(#Path_882_1_);}
	.st41{fill:url(#Path_883_1_);}
	.st42{fill:url(#Path_884_1_);}
	.st43{fill:url(#Path_885_1_);}
	.st44{fill:url(#Path_886_1_);}
</style>
<g>
	<g>
		<g>
			<line class="st0" x1="125.82" y1="46.42" x2="125.01" y2="47.02"/>
			<line class="st1" x1="122.54" y1="48.84" x2="45.51" y2="105.7"/>
			<line class="st0" x1="44.28" y1="106.61" x2="43.47" y2="107.2"/>
		</g>
	</g>
	<g>
		<g>
			<line class="st0" x1="42.35" y1="106.91" x2="42.66" y2="107.86"/>
			<line class="st1" x1="43.64" y1="110.77" x2="73.91" y2="201.6"/>
			<line class="st0" x1="74.39" y1="203.06" x2="74.71" y2="204.01"/>
		</g>
	</g>
	<g>
		<g>
			<line class="st0" x1="74.08" y1="204.99" x2="75.08" y2="204.98"/>
			<line class="st1" x1="78.16" y1="204.96" x2="173.89" y2="204.23"/>
			<line class="st0" x1="175.43" y1="204.22" x2="176.43" y2="204.21"/>
		</g>
	</g>
	<g>
		<g>
			<line class="st0" x1="177.17" y1="205.11" x2="177.47" y2="204.16"/>
			<line class="st1" x1="178.39" y1="201.23" x2="207.29" y2="109.95"/>
			<line class="st0" x1="207.76" y1="108.49" x2="208.06" y2="107.54"/>
		</g>
	</g>
	<g>
		<g>
			<line class="st0" x1="209.14" y1="107.11" x2="208.32" y2="106.53"/>
			<line class="st1" x1="205.83" y1="104.74" x2="127.95" y2="49.05"/>
			<line class="st0" x1="126.7" y1="48.16" x2="125.88" y2="47.58"/>
		</g>
	</g>
	<g>
		<g>
			<line class="st0" x1="125.71" y1="101.2" x2="125.71" y2="100.2"/>
			<line class="st2" x1="125.71" y1="97.01" x2="125.71" y2="77.33"/>
			<line class="st0" x1="125.71" y1="75.73" x2="125.71" y2="74.73"/>
		</g>
	</g>
	<g>
		<g>
			<line class="st0" x1="94.41" y1="123.94" x2="93.46" y2="123.63"/>
			<line class="st2" x1="90.43" y1="122.64" x2="71.71" y2="116.56"/>
			<line class="st0" x1="70.19" y1="116.07" x2="69.24" y2="115.76"/>
		</g>
	</g>
	<g>
		<g>
			<line class="st0" x1="106.37" y1="160.73" x2="105.78" y2="161.54"/>
			<line class="st2" x1="103.9" y1="164.12" x2="92.33" y2="180.05"/>
			<line class="st0" x1="91.4" y1="181.34" x2="90.81" y2="182.15"/>
		</g>
	</g>
	<g>
		<g>
			<line class="st0" x1="145.05" y1="160.73" x2="145.64" y2="161.54"/>
			<line class="st2" x1="147.52" y1="164.12" x2="159.09" y2="180.05"/>
			<line class="st0" x1="160.02" y1="181.34" x2="160.61" y2="182.15"/>
		</g>
	</g>
	<g>
		<g>
			<line class="st0" x1="157.01" y1="123.94" x2="157.96" y2="123.63"/>
			<line class="st2" x1="160.99" y1="122.64" x2="179.71" y2="116.56"/>
			<line class="st0" x1="181.23" y1="116.07" x2="182.18" y2="115.76"/>
		</g>
	</g>
</g>
<circle class="st3" cx="125.71" cy="46.98" r="33.39"/>
<circle class="st3" cx="42.84" cy="107.18" r="33.39"/>
<circle class="st3" cx="74.49" cy="204.6" r="33.39"/>
<circle class="st3" cx="176.93" cy="204.6" r="33.39"/>
<circle class="st3" cx="208.58" cy="107.18" r="33.39"/>
<g>
	<path class="st4" d="M110.85,36.76l-0.71-1.86c-0.37-0.98-1.34-1.51-2.16-1.2c-0.82,0.31-1.17,1.36-0.8,2.33l4.18,10.98"/>
	<path class="st4" d="M115.14,39.05l-1.41-3.7c-0.37-0.98-1.34-1.51-2.16-1.2c-0.82,0.31-1.19,1.36-0.81,2.34l3.58,9.39"/>
	<path class="st4" d="M120.12,43.99c-0.84-2.2-2.43-6.38-2.43-6.38c-0.34-0.89-1.22-1.37-1.97-1.09c-0.75,0.29-1.08,1.24-0.74,2.12
		l2.33,6.11"/>
	<path class="st4" d="M115.9,61.85c-1.18-3.09-3.59-3.95-5.45-5.38c-3.89-2.97-3.88-3.74-5.57-5.8c-1.5-1.82-3.26-3.64-2.29-4.66
		c0.71-0.74,2.65,0.03,4.61,2.2c1.29,1.42,1.74,1.91,2.59,2.89c0.32,0.36,0.78,0.55,1.26,0.53c1.04-0.04,2.93,0.16,3.95,1.92"/>
	<path class="st4" d="M108.09,38.42c-0.37-0.98-1.35-1.51-2.18-1.19c-0.82,0.31-1.17,1.36-0.8,2.33l4.18,10.97"/>
	<path class="st4" d="M140.57,36.76l0.71-1.86c0.37-0.98,1.34-1.51,2.16-1.2c0.82,0.31,1.17,1.36,0.8,2.33l-4.18,10.98"/>
	<path class="st4" d="M136.28,39.05l1.41-3.7c0.37-0.98,1.34-1.51,2.16-1.2c0.82,0.31,1.19,1.36,0.81,2.34l-3.58,9.39"/>
	<path class="st4" d="M131.3,43.99c0.84-2.2,2.43-6.38,2.43-6.38c0.34-0.89,1.22-1.37,1.97-1.09c0.75,0.29,1.08,1.24,0.74,2.12
		l-2.33,6.11"/>
	<path class="st4" d="M135.52,61.85c1.18-3.09,3.59-3.95,5.45-5.38c3.89-2.97,3.88-3.74,5.57-5.8c1.5-1.82,3.26-3.64,2.29-4.66
		c-0.71-0.74-2.65,0.03-4.61,2.2c-1.29,1.42-1.74,1.91-2.59,2.89c-0.32,0.36-0.78,0.55-1.26,0.53c-1.04-0.04-2.93,0.16-3.95,1.92"/>
	<path class="st4" d="M143.33,38.42c0.37-0.98,1.35-1.51,2.18-1.19c0.82,0.31,1.17,1.36,0.8,2.33l-4.18,10.97"/>
	<path class="st5" d="M125.5,61.05c-0.34-0.2-8.27-5.08-8.27-10.24c0-2.49,2.03-4.52,4.52-4.52c1.67,0,3.19,0.93,3.97,2.36
		c0.78-1.42,2.29-2.36,3.97-2.36c2.49,0,4.52,2.03,4.52,4.52c0,5.16-7.94,10.04-8.27,10.24l-0.21,0.13L125.5,61.05z"/>
	<line class="st4" x1="124.85" y1="43.1" x2="125.32" y2="42.63"/>
	<line class="st4" x1="127.37" y1="40.58" x2="127.84" y2="40.11"/>
	<line class="st4" x1="127.84" y1="43.1" x2="127.37" y2="42.63"/>
	<line class="st4" x1="125.32" y1="40.58" x2="124.85" y2="40.11"/>
	<line class="st4" x1="121.67" y1="34.59" x2="121.53" y2="34.44"/>
	<line class="st4" x1="123.76" y1="36.67" x2="123.61" y2="36.53"/>
	<line class="st4" x1="121.67" y1="36.53" x2="121.53" y2="36.67"/>
	<line class="st4" x1="123.76" y1="34.44" x2="123.61" y2="34.59"/>
	<line class="st4" x1="128.69" y1="32.25" x2="128.55" y2="32.1"/>
	<line class="st4" x1="130.78" y1="34.33" x2="130.63" y2="34.19"/>
	<line class="st4" x1="128.69" y1="34.19" x2="128.55" y2="34.33"/>
	<line class="st4" x1="130.78" y1="32.1" x2="130.63" y2="32.25"/>
</g>
<g>
	
		<linearGradient id="SVGID_1_" gradientUnits="userSpaceOnUse" x1="21.9738" y1="106.5244" x2="61.4941" y2="106.5244" gradientTransform="matrix(-1 0 0 1 85.7901 0)">
		<stop  offset="0" style="stop-color:#1F9BD7"/>
		<stop  offset="1" style="stop-color:#05BDCE"/>
	</linearGradient>
	<path class="st6" d="M34.95,89.7l-0.77,0v-2.47h19.76v2.47l-0.77,0l0,12.35h10.65v2.47h-0.77l0,16.21h0.77v1.69l-39.52,0v-1.69
		h0.77l0-16.21H24.3v-2.47h10.65L34.95,89.7L34.95,89.7z M51.62,89.69L36.49,89.7v31.03h15.13V89.69L51.62,89.69z M26.61,104.52
		v16.21c4.42,0,3.91,0,8.33,0v-16.21H26.61L26.61,104.52z M63.82,123.35v2.47H24.3v-2.47L63.82,123.35L63.82,123.35z M53.16,104.52
		v16.21h8.34v-16.21H53.16L53.16,104.52z"/>
	
		<linearGradient id="SVGID_2_" gradientUnits="userSpaceOnUse" x1="25.8332" y1="112.7755" x2="57.6347" y2="112.7755" gradientTransform="matrix(-1 0 0 1 85.7901 0)">
		<stop  offset="0" style="stop-color:#1F9BD7"/>
		<stop  offset="1" style="stop-color:#05BDCE"/>
	</linearGradient>
	<path class="st7" d="M45.14,106.52v6.18h-2.16v-6.18H45.14L45.14,106.52z M45.14,114.55v4.48h-2.16v-4.48H45.14L45.14,114.55z
		 M49.46,106.52v6.18H47.3v-6.18H49.46L49.46,106.52z M49.46,114.55v4.48H47.3v-4.48H49.46L49.46,114.55z M40.81,106.52v6.18h-2.16
		v-6.18H40.81L40.81,106.52z M40.81,114.55v4.48h-2.16v-4.48H40.81L40.81,114.55z M33.4,106.52v6.18h-1.85v-6.18H33.4L33.4,106.52z
		 M30.01,106.52v6.18h-1.85v-6.18H30.01L30.01,106.52z M59.96,106.52v6.18H58.1v-6.18H59.96L59.96,106.52z M56.56,106.52v6.18h-1.85
		v-6.18H56.56L56.56,106.52z M59.96,114.55v4.48H58.1v-4.48H59.96L59.96,114.55z M56.56,114.55v4.48h-1.85v-4.48H56.56L56.56,114.55
		z M33.4,114.55v4.48h-1.85v-4.48H33.4L33.4,114.55z M30.01,114.55v4.48h-1.85v-4.48H30.01L30.01,114.55z"/>
	<polygon class="st8" points="45.75,91.85 42.36,91.85 42.36,95.56 38.65,95.56 38.65,99.11 42.36,99.11 42.36,102.66 45.75,102.66 
		45.75,99.11 49.46,99.11 49.46,95.56 45.75,95.56 45.75,91.85 	"/>
</g>
<g>
	<linearGradient id="XMLID_2_" gradientUnits="userSpaceOnUse" x1="58.9163" y1="202.8053" x2="89.9762" y2="202.8053">
		<stop  offset="0" style="stop-color:#1F9BD7"/>
		<stop  offset="1" style="stop-color:#05BDCE"/>
	</linearGradient>
	<path id="XMLID_125_" class="st9" d="M85.99,221.42c-0.02,0.19-0.19,0.33-0.39,0.31l-26.38-3.09c-0.19-0.02-0.33-0.19-0.31-0.39
		l3.98-34.06c0.02-0.19,0.2-0.33,0.39-0.31l26.38,3.09c0.19,0.02,0.33,0.19,0.31,0.39L85.99,221.42z"/>
	
		<rect id="XMLID_124_" x="59.14" y="191.29" transform="matrix(0.1161 -0.9932 0.9932 0.1161 -135.6407 253.1987)" class="st10" width="30.59" height="23.04"/>
	<g id="XMLID_120_">
		<path id="XMLID_121_" class="st11" d="M83.3,185.63l-4.06-0.72c0.03-0.08,0.06-0.16,0.07-0.24c0.16-0.88-0.42-1.72-1.3-1.87
			s-1.72,0.42-1.87,1.3c-0.01,0.09-0.01,0.17-0.02,0.25l-4.06-0.72c-0.17-0.03-0.33,0.08-0.36,0.25l-0.23,1.3
			c-0.03,0.17,0.08,0.33,0.25,0.36l11.25,2.01c0.17,0.03,0.33-0.08,0.36-0.25l0.23-1.3C83.58,185.83,83.46,185.66,83.3,185.63z
			 M77.59,185.1c-0.43-0.08-0.72-0.49-0.64-0.92c0.08-0.43,0.49-0.72,0.92-0.64s0.72,0.49,0.64,0.92
			C78.43,184.89,78.02,185.18,77.59,185.1z"/>
	</g>
	<path id="XMLID_119_" class="st12" d="M77.36,191.67l-1.13-0.13l0.13-1.13c0.01-0.09-0.05-0.17-0.14-0.18l-0.8-0.09
		c-0.09-0.01-0.17,0.05-0.18,0.14l-0.13,1.13l-1.13-0.13c-0.09-0.01-0.17,0.05-0.18,0.14l-0.09,0.8c-0.01,0.09,0.05,0.17,0.14,0.18
		l1.13,0.13l-0.13,1.13c-0.01,0.09,0.05,0.17,0.14,0.18l0.8,0.09c0.09,0.01,0.17-0.05,0.18-0.14l0.13-1.13l1.13,0.13
		c0.09,0.01,0.17-0.05,0.18-0.14l0.09-0.8C77.51,191.76,77.45,191.68,77.36,191.67z"/>
	<g>
		<linearGradient id="XMLID_3_" gradientUnits="userSpaceOnUse" x1="71.5094" y1="195.3688" x2="78.9083" y2="195.3688">
			<stop  offset="0" style="stop-color:#1F9BD7"/>
			<stop  offset="1" style="stop-color:#05BDCE"/>
		</linearGradient>
		<polygon id="XMLID_118_" class="st13" points="71.51,195.46 71.63,194.43 78.91,195.28 78.79,196.31 		"/>
		<g id="XMLID_112_">
			<linearGradient id="XMLID_4_" gradientUnits="userSpaceOnUse" x1="65.1314" y1="199.5846" x2="84.5058" y2="199.5846">
				<stop  offset="0" style="stop-color:#1F9BD7"/>
				<stop  offset="1" style="stop-color:#05BDCE"/>
			</linearGradient>
			<polygon id="XMLID_117_" class="st14" points="65.13,198.98 65.25,197.94 84.51,200.19 84.39,201.23 			"/>
			<linearGradient id="XMLID_5_" gradientUnits="userSpaceOnUse" x1="64.7959" y1="202.4454" x2="84.1703" y2="202.4454">
				<stop  offset="0" style="stop-color:#1F9BD7"/>
				<stop  offset="1" style="stop-color:#05BDCE"/>
			</linearGradient>
			<polygon id="XMLID_116_" class="st15" points="64.8,201.84 64.92,200.8 84.17,203.05 84.05,204.09 			"/>
			<linearGradient id="XMLID_6_" gradientUnits="userSpaceOnUse" x1="64.4615" y1="205.2989" x2="83.8359" y2="205.2989">
				<stop  offset="0" style="stop-color:#1F9BD7"/>
				<stop  offset="1" style="stop-color:#05BDCE"/>
			</linearGradient>
			<polygon id="XMLID_115_" class="st16" points="64.46,204.69 64.58,203.66 83.84,205.91 83.72,206.94 			"/>
			<linearGradient id="XMLID_7_" gradientUnits="userSpaceOnUse" x1="64.1258" y1="208.1599" x2="83.5002" y2="208.1599">
				<stop  offset="0" style="stop-color:#1F9BD7"/>
				<stop  offset="1" style="stop-color:#05BDCE"/>
			</linearGradient>
			<polygon id="XMLID_114_" class="st17" points="64.13,207.55 64.25,206.52 83.5,208.77 83.38,209.8 			"/>
			<linearGradient id="XMLID_8_" gradientUnits="userSpaceOnUse" x1="63.792" y1="211.013" x2="83.1664" y2="211.013">
				<stop  offset="0" style="stop-color:#1F9BD7"/>
				<stop  offset="1" style="stop-color:#05BDCE"/>
			</linearGradient>
			<polygon id="XMLID_113_" class="st18" points="63.79,210.4 63.91,209.37 83.17,211.62 83.05,212.66 			"/>
		</g>
	</g>
	<path id="XMLID_111_" class="st19" d="M79.67,224.47c-0.1,0.18-0.34,0.25-0.53,0.15l-0.76-0.44c-0.18-0.1-0.25-0.34-0.15-0.53
		l9.52-16.76c0.1-0.18,0.35-0.25,0.53-0.15l0.76,0.44c0.18,0.1,0.25,0.34,0.15,0.53L79.67,224.47z"/>
	<g id="XMLID_109_">
		<path id="XMLID_110_" class="st11" d="M87.5,211.18c-0.1,0.19-0.34,0.25-0.53,0.15l-1.19-0.67c-0.18-0.1-0.25-0.34-0.15-0.53
			l3.19-5.61c0.1-0.18,0.34-0.25,0.53-0.15l1.19,0.67c0.18,0.1,0.25,0.34,0.15,0.53L87.5,211.18z"/>
	</g>
</g>
<g>
	<g>
		<path class="st4" d="M176.33,192.87c-2.65,0-4.79-2.14-4.79-4.79c0-2.65,2.15-4.79,4.79-4.79c2.65,0,4.79,2.15,4.79,4.79
			C181.12,190.73,178.98,192.87,176.33,192.87z"/>
	</g>
	<path class="st4" d="M170.76,200.37c0,3.4,0,8.72,0,8.72c0,0,0,0,0,0v8.55v2.31c0,1.27,0.82,2.31,2.07,2.31
		c1.25,0,2.26-1.03,2.26-2.31v-2.34v-2.95l0-3.23c0-0.68,0.56-1.24,1.24-1.24l0,0c0.68,0,1.24,0.56,1.24,1.24l0,3.23v2.95v2.34
		c0,1.27,1.01,2.31,2.26,2.31c1.25,0,2.07-1.03,2.07-2.31v-2.31v-8.55c0,0,0,0,0,0v-8.72"/>
	<path class="st4" d="M170.73,207.5c0,1.18-0.94,2.14-2.09,2.14c-1.16,0-1.91-0.96-1.91-2.14v-0.91v-1.8v-4.67
		c0-2.7,2.19-4.88,4.88-4.88l0,0h1.33h6.78h1.33l0,0c2.7,0,4.88,2.19,4.88,4.88v4.67v1.8v0.91c0,1.18-0.76,2.14-1.91,2.14
		c-1.16,0-2.09-0.96-2.09-2.14"/>
	<g>
		<path class="st4" d="M163.96,197.64c-0.9-0.74-1.47-1.86-1.47-3.12c0-2.23,1.81-4.05,4.05-4.05c1.46,0,2.73,0.77,3.45,1.92"/>
	</g>
	<path class="st4" d="M162.52,204.8c0,2.87,0,6.83,0,6.83c0,0,0,0,0,0v6.14v0.08v2.46c0,1.08,0.69,1.95,1.75,1.95
		c1.05,0,1.91-0.87,1.91-1.95v-2.56v-1.41l0-2.73c0-0.58,0.47-1.05,1.05-1.05l0,0"/>
	<path class="st4" d="M162.5,210.29c0,1-0.79,1.8-1.77,1.8c-0.98,0-1.62-0.81-1.62-1.8v-2.28v-2.02v-1.39
		c0-2.28,1.85-4.13,4.13-4.13l0,0h-0.26"/>
	<g>
		<path class="st4" d="M188.63,197.64c0.9-0.74,1.47-1.86,1.47-3.12c0-2.23-1.81-4.05-4.05-4.05c-1.46,0-2.73,0.77-3.45,1.92"/>
	</g>
	<path class="st4" d="M190.06,204.8c0,2.87,0,6.83,0,6.83c0,0,0,0,0,0v6.14v0.08v2.46c0,1.08-0.69,1.95-1.75,1.95
		c-1.05,0-1.91-0.87-1.91-1.95v-2.56v-1.41l0-2.73c0-0.58-0.47-1.05-1.05-1.05l0,0"/>
	<path class="st4" d="M190.08,210.29c0,1,0.79,1.8,1.77,1.8c0.98,0,1.62-0.81,1.62-1.8v-2.28v-2.02v-1.39
		c0-2.28-1.85-4.13-4.13-4.13l0,0h0.26"/>
</g>
<g>
	
		<linearGradient id="icon_1_" gradientUnits="userSpaceOnUse" x1="206.1905" y1="109.1648" x2="225.957" y2="109.1648" gradientTransform="matrix(0.9887 0.1501 -0.1501 0.9887 17.2582 -37.1039)">
		<stop  offset="0" style="stop-color:#1F9BD7"/>
		<stop  offset="1" style="stop-color:#05BDCE"/>
	</linearGradient>
	<path id="icon_9_" class="st20" d="M222.38,117.21l-19.54-2.97l3.79-24.95l19.54,2.97L222.38,117.21z M204.16,113.28l17.25,2.62
		l3.44-22.66l-17.25-2.62L204.16,113.28z M223.81,93.87l-15.6-2.37l-0.29,1.9l15.6,2.37L223.81,93.87z M223.3,97.53l-9.62-1.46
		l-0.11,0.72l9.62,1.46L223.3,97.53z M223.03,99.35l-7.12-1.08l-0.14,0.95l7.12,1.08L223.03,99.35z M222.73,101.28l-12.49-1.9
		l-0.12,0.77l12.49,1.9L222.73,101.28z M218.88,105.11l3.2,0.49l0.08-0.54l-3.2-0.49L218.88,105.11z M218.74,106.01l3.2,0.49
		l0.08-0.54l-3.2-0.49L218.74,106.01z M218.6,106.91l3.2,0.49l0.08-0.54l-3.2-0.49L218.6,106.91z M221.69,107.85l-6.15-0.93
		l-0.07,0.48l6.15,0.93L221.69,107.85z M221.52,108.95l-3.19-0.48l-0.05,0.32l3.19,0.48L221.52,108.95z M221.38,109.86l-3.19-0.48
		l-0.05,0.32l3.19,0.48L221.38,109.86z M221.08,111.85l-5-0.76l-0.06,0.39l5,0.76L221.08,111.85z M220.92,112.89l-3.46-0.52
		l-0.05,0.3l3.46,0.52L220.92,112.89z M220.81,113.59l-3.46-0.52l-0.04,0.29l3.46,0.52L220.81,113.59z M212.25,109.24l-6.97-1.06
		l-0.13,0.86l6.97,1.06L212.25,109.24z M212.02,110.79l-6.82-1.04l-0.08,0.53l6.82,1.04L212.02,110.79z M205.93,111.39l-0.29-0.04
		l-0.25,1.62l0.29,0.04L205.93,111.39z M206.53,111.48l-0.29-0.04l-0.25,1.62l0.29,0.04L206.53,111.48z M207.13,111.57l-0.29-0.04
		l-0.25,1.62l0.29,0.04L207.13,111.57z M207.73,111.66l-0.29-0.04l-0.25,1.62l0.29,0.04L207.73,111.66z M208.25,112.29l-0.29-0.04
		l-0.17,1.09l0.29,0.04L208.25,112.29z M208.85,112.38l-0.29-0.04l-0.17,1.09l0.29,0.04L208.85,112.38z M209.18,113.69l-4.36-0.66
		l0.32-2.09l4.36,0.66L209.18,113.69z M205.15,112.79l3.79,0.57l0.23-1.51l-3.79-0.57L205.15,112.79z"/>
	<rect x="196.37" y="98.38" class="st21" width="17.49" height="22.84"/>
	<linearGradient id="icon_2_" gradientUnits="userSpaceOnUse" x1="192.4691" y1="110.1519" x2="214.4594" y2="110.1519">
		<stop  offset="0" style="stop-color:#1F9BD7"/>
		<stop  offset="1" style="stop-color:#05BDCE"/>
	</linearGradient>
	<path id="icon_12_" class="st22" d="M197.28,115.08h-0.85c-0.02,0-0.04,0-0.06-0.01v1.31c0.02-0.01,0.04-0.01,0.06-0.01h0.85
		c0.02,0,0.04,0,0.06,0.01v-1.31C197.32,115.08,197.3,115.08,197.28,115.08z M197.28,110.56h-0.85c-0.02,0-0.04,0-0.06-0.01v1.31
		c0.02-0.01,0.04-0.01,0.06-0.01h0.85c0.02,0,0.04,0,0.06,0.01v-1.31C197.32,110.56,197.3,110.56,197.28,110.56z M197.28,106.03
		h-0.85c-0.02,0-0.04,0-0.06-0.01v1.31c0.02-0.01,0.04-0.01,0.06-0.01h0.85c0.02,0,0.04,0,0.06,0.01v-1.31
		C197.32,106.03,197.3,106.03,197.28,106.03z M197.28,101.51h-0.85c-0.02,0-0.04,0-0.06-0.01v1.31c0.02-0.01,0.04-0.01,0.06-0.01
		h0.85c0.02,0,0.04,0,0.06,0.01v-1.31C197.32,101.51,197.3,101.51,197.28,101.51z M197.28,103.77h-0.85c-0.02,0-0.04,0-0.06-0.01
		v1.31c0.02-0.01,0.04-0.01,0.06-0.01h0.85c0.02,0,0.04,0,0.06,0.01v-1.31C197.32,103.77,197.3,103.77,197.28,103.77z
		 M197.28,108.29h-0.85c-0.02,0-0.04,0-0.06-0.01v1.31c0.02-0.01,0.04-0.01,0.06-0.01h0.85c0.02,0,0.04,0,0.06,0.01v-1.31
		C197.32,108.29,197.3,108.29,197.28,108.29z M197.28,112.82h-0.85c-0.02,0-0.04,0-0.06-0.01v1.31c0.02-0.01,0.04-0.01,0.06-0.01
		h0.85c0.02,0,0.04,0,0.06,0.01v-1.31C197.32,112.82,197.3,112.82,197.28,112.82z M197.28,112.82h-0.85c-0.02,0-0.04,0-0.06-0.01
		v1.31c0.02-0.01,0.04-0.01,0.06-0.01h0.85c0.02,0,0.04,0,0.06,0.01v-1.31C197.32,112.82,197.3,112.82,197.28,112.82z
		 M197.28,115.08h-0.85c-0.02,0-0.04,0-0.06-0.01v1.31c0.02-0.01,0.04-0.01,0.06-0.01h0.85c0.02,0,0.04,0,0.06,0.01v-1.31
		C197.32,115.08,197.3,115.08,197.28,115.08z M197.28,115.08h-0.85c-0.02,0-0.04,0-0.06-0.01v1.31c0.02-0.01,0.04-0.01,0.06-0.01
		h0.85c0.02,0,0.04,0,0.06,0.01v-1.31C197.32,115.08,197.3,115.08,197.28,115.08z M197.28,112.82h-0.85c-0.02,0-0.04,0-0.06-0.01
		v1.31c0.02-0.01,0.04-0.01,0.06-0.01h0.85c0.02,0,0.04,0,0.06,0.01v-1.31C197.32,112.82,197.3,112.82,197.28,112.82z
		 M197.28,110.56h-0.85c-0.02,0-0.04,0-0.06-0.01v1.31c0.02-0.01,0.04-0.01,0.06-0.01h0.85c0.02,0,0.04,0,0.06,0.01v-1.31
		C197.32,110.56,197.3,110.56,197.28,110.56z M197.28,106.03h-0.85c-0.02,0-0.04,0-0.06-0.01v1.31c0.02-0.01,0.04-0.01,0.06-0.01
		h0.85c0.02,0,0.04,0,0.06,0.01v-1.31C197.32,106.03,197.3,106.03,197.28,106.03z M197.28,101.51h-0.85c-0.02,0-0.04,0-0.06-0.01
		v1.31c0.02-0.01,0.04-0.01,0.06-0.01h0.85c0.02,0,0.04,0,0.06,0.01v-1.31C197.32,101.51,197.3,101.51,197.28,101.51z
		 M197.28,103.77h-0.85c-0.02,0-0.04,0-0.06-0.01v1.31c0.02-0.01,0.04-0.01,0.06-0.01h0.85c0.02,0,0.04,0,0.06,0.01v-1.31
		C197.32,103.77,197.3,103.77,197.28,103.77z M197.28,108.29h-0.85c-0.02,0-0.04,0-0.06-0.01v1.31c0.02-0.01,0.04-0.01,0.06-0.01
		h0.85c0.02,0,0.04,0,0.06,0.01v-1.31C197.32,108.29,197.3,108.29,197.28,108.29z M197.28,108.29h-0.85c-0.02,0-0.04,0-0.06-0.01
		v1.31c0.02-0.01,0.04-0.01,0.06-0.01h0.85c0.02,0,0.04,0,0.06,0.01v-1.31C197.32,108.29,197.3,108.29,197.28,108.29z
		 M197.28,110.56h-0.85c-0.02,0-0.04,0-0.06-0.01v1.31c0.02-0.01,0.04-0.01,0.06-0.01h0.85c0.02,0,0.04,0,0.06,0.01v-1.31
		C197.32,110.56,197.3,110.56,197.28,110.56z M197.28,112.82h-0.85c-0.02,0-0.04,0-0.06-0.01v1.31c0.02-0.01,0.04-0.01,0.06-0.01
		h0.85c0.02,0,0.04,0,0.06,0.01v-1.31C197.32,112.82,197.3,112.82,197.28,112.82z M197.28,115.08h-0.85c-0.02,0-0.04,0-0.06-0.01
		v1.31c0.02-0.01,0.04-0.01,0.06-0.01h0.85c0.02,0,0.04,0,0.06,0.01v-1.31C197.32,115.08,197.3,115.08,197.28,115.08z
		 M197.28,115.08h-0.85c-0.02,0-0.04,0-0.06-0.01v1.31c0.02-0.01,0.04-0.01,0.06-0.01h0.85c0.02,0,0.04,0,0.06,0.01v-1.31
		C197.32,115.08,197.3,115.08,197.28,115.08z M197.28,112.82h-0.85c-0.02,0-0.04,0-0.06-0.01v1.31c0.02-0.01,0.04-0.01,0.06-0.01
		h0.85c0.02,0,0.04,0,0.06,0.01v-1.31C197.32,112.82,197.3,112.82,197.28,112.82z M197.28,110.56h-0.85c-0.02,0-0.04,0-0.06-0.01
		v1.31c0.02-0.01,0.04-0.01,0.06-0.01h0.85c0.02,0,0.04,0,0.06,0.01v-1.31C197.32,110.56,197.3,110.56,197.28,110.56z
		 M197.28,108.29h-0.85c-0.02,0-0.04,0-0.06-0.01v1.31c0.02-0.01,0.04-0.01,0.06-0.01h0.85c0.02,0,0.04,0,0.06,0.01v-1.31
		C197.32,108.29,197.3,108.29,197.28,108.29z M197.28,106.03h-0.85c-0.02,0-0.04,0-0.06-0.01v1.31c0.02-0.01,0.04-0.01,0.06-0.01
		h0.85c0.02,0,0.04,0,0.06,0.01v-1.31C197.32,106.03,197.3,106.03,197.28,106.03z M197.28,101.51h-0.85c-0.02,0-0.04,0-0.06-0.01
		v1.31c0.02-0.01,0.04-0.01,0.06-0.01h0.85c0.02,0,0.04,0,0.06,0.01v-1.31C197.32,101.51,197.3,101.51,197.28,101.51z
		 M197.28,103.77h-0.85c-0.02,0-0.04,0-0.06-0.01v1.31c0.02-0.01,0.04-0.01,0.06-0.01h0.85c0.02,0,0.04,0,0.06,0.01v-1.31
		C197.32,103.77,197.3,103.77,197.28,103.77z M197.28,103.77h-0.85c-0.02,0-0.04,0-0.06-0.01v1.31c0.02-0.01,0.04-0.01,0.06-0.01
		h0.85c0.02,0,0.04,0,0.06,0.01v-1.31C197.32,103.77,197.3,103.77,197.28,103.77z M197.28,106.03h-0.85c-0.02,0-0.04,0-0.06-0.01
		v1.31c0.02-0.01,0.04-0.01,0.06-0.01h0.85c0.02,0,0.04,0,0.06,0.01v-1.31C197.32,106.03,197.3,106.03,197.28,106.03z
		 M197.28,108.29h-0.85c-0.02,0-0.04,0-0.06-0.01v1.31c0.02-0.01,0.04-0.01,0.06-0.01h0.85c0.02,0,0.04,0,0.06,0.01v-1.31
		C197.32,108.29,197.3,108.29,197.28,108.29z M197.28,110.56h-0.85c-0.02,0-0.04,0-0.06-0.01v1.31c0.02-0.01,0.04-0.01,0.06-0.01
		h0.85c0.02,0,0.04,0,0.06,0.01v-1.31C197.32,110.56,197.3,110.56,197.28,110.56z M197.28,112.82h-0.85c-0.02,0-0.04,0-0.06-0.01
		v1.31c0.02-0.01,0.04-0.01,0.06-0.01h0.85c0.02,0,0.04,0,0.06,0.01v-1.31C197.32,112.82,197.3,112.82,197.28,112.82z
		 M197.28,115.08h-0.85c-0.02,0-0.04,0-0.06-0.01v1.31c0.02-0.01,0.04-0.01,0.06-0.01h0.85c0.02,0,0.04,0,0.06,0.01v-1.31
		C197.32,115.08,197.3,115.08,197.28,115.08z M196.43,115.08c-0.02,0-0.04,0-0.06-0.01v1.31c0.02-0.01,0.04-0.01,0.06-0.01h0.85
		c0.02,0,0.04,0,0.06,0.01v-1.31c-0.02,0.01-0.04,0.01-0.06,0.01H196.43z M196.43,112.82c-0.02,0-0.04,0-0.06-0.01v1.31
		c0.02-0.01,0.04-0.01,0.06-0.01h0.85c0.02,0,0.04,0,0.06,0.01v-1.31c-0.02,0.01-0.04,0.01-0.06,0.01H196.43z M196.43,110.56
		c-0.02,0-0.04,0-0.06-0.01v1.31c0.02-0.01,0.04-0.01,0.06-0.01h0.85c0.02,0,0.04,0,0.06,0.01v-1.31c-0.02,0.01-0.04,0.01-0.06,0.01
		H196.43z M196.43,108.29c-0.02,0-0.04,0-0.06-0.01v1.31c0.02-0.01,0.04-0.01,0.06-0.01h0.85c0.02,0,0.04,0,0.06,0.01v-1.31
		c-0.02,0.01-0.04,0.01-0.06,0.01H196.43z M196.43,106.03c-0.02,0-0.04,0-0.06-0.01v1.31c0.02-0.01,0.04-0.01,0.06-0.01h0.85
		c0.02,0,0.04,0,0.06,0.01v-1.31c-0.02,0.01-0.04,0.01-0.06,0.01H196.43z M196.43,103.77c-0.02,0-0.04,0-0.06-0.01v1.31
		c0.02-0.01,0.04-0.01,0.06-0.01h0.85c0.02,0,0.04,0,0.06,0.01v-1.31c-0.02,0.01-0.04,0.01-0.06,0.01H196.43z M197.28,101.51h-0.85
		c-0.02,0-0.04,0-0.06-0.01v1.31c0.02-0.01,0.04-0.01,0.06-0.01h0.85c0.02,0,0.04,0,0.06,0.01v-1.31
		C197.32,101.51,197.3,101.51,197.28,101.51z M197.31,97.84c-0.45-0.77-1.29-1.29-2.24-1.29c-1.43,0-2.6,1.17-2.6,2.6v21.9h0.01
		c0,0.04-0.01,0.07-0.01,0.11l0,0.08h0c0.04,1.4,1.19,2.52,2.59,2.52h17.86v-2.53h1.54V97.84H197.31z M211.63,122.46h-16.56
		c-0.7,0-1.28-0.56-1.3-1.26c0.02-0.7,0.59-1.26,1.3-1.26c0.72,0,1.3,0.58,1.3,1.29h15.26V122.46z M213.17,119.93h-15.83v-2.59
		c-0.02,0.01-0.04,0.01-0.06,0.01h-0.85c-0.02,0-0.04,0-0.06-0.01v1.65c-0.38-0.22-0.83-0.35-1.3-0.35c-0.48,0-0.92,0.13-1.3,0.36
		V99.15c0-0.72,0.59-1.3,1.3-1.3c0.72,0,1.3,0.58,1.3,1.29v1.41c0.02-0.01,0.04-0.01,0.06-0.01h0.85c0.02,0,0.04,0,0.06,0.01v-1.41
		h15.83V119.93z M196.43,115.08c-0.02,0-0.04,0-0.06-0.01v1.31c0.02-0.01,0.04-0.01,0.06-0.01h0.85c0.02,0,0.04,0,0.06,0.01v-1.31
		c-0.02,0.01-0.04,0.01-0.06,0.01H196.43z M196.43,112.82c-0.02,0-0.04,0-0.06-0.01v1.31c0.02-0.01,0.04-0.01,0.06-0.01h0.85
		c0.02,0,0.04,0,0.06,0.01v-1.31c-0.02,0.01-0.04,0.01-0.06,0.01H196.43z M196.43,110.56c-0.02,0-0.04,0-0.06-0.01v1.31
		c0.02-0.01,0.04-0.01,0.06-0.01h0.85c0.02,0,0.04,0,0.06,0.01v-1.31c-0.02,0.01-0.04,0.01-0.06,0.01H196.43z M196.43,108.29
		c-0.02,0-0.04,0-0.06-0.01v1.31c0.02-0.01,0.04-0.01,0.06-0.01h0.85c0.02,0,0.04,0,0.06,0.01v-1.31c-0.02,0.01-0.04,0.01-0.06,0.01
		H196.43z M196.43,106.03c-0.02,0-0.04,0-0.06-0.01v1.31c0.02-0.01,0.04-0.01,0.06-0.01h0.85c0.02,0,0.04,0,0.06,0.01v-1.31
		c-0.02,0.01-0.04,0.01-0.06,0.01H196.43z M196.43,103.77c-0.02,0-0.04,0-0.06-0.01v1.31c0.02-0.01,0.04-0.01,0.06-0.01h0.85
		c0.02,0,0.04,0,0.06,0.01v-1.31c-0.02,0.01-0.04,0.01-0.06,0.01H196.43z M196.43,101.51c-0.02,0-0.04,0-0.06-0.01v1.31
		c0.02-0.01,0.04-0.01,0.06-0.01h0.85c0.02,0,0.04,0,0.06,0.01v-1.31c-0.02,0.01-0.04,0.01-0.06,0.01H196.43z M197.28,101.51h-0.85
		c-0.02,0-0.04,0-0.06-0.01v1.31c0.02-0.01,0.04-0.01,0.06-0.01h0.85c0.02,0,0.04,0,0.06,0.01v-1.31
		C197.32,101.51,197.3,101.51,197.28,101.51z M197.28,103.77h-0.85c-0.02,0-0.04,0-0.06-0.01v1.31c0.02-0.01,0.04-0.01,0.06-0.01
		h0.85c0.02,0,0.04,0,0.06,0.01v-1.31C197.32,103.77,197.3,103.77,197.28,103.77z M197.28,106.03h-0.85c-0.02,0-0.04,0-0.06-0.01
		v1.31c0.02-0.01,0.04-0.01,0.06-0.01h0.85c0.02,0,0.04,0,0.06,0.01v-1.31C197.32,106.03,197.3,106.03,197.28,106.03z
		 M197.28,108.29h-0.85c-0.02,0-0.04,0-0.06-0.01v1.31c0.02-0.01,0.04-0.01,0.06-0.01h0.85c0.02,0,0.04,0,0.06,0.01v-1.31
		C197.32,108.29,197.3,108.29,197.28,108.29z M197.28,110.56h-0.85c-0.02,0-0.04,0-0.06-0.01v1.31c0.02-0.01,0.04-0.01,0.06-0.01
		h0.85c0.02,0,0.04,0,0.06,0.01v-1.31C197.32,110.56,197.3,110.56,197.28,110.56z M197.28,112.82h-0.85c-0.02,0-0.04,0-0.06-0.01
		v1.31c0.02-0.01,0.04-0.01,0.06-0.01h0.85c0.02,0,0.04,0,0.06,0.01v-1.31C197.32,112.82,197.3,112.82,197.28,112.82z
		 M197.28,115.08h-0.85c-0.02,0-0.04,0-0.06-0.01v1.31c0.02-0.01,0.04-0.01,0.06-0.01h0.85c0.02,0,0.04,0,0.06,0.01v-1.31
		C197.32,115.08,197.3,115.08,197.28,115.08z M197.28,115.08h-0.85c-0.02,0-0.04,0-0.06-0.01v1.31c0.02-0.01,0.04-0.01,0.06-0.01
		h0.85c0.02,0,0.04,0,0.06,0.01v-1.31C197.32,115.08,197.3,115.08,197.28,115.08z M197.28,112.82h-0.85c-0.02,0-0.04,0-0.06-0.01
		v1.31c0.02-0.01,0.04-0.01,0.06-0.01h0.85c0.02,0,0.04,0,0.06,0.01v-1.31C197.32,112.82,197.3,112.82,197.28,112.82z
		 M197.28,110.56h-0.85c-0.02,0-0.04,0-0.06-0.01v1.31c0.02-0.01,0.04-0.01,0.06-0.01h0.85c0.02,0,0.04,0,0.06,0.01v-1.31
		C197.32,110.56,197.3,110.56,197.28,110.56z M197.28,108.29h-0.85c-0.02,0-0.04,0-0.06-0.01v1.31c0.02-0.01,0.04-0.01,0.06-0.01
		h0.85c0.02,0,0.04,0,0.06,0.01v-1.31C197.32,108.29,197.3,108.29,197.28,108.29z M197.28,106.03h-0.85c-0.02,0-0.04,0-0.06-0.01
		v1.31c0.02-0.01,0.04-0.01,0.06-0.01h0.85c0.02,0,0.04,0,0.06,0.01v-1.31C197.32,106.03,197.3,106.03,197.28,106.03z
		 M197.28,106.03h-0.85c-0.02,0-0.04,0-0.06-0.01v1.31c0.02-0.01,0.04-0.01,0.06-0.01h0.85c0.02,0,0.04,0,0.06,0.01v-1.31
		C197.32,106.03,197.3,106.03,197.28,106.03z M197.28,101.51h-0.85c-0.02,0-0.04,0-0.06-0.01v1.31c0.02-0.01,0.04-0.01,0.06-0.01
		h0.85c0.02,0,0.04,0,0.06,0.01v-1.31C197.32,101.51,197.3,101.51,197.28,101.51z M197.28,103.77h-0.85c-0.02,0-0.04,0-0.06-0.01
		v1.31c0.02-0.01,0.04-0.01,0.06-0.01h0.85c0.02,0,0.04,0,0.06,0.01v-1.31C197.32,103.77,197.3,103.77,197.28,103.77z
		 M197.28,108.29h-0.85c-0.02,0-0.04,0-0.06-0.01v1.31c0.02-0.01,0.04-0.01,0.06-0.01h0.85c0.02,0,0.04,0,0.06,0.01v-1.31
		C197.32,108.29,197.3,108.29,197.28,108.29z M197.28,110.56h-0.85c-0.02,0-0.04,0-0.06-0.01v1.31c0.02-0.01,0.04-0.01,0.06-0.01
		h0.85c0.02,0,0.04,0,0.06,0.01v-1.31C197.32,110.56,197.3,110.56,197.28,110.56z M197.28,112.82h-0.85c-0.02,0-0.04,0-0.06-0.01
		v1.31c0.02-0.01,0.04-0.01,0.06-0.01h0.85c0.02,0,0.04,0,0.06,0.01v-1.31C197.32,112.82,197.3,112.82,197.28,112.82z
		 M197.28,115.08h-0.85c-0.02,0-0.04,0-0.06-0.01v1.31c0.02-0.01,0.04-0.01,0.06-0.01h0.85c0.02,0,0.04,0,0.06,0.01v-1.31
		C197.32,115.08,197.3,115.08,197.28,115.08z M197.28,115.08h-0.85c-0.02,0-0.04,0-0.06-0.01v1.31c0.02-0.01,0.04-0.01,0.06-0.01
		h0.85c0.02,0,0.04,0,0.06,0.01v-1.31C197.32,115.08,197.3,115.08,197.28,115.08z M197.28,112.82h-0.85c-0.02,0-0.04,0-0.06-0.01
		v1.31c0.02-0.01,0.04-0.01,0.06-0.01h0.85c0.02,0,0.04,0,0.06,0.01v-1.31C197.32,112.82,197.3,112.82,197.28,112.82z
		 M197.28,110.56h-0.85c-0.02,0-0.04,0-0.06-0.01v1.31c0.02-0.01,0.04-0.01,0.06-0.01h0.85c0.02,0,0.04,0,0.06,0.01v-1.31
		C197.32,110.56,197.3,110.56,197.28,110.56z M197.28,110.56h-0.85c-0.02,0-0.04,0-0.06-0.01v1.31c0.02-0.01,0.04-0.01,0.06-0.01
		h0.85c0.02,0,0.04,0,0.06,0.01v-1.31C197.32,110.56,197.3,110.56,197.28,110.56z M197.28,106.03h-0.85c-0.02,0-0.04,0-0.06-0.01
		v1.31c0.02-0.01,0.04-0.01,0.06-0.01h0.85c0.02,0,0.04,0,0.06,0.01v-1.31C197.32,106.03,197.3,106.03,197.28,106.03z
		 M197.28,101.51h-0.85c-0.02,0-0.04,0-0.06-0.01v1.31c0.02-0.01,0.04-0.01,0.06-0.01h0.85c0.02,0,0.04,0,0.06,0.01v-1.31
		C197.32,101.51,197.3,101.51,197.28,101.51z M197.28,103.77h-0.85c-0.02,0-0.04,0-0.06-0.01v1.31c0.02-0.01,0.04-0.01,0.06-0.01
		h0.85c0.02,0,0.04,0,0.06,0.01v-1.31C197.32,103.77,197.3,103.77,197.28,103.77z M197.28,108.29h-0.85c-0.02,0-0.04,0-0.06-0.01
		v1.31c0.02-0.01,0.04-0.01,0.06-0.01h0.85c0.02,0,0.04,0,0.06,0.01v-1.31C197.32,108.29,197.3,108.29,197.28,108.29z
		 M197.28,112.82h-0.85c-0.02,0-0.04,0-0.06-0.01v1.31c0.02-0.01,0.04-0.01,0.06-0.01h0.85c0.02,0,0.04,0,0.06,0.01v-1.31
		C197.32,112.82,197.3,112.82,197.28,112.82z M197.28,115.08h-0.85c-0.02,0-0.04,0-0.06-0.01v1.31c0.02-0.01,0.04-0.01,0.06-0.01
		h0.85c0.02,0,0.04,0,0.06,0.01v-1.31C197.32,115.08,197.3,115.08,197.28,115.08z M197.28,115.08h-0.85c-0.02,0-0.04,0-0.06-0.01
		v1.31c0.02-0.01,0.04-0.01,0.06-0.01h0.85c0.02,0,0.04,0,0.06,0.01v-1.31C197.32,115.08,197.3,115.08,197.28,115.08z
		 M197.28,115.08h-0.85c-0.02,0-0.04,0-0.06-0.01v1.31c0.02-0.01,0.04-0.01,0.06-0.01h0.85c0.02,0,0.04,0,0.06,0.01v-1.31
		C197.32,115.08,197.3,115.08,197.28,115.08z M197.28,110.56h-0.85c-0.02,0-0.04,0-0.06-0.01v1.31c0.02-0.01,0.04-0.01,0.06-0.01
		h0.85c0.02,0,0.04,0,0.06,0.01v-1.31C197.32,110.56,197.3,110.56,197.28,110.56z M197.28,106.03h-0.85c-0.02,0-0.04,0-0.06-0.01
		v1.31c0.02-0.01,0.04-0.01,0.06-0.01h0.85c0.02,0,0.04,0,0.06,0.01v-1.31C197.32,106.03,197.3,106.03,197.28,106.03z
		 M197.28,101.51h-0.85c-0.02,0-0.04,0-0.06-0.01v1.31c0.02-0.01,0.04-0.01,0.06-0.01h0.85c0.02,0,0.04,0,0.06,0.01v-1.31
		C197.32,101.51,197.3,101.51,197.28,101.51z M197.28,103.77h-0.85c-0.02,0-0.04,0-0.06-0.01v1.31c0.02-0.01,0.04-0.01,0.06-0.01
		h0.85c0.02,0,0.04,0,0.06,0.01v-1.31C197.32,103.77,197.3,103.77,197.28,103.77z M197.28,108.29h-0.85c-0.02,0-0.04,0-0.06-0.01
		v1.31c0.02-0.01,0.04-0.01,0.06-0.01h0.85c0.02,0,0.04,0,0.06,0.01v-1.31C197.32,108.29,197.3,108.29,197.28,108.29z
		 M197.28,112.82h-0.85c-0.02,0-0.04,0-0.06-0.01v1.31c0.02-0.01,0.04-0.01,0.06-0.01h0.85c0.02,0,0.04,0,0.06,0.01v-1.31
		C197.32,112.82,197.3,112.82,197.28,112.82z M211.97,108.94h-5.12v-6.1h5.12V108.94z M202.94,110.23h-3.66v7.6h3.66V110.23z
		 M207.47,110.23h-3.66v7.6h3.66V110.23z M211.99,110.23h-3.66v7.6h3.66V110.23z M205.93,103.16h-6.63v0.65h6.63V103.16z
		 M205.93,104.78h-6.63v0.65h6.63V104.78z M205.93,106.4h-6.63v0.65h6.63V106.4z M205.93,108.01h-6.63v0.65h6.63V108.01z
		 M211.97,101.06h-12.69v0.97h12.69V101.06z"/>
</g>
<circle class="st3" cx="125.71" cy="134.11" r="33.39"/>
<g>
	
		<linearGradient id="Path_865_1_" gradientUnits="userSpaceOnUse" x1="-868.2922" y1="178.2355" x2="-868.1894" y2="178.399" gradientTransform="matrix(48.381 0 0 43.105 42127.4961 -7548.9268)">
		<stop  offset="0" style="stop-color:#68BE96"/>
		<stop  offset="0.162" style="stop-color:#60BA94"/>
		<stop  offset="0.404" style="stop-color:#49B290"/>
		<stop  offset="0.695" style="stop-color:#28A489"/>
		<stop  offset="1" style="stop-color:#009380"/>
	</linearGradient>
	<path id="Path_865_2_" class="st23" d="M121.07,137.06L121.07,137.06c-0.61-0.51-7.11-6.25-7.73-7.22l-0.69,0.05
		c2.79,4.07,7.55,14.14,14.39,15.51c0.35-0.03,0.74-0.07,0.95-0.09c0.63-0.11,1.28-0.22,1.96-0.37c0.11-0.03,0.15-0.05,0.15-0.05
		c-0.88-0.37-1.83-0.69-2.54-1.23C124.71,142.18,121.07,137.06,121.07,137.06z"/>
	
		<linearGradient id="Path_866_1_" gradientUnits="userSpaceOnUse" x1="-859.1738" y1="245.5322" x2="-859.0696" y2="245.8033" gradientTransform="matrix(23.6599 0 0 14.0605 20440.875 -3324.9016)">
		<stop  offset="0" style="stop-color:#7ECBF2"/>
		<stop  offset="1" style="stop-color:#218FCF"/>
	</linearGradient>
	<path id="Path_866_2_" class="st24" d="M118.15,131.3c-3.44-0.71-2.97-3.06-6.08-4.15c-0.78-0.28-1.49-0.63-2.47-0.63
		c0.77,0.58,2.88,3.03,3.44,3.51C113.05,130.03,114.64,132.41,118.15,131.3z"/>
	
		<linearGradient id="Path_867_1_" gradientUnits="userSpaceOnUse" x1="-862.9499" y1="414.5343" x2="-862.5891" y2="414.5343" gradientTransform="matrix(30.3621 0 0 5.2361 26306.3438 -2045.5256)">
		<stop  offset="0" style="stop-color:#E96DA4"/>
		<stop  offset="1" style="stop-color:#A12382"/>
	</linearGradient>
	<path id="Path_867_2_" class="st25" d="M107.29,125.41c0.99-0.11,2.58,0.13,4.43,0.41h0.01l0.11,0.02
		c4.29,0.66,4.49-1.45,4.49-1.45c-1.92,1.05-5.98-0.29-8.15-0.31c-1.23-0.04-2.35,0.69-2.81,1.83
		C105.36,125.92,105.92,125.55,107.29,125.41z"/>
	
		<linearGradient id="Path_868_1_" gradientUnits="userSpaceOnUse" x1="-865.4391" y1="313.7985" x2="-865.1716" y2="314.1479" gradientTransform="matrix(37.225 0 0 8.3582 32324.5176 -2497.6101)">
		<stop  offset="0" style="stop-color:#1F9BD7"/>
		<stop  offset="1" style="stop-color:#02509E"/>
	</linearGradient>
	<path id="Path_868_2_" class="st26" d="M108.98,126.27c2.09,0.79,4.88,2.17,7.16,1.86c1.05-0.14,2.32-0.58,2.68-1.73
		c0,0-1.31,1.05-7.09-0.58c-1.27-0.22-2.92-0.81-4.47-0.64c-1.37,0.15-1.87,0.73-1.87,0.73c0.26,0.03,0.5,0.15,0.69,0.35
		C106.14,126.23,107.81,125.83,108.98,126.27z"/>
	
		<linearGradient id="Path_869_1_" gradientUnits="userSpaceOnUse" x1="-854.862" y1="187.5878" x2="-854.7743" y2="187.8527" gradientTransform="matrix(19.0336 0 0 33.302 16382.6367 -6112.5059)">
		<stop  offset="0" style="stop-color:#EC6D33"/>
		<stop  offset="1" style="stop-color:#E41E26"/>
	</linearGradient>
	<path id="Path_869_2_" class="st27" d="M112.3,140.26c-1.45-2.9-2.34-5.94-3.14-7.67l0,0c-0.12,1.71,0.03,3.43,0.45,5.09
		c0.69,2.44,2.36,5.49,6.37,6.93l0,0C114.75,143.54,113.39,142.45,112.3,140.26z"/>
	
		<linearGradient id="Path_870_1_" gradientUnits="userSpaceOnUse" x1="-856.7271" y1="250.0388" x2="-856.7921" y2="249.8821" gradientTransform="matrix(19.7 0 0 13.2529 17004.791 -3169.8923)">
		<stop  offset="0" style="stop-color:#EC6D33"/>
		<stop  offset="1" style="stop-color:#E41E26"/>
	</linearGradient>
	<path id="Path_870_2_" class="st28" d="M129.83,144.63c-1.38-0.47-2.54-1.44-3.25-2.72l0,0c-1.01-1.06-2.37-1.74-3.82-1.93l0,0
		c0,0,2.61,3.71,6.77,4.79c0.09-0.03,0.21-0.07,0.35-0.12C129.85,144.64,129.85,144.64,129.83,144.63z"/>
	
		<linearGradient id="Path_873_1_" gradientUnits="userSpaceOnUse" x1="-865.5471" y1="250.0932" x2="-865.8405" y2="249.8034" gradientTransform="matrix(35.949 0 0 13.2986 31247.9922 -3183.5928)">
		<stop  offset="0" style="stop-color:#FEE516;stop-opacity:0"/>
		<stop  offset="0.505" style="stop-color:#FEE516"/>
		<stop  offset="1" style="stop-color:#F5AA1C"/>
	</linearGradient>
	<path id="Path_873_2_" class="st29" d="M127.92,142.15c4.57,0.51,5.74-1.25,5.74-1.25s-3.93,0.88-7.52-1.2
		c-2.58-1.48-3.95-1.98-5.45-2.26C122.17,140.12,124.87,141.88,127.92,142.15z"/>
	
		<linearGradient id="Path_874_1_" gradientUnits="userSpaceOnUse" x1="-869.2045" y1="280.9925" x2="-869.5203" y2="280.8564" gradientTransform="matrix(54.0499 0 0 10.2554 47118.707 -2742.5063)">
		<stop  offset="0" style="stop-color:#FBDE1A;stop-opacity:0"/>
		<stop  offset="0.325" style="stop-color:#FBDE1A"/>
		<stop  offset="1" style="stop-color:#EA6D24"/>
	</linearGradient>
	<path id="Path_874_2_" class="st30" d="M119.87,136.56c0,0,1.81,3.55,12.08,3.7c5.92,0.09,7.42-2.68,7.42-2.68s-4,1.79-10.79-0.02
		L119.87,136.56z"/>
	
		<linearGradient id="Path_875_1_" gradientUnits="userSpaceOnUse" x1="-870.8142" y1="226.5833" x2="-871.1008" y2="226.7671" gradientTransform="matrix(69.8579 0 0 17.2515 60975.0508 -3775.3135)">
		<stop  offset="0" style="stop-color:#BAD532;stop-opacity:0"/>
		<stop  offset="0.261" style="stop-color:#BAD532"/>
		<stop  offset="1" style="stop-color:#10A64A"/>
	</linearGradient>
	<path id="Path_875_2_" class="st31" d="M117.75,134.55c0,0,1.08,4.22,13.65,3.4c8.94-0.58,11.54-4.29,11.56-6.13
		C142.97,131.82,137.63,137.46,117.75,134.55z"/>
	
		<linearGradient id="Path_876_1_" gradientUnits="userSpaceOnUse" x1="-871.1981" y1="194.7334" x2="-871.5295" y2="195.0012" gradientTransform="matrix(75.8781 0 0 28.696 66249.7344 -5460.1406)">
		<stop  offset="0" style="stop-color:#6CC4EE;stop-opacity:0"/>
		<stop  offset="0.282" style="stop-color:#6CC4EE"/>
		<stop  offset="1" style="stop-color:#218FCF"/>
	</linearGradient>
	<path id="Path_876_2_" class="st32" d="M116.13,133c0,0,2.51,5.45,17.84,1.91c9.79-2.26,9.45-8.47,9.54-9.16
		c0,0-1.99,3.67-9.99,6.12C125.6,134.28,116.13,133,116.13,133z"/>
	
		<linearGradient id="Path_877_1_" gradientUnits="userSpaceOnUse" x1="-871.0618" y1="182.8181" x2="-871.3747" y2="183.1278" gradientTransform="matrix(74.209 0 0 38.1689 64782.7188 -6855.0552)">
		<stop  offset="0" style="stop-color:#1D92D1;stop-opacity:0"/>
		<stop  offset="0.22" style="stop-color:#1D92D1"/>
		<stop  offset="1" style="stop-color:#075CAA"/>
	</linearGradient>
	<path id="Path_877_2_" class="st33" d="M114.92,131.9c0,0,1.66,2.68,7.62,2.48c5.92-0.19,21.49-3.48,18.87-13.76
		c0,0-0.45,5.55-12.01,9.54C119.62,133.53,114.92,131.9,114.92,131.9z"/>
	
		<linearGradient id="Path_878_1_" gradientUnits="userSpaceOnUse" x1="-870.882" y1="173.8539" x2="-871.2013" y2="174.1564" gradientTransform="matrix(72.4615 0 0 50.7776 63245.168 -8709.5879)">
		<stop  offset="0" style="stop-color:#DD599D;stop-opacity:0"/>
		<stop  offset="0.187" style="stop-color:#DD599D"/>
		<stop  offset="1" style="stop-color:#A12382"/>
	</linearGradient>
	<path id="Path_878_2_" class="st34" d="M113.05,130.03c0,0,1.34,1.49,5.67,1.24c4.93-0.29,10.95-2.71,15.6-8.45
		c4.36-5.36,3.13-8.28,3.13-8.28s2.62,1.66,1.44,6.1c-1.11,4.2-6.51,11.91-18.98,12.22C117.71,132.92,114.79,132.85,113.05,130.03z"
		/>
	<g>
		
			<linearGradient id="Path_871_1_" gradientUnits="userSpaceOnUse" x1="-833.3435" y1="219.2185" x2="-833.3435" y2="219.5567" gradientTransform="matrix(8.6537 0 0 18.614 7345.3608 -3933.8132)">
			<stop  offset="0" style="stop-color:#7ECBF2"/>
			<stop  offset="1" style="stop-color:#218FCF"/>
		</linearGradient>
		<path id="Path_871_2_" class="st35" d="M134.56,152L134.56,152c0.01,0.16,0.11,0.45,0.37,0.39c0.41-0.1,0.37-1.02,0.37-1.1l0,0
			c0-4.41-2.89-5.12-2.89-5.12C133.81,147.78,134.32,150.16,134.56,152z"/>
		
			<linearGradient id="Path_872_1_" gradientUnits="userSpaceOnUse" x1="-850.9985" y1="215.8992" x2="-850.8106" y2="216.1157" gradientTransform="matrix(14.5792 0 0 19.5107 12541.4824 -4064.6394)">
			<stop  offset="0" style="stop-color:#68BE96"/>
			<stop  offset="1" style="stop-color:#009378"/>
		</linearGradient>
		<path id="Path_872_2_" class="st36" d="M132.68,146.2c-0.09-0.04-0.18-0.07-0.27-0.08c1.43,0.95,3.35,2.82,4.2,6.24
			c0,0,0.1,0.32,0.31,0.28c0.28-0.05,0.4-0.76,0.35-1.57c-0.04-0.83-0.32-1.63-0.82-2.3C135.33,147.72,134.06,146.85,132.68,146.2z"
			/>
		
			<linearGradient id="Path_879_1_" gradientUnits="userSpaceOnUse" x1="-864.4827" y1="198.6843" x2="-864.3568" y2="198.866" gradientTransform="matrix(31.099 0 0 25.9377 27019.0664 -5005.5537)">
			<stop  offset="0" style="stop-color:#CEDB29"/>
			<stop  offset="1" style="stop-color:#24AA4A"/>
		</linearGradient>
		<path id="Path_879_2_" class="st37" d="M139.27,153.08L139.27,153.08c0.1,0.2,0.25,0.38,0.41,0.3c0.32-0.15,0.11-1.02-0.06-1.49
			c-0.65-1.79-2.02-4.07-5.61-5.68c0,0-2.75-1.22-4.56-1.48C129.45,144.73,136,146.98,139.27,153.08z"/>
		
			<linearGradient id="Path_880_1_" gradientUnits="userSpaceOnUse" x1="-866.7305" y1="202.665" x2="-866.5361" y2="202.8733" gradientTransform="matrix(37.9375 0 0 24.0959 33015.8359 -4737.106)">
			<stop  offset="0" style="stop-color:#FCEE2F"/>
			<stop  offset="1" style="stop-color:#EE8C22"/>
		</linearGradient>
		<path id="Path_880_2_" class="st38" d="M141.19,152.21L141.19,152.21c0.09,0.11,0.55,0.78,0.84,0.49
			c0.28-0.27-0.14-1.59-0.37-1.98c-0.92-1.59-2.63-3.38-5.87-4.56c0,0-3.4-1.44-6.35-1.44
			C129.45,144.73,136.65,146.15,141.19,152.21z"/>
		
			<linearGradient id="Path_881_1_" gradientUnits="userSpaceOnUse" x1="-868.3309" y1="209.2439" x2="-868.1183" y2="209.4507" gradientTransform="matrix(44.8927 0 0 21.5862 39114.9414 -4371.855)">
			<stop  offset="0" style="stop-color:#F7BE16"/>
			<stop  offset="1" style="stop-color:#E86224"/>
		</linearGradient>
		<path id="Path_881_2_" class="st39" d="M143.79,151.48c0.12,0.14,0.39,0.4,0.57,0.24c0.32-0.27-0.31-1.52-0.47-1.77
			c-1.2-1.86-3.69-4.05-7.67-5.02c-2.23-0.41-4.52-0.48-6.78-0.19C129.45,144.73,138.85,145.88,143.79,151.48L143.79,151.48z"/>
		
			<linearGradient id="Path_882_1_" gradientUnits="userSpaceOnUse" x1="-868.5453" y1="232.7929" x2="-868.3602" y2="232.9721" gradientTransform="matrix(46.1669 0 0 15.7703 40232.2969 -3526.7444)">
			<stop  offset="0" style="stop-color:#EC6D33"/>
			<stop  offset="1" style="stop-color:#E41E26"/>
		</linearGradient>
		<path id="Path_882_2_" class="st40" d="M143.92,148.71c0,0,0.67,0.49,0.91,0.15c0.18-0.28-0.16-0.91-0.5-1.31
			c-2.23-2.63-5.14-3.55-7.96-3.8c-2.35-0.17-4.71,0.16-6.92,0.97C136.64,144.4,140.89,146.4,143.92,148.71z"/>
	</g>
	
		<linearGradient id="Path_883_1_" gradientUnits="userSpaceOnUse" x1="-869.9496" y1="171.3964" x2="-869.753" y2="171.706" gradientTransform="matrix(61.358 0 0 54.7324 53488.5273 -9254.5557)">
		<stop  offset="0" style="stop-color:#D8DF22"/>
		<stop  offset="1" style="stop-color:#24AA4A"/>
	</linearGradient>
	<path id="Path_883_2_" class="st41" d="M106.05,126.05c0.09-0.03,1.18-0.44,2.92,0.22c0.21,0.08,0.41,0.16,0.64,0.25
		c1.18,0.67,2.18,1.61,2.93,2.75c2.88,4.11,8.15,15.34,15.5,16.04c-0.97,0.16-1.9,0.27-2.77,0.33c-9.49,0-10.24-7.59-14.62-15.66
		c-1.54-2.84-3.35-3.39-3.77-3.48l-0.17,0.03c-0.19-0.13-0.59-0.32-0.8-0.42L106.05,126.05z"/>
	
		<linearGradient id="Path_884_1_" gradientUnits="userSpaceOnUse" x1="-849.8874" y1="281.1377" x2="-849.6278" y2="281.3289" gradientTransform="matrix(15.9301 0 0 10.3665 13642.3877 -2787.0962)">
		<stop  offset="0" style="stop-color:#F2972C"/>
		<stop  offset="1" style="stop-color:#E41E26"/>
	</linearGradient>
	<path id="Path_884_2_" class="st42" d="M106.7,127.46c-0.94-0.96-2.1-1.38-3.27-1.01c-0.37,0.17-0.74,0.37-1.08,0.6l0.04,0.11
		c1.52-0.06,3,0.41,4.21,1.31c-1.04,0.03-2.07,0.14-3.09,0.33l0.02,0.13c1.55,0.25,3.08,0.62,4.57,1.13
		C107.88,129.08,107.4,128.18,106.7,127.46L106.7,127.46z"/>
	
		<linearGradient id="Path_885_1_" gradientUnits="userSpaceOnUse" x1="-868.6133" y1="172.0478" x2="-868.3877" y2="172.3792" gradientTransform="matrix(50.9761 0 0 53.3289 44387.1953 -9048.3457)">
		<stop  offset="0" style="stop-color:#FCEE2F"/>
		<stop  offset="1" style="stop-color:#EE8C22"/>
	</linearGradient>
	<path id="Path_885_2_" class="st43" d="M118.79,145.38c2.14,0.37,4.32,0.45,6.48,0.26c-7.9-0.51-10.24-8.24-14.62-16.33
		c-1.56-2.87-3.77-2.82-3.77-2.82l0,0c1.73,1.45,2.89,4.58,4.94,10.28C113.66,141.92,115.65,144.73,118.79,145.38z"/>
	
		<linearGradient id="Path_886_1_" gradientUnits="userSpaceOnUse" x1="-866.8007" y1="171.7781" x2="-866.5845" y2="172.0987" gradientTransform="matrix(42.538 0 0 53.9404 36978.1992 -9139.0557)">
		<stop  offset="0" style="stop-color:#F7BE16"/>
		<stop  offset="1" style="stop-color:#E86224"/>
	</linearGradient>
	<path id="Path_886_2_" class="st44" d="M118.79,145.38c-2.78-0.84-4.69-3.57-6.54-8.72c-2.24-6.23-3.4-9.26-6.02-10.53
		c-0.32-0.17-0.69-0.24-1.05-0.21c-0.61,0.06-1.2,0.24-1.74,0.52c1.39-0.26,3.08,0.58,4.09,2.47c2.49,4.67,2.39,7.51,4.44,11.6
		c0.88,1.84,2.37,3.32,4.21,4.19C117.03,145,117.91,145.23,118.79,145.38z"/>
</g>
</svg>
