<?xml version="1.0" encoding="utf-8"?>
<!-- Generator: Adobe Illustrator 23.0.6, SVG Export Plug-In . SVG Version: 6.00 Build 0)  -->
<svg version="1.1" id="artwork" xmlns="http://www.w3.org/2000/svg" xmlns:xlink="http://www.w3.org/1999/xlink" x="0px" y="0px"
	 viewBox="0 0 127.6 145.6" style="enable-background:new 0 0 127.6 145.6;" xml:space="preserve">
<style type="text/css">
	.st0{fill:url(#Path_865_1_);}
	.st1{fill:url(#Path_866_1_);}
	.st2{fill:url(#Path_867_1_);}
	.st3{fill:url(#Path_868_1_);}
	.st4{fill:url(#Path_869_1_);}
	.st5{fill:url(#Path_870_1_);}
	.st6{fill:url(#Path_871_1_);}
	.st7{fill:url(#Path_872_1_);}
	.st8{fill:url(#Path_873_1_);}
	.st9{fill:url(#Path_874_1_);}
	.st10{fill:url(#Path_875_1_);}
	.st11{fill:url(#Path_876_1_);}
	.st12{fill:url(#Path_877_1_);}
	.st13{fill:url(#Path_878_1_);}
	.st14{fill:url(#Path_879_1_);}
	.st15{fill:url(#Path_880_1_);}
	.st16{fill:url(#Path_881_1_);}
	.st17{fill:url(#Path_882_1_);}
	.st18{fill:url(#Path_883_1_);}
	.st19{fill:url(#Path_884_1_);}
	.st20{fill:url(#Path_885_1_);}
	.st21{fill:url(#Path_886_1_);}
	.st22{fill:#666666;}
</style>
<g>
	<g>
		
			<linearGradient id="Path_865_1_" gradientUnits="userSpaceOnUse" x1="-753.2362" y1="281.4401" x2="-752.9379" y2="280.9659" gradientTransform="matrix(48.381 0 0 -43.105 36490.4648 12187.6377)">
			<stop  offset="0" style="stop-color:#68BE96"/>
			<stop  offset="0.162" style="stop-color:#60BA94"/>
			<stop  offset="0.404" style="stop-color:#49B290"/>
			<stop  offset="0.695" style="stop-color:#28A489"/>
			<stop  offset="1" style="stop-color:#009380"/>
		</linearGradient>
		<path id="Path_865_2_" class="st0" d="M55.2,65.3L55.2,65.3c-1.8-1.5-20.6-18.1-22.4-20.9l-2,0.1c8.1,11.8,21.9,41,41.7,45
			c1-0.1,2.1-0.2,2.8-0.2c1.8-0.3,3.7-0.6,5.7-1.1c0.3-0.1,0.4-0.1,0.4-0.1c-2.6-1.1-5.3-2-7.4-3.6C65.7,80.1,55.2,65.3,55.2,65.3z"
			/>
		
			<linearGradient id="Path_866_1_" gradientUnits="userSpaceOnUse" x1="-748.6705" y1="230.1485" x2="-748.3682" y2="229.3627" gradientTransform="matrix(23.6599 0 0 -14.0605 17744.9727 3273.2957)">
			<stop  offset="0" style="stop-color:#7ECBF2"/>
			<stop  offset="1" style="stop-color:#218FCF"/>
		</linearGradient>
		<path id="Path_866_2_" class="st1" d="M46.7,48.6c-10-2.1-8.6-8.9-17.6-12c-2.2-0.8-4.3-1.8-7.2-1.8c2.2,1.7,8.4,8.8,10,10.2
			C31.9,44.9,36.5,51.8,46.7,48.6z"/>
		
			<linearGradient id="Path_867_1_" gradientUnits="userSpaceOnUse" x1="-751.0486" y1="101.3225" x2="-750.0022" y2="101.3225" gradientTransform="matrix(30.3621 0 0 -5.2361 22813.0645 560.9271)">
			<stop  offset="0" style="stop-color:#E96DA4"/>
			<stop  offset="1" style="stop-color:#A12382"/>
		</linearGradient>
		<path id="Path_867_2_" class="st2" d="M15.2,31.5c2.9-0.3,7.5,0.4,12.8,1.2l0,0l0.3,0.1c12.4,1.9,13-4.2,13-4.2
			c-5.6,3.1-17.3-0.8-23.6-0.9c-3.6-0.1-6.8,2-8.1,5.3C9.6,33,11.2,31.9,15.2,31.5z"/>
		
			<linearGradient id="Path_868_1_" gradientUnits="userSpaceOnUse" x1="-752.0743" y1="178.3008" x2="-751.2989" y2="177.2879" gradientTransform="matrix(37.225 0 0 -8.3582 28014.7402 1521.134)">
			<stop  offset="0" style="stop-color:#1F9BD7"/>
			<stop  offset="1" style="stop-color:#02509E"/>
		</linearGradient>
		<path id="Path_868_2_" class="st3" d="M20.1,34c6,2.3,14.2,6.3,20.7,5.4c3-0.4,6.7-1.7,7.8-5c0,0-3.8,3-20.6-1.7
			c-3.7-0.6-8.5-2.3-13-1.8c-4,0.4-5.4,2.1-5.4,2.1c0.8,0.1,1.5,0.4,2,1C11.9,33.9,16.7,32.7,20.1,34z"/>
		
			<linearGradient id="Path_869_1_" gradientUnits="userSpaceOnUse" x1="-746.5538" y1="274.2076" x2="-746.2995" y2="273.4395" gradientTransform="matrix(19.0336 0 0 -33.302 14237.1357 9189.6416)">
			<stop  offset="0" style="stop-color:#EC6D33"/>
			<stop  offset="1" style="stop-color:#E41E26"/>
		</linearGradient>
		<path id="Path_869_2_" class="st4" d="M29.7,74.6c-4.2-8.4-6.8-17.2-9.1-22.2l0,0c-0.3,5,0.1,9.9,1.3,14.8
			c2,7.1,6.8,15.9,18.5,20.1h0C36.8,84.1,32.9,80.9,29.7,74.6z"/>
		
			<linearGradient id="Path_870_1_" gradientUnits="userSpaceOnUse" x1="-746.5425" y1="224.7069" x2="-746.7309" y2="225.1611" gradientTransform="matrix(19.7 0 0 -13.2529 14780.0068 3062.9844)">
			<stop  offset="0" style="stop-color:#EC6D33"/>
			<stop  offset="1" style="stop-color:#E41E26"/>
		</linearGradient>
		<path id="Path_870_2_" class="st5" d="M80.6,87.2c-4-1.4-7.4-4.2-9.4-7.9l0,0c-2.9-3.1-6.9-5.1-11.1-5.6l0,0
			c0,0,7.6,10.8,19.6,13.9c0.3-0.1,0.6-0.2,1-0.4C80.6,87.3,80.6,87.3,80.6,87.2z"/>
		
			<linearGradient id="Path_871_1_" gradientUnits="userSpaceOnUse" x1="-732.8345" y1="248.7603" x2="-732.8345" y2="247.7013" gradientTransform="matrix(8.6537 0 0 -18.614 6434.7817 4724.1738)">
			<stop  offset="0" style="stop-color:#7ECBF2"/>
			<stop  offset="1" style="stop-color:#218FCF"/>
		</linearGradient>
		<path id="Path_871_2_" class="st6" d="M95.3,110.3L95.3,110.3c0,0.5,0.3,1.4,1.2,1.2c1.3-0.3,1.2-3.2,1.1-3.4l0,0
			c0-13.8-9.1-16-9.1-16C92.9,97.1,94.5,104.5,95.3,110.3z"/>
		
			<linearGradient id="Path_872_1_" gradientUnits="userSpaceOnUse" x1="-742.8779" y1="251.2525" x2="-742.2897" y2="250.5744" gradientTransform="matrix(14.5792 0 0 -19.5107 10925.9316 4998.9722)">
			<stop  offset="0" style="stop-color:#68BE96"/>
			<stop  offset="1" style="stop-color:#009378"/>
		</linearGradient>
		<path id="Path_872_2_" class="st7" d="M89.3,92.1c-0.3-0.1-0.6-0.2-0.9-0.2c4.5,3,10.5,8.8,13.2,19.6c0,0,0.3,1,1,0.9
			c0.9-0.2,1.2-2.4,1.1-4.9c-0.1-2.6-1-5.1-2.6-7.2C97.7,96.9,93.7,94.2,89.3,92.1z"/>
		
			<linearGradient id="Path_873_1_" gradientUnits="userSpaceOnUse" x1="-751.1169" y1="224.7969" x2="-751.9677" y2="225.6371" gradientTransform="matrix(35.949 0 0 -13.2986 27090.0254 3069.9563)">
			<stop  offset="0" style="stop-color:#FEE516;stop-opacity:0"/>
			<stop  offset="0.505" style="stop-color:#FEE516"/>
			<stop  offset="1" style="stop-color:#F5AA1C"/>
		</linearGradient>
		<path id="Path_873_2_" class="st8" d="M75,80.1c13.2,1.5,16.6-3.6,16.6-3.6S80.3,79,69.9,73c-7.5-4.3-11.4-5.8-15.8-6.5
			C58.3,74.2,66.2,79.3,75,80.1z"/>
		
			<linearGradient id="Path_874_1_" gradientUnits="userSpaceOnUse" x1="-753.0475" y1="201.1621" x2="-753.9631" y2="201.5567" gradientTransform="matrix(54.0499 0 0 -10.2554 40807.2266 2134.4421)">
			<stop  offset="0" style="stop-color:#FBDE1A;stop-opacity:0"/>
			<stop  offset="0.325" style="stop-color:#FBDE1A"/>
			<stop  offset="1" style="stop-color:#EA6D24"/>
		</linearGradient>
		<path id="Path_874_2_" class="st9" d="M51.7,63.8c0,0,5.2,10.3,35,10.7c17.2,0.2,21.5-7.8,21.5-7.8S96.7,72,77,66.7L51.7,63.8z"/>
		
			<linearGradient id="Path_875_1_" gradientUnits="userSpaceOnUse" x1="-753.9252" y1="244.102" x2="-754.7561" y2="243.5694" gradientTransform="matrix(69.8579 0 0 -17.2515 52782.8555 4266.3418)">
			<stop  offset="0" style="stop-color:#BAD532;stop-opacity:0"/>
			<stop  offset="0.261" style="stop-color:#BAD532"/>
			<stop  offset="1" style="stop-color:#10A64A"/>
		</linearGradient>
		<path id="Path_875_2_" class="st10" d="M45.5,58c0,0,3.1,12.2,39.6,9.8c25.9-1.7,33.4-12.4,33.5-17.8
			C118.6,50.1,103.2,66.5,45.5,58z"/>
		
			<linearGradient id="Path_876_1_" gradientUnits="userSpaceOnUse" x1="-754.0664" y1="269.0151" x2="-755.0271" y2="268.2386" gradientTransform="matrix(75.8781 0 0 -28.696 57341.3008 7758.4692)">
			<stop  offset="0" style="stop-color:#6CC4EE;stop-opacity:0"/>
			<stop  offset="0.282" style="stop-color:#6CC4EE"/>
			<stop  offset="1" style="stop-color:#218FCF"/>
		</linearGradient>
		<path id="Path_876_2_" class="st11" d="M40.9,53.5c0,0,7.3,15.8,51.7,5.6c28.4-6.6,27.4-24.6,27.7-26.6c0,0-5.8,10.6-28.9,17.7
			C68.3,57.2,40.9,53.5,40.9,53.5z"/>
		
			<linearGradient id="Path_877_1_" gradientUnits="userSpaceOnUse" x1="-754.0427" y1="278.3521" x2="-754.95" y2="277.4543" gradientTransform="matrix(74.209 0 0 -38.1689 56072.8672 10648.6504)">
			<stop  offset="0" style="stop-color:#1D92D1;stop-opacity:0"/>
			<stop  offset="0.22" style="stop-color:#1D92D1"/>
			<stop  offset="1" style="stop-color:#075CAA"/>
		</linearGradient>
		<path id="Path_877_2_" class="st12" d="M37.3,50.3c0,0,4.8,7.8,22.1,7.2c17.1-0.6,62.3-10.1,54.7-39.9c0,0-1.3,16.1-34.8,27.7
			C51,55.1,37.3,50.3,37.3,50.3z"/>
		
			<linearGradient id="Path_878_1_" gradientUnits="userSpaceOnUse" x1="-753.9712" y1="285.2993" x2="-754.8973" y2="284.4225" gradientTransform="matrix(72.4615 0 0 -50.7776 54743.2188 14497.7002)">
			<stop  offset="0" style="stop-color:#DD599D;stop-opacity:0"/>
			<stop  offset="0.187" style="stop-color:#DD599D"/>
			<stop  offset="1" style="stop-color:#A12382"/>
		</linearGradient>
		<path id="Path_878_2_" class="st13" d="M31.9,44.9c0,0,3.9,4.3,16.4,3.6c14.3-0.8,31.7-7.8,45.2-24.5c12.6-15.6,9.1-24,9.1-24
			s7.6,4.8,4.2,17.7c-3.2,12.2-18.9,34.5-55,35.4C45.4,53.3,37,53.1,31.9,44.9z"/>
		
			<linearGradient id="Path_879_1_" gradientUnits="userSpaceOnUse" x1="-750.6027" y1="264.7891" x2="-750.2081" y2="264.2198" gradientTransform="matrix(31.099 0 0 -25.9377 23438.1152 6965.3311)">
			<stop  offset="0" style="stop-color:#CEDB29"/>
			<stop  offset="1" style="stop-color:#24AA4A"/>
		</linearGradient>
		<path id="Path_879_2_" class="st14" d="M110,113.6L110,113.6c0.3,0.6,0.8,1.2,1.3,0.9c1-0.5,0.3-3.2-0.2-4.7
			c-2-5.6-6.3-12.7-17.6-17.8c0,0-8.6-3.8-14.3-4.6C79.2,87.5,99.7,94.6,110,113.6z"/>
		
			<linearGradient id="Path_880_1_" gradientUnits="userSpaceOnUse" x1="-751.9477" y1="261.7971" x2="-751.3387" y2="261.1452" gradientTransform="matrix(37.9375 0 0 -24.0959 28621.293 6400.6343)">
			<stop  offset="0" style="stop-color:#FCEE2F"/>
			<stop  offset="1" style="stop-color:#EE8C22"/>
		</linearGradient>
		<path id="Path_880_2_" class="st15" d="M116,111L116,111c0.3,0.3,1.7,2.4,2.6,1.6c0.9-0.9-0.4-5-1.1-6.2
			c-2.9-5-8.2-10.6-18.4-14.3c0,0-10.6-4.5-19.9-4.5C79.2,87.5,101.8,92,116,111z"/>
		
			<linearGradient id="Path_881_1_" gradientUnits="userSpaceOnUse" x1="-752.9472" y1="256.7611" x2="-752.2817" y2="256.1133" gradientTransform="matrix(44.8927 0 0 -21.5862 33892.918 5630.6157)">
			<stop  offset="0" style="stop-color:#F7BE16"/>
			<stop  offset="1" style="stop-color:#E86224"/>
		</linearGradient>
		<path id="Path_881_2_" class="st16" d="M124.2,108.7c0.4,0.4,1.2,1.2,1.8,0.8c1-0.8-1-4.8-1.5-5.6c-3.8-5.8-11.6-12.7-24-15.7
			c-7-1.3-14.1-1.5-21.2-0.6C79.2,87.5,108.7,91.1,124.2,108.7L124.2,108.7z"/>
		
			<linearGradient id="Path_882_1_" gradientUnits="userSpaceOnUse" x1="-753.0156" y1="238.3076" x2="-752.4359" y2="237.7467" gradientTransform="matrix(46.1669 0 0 -15.7703 34858.6836 3844.886)">
			<stop  offset="0" style="stop-color:#EC6D33"/>
			<stop  offset="1" style="stop-color:#E41E26"/>
		</linearGradient>
		<path id="Path_882_2_" class="st17" d="M124.6,100c0,0,2.1,1.6,2.9,0.5c0.6-0.9-0.5-2.9-1.6-4.1c-7-8.2-16.1-11.1-24.9-11.9
			c-7.4-0.5-14.7,0.5-21.7,3.1C101.8,86.5,115.1,92.8,124.6,100z"/>
		
			<linearGradient id="Path_883_1_" gradientUnits="userSpaceOnUse" x1="-754.3285" y1="286.9848" x2="-753.7582" y2="286.0869" gradientTransform="matrix(61.358 0 0 -54.7324 46307.5898 15741.6992)">
			<stop  offset="0" style="stop-color:#D8DF22"/>
			<stop  offset="1" style="stop-color:#24AA4A"/>
		</linearGradient>
		<path id="Path_883_2_" class="st18" d="M11.6,33.4c0.3-0.1,3.4-1.3,8.5,0.6c0.6,0.2,1.2,0.5,1.8,0.7c3.4,1.9,6.3,4.7,8.5,8
			C38.8,54.6,54,87.2,75.4,89.2c-2.8,0.5-5.5,0.8-8,1c-27.5,0-29.7-22-42.4-45.4c-4.5-8.2-9.7-9.8-10.9-10.1l-0.5,0.1
			c-0.6-0.4-1.7-0.9-2.3-1.2L11.6,33.4z"/>
		
			<linearGradient id="Path_884_1_" gradientUnits="userSpaceOnUse" x1="-744.6033" y1="202.8722" x2="-743.8509" y2="202.3176" gradientTransform="matrix(15.9301 0 0 -10.3665 11866.1172 2140.1084)">
			<stop  offset="0" style="stop-color:#F2972C"/>
			<stop  offset="1" style="stop-color:#E41E26"/>
		</linearGradient>
		<path id="Path_884_2_" class="st19" d="M13.5,37.5c-2.7-2.8-6.1-4-9.5-2.9C3,35,1.9,35.6,0.9,36.2L1,36.6
			c4.4-0.2,8.7,1.2,12.2,3.8c-3,0.1-6,0.4-9,1l0.1,0.4c4.5,0.7,8.9,1.8,13.2,3.3C16.9,42.2,15.5,39.6,13.5,37.5L13.5,37.5z"/>
		
			<linearGradient id="Path_885_1_" gradientUnits="userSpaceOnUse" x1="-753.7294" y1="286.4782" x2="-753.0754" y2="285.5175" gradientTransform="matrix(50.9761 0 0 -53.3289 38441.418 15313.0312)">
			<stop  offset="0" style="stop-color:#FCEE2F"/>
			<stop  offset="1" style="stop-color:#EE8C22"/>
		</linearGradient>
		<path id="Path_885_2_" class="st20" d="M48.6,89.4c6.2,1.1,12.5,1.3,18.8,0.8c-22.9-1.5-29.7-23.9-42.4-47.3
			C20.4,34.5,14,34.7,14,34.7l0,0c5,4.2,8.4,13.3,14.3,29.8C33.7,79.4,39.5,87.5,48.6,89.4z"/>
		
			<linearGradient id="Path_886_1_" gradientUnits="userSpaceOnUse" x1="-752.837" y1="286.6794" x2="-752.2102" y2="285.7501" gradientTransform="matrix(42.538 0 0 -53.9404 32036.3242 15498.9355)">
			<stop  offset="0" style="stop-color:#F7BE16"/>
			<stop  offset="1" style="stop-color:#E86224"/>
		</linearGradient>
		<path id="Path_886_2_" class="st21" d="M48.6,89.4C40.5,87,35,79,29.6,64.1c-6.5-18.1-9.9-26.8-17.4-30.5c-0.9-0.5-2-0.7-3.1-0.6
			c-1.8,0.2-3.5,0.7-5,1.5c4-0.8,8.9,1.7,11.9,7.2c7.2,13.5,6.9,21.8,12.9,33.6c2.6,5.3,6.9,9.6,12.2,12.2
			C43.5,88.3,46,89,48.6,89.4z"/>
	</g>
	<g>
		<path id="text_2_" class="st22" d="M108,145.6c-1.3,0.1-2.7-0.3-3.7-1.1c-1.2-1.1-1.8-2.6-1.6-4.2v-0.1c-0.1-1.5,0.5-3,1.8-4
			c1.2-0.9,3.2-1.3,6.2-1.3h2.6v-0.2c0.1-1.1-0.2-2.1-0.9-3c-0.8-0.7-1.8-1-2.9-0.9c-1.1,0-2.4,0.1-3.4,0.1c-0.5,0-1.7,0.1-2.4,0.2
			v-1.7c0-0.2,0.2-0.5,0.4-0.5c1.8-0.3,3.6-0.4,5.4-0.4c2.3,0,3.9,0.6,4.9,1.6c1.1,1.3,1.6,2.9,1.5,4.6v5.6c0.1,1.4-0.3,2.8-1.2,3.9
			c-0.9,0.9-2.2,1.4-4.2,1.4L108,145.6z M106.5,137.6c-0.8,0.5-1.1,1.3-1.1,2.5v0.1c-0.1,0.9,0.2,1.9,0.9,2.5
			c0.7,0.5,1.5,0.7,2.4,0.6h2c0.7,0.1,1.5-0.1,2-0.6c0.5-0.5,0.6-1.4,0.7-2.8v-3h-2.6C108.6,137,107.3,137.1,106.5,137.6
			L106.5,137.6z M89.6,144c-1.1-1.3-1.6-2.9-1.5-4.6v-5.6c-0.1-1.4,0.3-2.8,1.2-4c0.9-0.9,2.2-1.4,4.2-1.4h2.5
			c1.3-0.1,2.7,0.3,3.7,1.1c1.2,1.1,1.8,2.6,1.6,4.2v0.1c0.1,1.5-0.5,3-1.8,4c-1.2,0.9-3.2,1.3-6.2,1.3h-2.6l0,0.2
			c-0.1,1.1,0.2,2.1,0.9,3c0.8,0.7,1.8,1,2.9,0.9c1.1,0,2.4-0.1,3.4-0.1c0.4,0,1.7-0.1,2.4-0.2v1.7c0,0.2-0.2,0.5-0.4,0.5
			c-1.8,0.3-3.6,0.4-5.4,0.4C92.2,145.6,90.6,145,89.6,144L89.6,144z M91.5,131.3c-0.5,0.5-0.6,1.4-0.7,2.8v3h2.6
			c2.1,0,3.3-0.2,4.2-0.6s1.1-1.3,1.1-2.5v-0.1c0.1-0.9-0.2-1.9-0.9-2.5c-0.7-0.5-1.5-0.7-2.4-0.6h-2
			C92.8,130.6,92,130.8,91.5,131.3L91.5,131.3z M47.4,144c-1.1-1.3-1.6-2.9-1.5-4.6v-5.6c-0.1-1.4,0.3-2.8,1.2-4
			c0.8-0.9,2.2-1.4,4.2-1.4h2.5c1.3-0.1,2.7,0.3,3.7,1.1c1.2,1.1,1.8,2.6,1.6,4.2v0.1c0.1,1.5-0.5,3-1.8,4c-1.2,0.9-3.2,1.3-6.2,1.3
			h-2.6v0.2c-0.1,1.1,0.2,2.1,0.9,3c0.8,0.7,1.8,1,2.8,0.9c1.1,0,2.4-0.1,3.4-0.1c0.4,0,1.7-0.1,2.4-0.2v1.7c0,0.2-0.2,0.5-0.4,0.5
			c-1.8,0.3-3.6,0.4-5.4,0.4C50,145.6,48.4,145,47.4,144L47.4,144z M49.3,131.3c-0.5,0.5-0.6,1.4-0.7,2.8v3h2.6
			c2.1,0,3.3-0.2,4.2-0.6s1.1-1.3,1.1-2.5v-0.1c0.1-0.9-0.2-1.9-0.8-2.5c-0.7-0.5-1.5-0.7-2.3-0.6h-2
			C50.6,130.6,49.8,130.8,49.3,131.3L49.3,131.3z M21.4,144c-1.1-1.3-1.6-2.9-1.5-4.6v-5.6c-0.1-1.4,0.3-2.8,1.2-4
			c0.8-0.9,2.2-1.4,4.2-1.4h2.5c1.3-0.1,2.7,0.3,3.7,1.1c1.2,1.1,1.8,2.6,1.6,4.2v0.1c0.1,1.5-0.5,3-1.8,4c-1.2,0.9-3.2,1.3-6.2,1.3
			h-2.6v0.2c-0.1,1.1,0.2,2.1,0.9,3c0.8,0.7,1.8,1,2.8,0.9c1.1,0,2.4-0.1,3.4-0.1c0.4,0,1.7-0.1,2.4-0.2v1.7c0,0.2-0.2,0.5-0.4,0.5
			c-1.8,0.3-3.6,0.4-5.4,0.4C24.1,145.6,22.5,145,21.4,144L21.4,144z M23.3,131.3c-0.5,0.5-0.6,1.4-0.7,2.8v3h2.6
			c2.1,0,3.3-0.2,4.2-0.6s1.1-1.3,1.1-2.5v-0.1c0.1-0.9-0.2-1.9-0.8-2.5c-0.7-0.5-1.5-0.7-2.3-0.6h-2
			C24.6,130.6,23.9,130.8,23.3,131.3L23.3,131.3z M118.8,145.4v-13.2c0-2.1,1.7-3.7,3.7-3.7h4.9v1.8c0,0.3-0.2,0.5-0.5,0.5
			c0,0,0,0,0,0h-3.7c-0.9,0-1.7,0.8-1.7,1.7v12.4c0,0.3-0.2,0.5-0.5,0.6H118.8z M84.7,145.4h-2.2v-11.9H70.9v11.4
			c0,0.3-0.2,0.5-0.5,0.6h-2.2v-21.6c0-0.3,0.2-0.5,0.5-0.6h2.2v8h11.6v-7.4c0-0.3,0.2-0.5,0.5-0.6h2.2v21.7
			C85.2,145.1,85,145.4,84.7,145.4L84.7,145.4z M35.7,145.4v-13.2c0-2.1,1.7-3.7,3.7-3.7h4.9v1.8c0,0.3-0.2,0.5-0.5,0.5c0,0,0,0,0,0
			h-3.7c-0.9,0-1.7,0.8-1.7,1.7v12.4c0,0.3-0.2,0.5-0.5,0.6H35.7z M16.6,145.4h-2.2v-11.9H2.7v11.4c0,0.3-0.2,0.5-0.5,0.6H0v-21.6
			c0-0.3,0.2-0.5,0.5-0.6h2.2v8h11.6v-7.4c0-0.3,0.2-0.5,0.5-0.6h2.2v21.7C17.1,145.1,16.9,145.4,16.6,145.4L16.6,145.4z"/>
	</g>
</g>
</svg>
