<?xml version="1.0" encoding="utf-8"?>
<!-- Generator: Adobe Illustrator 23.0.6, SVG Export Plug-In . SVG Version: 6.00 Build 0)  -->
<svg version="1.1" id="artwork" xmlns="http://www.w3.org/2000/svg" xmlns:xlink="http://www.w3.org/1999/xlink" x="0px" y="0px"
	 viewBox="0 0 251.42 249.45" style="enable-background:new 0 0 251.42 249.45;" xml:space="preserve">
<style type="text/css">
	.st0{fill:url(#Path_865_1_);}
	.st1{fill:url(#Path_866_1_);}
	.st2{fill:url(#Path_867_1_);}
	.st3{fill:url(#Path_868_1_);}
	.st4{fill:url(#Path_869_1_);}
	.st5{fill:url(#Path_870_1_);}
	.st6{fill:url(#Path_871_1_);}
	.st7{fill:url(#Path_872_1_);}
	.st8{fill:url(#Path_873_1_);}
	.st9{fill:url(#Path_874_1_);}
	.st10{fill:url(#Path_875_1_);}
	.st11{fill:url(#Path_876_1_);}
	.st12{fill:url(#Path_877_1_);}
	.st13{fill:url(#Path_878_1_);}
	.st14{fill:url(#Path_879_1_);}
	.st15{fill:url(#Path_880_1_);}
	.st16{fill:url(#Path_881_1_);}
	.st17{fill:url(#Path_882_1_);}
	.st18{fill:url(#Path_883_1_);}
	.st19{fill:url(#Path_884_1_);}
	.st20{fill:url(#Path_885_1_);}
	.st21{fill:url(#Path_886_1_);}
	.st22{fill:#666666;}
</style>
<g>
	
		<linearGradient id="Path_865_1_" gradientUnits="userSpaceOnUse" x1="-515.9373" y1="183.4162" x2="-515.639" y2="183.8903" gradientTransform="matrix(48.381 0 0 43.105 25071.7051 -7799.1094)">
		<stop  offset="0" style="stop-color:#68BE96"/>
		<stop  offset="0.162" style="stop-color:#60BA94"/>
		<stop  offset="0.404" style="stop-color:#49B290"/>
		<stop  offset="0.695" style="stop-color:#28A489"/>
		<stop  offset="1" style="stop-color:#009380"/>
	</linearGradient>
	<path id="Path_865_2_" class="st0" d="M117.15,116.17L117.15,116.17c-1.77-1.48-20.61-18.11-22.43-20.93l-2,0.13
		c8.1,11.79,21.87,40.99,41.74,44.97c1.02-0.1,2.14-0.22,2.76-0.25c1.83-0.3,3.72-0.64,5.68-1.07c0.3-0.09,0.45-0.15,0.45-0.15
		c-2.55-1.05-5.32-2.01-7.37-3.55C127.71,131,117.15,116.17,117.15,116.17z"/>
	
		<linearGradient id="Path_866_1_" gradientUnits="userSpaceOnUse" x1="-515.2372" y1="221.7687" x2="-514.9349" y2="222.5545" gradientTransform="matrix(23.6599 0 0 14.0605 12283.9648 -3030.0073)">
		<stop  offset="0" style="stop-color:#7ECBF2"/>
		<stop  offset="1" style="stop-color:#218FCF"/>
	</linearGradient>
	<path id="Path_866_2_" class="st1" d="M108.7,99.45c-9.98-2.07-8.61-8.87-17.61-12.01c-2.25-0.81-4.33-1.84-7.15-1.84
		c2.24,1.69,8.36,8.79,9.97,10.19C93.91,95.78,98.51,102.68,108.7,99.45z"/>
	
		<linearGradient id="Path_867_1_" gradientUnits="userSpaceOnUse" x1="-515.9454" y1="318.2329" x2="-514.899" y2="318.2329" gradientTransform="matrix(30.3621 0 0 5.2361 15736.835 -1585.0244)">
		<stop  offset="0" style="stop-color:#E96DA4"/>
		<stop  offset="1" style="stop-color:#A12382"/>
	</linearGradient>
	<path id="Path_867_2_" class="st2" d="M77.2,82.37c2.87-0.32,7.47,0.38,12.85,1.21l0.03,0.01l0.33,0.05
		c12.44,1.91,13.01-4.2,13.01-4.2c-5.57,3.06-17.34-0.84-23.63-0.9c-3.57-0.12-6.82,2-8.14,5.32C71.64,83.85,73.24,82.8,77.2,82.37z
		"/>
	
		<linearGradient id="Path_868_1_" gradientUnits="userSpaceOnUse" x1="-515.8842" y1="260.5157" x2="-515.1088" y2="261.5286" gradientTransform="matrix(37.225 0 0 8.3582 19284.5605 -2095.7012)">
		<stop  offset="0" style="stop-color:#1F9BD7"/>
		<stop  offset="1" style="stop-color:#02509E"/>
	</linearGradient>
	<path id="Path_868_2_" class="st3" d="M82.09,84.88c6.04,2.29,14.17,6.27,20.74,5.39c3.04-0.41,6.73-1.66,7.76-5
		c0,0-3.78,3.04-20.55-1.69c-3.68-0.63-8.48-2.35-12.97-1.85c-3.97,0.43-5.43,2.12-5.43,2.12c0.76,0.09,1.46,0.45,1.99,1.01
		C73.86,84.77,78.7,83.59,82.09,84.88z"/>
	
		<linearGradient id="Path_869_1_" gradientUnits="userSpaceOnUse" x1="-514.9597" y1="188.8049" x2="-514.7054" y2="189.573" gradientTransform="matrix(19.0336 0 0 33.302 9891.0605 -6178.7163)">
		<stop  offset="0" style="stop-color:#EC6D33"/>
		<stop  offset="1" style="stop-color:#E41E26"/>
	</linearGradient>
	<path id="Path_869_2_" class="st4" d="M91.74,125.46c-4.2-8.41-6.77-17.23-9.1-22.23l0,0c-0.35,4.96,0.1,9.95,1.32,14.76
		c2.01,7.09,6.84,15.92,18.47,20.08h0.01C98.84,134.96,94.9,131.78,91.74,125.46z"/>
	
		<linearGradient id="Path_870_1_" gradientUnits="userSpaceOnUse" x1="-514.6302" y1="226.0403" x2="-514.8186" y2="225.5861" gradientTransform="matrix(19.7 0 0 13.2529 10273.3301 -2859.842)">
		<stop  offset="0" style="stop-color:#EC6D33"/>
		<stop  offset="1" style="stop-color:#E41E26"/>
	</linearGradient>
	<path id="Path_870_2_" class="st5" d="M142.56,138.11c-4.01-1.36-7.36-4.17-9.42-7.87l0,0c-2.94-3.08-6.86-5.06-11.08-5.61l0,0
		c0,0,7.58,10.76,19.62,13.87c0.26-0.1,0.6-0.21,1-0.35C142.64,138.15,142.6,138.13,142.56,138.11z"/>
	
		<linearGradient id="Path_871_1_" gradientUnits="userSpaceOnUse" x1="-512.5206" y1="207.8545" x2="-512.5206" y2="208.9135" gradientTransform="matrix(8.6537 0 0 18.614 4590.2495 -3724.3743)">
		<stop  offset="0" style="stop-color:#7ECBF2"/>
		<stop  offset="1" style="stop-color:#218FCF"/>
	</linearGradient>
	<path id="Path_871_2_" class="st6" d="M157.25,161.15L157.25,161.15c0.02,0.5,0.33,1.42,1.17,1.21c1.28-0.31,1.17-3.21,1.15-3.42
		l0,0c0-13.79-9.05-16.04-9.05-16.04C154.88,147.95,156.48,155.4,157.25,161.15z"/>
	
		<linearGradient id="Path_872_1_" gradientUnits="userSpaceOnUse" x1="-514.1571" y1="206.0291" x2="-513.569" y2="206.7072" gradientTransform="matrix(14.5792 0 0 19.5107 7653.3618 -3872.0288)">
		<stop  offset="0" style="stop-color:#68BE96"/>
		<stop  offset="1" style="stop-color:#009378"/>
	</linearGradient>
	<path id="Path_872_2_" class="st7" d="M151.34,143.01c-0.27-0.13-0.56-0.22-0.85-0.25c4.46,2.98,10.49,8.82,13.17,19.55
		c0,0,0.3,0.98,0.96,0.86c0.89-0.16,1.25-2.4,1.08-4.9c-0.13-2.6-1.02-5.11-2.56-7.21C159.66,147.76,155.68,145.05,151.34,143.01z"
		/>
	
		<linearGradient id="Path_873_1_" gradientUnits="userSpaceOnUse" x1="-515.0974" y1="226.0201" x2="-515.9482" y2="225.1799" gradientTransform="matrix(35.949 0 0 13.2986 18667.3594 -2874.4001)">
		<stop  offset="0" style="stop-color:#FEE516;stop-opacity:0"/>
		<stop  offset="0.505" style="stop-color:#FEE516"/>
		<stop  offset="1" style="stop-color:#F5AA1C"/>
	</linearGradient>
	<path id="Path_873_2_" class="st8" d="M137.02,130.94c13.24,1.49,16.63-3.63,16.63-3.63s-11.39,2.54-21.8-3.47
		c-7.47-4.27-11.45-5.75-15.82-6.54C120.34,125.03,128.19,130.14,137.02,130.94z"/>
	
		<linearGradient id="Path_874_1_" gradientUnits="userSpaceOnUse" x1="-515.3606" y1="243.6305" x2="-516.2762" y2="243.2359" gradientTransform="matrix(54.0499 0 0 10.2554 28022.2695 -2376.2019)">
		<stop  offset="0" style="stop-color:#FBDE1A;stop-opacity:0"/>
		<stop  offset="0.325" style="stop-color:#FBDE1A"/>
		<stop  offset="1" style="stop-color:#EA6D24"/>
	</linearGradient>
	<path id="Path_874_2_" class="st9" d="M113.7,114.72c0,0,5.24,10.29,35.03,10.73c17.18,0.25,21.53-7.76,21.53-7.76
		s-11.6,5.2-31.29-0.07L113.7,114.72z"/>
	
		<linearGradient id="Path_875_1_" gradientUnits="userSpaceOnUse" x1="-515.4888" y1="211.3673" x2="-516.3197" y2="211.8999" gradientTransform="matrix(69.8579 0 0 17.2515 36188.1875 -3540.3044)">
		<stop  offset="0" style="stop-color:#BAD532;stop-opacity:0"/>
		<stop  offset="0.261" style="stop-color:#BAD532"/>
		<stop  offset="1" style="stop-color:#10A64A"/>
	</linearGradient>
	<path id="Path_875_2_" class="st10" d="M107.54,108.88c0,0,3.14,12.23,39.57,9.85c25.92-1.7,33.45-12.45,33.53-17.75
		C180.64,100.99,165.16,117.33,107.54,108.88z"/>
	
		<linearGradient id="Path_876_1_" gradientUnits="userSpaceOnUse" x1="-515.4268" y1="192.6958" x2="-516.3875" y2="193.4723" gradientTransform="matrix(75.8781 0 0 28.696 39295.7734 -5439.9102)">
		<stop  offset="0" style="stop-color:#6CC4EE;stop-opacity:0"/>
		<stop  offset="0.282" style="stop-color:#6CC4EE"/>
		<stop  offset="1" style="stop-color:#218FCF"/>
	</linearGradient>
	<path id="Path_876_2_" class="st11" d="M102.85,104.39c0,0,7.26,15.81,51.73,5.56c28.4-6.55,27.38-24.57,27.67-26.57
		c0,0-5.76,10.64-28.95,17.73C130.31,108.12,102.85,104.39,102.85,104.39z"/>
	
		<linearGradient id="Path_877_1_" gradientUnits="userSpaceOnUse" x1="-515.4561" y1="185.6941" x2="-516.3634" y2="186.5919" gradientTransform="matrix(74.209 0 0 38.1689 38429.5898 -7012.6021)">
		<stop  offset="0" style="stop-color:#1D92D1;stop-opacity:0"/>
		<stop  offset="0.22" style="stop-color:#1D92D1"/>
		<stop  offset="1" style="stop-color:#075CAA"/>
	</linearGradient>
	<path id="Path_877_2_" class="st12" d="M99.32,101.19c0,0,4.79,7.76,22.09,7.19c17.15-0.57,62.31-10.09,54.72-39.91
		c0,0-1.3,16.09-34.82,27.67C112.97,105.93,99.32,101.19,99.32,101.19z"/>
	
		<linearGradient id="Path_878_1_" gradientUnits="userSpaceOnUse" x1="-515.4427" y1="180.5034" x2="-516.3688" y2="181.3803" gradientTransform="matrix(72.4615 0 0 50.7776 37521.0859 -9103.7627)">
		<stop  offset="0" style="stop-color:#DD599D;stop-opacity:0"/>
		<stop  offset="0.187" style="stop-color:#DD599D"/>
		<stop  offset="1" style="stop-color:#A12382"/>
	</linearGradient>
	<path id="Path_878_2_" class="st13" d="M93.91,95.78c0,0,3.87,4.34,16.44,3.6c14.31-0.85,31.73-7.85,45.25-24.49
		c12.63-15.56,9.07-24.01,9.07-24.01s7.59,4.8,4.18,17.69c-3.22,12.16-18.87,34.53-55.03,35.42
		C107.41,104.15,98.97,103.94,93.91,95.78z"/>
	
		<linearGradient id="Path_879_1_" gradientUnits="userSpaceOnUse" x1="-515.3598" y1="195.9214" x2="-514.9653" y2="196.4907" gradientTransform="matrix(31.099 0 0 25.9377 16184.2949 -4933.5586)">
		<stop  offset="0" style="stop-color:#CEDB29"/>
		<stop  offset="1" style="stop-color:#24AA4A"/>
	</linearGradient>
	<path id="Path_879_2_" class="st14" d="M172.01,164.52L172.01,164.52c0.31,0.64,0.78,1.19,1.27,0.94c0.98-0.49,0.33-3.21-0.2-4.67
		c-2.02-5.58-6.33-12.73-17.55-17.79c0,0-8.61-3.82-14.29-4.62C141.24,138.39,161.73,145.44,172.01,164.52z"/>
	
		<linearGradient id="Path_880_1_" gradientUnits="userSpaceOnUse" x1="-515.6673" y1="198.1177" x2="-515.0583" y2="198.7696" gradientTransform="matrix(37.9375 0 0 24.0959 19719.4023 -4630.5459)">
		<stop  offset="0" style="stop-color:#FCEE2F"/>
		<stop  offset="1" style="stop-color:#EE8C22"/>
	</linearGradient>
	<path id="Path_880_2_" class="st15" d="M178.01,161.83L178.01,161.83c0.27,0.33,1.72,2.43,2.64,1.56c0.89-0.85-0.44-4.99-1.14-6.21
		c-2.86-4.98-8.22-10.57-18.37-14.28c0,0-10.65-4.52-19.89-4.52C141.24,138.39,163.81,142.84,178.01,161.83z"/>
	
		<linearGradient id="Path_881_1_" gradientUnits="userSpaceOnUse" x1="-515.9358" y1="201.8509" x2="-515.2703" y2="202.4987" gradientTransform="matrix(44.8927 0 0 21.5862 23314.834 -4218.1953)">
		<stop  offset="0" style="stop-color:#F7BE16"/>
		<stop  offset="1" style="stop-color:#E86224"/>
	</linearGradient>
	<path id="Path_881_2_" class="st16" d="M186.17,159.55c0.38,0.43,1.21,1.24,1.78,0.75c0.98-0.84-0.96-4.75-1.48-5.55
		c-3.75-5.81-11.55-12.68-24.01-15.73c-7-1.3-14.15-1.5-21.21-0.62C141.24,138.4,170.68,141.98,186.17,159.55L186.17,159.55z"/>
	
		<linearGradient id="Path_882_1_" gradientUnits="userSpaceOnUse" x1="-515.894" y1="215.6915" x2="-515.3143" y2="216.2524" gradientTransform="matrix(46.1669 0 0 15.7703 23973.5156 -3263.9377)">
		<stop  offset="0" style="stop-color:#EC6D33"/>
		<stop  offset="1" style="stop-color:#E41E26"/>
	</linearGradient>
	<path id="Path_882_2_" class="st17" d="M186.55,150.85c0,0,2.12,1.55,2.85,0.46c0.57-0.87-0.52-2.85-1.57-4.08
		c-6.98-8.24-16.09-11.13-24.92-11.89c-7.36-0.53-14.74,0.51-21.67,3.06C163.76,137.36,177.05,143.64,186.55,150.85z"/>
	
		<linearGradient id="Path_883_1_" gradientUnits="userSpaceOnUse" x1="-516.2471" y1="179.2021" x2="-515.6768" y2="180.1" gradientTransform="matrix(61.358 0 0 54.7324 31761.3867 -9722.9492)">
		<stop  offset="0" style="stop-color:#D8DF22"/>
		<stop  offset="1" style="stop-color:#24AA4A"/>
	</linearGradient>
	<path id="Path_883_2_" class="st18" d="M73.63,84.23c0.26-0.1,3.4-1.28,8.46,0.64c0.6,0.23,1.21,0.47,1.85,0.73
		c3.42,1.95,6.33,4.69,8.49,7.98c8.35,11.91,23.61,44.46,44.93,46.5c-2.83,0.46-5.51,0.77-8.03,0.97c-27.53,0-29.69-22-42.4-45.41
		c-4.47-8.24-9.72-9.83-10.94-10.1l-0.49,0.09c-0.57-0.37-1.72-0.92-2.34-1.23L73.63,84.23z"/>
	
		<linearGradient id="Path_884_1_" gradientUnits="userSpaceOnUse" x1="-514.8411" y1="242.2023" x2="-514.0887" y2="242.7569" gradientTransform="matrix(15.9301 0 0 10.3665 8267.9814 -2422.877)">
		<stop  offset="0" style="stop-color:#F2972C"/>
		<stop  offset="1" style="stop-color:#E41E26"/>
	</linearGradient>
	<path id="Path_884_2_" class="st19" d="M75.52,88.33c-2.72-2.77-6.1-4-9.47-2.94c-1.09,0.5-2.14,1.08-3.14,1.73l0.12,0.31
		c4.39-0.17,8.71,1.18,12.22,3.82c-3.01,0.09-6.01,0.41-8.96,0.96l0.05,0.37c4.5,0.72,8.92,1.82,13.24,3.28
		C78.93,93.03,77.53,90.43,75.52,88.33L75.52,88.33z"/>
	
		<linearGradient id="Path_885_1_" gradientUnits="userSpaceOnUse" x1="-516.2421" y1="179.5789" x2="-515.5881" y2="180.5396" gradientTransform="matrix(50.9761 0 0 53.3289 26397.2402 -9490.4004)">
		<stop  offset="0" style="stop-color:#FCEE2F"/>
		<stop  offset="1" style="stop-color:#EE8C22"/>
	</linearGradient>
	<path id="Path_885_2_" class="st20" d="M110.56,140.29c6.2,1.06,12.52,1.31,18.78,0.76c-22.88-1.48-29.69-23.9-42.4-47.33
		C82.43,85.39,76,85.53,76,85.53l0,0c5,4.2,8.38,13.28,14.32,29.8C95.68,130.25,101.46,138.4,110.56,140.29z"/>
	
		<linearGradient id="Path_886_1_" gradientUnits="userSpaceOnUse" x1="-516.0463" y1="179.4351" x2="-515.4195" y2="180.3644" gradientTransform="matrix(42.538 0 0 53.9404 22025.7188 -9592.5859)">
		<stop  offset="0" style="stop-color:#F7BE16"/>
		<stop  offset="1" style="stop-color:#E86224"/>
	</linearGradient>
	<path id="Path_886_2_" class="st21" d="M110.56,140.29c-8.06-2.43-13.6-10.36-18.97-25.28c-6.5-18.06-9.86-26.85-17.45-30.53
		c-0.94-0.5-2.01-0.71-3.06-0.6c-1.76,0.17-3.47,0.68-5.03,1.51c4.02-0.75,8.93,1.7,11.86,7.18c7.22,13.52,6.94,21.76,12.86,33.61
		c2.55,5.33,6.86,9.62,12.21,12.15C105.45,139.18,107.99,139.84,110.56,140.29z"/>
</g>
<g>
	<path id="text_2_" class="st22" d="M170.04,196.51c-1.34,0.07-2.66-0.33-3.74-1.12c-1.16-1.07-1.76-2.62-1.62-4.2v-0.13
		c-0.14-1.54,0.53-3.05,1.76-3.98c1.25-0.89,3.25-1.34,6.24-1.34h2.61v-0.23c0.11-1.07-0.2-2.14-0.87-2.98
		c-0.8-0.66-1.83-0.97-2.85-0.86c-1.1,0-2.39,0.06-3.41,0.13c-0.46,0.03-1.73,0.14-2.41,0.2v-1.71c0-0.25,0.18-0.46,0.43-0.51
		c1.78-0.29,3.58-0.42,5.38-0.4c2.32,0,3.93,0.58,4.95,1.64c1.08,1.27,1.62,2.91,1.49,4.57v5.61c0.12,1.42-0.32,2.83-1.23,3.94
		c-0.85,0.9-2.2,1.38-4.2,1.38L170.04,196.51z M168.52,188.51c-0.84,0.49-1.11,1.34-1.11,2.53v0.11c-0.1,0.93,0.21,1.85,0.85,2.53
		c0.69,0.49,1.52,0.72,2.36,0.65h1.97c0.74,0.09,1.47-0.12,2.04-0.6c0.47-0.52,0.64-1.36,0.66-2.82v-3.03h-2.61
		C170.62,187.89,169.34,188.03,168.52,188.51L168.52,188.51z M151.57,194.87c-1.08-1.27-1.62-2.91-1.49-4.57v-5.61
		c-0.12-1.42,0.32-2.84,1.23-3.95c0.85-0.9,2.2-1.38,4.2-1.38h2.54c1.34-0.07,2.66,0.33,3.74,1.12c1.16,1.07,1.76,2.62,1.62,4.2
		v0.13c0.14,1.54-0.52,3.05-1.76,3.98c-1.25,0.89-3.25,1.34-6.24,1.34h-2.61l0.01,0.23c-0.11,1.07,0.2,2.14,0.87,2.98
		c0.8,0.66,1.83,0.97,2.85,0.85c1.1,0,2.39-0.06,3.41-0.13c0.45-0.03,1.73-0.14,2.41-0.2v1.71c0,0.25-0.18,0.46-0.43,0.51
		c-1.78,0.29-3.58,0.42-5.38,0.4C154.2,196.51,152.59,195.93,151.57,194.87L151.57,194.87z M153.46,182.16
		c-0.47,0.52-0.64,1.36-0.66,2.82v3.03h2.61c2.05-0.02,3.33-0.16,4.16-0.63c0.83-0.47,1.11-1.34,1.11-2.52v-0.11
		c0.1-0.93-0.21-1.85-0.85-2.53c-0.69-0.49-1.52-0.72-2.35-0.65h-1.97C154.77,181.46,154.03,181.68,153.46,182.16L153.46,182.16z
		 M109.36,194.87c-1.08-1.27-1.62-2.91-1.49-4.57v-5.61c-0.12-1.42,0.32-2.84,1.23-3.95c0.85-0.9,2.2-1.38,4.2-1.38h2.53
		c1.34-0.07,2.66,0.33,3.74,1.12c1.16,1.07,1.76,2.62,1.63,4.2v0.13c0.14,1.54-0.53,3.05-1.76,3.98c-1.25,0.89-3.25,1.34-6.24,1.34
		h-2.61v0.23c-0.1,1.07,0.2,2.14,0.86,2.98c0.8,0.66,1.83,0.97,2.85,0.85c1.1,0,2.39-0.06,3.41-0.13c0.45-0.03,1.73-0.14,2.41-0.2
		v1.71c0,0.25-0.18,0.46-0.43,0.51c-1.78,0.29-3.58,0.42-5.38,0.4C111.99,196.51,110.38,195.93,109.36,194.87L109.36,194.87z
		 M111.26,182.16c-0.47,0.52-0.64,1.36-0.66,2.82v3.03h2.61c2.05-0.02,3.33-0.16,4.16-0.63s1.11-1.34,1.11-2.52v-0.11
		c0.1-0.93-0.21-1.85-0.85-2.53c-0.69-0.49-1.52-0.72-2.35-0.65h-1.97C112.56,181.46,111.82,181.68,111.26,182.16L111.26,182.16z
		 M83.43,194.87c-1.08-1.27-1.62-2.91-1.49-4.57v-5.61c-0.12-1.42,0.32-2.84,1.23-3.95c0.85-0.9,2.2-1.38,4.2-1.38h2.53
		c1.34-0.07,2.66,0.33,3.74,1.12c1.16,1.07,1.76,2.62,1.62,4.2v0.13c0.14,1.54-0.53,3.05-1.76,3.98c-1.25,0.89-3.25,1.34-6.24,1.34
		h-2.61v0.23c-0.1,1.07,0.2,2.14,0.86,2.98c0.8,0.66,1.83,0.97,2.85,0.85c1.1,0,2.39-0.06,3.41-0.13c0.45-0.03,1.73-0.14,2.41-0.2
		v1.71c0,0.25-0.18,0.46-0.43,0.51c-1.78,0.29-3.58,0.42-5.38,0.4C86.06,196.51,84.45,195.93,83.43,194.87L83.43,194.87z
		 M85.32,182.16c-0.47,0.52-0.64,1.36-0.66,2.82v3.03h2.61c2.05-0.02,3.33-0.16,4.16-0.63s1.11-1.34,1.11-2.52v-0.11
		c0.1-0.93-0.21-1.85-0.85-2.53c-0.69-0.49-1.52-0.72-2.35-0.65h-1.97C86.62,181.46,85.88,181.68,85.32,182.16L85.32,182.16z
		 M180.81,196.28v-13.17c0-2.07,1.68-3.74,3.74-3.74h4.88v1.8c-0.01,0.28-0.23,0.49-0.51,0.49c-0.01,0-0.01,0-0.02,0h-3.67
		c-0.94,0-1.7,0.76-1.7,1.7v12.36c0.02,0.29-0.2,0.53-0.49,0.56L180.81,196.28z M146.73,196.28h-2.24v-11.92h-11.61v11.36
		c0.02,0.29-0.2,0.53-0.49,0.56h-2.24v-21.65c-0.02-0.29,0.2-0.53,0.49-0.56h2.24v8h11.61v-7.45c-0.02-0.29,0.2-0.53,0.49-0.56h2.24
		v21.65C147.23,196.01,147.01,196.26,146.73,196.28L146.73,196.28z M97.73,196.28v-13.17c0-2.07,1.67-3.74,3.74-3.74h4.88v1.8
		c-0.01,0.28-0.23,0.49-0.51,0.49c-0.01,0-0.01,0-0.02,0h-3.67c-0.94,0-1.7,0.76-1.7,1.7v12.36c0.02,0.29-0.2,0.54-0.49,0.56
		L97.73,196.28z M78.58,196.28h-2.24v-11.92H64.73v11.36c0.02,0.29-0.2,0.53-0.49,0.56H62v-21.65c-0.02-0.29,0.2-0.53,0.49-0.56
		h2.24v8h11.61v-7.45c-0.02-0.29,0.2-0.53,0.49-0.56h2.24v21.65C79.09,196.01,78.87,196.26,78.58,196.28L78.58,196.28z"/>
</g>
</svg>
