<?xml version="1.0" encoding="utf-8"?>
<!-- Generator: Adobe Illustrator 22.1.0, SVG Export Plug-In . SVG Version: 6.00 Build 0)  -->
<svg version="1.1" id="Layer_1" xmlns="http://www.w3.org/2000/svg" xmlns:xlink="http://www.w3.org/1999/xlink" x="0px" y="0px"
	 viewBox="0 0 28.3 28.3" style="enable-background:new 0 0 28.3 28.3;" xml:space="preserve">
<style type="text/css">
	.st0{fill:#D291FF;}
	.st1{fill:#1F0040;}
	.st2{fill:#FF7C00;}
	.st3{fill:#261300;}
	.st4{fill:#FF4A1D;}
	.st5{fill:#260600;}
	.st6{fill:#35FA00;}
	.st7{fill:#072600;}
	.st8{fill:#FF3F94;}
	.st9{fill:#2E0013;}
	.st10{fill:#00C8FF;}
	.st11{fill:#001D26;}
	.st12{fill:#FF26BE;}
	.st13{fill:#2E001F;}
	.st14{fill:#FDB300;}
	.st15{fill:#EA6C00;}
	.st16{fill:#FDAD00;}
	.st17{fill:#FDD231;}
	.st18{fill:#FEEEB7;}
	.st19{fill:#563D7C;}
	.st20{fill:#E65100;}
	.st21{fill:#FF6D00;}
	.st22{fill:#FFFFFF;}
	.st23{fill:#EEEEEE;}
	.st24{fill:#0277BD;}
	.st25{fill:#039BE5;}
</style>
<path class="st19" d="M23.6,0H4.7C2.1,0,0,2.1,0,4.7v18.9c0,2.6,2.1,4.7,4.7,4.7h18.9c2.6,0,4.7-2.1,4.7-4.7V4.7
	C28.3,2.1,26.2,0,23.6,0z M21,19.9c-0.2,0.6-0.6,1.1-1.1,1.5c-0.5,0.4-1.1,0.7-1.9,1c-0.8,0.2-1.7,0.4-2.8,0.4H7.7V6.2h8
	c1.5,0,2.7,0.3,3.6,1c0.9,0.7,1.3,1.7,1.3,3.1c0,0.8-0.2,1.5-0.6,2.1c-0.4,0.6-1,1-1.8,1.4v0.1c1,0.2,1.8,0.7,2.3,1.4
	c0.5,0.7,0.8,1.7,0.8,2.8C21.4,18.7,21.2,19.3,21,19.9L21,19.9z M17.8,15.8c-0.5-0.4-1.2-0.7-2-0.7h-5.1v5.2h5.1
	c0.9,0,1.6-0.2,2-0.7c0.5-0.5,0.7-1.1,0.7-1.9C18.5,16.9,18.3,16.3,17.8,15.8L17.8,15.8z M17.1,12.5c0.5-0.4,0.7-1,0.7-1.7
	c0-0.8-0.2-1.4-0.6-1.8c-0.4-0.3-1-0.5-1.8-0.5h-4.7v4.6h4.7C16,13.1,16.6,12.9,17.1,12.5L17.1,12.5z"/>
</svg>
