<?xml version="1.0" encoding="utf-8"?>
<!-- Generator: Adobe Illustrator 22.1.0, SVG Export Plug-In . SVG Version: 6.00 Build 0)  -->
<svg version="1.1" id="Layer_1" xmlns="http://www.w3.org/2000/svg" xmlns:xlink="http://www.w3.org/1999/xlink" x="0px" y="0px"
	 viewBox="0 0 28.3 28.3" style="enable-background:new 0 0 28.3 28.3;" xml:space="preserve">
<style type="text/css">
	.st0{fill:#D291FF;}
	.st1{fill:#1F0040;}
	.st2{fill:#FF7C00;}
	.st3{fill:#261300;}
	.st4{fill:#FF4A1D;}
	.st5{fill:#260600;}
	.st6{fill:#35FA00;}
	.st7{fill:#072600;}
	.st8{fill:#FF3F94;}
	.st9{fill:#2E0013;}
	.st10{fill:#00C8FF;}
	.st11{fill:#001D26;}
	.st12{fill:#FF26BE;}
	.st13{fill:#2E001F;}
	.st14{fill:#FDB300;}
	.st15{fill:#EA6C00;}
	.st16{fill:#FDAD00;}
	.st17{fill:#FDD231;}
	.st18{fill:#FEEEB7;}
	.st19{fill:#563D7C;}
	.st20{fill:#E65100;}
	.st21{fill:#FF6D00;}
	.st22{fill:#FFFFFF;}
	.st23{fill:#EEEEEE;}
	.st24{fill:#0277BD;}
	.st25{fill:#039BE5;}
</style>
<g id="surface1_1_">
	<path class="st24" d="M26.9,0H1.5l2.2,25.4l10.4,3l10.4-3L26.9,0z"/>
	<path class="st25" d="M14.2,2.2V26l8.4-2.4l1.9-21.4H14.2z"/>
	<path class="st22" d="M21,6h-6.8v3h3.7l-0.2,3h-3.4v3h3.3l-0.2,3.4l-3.1,1v3.1l5.9-1.9l0.5-8.6L21,6z"/>
	<path class="st23" d="M14.2,6v3H7.5L7.3,6H14.2z M10.7,11.9l0.2,3h3.3v-3H10.7z M11,16.4h-3l0.2,4.1l5.9,1.9v-3.1l-3.1-1L11,16.4z"
		/>
</g>
</svg>
