<?xml version="1.0" encoding="utf-8"?>
<!-- Generator: Adobe Illustrator 22.1.0, SVG Export Plug-In . SVG Version: 6.00 Build 0)  -->
<svg version="1.1" xmlns="http://www.w3.org/2000/svg" xmlns:xlink="http://www.w3.org/1999/xlink" x="0px" y="0px"
	 viewBox="0 0 561 213.4" style="enable-background:new 0 0 561 213.4;" xml:space="preserve">
<style type="text/css">
	.st0{fill:#75B5B3;}
	.st1{fill:#EBEBEB;}
	.st2{fill:#FFFFFF;}
	
		.st3{clip-path:url(#SVGID_2_);fill:#75B5B3;stroke:#75B5B3;stroke-width:2;stroke-linecap:round;stroke-linejoin:round;stroke-miterlimit:10;}
	.st4{fill:#75B5B3;stroke:#75B5B3;stroke-linejoin:round;stroke-miterlimit:10;}
	.st5{fill:none;stroke:#75B5B3;stroke-width:2;stroke-linecap:round;stroke-miterlimit:10;}
	.st6{fill:#75B5B3;stroke:#75B5B3;stroke-width:2;stroke-linecap:round;stroke-linejoin:round;stroke-miterlimit:10;}
	.st7{fill:#75B5B3;stroke:#75B5B3;stroke-width:2;stroke-linecap:round;stroke-miterlimit:10;}
	.st8{fill:#646464;}
	.st9{fill:none;stroke:#646564;stroke-width:2;stroke-miterlimit:10;}
	.st10{fill:none;stroke:#646564;stroke-linecap:round;stroke-linejoin:round;stroke-miterlimit:10;}
	.st11{fill:none;stroke:#646564;stroke-miterlimit:10;}
	.st12{fill:none;stroke:#646564;stroke-width:2;stroke-linecap:round;stroke-miterlimit:10;}
	
		.st13{clip-path:url(#SVGID_4_);fill:none;stroke:#646564;stroke-width:2;stroke-linecap:round;stroke-linejoin:round;stroke-miterlimit:10;}
	.st14{fill:none;stroke:#646564;stroke-width:2;stroke-linecap:round;stroke-linejoin:round;stroke-miterlimit:10;}
	.st15{fill:#FFFFFF;stroke:#646564;stroke-width:2;stroke-linecap:round;stroke-linejoin:round;stroke-miterlimit:10;}
	.st16{fill:#70978B;}
	.st17{fill:#D8D8D8;}
	.st18{fill:#FFC338;}
	.st19{fill:none;stroke:#FFFFFF;stroke-width:11.0093;stroke-linecap:round;stroke-miterlimit:10;}
	.st20{fill:none;stroke:#FFC338;stroke-width:0.5;stroke-miterlimit:10;}
</style>
<g id="bg">
</g>
<g id="flat_icons">
	<g>
		<g>
			<path class="st0" d="M173.3,82.5L95.5,28.1c-4.4-3-11-3-15.3,0L2.3,82.5c-2.5,1.7-3.1,5.2-1.4,7.7c1.7,2.5,5.2,3.1,7.7,1.4
				l14.2-9.9v68.2c0,6,4.8,10.9,10.7,10.9h108.8c5.9,0,10.7-4.9,10.7-10.9V81.8l13.8,9.7c1,0.7,2.1,1,3.2,1c1.7,0,3.4-0.8,4.5-2.3
				C176.3,87.7,175.7,84.3,173.3,82.5z M95.3,105.3c5.5,5.3,10.1,11.5,13.5,18.3c0.8,1.6,1.4,3.3,1.9,5c1.4,3.1,0.6,6.7-2,9
				c-4.2,2.4-9.4,2.6-13.7,0.4c-9.6-3.8-18.5,2-24.2,3.1c-0.8,0.2-1.7,0.2-2.5,0.2c-5-0.4-9.6-5-5.6-14.5c1.4-3.2,3.3-6.3,5.6-9
				c4.2-4.9,8.9-9.4,14.1-13.3C85.4,100.9,91.7,102.1,95.3,105.3z M91.5,77.5c1.2-4.7,4.1-8.9,8.2-11.5c4.4-2.6,7.3-1.7,9.2,0.7
				c2.2,3.4,3,7.5,2.3,11.4c-0.5,2.5-1.2,4.8-2.3,7.1c-2.6,5.5-6.8,10.8-11.2,9.6C91.3,93,90.5,84.4,91.5,77.5z M76.2,93.2
				c-4.1-2.7-6.9-6.8-7.9-11.6c-0.6-2.2-0.9-4.4-0.9-6.7c0-2.1,0.3-4.2,0.9-6.2c0.4-1.5,1.2-3,2.3-4.1c0,0,0.1-0.1,0.1-0.1
				c2.4-2.4,6.2-2.4,8.6-0.1c4.3,4.5,6.9,10.3,7.3,16.5C86.5,87.2,81.4,96,76.2,93.2z M60.8,87.2c3.5,2.8,6.1,6.6,7.6,10.8
				c0.2,0.8,0.4,1.5,0.5,2.3c0.7,2.7,0.5,5.6-0.5,8.3c-1.3,2-3.4,3.3-5.8,3.5c-5.5,1-10.1-4.3-12.5-10.3
				C47.6,95.7,49.2,82,60.8,87.2z M113.7,117.5c-1.8,0.1-3.6-0.6-4.9-1.8c-2.2-2.9-3.1-6.6-2.4-10.1c0.3-2.3,1.1-4.5,2.4-6.4
				c1.8-2.6,4-4.9,6.5-6.8c7.4-4.8,11.5,1.2,11.5,9C126.8,109.1,119.4,117.5,113.7,117.5z"/>
			<g>
				<g>
					<path class="st0" d="M21.3,181.8h-5.9v6.1h-3.1V173h9.7v2.5h-6.6v3.9h5.9V181.8z"/>
					<path class="st0" d="M23.6,174c0-0.4,0.1-0.8,0.4-1.1c0.3-0.3,0.7-0.4,1.2-0.4c0.5,0,0.9,0.1,1.2,0.4s0.5,0.7,0.5,1.1
						c0,0.5-0.2,0.8-0.5,1.1c-0.3,0.3-0.7,0.4-1.2,0.4c-0.5,0-0.9-0.1-1.2-0.4C23.8,174.8,23.6,174.4,23.6,174z M26.8,187.9h-3
						v-11.1h3V187.9z"/>
					<path class="st0" d="M31.9,176.8l0.1,1.3c0.8-1,1.9-1.5,3.2-1.5c1.2,0,2.1,0.3,2.6,1s0.9,1.7,0.9,3.1v7.2h-3v-7.1
						c0-0.6-0.1-1.1-0.4-1.4c-0.3-0.3-0.7-0.4-1.4-0.4c-0.8,0-1.5,0.4-1.9,1.1v7.8h-3v-11.1H31.9z"/>
					<path class="st0" d="M40.5,182.3c0-1.7,0.4-3.1,1.2-4.1c0.8-1,1.8-1.5,3.2-1.5c1.1,0,2,0.4,2.7,1.2v-5.7h3v15.8h-2.7l-0.1-1.2
						c-0.7,0.9-1.7,1.4-2.9,1.4c-1.3,0-2.4-0.5-3.1-1.5C40.9,185.6,40.5,184.1,40.5,182.3z M43.5,182.5c0,1,0.2,1.8,0.5,2.4
						s0.9,0.8,1.6,0.8c0.9,0,1.6-0.4,1.9-1.2v-4.4c-0.4-0.8-1-1.2-1.9-1.2C44.2,179,43.5,180.2,43.5,182.5z"/>
					<path class="st0" d="M62.2,173l3.8,10.8l3.8-10.8h4v14.9h-3.1v-4.1l0.3-7l-4,11.1H65l-4-11.1l0.3,7v4.1h-3.1V173H62.2z"/>
					<path class="st0" d="M81.5,188.1c-1.6,0-3-0.5-4-1.5c-1-1-1.5-2.3-1.5-4v-0.3c0-1.1,0.2-2.1,0.6-3c0.4-0.9,1-1.6,1.8-2
						c0.8-0.5,1.7-0.7,2.7-0.7c1.5,0,2.7,0.5,3.6,1.4c0.9,1,1.3,2.3,1.3,4.1v1.2H79c0.1,0.7,0.4,1.3,0.9,1.7
						c0.5,0.4,1.1,0.7,1.8,0.7c1.1,0,2-0.4,2.7-1.2l1.5,1.6c-0.4,0.6-1,1.1-1.8,1.5C83.3,188,82.5,188.1,81.5,188.1z M81.2,179
						c-0.6,0-1.1,0.2-1.4,0.6c-0.4,0.4-0.6,1-0.7,1.7h4.1v-0.2c0-0.7-0.2-1.2-0.5-1.5S81.8,179,81.2,179z"/>
					<path class="st0" d="M99.4,187.9c-0.1-0.3-0.2-0.6-0.3-1c-0.7,0.8-1.7,1.2-2.8,1.2c-1.1,0-2-0.3-2.7-0.9
						c-0.7-0.6-1.1-1.4-1.1-2.4c0-1.2,0.4-2.1,1.3-2.7c0.9-0.6,2.1-0.9,3.8-1H99v-0.6c0-0.5-0.1-0.9-0.4-1.2
						c-0.3-0.3-0.7-0.5-1.2-0.5c-0.5,0-0.9,0.1-1.2,0.4c-0.3,0.2-0.4,0.6-0.4,1h-3c0-0.6,0.2-1.2,0.6-1.8c0.4-0.5,1-1,1.7-1.3
						c0.7-0.3,1.5-0.5,2.4-0.5c1.4,0,2.5,0.3,3.3,1c0.8,0.7,1.2,1.7,1.2,2.9v4.8c0,1.1,0.2,1.8,0.4,2.4v0.2H99.4z M97,185.9
						c0.4,0,0.8-0.1,1.2-0.3c0.4-0.2,0.6-0.5,0.8-0.8v-1.9h-1.1c-1.5,0-2.3,0.5-2.4,1.5l0,0.2c0,0.4,0.1,0.7,0.4,0.9
						C96.2,185.7,96.5,185.9,97,185.9z"/>
					<path class="st0" d="M121.8,187.9h-3.1v-6.4h-6v6.4h-3.1V173h3.1v6h6v-6h3.1V187.9z"/>
					<path class="st0" d="M123.9,182.3c0-1.1,0.2-2.1,0.6-2.9s1-1.5,1.8-2c0.8-0.5,1.7-0.7,2.8-0.7c1.5,0,2.7,0.5,3.7,1.4
						c0.9,0.9,1.5,2.2,1.6,3.7l0,0.8c0,1.7-0.5,3.1-1.4,4.1c-1,1-2.2,1.5-3.8,1.5c-1.6,0-2.9-0.5-3.8-1.5c-1-1-1.4-2.4-1.4-4.2
						V182.3z M126.8,182.5c0,1.1,0.2,1.9,0.6,2.4c0.4,0.6,1,0.8,1.7,0.8c0.7,0,1.3-0.3,1.7-0.8c0.4-0.6,0.6-1.4,0.6-2.6
						c0-1-0.2-1.8-0.6-2.4c-0.4-0.6-1-0.9-1.7-0.9c-0.7,0-1.3,0.3-1.7,0.8C127,180.4,126.8,181.3,126.8,182.5z"/>
					<path class="st0" d="M139,176.8l0.1,1.2c0.8-1,1.8-1.4,3.2-1.4c1.4,0,2.4,0.6,2.9,1.7c0.8-1.1,1.9-1.7,3.3-1.7
						c1.2,0,2.1,0.4,2.7,1.1c0.6,0.7,0.9,1.8,0.9,3.2v7.1h-3v-7.1c0-0.6-0.1-1.1-0.4-1.4c-0.2-0.3-0.7-0.4-1.3-0.4
						c-0.9,0-1.5,0.4-1.8,1.3l0,7.6h-3v-7.1c0-0.6-0.1-1.1-0.4-1.4s-0.7-0.4-1.3-0.4c-0.8,0-1.4,0.3-1.8,1v7.8h-3v-11.1H139z"/>
					<path class="st0" d="M159.5,188.1c-1.6,0-3-0.5-4-1.5c-1-1-1.5-2.3-1.5-4v-0.3c0-1.1,0.2-2.1,0.6-3c0.4-0.9,1-1.6,1.8-2
						c0.8-0.5,1.7-0.7,2.7-0.7c1.5,0,2.7,0.5,3.6,1.4c0.9,1,1.3,2.3,1.3,4.1v1.2H157c0.1,0.7,0.4,1.3,0.9,1.7
						c0.5,0.4,1.1,0.7,1.8,0.7c1.1,0,2-0.4,2.7-1.2l1.5,1.6c-0.4,0.6-1,1.1-1.8,1.5C161.3,188,160.4,188.1,159.5,188.1z M159.2,179
						c-0.6,0-1.1,0.2-1.4,0.6c-0.4,0.4-0.6,1-0.7,1.7h4.1v-0.2c0-0.7-0.2-1.2-0.5-1.5S159.8,179,159.2,179z"/>
				</g>
			</g>
		</g>
		<rect x="204.2" class="st0" width="356.8" height="213.4"/>
	</g>
	<g>
		<g>
			<g>
				<g>
					<path class="st19" d="M242.5,87.1l77.8-54.4c2.5-1.7,6.5-1.7,9,0l77.8,54.4"/>
				</g>
				<path class="st19" d="M265.3,70.9v78.9c0,3,2.4,5.4,5.2,5.4h108.8c2.9,0,5.2-2.4,5.2-5.4V70.9"/>
			</g>
			<g>
				<path class="st2" d="M319.3,104.5c-5.1,3.9-9.9,8.4-14.1,13.3c-2.3,2.7-4.2,5.7-5.6,9c-3.9,9.5,0.6,14.1,5.6,14.5
					c0.8,0.1,1.7,0,2.5-0.2c5.7-1.2,14.7-7,24.2-3.1c4.4,2.2,9.5,2.1,13.7-0.4c2.6-2.2,3.4-5.9,2-9c-0.5-1.7-1.2-3.3-1.9-5
					c-3.4-6.8-8-13-13.5-18.3C328.7,102.2,322.4,100.9,319.3,104.5z"/>
				<path class="st2" d="M307.8,64.5c0,0-0.1,0.1-0.1,0.1c-1.1,1.1-1.9,2.5-2.3,4.1c-0.6,2-0.9,4.1-0.9,6.2c0,2.2,0.3,4.5,0.9,6.7
					c1,4.8,3.8,8.9,7.9,11.6c5.2,2.8,10.3-5.9,10.5-12.3c-0.5-6.2-3-12-7.3-16.5C314,62.1,310.2,62.1,307.8,64.5z"/>
				<path class="st2" d="M336.6,66c-4.1,2.7-7,6.8-8.2,11.5c-0.9,7-0.2,15.5,6.2,17.3c4.3,1.2,8.6-4.1,11.2-9.6
					c1.1-2.2,1.9-4.6,2.3-7.1c0.7-4-0.2-8-2.3-11.4C343.9,64.3,341,63.4,336.6,66z"/>
				<path class="st2" d="M343.4,105.6c-0.7,3.6,0.2,7.3,2.4,10.1c1.3,1.2,3.1,1.9,4.9,1.8c5.7,0,13.1-8.3,13.1-16.1
					s-4.1-13.7-11.5-9c-2.5,1.9-4.7,4.2-6.5,6.8C344.5,101.1,343.7,103.3,343.4,105.6z"/>
				<path class="st2" d="M297.8,87.2c-11.5-5.2-13.1,8.5-10.7,14.5s7,11.3,12.5,10.3c2.4-0.1,4.6-1.4,5.8-3.5c1-2.6,1.2-5.5,0.5-8.3
					c-0.1-0.8-0.3-1.6-0.5-2.3C303.9,93.8,301.3,90,297.8,87.2z"/>
			</g>
		</g>
		<g>
			<g>
				<path class="st2" d="M258.3,181.8h-5.9v6.1h-3.1V173h9.7v2.5h-6.6v3.9h5.9V181.8z"/>
				<path class="st2" d="M260.6,174c0-0.4,0.1-0.8,0.4-1.1c0.3-0.3,0.7-0.4,1.2-0.4c0.5,0,0.9,0.1,1.2,0.4s0.5,0.7,0.5,1.1
					c0,0.5-0.2,0.8-0.5,1.1c-0.3,0.3-0.7,0.4-1.2,0.4c-0.5,0-0.9-0.1-1.2-0.4C260.8,174.8,260.6,174.4,260.6,174z M263.8,187.9h-3
					v-11.1h3V187.9z"/>
				<path class="st2" d="M268.9,176.8l0.1,1.3c0.8-1,1.9-1.5,3.2-1.5c1.2,0,2.1,0.3,2.6,1s0.9,1.7,0.9,3.1v7.2h-3v-7.1
					c0-0.6-0.1-1.1-0.4-1.4c-0.3-0.3-0.7-0.4-1.4-0.4c-0.8,0-1.5,0.4-1.9,1.1v7.8h-3v-11.1H268.9z"/>
				<path class="st2" d="M277.5,182.3c0-1.7,0.4-3.1,1.2-4.1c0.8-1,1.8-1.5,3.2-1.5c1.1,0,2,0.4,2.7,1.2v-5.7h3v15.8h-2.7l-0.1-1.2
					c-0.7,0.9-1.7,1.4-2.9,1.4c-1.3,0-2.4-0.5-3.1-1.5C277.9,185.6,277.5,184.1,277.5,182.3z M280.5,182.5c0,1,0.2,1.8,0.5,2.4
					s0.9,0.8,1.6,0.8c0.9,0,1.6-0.4,1.9-1.2v-4.4c-0.4-0.8-1-1.2-1.9-1.2C281.2,179,280.5,180.2,280.5,182.5z"/>
				<path class="st2" d="M299.2,173l3.8,10.8l3.8-10.8h4v14.9h-3.1v-4.1l0.3-7l-4,11.1H302l-4-11.1l0.3,7v4.1h-3.1V173H299.2z"/>
				<path class="st2" d="M318.5,188.1c-1.6,0-3-0.5-4-1.5c-1-1-1.5-2.3-1.5-4v-0.3c0-1.1,0.2-2.1,0.6-3c0.4-0.9,1-1.6,1.8-2
					c0.8-0.5,1.7-0.7,2.7-0.7c1.5,0,2.7,0.5,3.6,1.4c0.9,1,1.3,2.3,1.3,4.1v1.2H316c0.1,0.7,0.4,1.3,0.9,1.7
					c0.5,0.4,1.1,0.7,1.8,0.7c1.1,0,2-0.4,2.7-1.2l1.5,1.6c-0.4,0.6-1,1.1-1.8,1.5C320.3,188,319.5,188.1,318.5,188.1z M318.2,179
					c-0.6,0-1.1,0.2-1.4,0.6c-0.4,0.4-0.6,1-0.7,1.7h4.1v-0.2c0-0.7-0.2-1.2-0.5-1.5S318.8,179,318.2,179z"/>
				<path class="st2" d="M336.4,187.9c-0.1-0.3-0.2-0.6-0.3-1c-0.7,0.8-1.7,1.2-2.8,1.2c-1.1,0-2-0.3-2.7-0.9
					c-0.7-0.6-1.1-1.4-1.1-2.4c0-1.2,0.4-2.1,1.3-2.7c0.9-0.6,2.1-0.9,3.8-1h1.4v-0.6c0-0.5-0.1-0.9-0.4-1.2
					c-0.3-0.3-0.7-0.5-1.2-0.5c-0.5,0-0.9,0.1-1.2,0.4c-0.3,0.2-0.4,0.6-0.4,1h-3c0-0.6,0.2-1.2,0.6-1.8c0.4-0.5,1-1,1.7-1.3
					c0.7-0.3,1.5-0.5,2.4-0.5c1.4,0,2.5,0.3,3.3,1c0.8,0.7,1.2,1.7,1.2,2.9v4.8c0,1.1,0.2,1.8,0.4,2.4v0.2H336.4z M334,185.9
					c0.4,0,0.8-0.1,1.2-0.3c0.4-0.2,0.6-0.5,0.8-0.8v-1.9h-1.1c-1.5,0-2.3,0.5-2.4,1.5l0,0.2c0,0.4,0.1,0.7,0.4,0.9
					C333.2,185.7,333.5,185.9,334,185.9z"/>
				<path class="st2" d="M358.8,187.9h-3.1v-6.4h-6v6.4h-3.1V173h3.1v6h6v-6h3.1V187.9z"/>
				<path class="st2" d="M360.9,182.3c0-1.1,0.2-2.1,0.6-2.9s1-1.5,1.8-2c0.8-0.5,1.7-0.7,2.8-0.7c1.5,0,2.7,0.5,3.7,1.4
					c0.9,0.9,1.5,2.2,1.6,3.7l0,0.8c0,1.7-0.5,3.1-1.4,4.1c-1,1-2.2,1.5-3.8,1.5s-2.9-0.5-3.8-1.5c-1-1-1.4-2.4-1.4-4.2V182.3z
					 M363.8,182.5c0,1.1,0.2,1.9,0.6,2.4c0.4,0.6,1,0.8,1.7,0.8c0.7,0,1.3-0.3,1.7-0.8c0.4-0.6,0.6-1.4,0.6-2.6c0-1-0.2-1.8-0.6-2.4
					c-0.4-0.6-1-0.9-1.7-0.9c-0.7,0-1.3,0.3-1.7,0.8C364,180.4,363.8,181.3,363.8,182.5z"/>
				<path class="st2" d="M376,176.8l0.1,1.2c0.8-1,1.8-1.4,3.2-1.4c1.4,0,2.4,0.6,2.9,1.7c0.8-1.1,1.9-1.7,3.3-1.7
					c1.2,0,2.1,0.4,2.7,1.1c0.6,0.7,0.9,1.8,0.9,3.2v7.1h-3v-7.1c0-0.6-0.1-1.1-0.4-1.4c-0.2-0.3-0.7-0.4-1.3-0.4
					c-0.9,0-1.5,0.4-1.8,1.3l0,7.6h-3v-7.1c0-0.6-0.1-1.1-0.4-1.4s-0.7-0.4-1.3-0.4c-0.8,0-1.4,0.3-1.8,1v7.8h-3v-11.1H376z"/>
				<path class="st2" d="M396.5,188.1c-1.6,0-3-0.5-4-1.5c-1-1-1.5-2.3-1.5-4v-0.3c0-1.1,0.2-2.1,0.6-3c0.4-0.9,1-1.6,1.8-2
					c0.8-0.5,1.7-0.7,2.7-0.7c1.5,0,2.7,0.5,3.6,1.4c0.9,1,1.3,2.3,1.3,4.1v1.2H394c0.1,0.7,0.4,1.3,0.9,1.7
					c0.5,0.4,1.1,0.7,1.8,0.7c1.1,0,2-0.4,2.7-1.2l1.5,1.6c-0.4,0.6-1,1.1-1.8,1.5C398.3,188,397.4,188.1,396.5,188.1z M396.2,179
					c-0.6,0-1.1,0.2-1.4,0.6c-0.4,0.4-0.6,1-0.7,1.7h4.1v-0.2c0-0.7-0.2-1.2-0.5-1.5S396.8,179,396.2,179z"/>
			</g>
		</g>
	</g>
</g>
<g id="links">
</g>
</svg>
