<?xml version="1.0" encoding="utf-8"?>
<!-- Generator: Adobe Illustrator 22.1.0, SVG Export Plug-In . SVG Version: 6.00 Build 0)  -->
<svg version="1.1" id="Layer_1" xmlns="http://www.w3.org/2000/svg" xmlns:xlink="http://www.w3.org/1999/xlink" x="0px" y="0px"
	 viewBox="0 0 134 66.6" style="enable-background:new 0 0 134 66.6;" xml:space="preserve">
<style type="text/css">
	.st0{fill:#75B5B3;}
	
		.st1{clip-path:url(#SVGID_2_);fill:#75B5B3;stroke:#75B5B3;stroke-width:2;stroke-linecap:round;stroke-linejoin:round;stroke-miterlimit:10;}
	.st2{fill:#75B5B3;stroke:#75B5B3;stroke-linejoin:round;stroke-miterlimit:10;}
	.st3{fill:none;stroke:#75B5B3;stroke-width:2;stroke-linecap:round;stroke-miterlimit:10;}
	.st4{fill:#75B5B3;stroke:#75B5B3;stroke-width:2;stroke-linecap:round;stroke-linejoin:round;stroke-miterlimit:10;}
	.st5{fill:#75B5B3;stroke:#75B5B3;stroke-width:2;stroke-linecap:round;stroke-miterlimit:10;}
	.st6{fill:#FFFFFF;}
	.st7{fill:none;stroke:#FFFFFF;stroke-width:2;stroke-miterlimit:10;}
	.st8{fill:none;stroke:#FFFFFF;stroke-linecap:round;stroke-linejoin:round;stroke-miterlimit:10;}
	.st9{fill:none;stroke:#FFFFFF;stroke-miterlimit:10;}
	.st10{fill:none;stroke:#646564;stroke-width:2;stroke-linecap:round;stroke-miterlimit:10;}
	.st11{fill:#646464;}
	
		.st12{clip-path:url(#SVGID_4_);fill:none;stroke:#646564;stroke-width:2;stroke-linecap:round;stroke-linejoin:round;stroke-miterlimit:10;}
	.st13{fill:none;stroke:#646564;stroke-width:2;stroke-linecap:round;stroke-linejoin:round;stroke-miterlimit:10;}
	.st14{fill:#FFFFFF;stroke:#646564;stroke-width:2;stroke-linecap:round;stroke-linejoin:round;stroke-miterlimit:10;}
	.st15{fill:#70978B;}
	.st16{fill:#D8D8D8;}
	.st17{fill:#FFC338;}
</style>
<g>
	<g>
		<g>
			<path class="st6" d="M109.6,43.8c-1.7,2-3.9,1.8-5.2-0.6l-0.8-1.6c-1.2-2.4,0-4.2,2.7-3.9l2.5,0.3c2.7,0.3,3.5,2.4,1.7,4.4
				L109.6,43.8z"/>
		</g>
		<path class="st7" d="M132.9,48.4c0.6-5.7-2.7-39.7-7.9-40.5c-4.9-0.8-9,13.7-10.2,12.8c-0.2-0.3-3.6-0.9-5.4-1.1
			c-2-0.2-4.7,0-5-0.1c-1.6,0.6-2.1-14.4-7.1-14.7c-4.9-0.3-16.1,32-16.7,37.7c-1.6,14.5,15,18.9,23.6,20.3l0.7,0.1
			C114.1,63.5,131.3,62.9,132.9,48.4z"/>
		<g>
			<path class="st8" d="M107,44.3c-0.4,7.7-6,9-9.9,6.3"/>
			<path class="st8" d="M107,44.3c-1.4,7.6,3.8,10.1,8.3,8.4"/>
		</g>
		<g>
			
				<ellipse transform="matrix(0.1122 -0.9937 0.9937 0.1122 53.1712 124.7025)" class="st6" cx="96.4" cy="32.6" rx="3.5" ry="3.5"/>
			<ellipse transform="matrix(0.1122 -0.9937 0.9937 0.1122 71.4762 150.5221)" class="st6" cx="120" cy="35.3" rx="3.5" ry="3.5"/>
		</g>
	</g>
	<g>
		<g>
			<path class="st7" d="M22.5,9.6c-2.2-1.7-6-3.6-9.9-3.1C4.3,8-2.2,23.4,2.7,24.7c2.6,0.9,8.2-0.4,12.8-2.8"/>
			<path class="st7" d="M54.3,16.6c5.1,1,10.8,0.7,13.1-0.9c4.6-2.9-6-15.6-14.6-14.7c-4,0.3-6.8,3.5-8.7,5.7"/>
		</g>
		<path class="st7" d="M57.8,25.6C54.2,9.1,41.6,3.2,33.5,4.3c-0.2,0-1,0.1-1.2,0.2C24.2,5.6,14,14.8,15,31.7
			c0.6,9.7-3.6,17,1.5,26.3c2.7,4.9,10.6,9.2,24.5,7c0.2,0,0.5-0.1,0.7-0.1s0.5-0.1,0.7-0.1c14-1.8,20.4-7.9,21.6-13.6
			C65.8,41.2,60,35.3,57.8,25.6z"/>
		<g>
			<path class="st6" d="M43.6,51.9c-1.7,3.7-5.1,4.2-7.8,1.1l-3.3-3.8c-2.7-3.1-1.4-6.1,2.6-6.6l6.4-0.9c3.9-0.6,6,1.9,4.3,5.6
				L43.6,51.9z"/>
		</g>
		<line class="st9" x1="39.3" y1="49.7" x2="41.5" y2="65.2"/>
		<g>
			<ellipse transform="matrix(0.9899 -0.1416 0.1416 0.9899 -3.6076 3.8229)" class="st6" cx="25.1" cy="27.3" rx="3.5" ry="3.5"/>
			<ellipse transform="matrix(0.9899 -0.1416 0.1416 0.9899 -2.9467 6.8776)" class="st6" cx="46.9" cy="24.1" rx="3.5" ry="3.5"/>
		</g>
	</g>
</g>
</svg>
