<?xml version="1.0" encoding="utf-8"?>
<!-- Generator: Adobe Illustrator 22.1.0, SVG Export Plug-In . SVG Version: 6.00 Build 0)  -->
<svg version="1.1" id="Layer_2" xmlns="http://www.w3.org/2000/svg" xmlns:xlink="http://www.w3.org/1999/xlink" x="0px" y="0px"
	 viewBox="0 0 372.9 411.2" style="enable-background:new 0 0 372.9 411.2;" xml:space="preserve">
<style type="text/css">
	.st0{fill:#48B6B4;}
	.st1{fill:#5A988C;}
	.st2{fill:#8E8E94;}
	.st3{fill:#D9D9D9;}
	.st4{fill:#FFC41F;}
	.st5{fill:none;stroke:#8E8E94;stroke-width:2.5;stroke-miterlimit:10;}
	.st6{fill:none;stroke:#8E8E94;stroke-width:2;stroke-linecap:round;stroke-linejoin:round;stroke-miterlimit:10;}
	.st7{fill:none;stroke:#8E8E94;stroke-width:2;stroke-miterlimit:10;}
	.st8{fill:none;stroke:#8E8E94;stroke-linecap:round;stroke-linejoin:round;stroke-miterlimit:10;}
	.st9{fill:none;stroke:#8E8E94;stroke-miterlimit:10;}
	.st10{fill:none;stroke:#FFFFFF;stroke-width:1.5;stroke-miterlimit:10;}
	.st11{fill:none;stroke:#8E8E94;stroke-width:2;stroke-linecap:round;stroke-miterlimit:10;}
	.st12{fill:none;stroke:#FFFFFF;stroke-width:1.5;stroke-linecap:round;stroke-miterlimit:10;}
	.st13{fill:none;stroke:#8E8E94;stroke-width:1.5;stroke-linecap:round;stroke-miterlimit:10;}
	.st14{fill:#FFFFFF;stroke:#8E8E94;stroke-width:2;stroke-linecap:round;stroke-linejoin:round;stroke-miterlimit:10;}
	.st15{fill:#FFFFFF;stroke:#48B6B4;stroke-width:2;stroke-linecap:round;stroke-linejoin:round;stroke-miterlimit:10;}
	.st16{clip-path:url(#SVGID_2_);}
	.st17{fill:#48B6B4;stroke:#48B6B4;stroke-width:2;stroke-linecap:round;stroke-miterlimit:10;}
	.st18{fill:#FFFFFF;}
	.st19{fill:none;stroke:#48B6B4;stroke-width:2;stroke-miterlimit:10;}
	.st20{fill:#48B6B4;stroke:#48B6B4;stroke-width:2;stroke-linecap:round;stroke-linejoin:round;stroke-miterlimit:10;}
</style>
<g>
	<rect x="72.6" class="st0" width="50" height="50"/>
	<rect class="st1" width="50" height="50"/>
	<rect x="217.8" class="st2" width="50" height="50"/>
	<rect x="290.4" class="st3" width="50" height="50"/>
	<rect x="145.2" class="st4" width="50" height="50"/>
	<g>
		<path class="st2" d="M294.6,64.4h-1.3l-0.4,2.4h-1l0.4-2.4h-1.4v-0.9h1.5l0.3-1.8h-1.4v-0.9h1.6l0.5-2.4h1l-0.5,2.4h1.3l0.5-2.4h1
			l-0.5,2.4h1.2v0.9h-1.4l-0.3,1.8h1.3v0.9h-1.5l-0.4,2.4h-1L294.6,64.4z M293.4,63.5h1.3l0.3-1.8h-1.3L293.4,63.5z"/>
		<path class="st2" d="M298.5,66.8v-8.5h2.5c0.8,0,1.4,0.2,2,0.5s1,0.8,1.4,1.4s0.5,1.3,0.5,2.1v0.4c0,0.8-0.2,1.5-0.5,2.1
			s-0.8,1.1-1.4,1.4s-1.3,0.5-2,0.5H298.5z M300,59.5v6.2h1c0.8,0,1.4-0.2,1.8-0.7s0.6-1.2,0.6-2.1v-0.5c0-0.9-0.2-1.6-0.6-2.1
			s-1-0.7-1.8-0.7H300z"/>
		<path class="st2" d="M311.5,60.6c0,0.4-0.1,0.8-0.3,1.1s-0.5,0.6-0.9,0.8c0.4,0.2,0.8,0.5,1,0.8s0.4,0.8,0.4,1.2
			c0,0.8-0.3,1.3-0.8,1.8s-1.2,0.7-2,0.7c-0.8,0-1.5-0.2-2-0.7s-0.8-1-0.8-1.8c0-0.5,0.1-0.9,0.4-1.2s0.6-0.6,1-0.8
			c-0.4-0.2-0.7-0.4-0.9-0.8s-0.3-0.7-0.3-1.1c0-0.7,0.2-1.3,0.7-1.7s1.1-0.6,1.9-0.6c0.8,0,1.4,0.2,1.9,0.6S311.5,59.8,311.5,60.6z
			 M310.3,64.5c0-0.4-0.1-0.8-0.4-1s-0.6-0.4-1-0.4s-0.7,0.1-1,0.4s-0.4,0.6-0.4,1c0,0.4,0.1,0.8,0.4,1s0.6,0.4,1,0.4s0.8-0.1,1-0.4
			S310.3,64.9,310.3,64.5z M310.1,60.6c0-0.4-0.1-0.7-0.3-0.9s-0.5-0.4-0.9-0.4s-0.7,0.1-0.9,0.3s-0.3,0.5-0.3,0.9
			c0,0.4,0.1,0.7,0.3,0.9s0.5,0.3,0.9,0.3s0.7-0.1,0.9-0.3S310.1,61,310.1,60.6z"/>
		<path class="st2" d="M313.2,66.8v-8.5h2.5c0.8,0,1.4,0.2,2,0.5s1,0.8,1.4,1.4s0.5,1.3,0.5,2.1v0.4c0,0.8-0.2,1.5-0.5,2.1
			s-0.8,1.1-1.4,1.4s-1.3,0.5-2,0.5H313.2z M314.7,59.5v6.2h1c0.8,0,1.4-0.2,1.8-0.7s0.6-1.2,0.6-2.1v-0.5c0-0.9-0.2-1.6-0.6-2.1
			s-1-0.7-1.8-0.7H314.7z"/>
		<path class="st2" d="M326.2,60.6c0,0.4-0.1,0.8-0.3,1.1s-0.5,0.6-0.9,0.8c0.4,0.2,0.8,0.5,1,0.8s0.4,0.8,0.4,1.2
			c0,0.8-0.3,1.3-0.8,1.8s-1.2,0.7-2,0.7c-0.8,0-1.5-0.2-2-0.7s-0.8-1-0.8-1.8c0-0.5,0.1-0.9,0.4-1.2s0.6-0.6,1-0.8
			c-0.4-0.2-0.7-0.4-0.9-0.8S321,61,321,60.6c0-0.7,0.2-1.3,0.7-1.7s1.1-0.6,1.9-0.6c0.8,0,1.4,0.2,1.9,0.6S326.2,59.8,326.2,60.6z
			 M325,64.5c0-0.4-0.1-0.8-0.4-1s-0.6-0.4-1-0.4s-0.7,0.1-1,0.4s-0.4,0.6-0.4,1c0,0.4,0.1,0.8,0.4,1s0.6,0.4,1,0.4s0.8-0.1,1-0.4
			S325,64.9,325,64.5z M324.8,60.6c0-0.4-0.1-0.7-0.3-0.9s-0.5-0.4-0.9-0.4s-0.7,0.1-0.9,0.3s-0.3,0.5-0.3,0.9
			c0,0.4,0.1,0.7,0.3,0.9s0.5,0.3,0.9,0.3s0.7-0.1,0.9-0.3S324.8,61,324.8,60.6z"/>
		<path class="st2" d="M327.9,66.8v-8.5h2.5c0.8,0,1.4,0.2,2,0.5s1,0.8,1.4,1.4s0.5,1.3,0.5,2.1v0.4c0,0.8-0.2,1.5-0.5,2.1
			s-0.8,1.1-1.4,1.4s-1.3,0.5-2,0.5H327.9z M329.3,59.5v6.2h1c0.8,0,1.4-0.2,1.8-0.7s0.6-1.2,0.6-2.1v-0.5c0-0.9-0.2-1.6-0.6-2.1
			s-1-0.7-1.8-0.7H329.3z"/>
		<path class="st2" d="M340.9,60.6c0,0.4-0.1,0.8-0.3,1.1s-0.5,0.6-0.9,0.8c0.4,0.2,0.8,0.5,1,0.8s0.4,0.8,0.4,1.2
			c0,0.8-0.3,1.3-0.8,1.8s-1.2,0.7-2,0.7c-0.8,0-1.5-0.2-2-0.7s-0.8-1-0.8-1.8c0-0.5,0.1-0.9,0.4-1.2s0.6-0.6,1-0.8
			c-0.4-0.2-0.7-0.4-0.9-0.8s-0.3-0.7-0.3-1.1c0-0.7,0.2-1.3,0.7-1.7s1.1-0.6,1.9-0.6c0.8,0,1.4,0.2,1.9,0.6S340.9,59.8,340.9,60.6z
			 M339.6,64.5c0-0.4-0.1-0.8-0.4-1s-0.6-0.4-1-0.4s-0.7,0.1-1,0.4s-0.4,0.6-0.4,1c0,0.4,0.1,0.8,0.4,1s0.6,0.4,1,0.4s0.8-0.1,1-0.4
			S339.6,64.9,339.6,64.5z M339.4,60.6c0-0.4-0.1-0.7-0.3-0.9s-0.5-0.4-0.9-0.4s-0.7,0.1-0.9,0.3s-0.3,0.5-0.3,0.9
			c0,0.4,0.1,0.7,0.3,0.9s0.5,0.3,0.9,0.3s0.7-0.1,0.9-0.3S339.4,61,339.4,60.6z"/>
	</g>
	<g>
		<path class="st2" d="M222,64.4h-1.3l-0.4,2.4h-1l0.4-2.4h-1.4v-0.9h1.5l0.3-1.8h-1.4v-0.9h1.6l0.5-2.4h1l-0.5,2.4h1.3l0.5-2.4h1
			l-0.5,2.4h1.2v0.9h-1.4l-0.3,1.8h1.3v0.9H223l-0.4,2.4h-1L222,64.4z M220.8,63.5h1.3l0.3-1.8h-1.3L220.8,63.5z"/>
		<path class="st2" d="M230.2,58.3v1.2H230c-0.8,0-1.4,0.2-1.9,0.7s-0.8,1-0.8,1.8c0.5-0.5,1-0.7,1.8-0.7c0.8,0,1.3,0.3,1.8,0.8
			s0.7,1.2,0.7,2.1c0,0.9-0.3,1.6-0.8,2.1s-1.2,0.8-2,0.8c-0.9,0-1.5-0.3-2.1-0.9s-0.8-1.5-0.8-2.5v-0.5c0-1.5,0.4-2.7,1.1-3.5
			s1.8-1.3,3.1-1.3H230.2z M228.6,62.3c-0.3,0-0.6,0.1-0.9,0.3s-0.5,0.4-0.6,0.7v0.4c0,0.6,0.1,1.1,0.4,1.5s0.6,0.6,1,0.6
			s0.8-0.2,1-0.5s0.4-0.7,0.4-1.2s-0.1-0.9-0.4-1.3S229,62.3,228.6,62.3z"/>
		<path class="st2" d="M237.4,63.8h1.1v1.1h-1.1v1.9h-1.4v-1.9h-3.7l0-0.9l3.7-5.8h1.5V63.8z M233.7,63.8h2.2v-3.6l-0.1,0.2
			L233.7,63.8z"/>
		<path class="st2" d="M243.8,58.3v1.2h-0.2c-0.8,0-1.4,0.2-1.9,0.7s-0.8,1-0.8,1.8c0.5-0.5,1-0.7,1.8-0.7c0.8,0,1.3,0.3,1.8,0.8
			s0.7,1.2,0.7,2.1c0,0.9-0.3,1.6-0.8,2.1s-1.2,0.8-2,0.8c-0.9,0-1.5-0.3-2.1-0.9s-0.8-1.5-0.8-2.5v-0.5c0-1.5,0.4-2.7,1.1-3.5
			s1.8-1.3,3.1-1.3H243.8z M242.3,62.3c-0.3,0-0.6,0.1-0.9,0.3s-0.5,0.4-0.6,0.7v0.4c0,0.6,0.1,1.1,0.4,1.5s0.6,0.6,1,0.6
			s0.8-0.2,1-0.5s0.4-0.7,0.4-1.2s-0.1-0.9-0.4-1.3S242.7,62.3,242.3,62.3z"/>
		<path class="st2" d="M251,63.8h1.1v1.1H251v1.9h-1.4v-1.9h-3.7l0-0.9l3.7-5.8h1.5V63.8z M247.4,63.8h2.2v-3.6l-0.1,0.2L247.4,63.8
			z"/>
		<path class="st2" d="M257.4,58.3v1.2h-0.2c-0.8,0-1.4,0.2-1.9,0.7s-0.8,1-0.8,1.8c0.5-0.5,1-0.7,1.8-0.7c0.8,0,1.3,0.3,1.8,0.8
			s0.7,1.2,0.7,2.1c0,0.9-0.3,1.6-0.8,2.1s-1.2,0.8-2,0.8c-0.9,0-1.5-0.3-2.1-0.9s-0.8-1.5-0.8-2.5v-0.5c0-1.5,0.4-2.7,1.1-3.5
			s1.8-1.3,3.1-1.3H257.4z M255.9,62.3c-0.3,0-0.6,0.1-0.9,0.3s-0.5,0.4-0.6,0.7v0.4c0,0.6,0.1,1.1,0.4,1.5s0.6,0.6,1,0.6
			s0.8-0.2,1-0.5s0.4-0.7,0.4-1.2s-0.1-0.9-0.4-1.3S256.3,62.3,255.9,62.3z"/>
		<path class="st2" d="M264.6,63.8h1.1v1.1h-1.1v1.9h-1.4v-1.9h-3.7l0-0.9l3.7-5.8h1.5V63.8z M261,63.8h2.2v-3.6l-0.1,0.2L261,63.8z
			"/>
	</g>
	<g>
		<path class="st2" d="M149.4,64.4h-1.3l-0.4,2.4h-1l0.4-2.4h-1.4v-0.9h1.5l0.3-1.8h-1.4v-0.9h1.6l0.5-2.4h1l-0.5,2.4h1.3l0.5-2.4h1
			l-0.5,2.4h1.2v0.9h-1.4l-0.3,1.8h1.3v0.9h-1.5l-0.4,2.4h-1L149.4,64.4z M148.3,63.5h1.3l0.3-1.8h-1.3L148.3,63.5z"/>
		<path class="st2" d="M158.3,63.2h-3.4v3.6h-1.5v-8.5h5.4v1.2h-3.9V62h3.4V63.2z"/>
		<path class="st2" d="M164.9,63.2h-3.4v3.6H160v-8.5h5.4v1.2h-3.9V62h3.4V63.2z"/>
		<path class="st2" d="M173.1,64.1c-0.1,0.9-0.4,1.6-1,2.1s-1.4,0.8-2.3,0.8c-0.7,0-1.3-0.2-1.8-0.5s-0.9-0.8-1.2-1.4
			s-0.4-1.3-0.4-2.1v-0.8c0-0.8,0.1-1.5,0.4-2.1s0.7-1.1,1.2-1.4s1.1-0.5,1.8-0.5c0.9,0,1.7,0.3,2.3,0.8s0.9,1.2,1,2.2h-1.5
			c-0.1-0.6-0.2-1.1-0.5-1.3s-0.7-0.4-1.3-0.4c-0.6,0-1.1,0.2-1.5,0.7c-0.3,0.5-0.5,1.2-0.5,2.1v0.8c0,0.9,0.2,1.6,0.5,2.1
			c0.3,0.5,0.8,0.7,1.5,0.7c0.6,0,1-0.1,1.3-0.4s0.5-0.7,0.6-1.3H173.1z"/>
		<path class="st2" d="M175.8,61.9h0.9c0.4,0,0.8-0.1,1-0.3s0.4-0.5,0.4-1c0-0.4-0.1-0.7-0.3-0.9s-0.5-0.3-1-0.3
			c-0.4,0-0.7,0.1-0.9,0.3s-0.4,0.5-0.4,0.9h-1.4c0-0.4,0.1-0.8,0.3-1.2s0.6-0.6,1-0.8s0.9-0.3,1.4-0.3c0.9,0,1.5,0.2,2,0.6
			s0.7,1,0.7,1.8c0,0.4-0.1,0.7-0.4,1.1s-0.6,0.6-0.9,0.8c0.5,0.2,0.8,0.4,1.1,0.8s0.4,0.8,0.4,1.2c0,0.8-0.3,1.4-0.8,1.8
			s-1.2,0.7-2.1,0.7c-0.8,0-1.5-0.2-2-0.7s-0.8-1-0.8-1.7h1.4c0,0.4,0.1,0.7,0.4,0.9s0.6,0.4,1,0.4c0.4,0,0.8-0.1,1-0.4
			s0.4-0.6,0.4-1c0-0.4-0.1-0.8-0.4-1s-0.7-0.4-1.2-0.4h-0.8V61.9z"/>
		<path class="st2" d="M182.6,61.9h0.9c0.4,0,0.8-0.1,1-0.3s0.4-0.5,0.4-1c0-0.4-0.1-0.7-0.3-0.9s-0.5-0.3-1-0.3
			c-0.4,0-0.7,0.1-0.9,0.3s-0.4,0.5-0.4,0.9h-1.4c0-0.4,0.1-0.8,0.3-1.2s0.6-0.6,1-0.8s0.9-0.3,1.4-0.3c0.9,0,1.5,0.2,2,0.6
			s0.7,1,0.7,1.8c0,0.4-0.1,0.7-0.4,1.1s-0.6,0.6-0.9,0.8c0.5,0.2,0.8,0.4,1.1,0.8s0.4,0.8,0.4,1.2c0,0.8-0.3,1.4-0.8,1.8
			s-1.2,0.7-2.1,0.7c-0.8,0-1.5-0.2-2-0.7s-0.8-1-0.8-1.7h1.4c0,0.4,0.1,0.7,0.4,0.9s0.6,0.4,1,0.4c0.4,0,0.8-0.1,1-0.4
			s0.4-0.6,0.4-1c0-0.4-0.1-0.8-0.4-1s-0.7-0.4-1.2-0.4h-0.8V61.9z"/>
		<path class="st2" d="M193.2,60.6c0,0.4-0.1,0.8-0.3,1.1s-0.5,0.6-0.9,0.8c0.4,0.2,0.8,0.5,1,0.8s0.4,0.8,0.4,1.2
			c0,0.8-0.3,1.3-0.8,1.8s-1.2,0.7-2,0.7c-0.8,0-1.5-0.2-2-0.7c-0.5-0.4-0.8-1-0.8-1.8c0-0.5,0.1-0.9,0.4-1.2c0.2-0.4,0.6-0.6,1-0.8
			c-0.4-0.2-0.7-0.4-0.9-0.8c-0.2-0.3-0.3-0.7-0.3-1.1c0-0.7,0.2-1.3,0.7-1.7c0.5-0.4,1.1-0.6,1.9-0.6c0.8,0,1.4,0.2,1.9,0.6
			S193.2,59.8,193.2,60.6z M191.9,64.5c0-0.4-0.1-0.8-0.4-1s-0.6-0.4-1-0.4s-0.7,0.1-1,0.4s-0.4,0.6-0.4,1c0,0.4,0.1,0.8,0.4,1
			s0.6,0.4,1,0.4s0.8-0.1,1-0.4S191.9,64.9,191.9,64.5z M191.8,60.6c0-0.4-0.1-0.7-0.3-0.9s-0.5-0.4-0.9-0.4s-0.7,0.1-0.9,0.3
			s-0.3,0.5-0.3,0.9c0,0.4,0.1,0.7,0.3,0.9s0.5,0.3,0.9,0.3s0.7-0.1,0.9-0.3S191.8,61,191.8,60.6z"/>
	</g>
	<g>
		<path class="st2" d="M76.8,64.4h-1.3L75,66.8h-1l0.4-2.4h-1.4v-0.9h1.5l0.3-1.8h-1.4v-0.9h1.6l0.5-2.4h1l-0.5,2.4h1.3l0.5-2.4h1
			l-0.5,2.4h1.2v0.9h-1.4L78,63.5h1.3v0.9h-1.5l-0.4,2.4h-1L76.8,64.4z M75.7,63.5H77l0.3-1.8H76L75.7,63.5z"/>
		<path class="st2" d="M86.2,59.1l-3.4,7.7h-1.5l3.4-7.4h-4.4v-1.1h5.9V59.1z"/>
		<path class="st2" d="M87.8,62.6l0.5-4.3h4.6v1.2h-3.4l-0.2,2c0.4-0.2,0.8-0.3,1.3-0.3c0.8,0,1.4,0.3,1.9,0.8s0.7,1.2,0.7,2.1
			c0,0.9-0.3,1.6-0.8,2.1S91.1,67,90.3,67c-0.8,0-1.4-0.2-1.9-0.7s-0.8-1-0.8-1.8h1.4c0.1,0.4,0.2,0.7,0.4,1s0.6,0.3,0.9,0.3
			c0.4,0,0.8-0.2,1-0.5s0.4-0.7,0.4-1.3c0-0.5-0.1-0.9-0.4-1.2s-0.6-0.5-1.1-0.5c-0.3,0-0.5,0-0.7,0.1s-0.4,0.2-0.6,0.4L87.8,62.6z"
			/>
		<path class="st2" d="M94.4,66.8v-8.5h2.9c1,0,1.7,0.2,2.2,0.6s0.8,1,0.8,1.7c0,0.4-0.1,0.7-0.3,1.1s-0.5,0.6-0.9,0.7
			c0.5,0.1,0.8,0.4,1.1,0.7s0.4,0.8,0.4,1.2c0,0.8-0.3,1.4-0.8,1.8s-1.2,0.6-2.2,0.6H94.4z M95.9,61.9h1.5c0.5,0,0.8-0.1,1.1-0.3
			s0.4-0.5,0.4-0.9c0-0.4-0.1-0.7-0.4-0.9s-0.6-0.3-1.1-0.3h-1.4V61.9z M95.9,63v2.7h1.6c0.5,0,0.8-0.1,1.1-0.3s0.4-0.6,0.4-1
			c0-0.9-0.5-1.3-1.4-1.4H95.9z"/>
		<path class="st2" d="M102.1,62.6l0.5-4.3h4.6v1.2h-3.4l-0.2,2c0.4-0.2,0.8-0.3,1.3-0.3c0.8,0,1.4,0.3,1.9,0.8s0.7,1.2,0.7,2.1
			c0,0.9-0.3,1.6-0.8,2.1s-1.2,0.8-2.1,0.8c-0.8,0-1.4-0.2-1.9-0.7s-0.8-1-0.8-1.8h1.4c0.1,0.4,0.2,0.7,0.4,1s0.6,0.3,0.9,0.3
			c0.4,0,0.8-0.2,1-0.5s0.4-0.7,0.4-1.3c0-0.5-0.1-0.9-0.4-1.2s-0.6-0.5-1.1-0.5c-0.3,0-0.5,0-0.7,0.1s-0.4,0.2-0.6,0.4L102.1,62.6z
			"/>
		<path class="st2" d="M108.8,66.8v-8.5h2.9c1,0,1.7,0.2,2.2,0.6s0.8,1,0.8,1.7c0,0.4-0.1,0.7-0.3,1.1s-0.5,0.6-0.9,0.7
			c0.5,0.1,0.8,0.4,1.1,0.7s0.4,0.8,0.4,1.2c0,0.8-0.3,1.4-0.8,1.8s-1.2,0.6-2.2,0.6H108.8z M110.3,61.9h1.5c0.5,0,0.8-0.1,1.1-0.3
			s0.4-0.5,0.4-0.9c0-0.4-0.1-0.7-0.4-0.9s-0.6-0.3-1.1-0.3h-1.4V61.9z M110.3,63v2.7h1.6c0.5,0,0.8-0.1,1.1-0.3s0.4-0.6,0.4-1
			c0-0.9-0.5-1.3-1.4-1.4H110.3z"/>
		<path class="st2" d="M117.8,61.9h0.9c0.4,0,0.8-0.1,1-0.3s0.4-0.5,0.4-1c0-0.4-0.1-0.7-0.3-0.9s-0.5-0.3-1-0.3
			c-0.4,0-0.7,0.1-0.9,0.3s-0.4,0.5-0.4,0.9h-1.4c0-0.4,0.1-0.8,0.3-1.2s0.6-0.6,1-0.8s0.9-0.3,1.4-0.3c0.9,0,1.5,0.2,2,0.6
			s0.7,1,0.7,1.8c0,0.4-0.1,0.7-0.4,1.1s-0.6,0.6-0.9,0.8c0.5,0.2,0.8,0.4,1.1,0.8s0.4,0.8,0.4,1.2c0,0.8-0.3,1.4-0.8,1.8
			s-1.2,0.7-2.1,0.7c-0.8,0-1.5-0.2-2-0.7s-0.8-1-0.8-1.7h1.4c0,0.4,0.1,0.7,0.4,0.9s0.6,0.4,1,0.4c0.4,0,0.8-0.1,1-0.4
			s0.4-0.6,0.4-1c0-0.4-0.1-0.8-0.4-1s-0.7-0.4-1.2-0.4h-0.8V61.9z"/>
	</g>
	<g>
		<path class="st2" d="M4.2,64.4H2.9l-0.4,2.4h-1l0.4-2.4H0.6v-0.9h1.5l0.3-1.8H1v-0.9h1.6l0.5-2.4h1l-0.5,2.4h1.3l0.5-2.4h1
			l-0.5,2.4h1.2v0.9H5.7l-0.3,1.8h1.3v0.9H5.2l-0.4,2.4h-1L4.2,64.4z M3.1,63.5h1.3l0.3-1.8H3.4L3.1,63.5z"/>
		<path class="st2" d="M13.6,59.1l-3.4,7.7H8.7l3.4-7.4H7.7v-1.1h5.9V59.1z"/>
		<path class="st2" d="M20.3,63.3c0,1.2-0.2,2.2-0.7,2.8S18.5,67,17.6,67c-0.9,0-1.6-0.3-2.1-0.9s-0.7-1.5-0.7-2.7v-1.5
			c0-1.2,0.2-2.1,0.7-2.8s1.2-0.9,2.1-0.9c0.9,0,1.6,0.3,2.1,0.9s0.7,1.5,0.7,2.7V63.3z M18.9,61.7c0-0.8-0.1-1.4-0.3-1.8
			s-0.6-0.6-1-0.6c-0.5,0-0.8,0.2-1,0.5s-0.3,0.9-0.3,1.7v1.9c0,0.8,0.1,1.4,0.3,1.8s0.6,0.6,1,0.6c0.5,0,0.8-0.2,1-0.5
			s0.3-0.9,0.3-1.7V61.7z"/>
		<path class="st2" d="M25.6,63.3c-0.5,0.5-1,0.8-1.7,0.8c-0.8,0-1.3-0.3-1.8-0.8s-0.7-1.2-0.7-2.1c0-0.6,0.1-1.1,0.3-1.5
			s0.5-0.8,1-1.1s0.9-0.4,1.5-0.4c0.9,0,1.5,0.3,2,1s0.8,1.5,0.8,2.6v0.4c0,1.5-0.3,2.7-1,3.5s-1.7,1.2-3.1,1.2h-0.2v-1.2H23
			c0.8,0,1.5-0.2,1.9-0.6S25.6,64.1,25.6,63.3z M24.3,62.9c0.3,0,0.6-0.1,0.8-0.2s0.4-0.4,0.6-0.7v-0.6c0-0.6-0.1-1.1-0.4-1.5
			s-0.6-0.6-1-0.6s-0.7,0.2-1,0.5s-0.4,0.8-0.4,1.3c0,0.5,0.1,1,0.4,1.3S23.9,62.9,24.3,62.9z"/>
		<path class="st2" d="M34.1,59.1l-3.4,7.7h-1.5l3.4-7.4h-4.4v-1.1h5.9V59.1z"/>
		<path class="st2" d="M40.6,60.6c0,0.4-0.1,0.8-0.3,1.1s-0.5,0.6-0.9,0.8c0.4,0.2,0.8,0.5,1,0.8s0.4,0.8,0.4,1.2
			c0,0.8-0.3,1.3-0.8,1.8S38.9,67,38,67c-0.8,0-1.5-0.2-2-0.7s-0.8-1-0.8-1.8c0-0.5,0.1-0.9,0.4-1.2s0.6-0.6,1-0.8
			c-0.4-0.2-0.7-0.4-0.9-0.8s-0.3-0.7-0.3-1.1c0-0.7,0.2-1.3,0.7-1.7s1.1-0.6,1.9-0.6c0.8,0,1.4,0.2,1.9,0.6S40.6,59.8,40.6,60.6z
			 M39.4,64.5c0-0.4-0.1-0.8-0.4-1S38.4,63,38,63s-0.7,0.1-1,0.4s-0.4,0.6-0.4,1c0,0.4,0.1,0.8,0.4,1s0.6,0.4,1,0.4s0.8-0.1,1-0.4
			S39.4,64.9,39.4,64.5z M39.2,60.6c0-0.4-0.1-0.7-0.3-0.9s-0.5-0.4-0.9-0.4s-0.7,0.1-0.9,0.3s-0.3,0.5-0.3,0.9
			c0,0.4,0.1,0.7,0.3,0.9s0.5,0.3,0.9,0.3s0.7-0.1,0.9-0.3S39.2,61,39.2,60.6z"/>
		<path class="st2" d="M42.3,66.8v-8.5h2.9c1,0,1.7,0.2,2.2,0.6s0.8,1,0.8,1.7c0,0.4-0.1,0.7-0.3,1.1s-0.5,0.6-0.9,0.7
			c0.5,0.1,0.8,0.4,1.1,0.7s0.4,0.8,0.4,1.2c0,0.8-0.3,1.4-0.8,1.8s-1.2,0.6-2.2,0.6H42.3z M43.8,61.9h1.5c0.5,0,0.8-0.1,1.1-0.3
			s0.4-0.5,0.4-0.9c0-0.4-0.1-0.7-0.4-0.9s-0.6-0.3-1.1-0.3h-1.4V61.9z M43.8,63v2.7h1.6c0.5,0,0.8-0.1,1.1-0.3s0.4-0.6,0.4-1
			c0-0.9-0.5-1.3-1.4-1.4H43.8z"/>
	</g>
	<g>
		<path class="st2" d="M7.8,113.5H5v6.2H1.5v-17.1h6.3c2,0,3.6,0.4,4.7,1.3s1.6,2.2,1.6,3.8c0,1.2-0.3,2.1-0.8,2.9s-1.3,1.4-2.3,1.9
			l3.7,7v0.2H11L7.8,113.5z M5,110.7h2.8c0.9,0,1.6-0.2,2.1-0.7s0.7-1.1,0.7-1.9c0-0.8-0.2-1.4-0.7-1.9s-1.2-0.7-2.1-0.7H5V110.7z"
			/>
		<path class="st2" d="M16.1,113.3c0-1.3,0.2-2.4,0.7-3.4s1.2-1.7,2.1-2.3s2-0.8,3.2-0.8c1.7,0,3.1,0.5,4.2,1.6s1.7,2.5,1.8,4.3
			l0,0.9c0,1.9-0.5,3.5-1.6,4.7s-2.5,1.8-4.4,1.8s-3.3-0.6-4.4-1.8s-1.6-2.8-1.6-4.8V113.3z M19.5,113.5c0,1.2,0.2,2.1,0.7,2.8
			s1.1,1,1.9,1c0.8,0,1.5-0.3,1.9-0.9s0.7-1.6,0.7-3c0-1.2-0.2-2.1-0.7-2.7s-1.1-1-1.9-1c-0.8,0-1.5,0.3-1.9,1
			S19.5,112.2,19.5,113.5z"/>
		<path class="st2" d="M41.6,113.5c0,2-0.4,3.6-1.3,4.8s-2.1,1.7-3.6,1.7c-1.4,0-2.5-0.5-3.3-1.6l-0.2,1.3h-3v-18h3.4v6.5
			c0.8-0.9,1.8-1.4,3.1-1.4c1.5,0,2.8,0.6,3.6,1.7s1.3,2.7,1.3,4.8V113.5z M38.2,113.3c0-1.3-0.2-2.2-0.6-2.8s-1-0.9-1.8-0.9
			c-1.1,0-1.8,0.4-2.2,1.3v5c0.4,0.9,1.2,1.3,2.3,1.3c1.1,0,1.8-0.5,2.2-1.6C38.1,115.1,38.2,114.3,38.2,113.3z"/>
		<path class="st2" d="M43.2,113.3c0-1.3,0.2-2.4,0.7-3.4s1.2-1.7,2.1-2.3s2-0.8,3.2-0.8c1.7,0,3.1,0.5,4.2,1.6s1.7,2.5,1.8,4.3
			l0,0.9c0,1.9-0.5,3.5-1.6,4.7S51,120,49.2,120s-3.3-0.6-4.4-1.8s-1.6-2.8-1.6-4.8V113.3z M46.6,113.5c0,1.2,0.2,2.1,0.7,2.8
			s1.1,1,1.9,1c0.8,0,1.5-0.3,1.9-0.9s0.7-1.6,0.7-3c0-1.2-0.2-2.1-0.7-2.7s-1.1-1-1.9-1c-0.8,0-1.5,0.3-1.9,1
			S46.6,112.2,46.6,113.5z"/>
		<path class="st2" d="M61.3,104v3.1h2.2v2.5h-2.2v6.3c0,0.5,0.1,0.8,0.3,1s0.5,0.3,1,0.3c0.4,0,0.7,0,1-0.1v2.6
			c-0.7,0.2-1.3,0.3-2.1,0.3c-2.4,0-3.6-1.2-3.6-3.6v-6.8h-1.9v-2.5h1.9V104H61.3z"/>
		<path class="st2" d="M64.5,113.3c0-1.3,0.2-2.4,0.7-3.4s1.2-1.7,2.1-2.3s2-0.8,3.2-0.8c1.7,0,3.1,0.5,4.2,1.6s1.7,2.5,1.8,4.3
			l0,0.9c0,1.9-0.5,3.5-1.6,4.7s-2.5,1.8-4.4,1.8s-3.3-0.6-4.4-1.8s-1.6-2.8-1.6-4.8V113.3z M67.9,113.5c0,1.2,0.2,2.1,0.7,2.8
			s1.1,1,1.9,1c0.8,0,1.5-0.3,1.9-0.9s0.7-1.6,0.7-3c0-1.2-0.2-2.1-0.7-2.7s-1.1-1-1.9-1c-0.8,0-1.5,0.3-1.9,1
			S67.9,112.2,67.9,113.5z"/>
		<path class="st2" d="M84.8,119.7v-17.1h6c2.1,0,3.6,0.4,4.7,1.2s1.6,2,1.6,3.5c0,0.8-0.2,1.6-0.6,2.2s-1,1.1-1.8,1.4
			c0.9,0.2,1.6,0.7,2.1,1.3s0.8,1.5,0.8,2.4c0,1.6-0.5,2.9-1.6,3.7s-2.5,1.3-4.5,1.3H84.8z M88.3,109.8h2.6c1.8,0,2.7-0.7,2.7-2.1
			c0-0.8-0.2-1.3-0.7-1.7s-1.2-0.5-2.1-0.5h-2.5V109.8z M88.3,112.3v4.6h3c0.8,0,1.5-0.2,1.9-0.6s0.7-0.9,0.7-1.6
			c0-1.6-0.8-2.4-2.4-2.4H88.3z"/>
		<path class="st2" d="M99.4,113.3c0-1.3,0.2-2.4,0.7-3.4s1.2-1.7,2.1-2.3s2-0.8,3.2-0.8c1.7,0,3.1,0.5,4.2,1.6s1.7,2.5,1.8,4.3
			l0,0.9c0,1.9-0.5,3.5-1.6,4.7s-2.5,1.8-4.4,1.8s-3.3-0.6-4.4-1.8s-1.6-2.8-1.6-4.8V113.3z M102.8,113.5c0,1.2,0.2,2.1,0.7,2.8
			s1.1,1,1.9,1c0.8,0,1.5-0.3,1.9-0.9s0.7-1.6,0.7-3c0-1.2-0.2-2.1-0.7-2.7s-1.1-1-1.9-1c-0.8,0-1.5,0.3-1.9,1
			S102.8,112.2,102.8,113.5z"/>
		<path class="st2" d="M117,119.7h-3.4v-18h3.4V119.7z"/>
		<path class="st2" d="M119.3,113.3c0-2,0.4-3.6,1.3-4.7s2.1-1.8,3.6-1.8c1.2,0,2.3,0.5,3.1,1.4v-6.5h3.4v18h-3.1l-0.2-1.3
			c-0.8,1.1-1.9,1.6-3.3,1.6c-1.5,0-2.7-0.6-3.6-1.8S119.3,115.4,119.3,113.3z M122.7,113.6c0,1.2,0.2,2.1,0.6,2.7s1,1,1.8,1
			c1,0,1.8-0.4,2.2-1.3v-5c-0.4-0.9-1.2-1.3-2.2-1.3C123.5,109.6,122.7,110.9,122.7,113.6z"/>
		<path class="st2" d="M192.9,119.7h-11.7v-2.3l5.5-5.9c0.8-0.8,1.3-1.6,1.7-2.2s0.5-1.2,0.5-1.8c0-0.8-0.2-1.4-0.6-1.8
			s-0.9-0.7-1.6-0.7c-0.8,0-1.4,0.3-1.8,0.8s-0.7,1.2-0.7,2.1h-3.4c0-1,0.2-2,0.7-2.8s1.2-1.5,2.1-2s1.9-0.7,3.1-0.7
			c1.8,0,3.1,0.4,4.1,1.3s1.5,2,1.5,3.6c0,0.8-0.2,1.7-0.7,2.6s-1.2,1.9-2.3,3.1l-3.9,4.1h7.3V119.7z"/>
		<path class="st2" d="M204.9,113.3h1.9v2.7h-1.9v3.7h-3.4v-3.7h-7l-0.2-2.1l7.1-11.2h3.4V113.3z M197.8,113.3h3.8v-6l-0.2,0.4
			L197.8,113.3z"/>
		<path class="st2" d="M220.3,113.5c0,2-0.4,3.5-1.3,4.7s-2.1,1.8-3.6,1.8c-1.3,0-2.3-0.4-3.1-1.3v6h-3.4v-17.6h3.1l0.1,1.2
			c0.8-1,1.9-1.5,3.2-1.5c1.6,0,2.8,0.6,3.6,1.7s1.3,2.8,1.3,4.8V113.5z M216.9,113.3c0-1.2-0.2-2.1-0.6-2.7s-1-1-1.8-1
			c-1.1,0-1.8,0.4-2.2,1.2v5.2c0.4,0.8,1.2,1.3,2.2,1.3C216.1,117.3,216.9,115.9,216.9,113.3z"/>
		<path class="st2" d="M226.4,104v3.1h2.2v2.5h-2.2v6.3c0,0.5,0.1,0.8,0.3,1s0.5,0.3,1,0.3c0.4,0,0.7,0,1-0.1v2.6
			c-0.7,0.2-1.3,0.3-2.1,0.3c-2.4,0-3.6-1.2-3.6-3.6v-6.8h-1.9v-2.5h1.9V104H226.4z"/>
		<path class="st2" d="M6.7,144.3H3.9v5.5H1.4v-14.2h5c1.6,0,2.9,0.4,3.8,1.1s1.3,1.8,1.3,3.2c0,1-0.2,1.7-0.7,2.4
			c-0.5,0.6-1.1,1.1-1.9,1.5l3.2,5.9v0.1H9.5L6.7,144.3z M3.9,142.3h2.5c0.8,0,1.5-0.2,2-0.6s0.7-1,0.7-1.7c0-0.8-0.2-1.4-0.6-1.8
			s-1.1-0.6-1.9-0.6H3.9V142.3z"/>
		<path class="st2" d="M13.3,144.4c0-1,0.2-2,0.6-2.8s1-1.5,1.7-1.9c0.7-0.4,1.6-0.7,2.6-0.7c1.4,0,2.6,0.5,3.5,1.4s1.4,2.1,1.4,3.7
			l0,0.6c0,1-0.2,2-0.6,2.8s-1,1.5-1.7,1.9s-1.6,0.7-2.6,0.7c-1.5,0-2.7-0.5-3.6-1.5s-1.3-2.3-1.3-4V144.4z M15.6,144.6
			c0,1.1,0.2,1.9,0.7,2.6c0.4,0.6,1.1,0.9,1.9,0.9s1.4-0.3,1.9-0.9s0.7-1.5,0.7-2.7c0-1.1-0.2-1.9-0.7-2.5s-1.1-0.9-1.9-0.9
			c-0.8,0-1.4,0.3-1.8,0.9C15.9,142.4,15.6,143.4,15.6,144.6z"/>
		<path class="st2" d="M34.4,144.6c0,1.6-0.4,2.9-1.1,3.9s-1.7,1.5-3,1.5c-1.2,0-2.2-0.4-2.9-1.3l-0.1,1.1h-2.1v-15h2.4v5.4
			c0.7-0.8,1.6-1.2,2.8-1.2c1.3,0,2.3,0.5,3,1.4s1.1,2.3,1.1,4V144.6z M32,144.4c0-1.1-0.2-2-0.6-2.6s-1-0.9-1.8-0.9
			c-1,0-1.8,0.4-2.2,1.3v4.4c0.4,0.9,1.2,1.4,2.2,1.4c0.7,0,1.3-0.3,1.7-0.8s0.6-1.4,0.6-2.5V144.4z"/>
		<path class="st2" d="M35.9,144.4c0-1,0.2-2,0.6-2.8s1-1.5,1.7-1.9s1.6-0.7,2.6-0.7c1.4,0,2.6,0.5,3.5,1.4s1.4,2.1,1.4,3.7l0,0.6
			c0,1-0.2,2-0.6,2.8s-1,1.5-1.7,1.9s-1.6,0.7-2.6,0.7c-1.5,0-2.7-0.5-3.6-1.5s-1.3-2.3-1.3-4V144.4z M38.3,144.6
			c0,1.1,0.2,1.9,0.7,2.6s1.1,0.9,1.9,0.9s1.4-0.3,1.9-0.9s0.7-1.5,0.7-2.7c0-1.1-0.2-1.9-0.7-2.5s-1.1-0.9-1.9-0.9
			c-0.8,0-1.4,0.3-1.8,0.9S38.3,143.4,38.3,144.6z"/>
		<path class="st2" d="M50.7,136.6v2.6h1.9v1.8h-1.9v5.9c0,0.4,0.1,0.7,0.2,0.9s0.4,0.3,0.9,0.3c0.3,0,0.6,0,0.8-0.1v1.8
			c-0.5,0.1-1.1,0.2-1.6,0.2c-1.8,0-2.7-1-2.7-3v-6h-1.7v-1.8h1.7v-2.6H50.7z"/>
		<path class="st2" d="M53.6,144.4c0-1,0.2-2,0.6-2.8s1-1.5,1.7-1.9s1.6-0.7,2.6-0.7c1.4,0,2.6,0.5,3.5,1.4s1.4,2.1,1.4,3.7l0,0.6
			c0,1-0.2,2-0.6,2.8s-1,1.5-1.7,1.9s-1.6,0.7-2.6,0.7c-1.5,0-2.7-0.5-3.6-1.5s-1.3-2.3-1.3-4V144.4z M56,144.6
			c0,1.1,0.2,1.9,0.7,2.6s1.1,0.9,1.9,0.9s1.4-0.3,1.9-0.9s0.7-1.5,0.7-2.7c0-1.1-0.2-1.9-0.7-2.5s-1.1-0.9-1.9-0.9
			c-0.8,0-1.4,0.3-1.8,0.9S56,143.4,56,144.6z"/>
		<path class="st2" d="M73.9,135.5l4.1,10.9l4.1-10.9h3.2v14.2h-2.5v-4.7l0.2-6.3l-4.2,11h-1.8l-4.2-10.9l0.2,6.3v4.7h-2.5v-14.2
			H73.9z"/>
		<path class="st2" d="M92.6,149.9c-1.5,0-2.7-0.5-3.7-1.4s-1.4-2.2-1.4-3.8v-0.3c0-1.1,0.2-2,0.6-2.8s1-1.5,1.7-1.9
			s1.6-0.7,2.5-0.7c1.4,0,2.6,0.5,3.3,1.4s1.2,2.2,1.2,3.9v1H90c0.1,0.9,0.4,1.6,0.9,2.1s1.2,0.8,1.9,0.8c1.1,0,2-0.4,2.7-1.3
			l1.3,1.2c-0.4,0.6-1,1.1-1.7,1.5S93.5,149.9,92.6,149.9z M92.3,140.9c-0.7,0-1.2,0.2-1.6,0.7s-0.7,1.1-0.8,1.9h4.5v-0.2
			c-0.1-0.8-0.3-1.4-0.6-1.8S93,140.9,92.3,140.9z"/>
		<path class="st2" d="M98.3,144.4c0-1.6,0.4-2.9,1.1-3.9s1.8-1.5,3-1.5c1.1,0,2,0.4,2.7,1.2v-5.4h2.4v15h-2.1l-0.1-1.1
			c-0.7,0.9-1.7,1.3-2.8,1.3c-1.2,0-2.2-0.5-3-1.5S98.3,146.1,98.3,144.4z M100.6,144.6c0,1.1,0.2,1.9,0.6,2.5s1,0.9,1.8,0.9
			c1,0,1.7-0.4,2.1-1.3v-4.5c-0.4-0.8-1.1-1.3-2.1-1.3c-0.8,0-1.4,0.3-1.8,0.9S100.6,143.4,100.6,144.6z"/>
		<path class="st2" d="M110,136.4c0-0.4,0.1-0.7,0.3-0.9s0.6-0.4,1-0.4s0.8,0.1,1,0.4s0.4,0.5,0.4,0.9c0,0.4-0.1,0.7-0.4,0.9
			s-0.6,0.4-1,0.4s-0.8-0.1-1-0.4S110,136.8,110,136.4z M112.5,149.7h-2.4v-10.6h2.4V149.7z"/>
		<path class="st2" d="M121.5,148.7c-0.7,0.8-1.7,1.2-3,1.2c-1.1,0-2-0.3-2.6-1s-0.9-1.6-0.9-2.9v-6.8h2.4v6.8c0,1.3,0.6,2,1.7,2
			c1.2,0,1.9-0.4,2.3-1.2v-7.6h2.4v10.6h-2.2L121.5,148.7z"/>
		<path class="st2" d="M128.4,139.2l0.1,1.1c0.7-0.9,1.8-1.3,3-1.3c1.4,0,2.4,0.5,2.9,1.6c0.8-1.1,1.8-1.6,3.2-1.6
			c1.2,0,2,0.3,2.6,1s0.9,1.6,0.9,2.9v6.9h-2.4v-6.9c0-0.7-0.1-1.2-0.4-1.5s-0.8-0.5-1.5-0.5c-0.5,0-1,0.1-1.3,0.4s-0.6,0.7-0.7,1.1
			l0,7.2h-2.4v-7c0-1.2-0.7-1.9-1.9-1.9c-1,0-1.6,0.4-2,1.2v7.7h-2.4v-10.6H128.4z"/>
		<path class="st2" d="M190.6,149.7h-9.6v-1.6l4.7-5.2c0.7-0.8,1.2-1.4,1.5-1.9s0.4-1,0.4-1.5c0-0.7-0.2-1.2-0.6-1.6
			s-0.9-0.6-1.5-0.6c-0.8,0-1.4,0.2-1.8,0.7s-0.6,1.1-0.6,1.9h-2.4c0-0.9,0.2-1.6,0.6-2.3s1-1.2,1.7-1.6s1.6-0.6,2.5-0.6
			c1.4,0,2.5,0.3,3.3,1c0.8,0.7,1.2,1.7,1.2,2.9c0,0.7-0.2,1.5-0.6,2.2s-1.1,1.7-2,2.7l-3.5,3.7h6.6V149.7z"/>
		<path class="st2" d="M201.7,143.8c0,2-0.4,3.6-1.1,4.6c-0.8,1-1.9,1.6-3.5,1.6c-1.5,0-2.7-0.5-3.5-1.5c-0.8-1-1.2-2.5-1.2-4.5
			v-2.5c0-2,0.4-3.6,1.1-4.6c0.8-1,1.9-1.5,3.5-1.5c1.6,0,2.7,0.5,3.5,1.5c0.8,1,1.2,2.5,1.2,4.5V143.8z M199.3,141.1
			c0-1.3-0.2-2.3-0.5-2.9c-0.4-0.6-0.9-0.9-1.7-0.9c-0.8,0-1.3,0.3-1.7,0.9c-0.4,0.6-0.6,1.5-0.6,2.8v3.2c0,1.3,0.2,2.3,0.6,3
			s1,1,1.7,1c0.8,0,1.3-0.3,1.7-0.9c0.4-0.6,0.6-1.5,0.6-2.8V141.1z"/>
		<path class="st2" d="M213.2,144.6c0,1.6-0.4,2.9-1.1,3.9s-1.7,1.5-3,1.5c-1.2,0-2.1-0.4-2.8-1.1v5h-2.4v-14.6h2.2l0.1,1.1
			c0.7-0.8,1.6-1.3,2.8-1.3c1.3,0,2.3,0.5,3,1.4s1.1,2.3,1.1,4V144.6z M210.8,144.4c0-1.1-0.2-1.9-0.6-2.5s-1-0.9-1.8-0.9
			c-1,0-1.7,0.4-2.1,1.2v4.7c0.4,0.8,1.1,1.2,2.1,1.2c0.8,0,1.3-0.3,1.8-0.9C210.6,146.5,210.8,145.6,210.8,144.4z"/>
		<path class="st2" d="M218.2,136.6v2.6h1.9v1.8h-1.9v5.9c0,0.4,0.1,0.7,0.2,0.9c0.2,0.2,0.4,0.3,0.9,0.3c0.3,0,0.5,0,0.8-0.1v1.8
			c-0.5,0.1-1.1,0.2-1.6,0.2c-1.8,0-2.7-1-2.7-3v-6h-1.7v-1.8h1.7v-2.6H218.2z"/>
		<path class="st2" d="M5.5,175.1H2.8v4.6H1.3v-11.4h3.8c1.3,0,2.3,0.3,3,0.9c0.7,0.6,1,1.4,1,2.5c0,0.7-0.2,1.3-0.6,1.9
			c-0.4,0.5-0.9,0.9-1.6,1.2l2.7,4.8v0.1H8L5.5,175.1z M2.8,173.9h2.3c0.7,0,1.3-0.2,1.8-0.6c0.4-0.4,0.7-0.9,0.7-1.5
			c0-0.7-0.2-1.2-0.6-1.6c-0.4-0.4-1-0.6-1.8-0.6H2.8V173.9z"/>
		<path class="st2" d="M10.6,175.4c0-0.8,0.2-1.6,0.5-2.2c0.3-0.7,0.8-1.2,1.4-1.5c0.6-0.4,1.2-0.5,2-0.5c1.2,0,2.1,0.4,2.8,1.2
			s1.1,1.9,1.1,3.2v0.1c0,0.8-0.2,1.6-0.5,2.2c-0.3,0.7-0.8,1.2-1.4,1.5c-0.6,0.4-1.3,0.5-2,0.5c-1.1,0-2.1-0.4-2.8-1.2
			s-1.1-1.9-1.1-3.2V175.4z M12,175.6c0,0.9,0.2,1.7,0.7,2.3c0.4,0.6,1,0.9,1.7,0.9c0.7,0,1.3-0.3,1.7-0.9c0.4-0.6,0.6-1.4,0.6-2.4
			c0-0.9-0.2-1.7-0.7-2.3c-0.4-0.6-1-0.9-1.8-0.9c-0.7,0-1.3,0.3-1.7,0.9C12.2,173.7,12,174.6,12,175.6z"/>
		<path class="st2" d="M27.2,175.6c0,1.3-0.3,2.3-0.9,3.1c-0.6,0.8-1.4,1.2-2.4,1.2c-1.1,0-1.9-0.4-2.5-1.1l-0.1,1h-1.3v-12h1.4v4.5
			c0.6-0.7,1.4-1.1,2.4-1.1c1,0,1.8,0.4,2.4,1.2c0.6,0.8,0.9,1.8,0.9,3.2V175.6z M25.8,175.5c0-1-0.2-1.7-0.6-2.3
			c-0.4-0.5-0.9-0.8-1.6-0.8c-1,0-1.6,0.4-2.1,1.3v3.7c0.4,0.9,1.1,1.3,2.1,1.3c0.7,0,1.2-0.3,1.6-0.8
			C25.6,177.3,25.8,176.5,25.8,175.5z"/>
		<path class="st2" d="M28.7,175.4c0-0.8,0.2-1.6,0.5-2.2c0.3-0.7,0.8-1.2,1.4-1.5c0.6-0.4,1.2-0.5,2-0.5c1.2,0,2.1,0.4,2.8,1.2
			s1.1,1.9,1.1,3.2v0.1c0,0.8-0.2,1.6-0.5,2.2c-0.3,0.7-0.8,1.2-1.4,1.5c-0.6,0.4-1.3,0.5-2,0.5c-1.1,0-2.1-0.4-2.8-1.2
			s-1.1-1.9-1.1-3.2V175.4z M30.1,175.6c0,0.9,0.2,1.7,0.7,2.3c0.4,0.6,1,0.9,1.7,0.9c0.7,0,1.3-0.3,1.8-0.9
			c0.4-0.6,0.6-1.4,0.6-2.4c0-0.9-0.2-1.7-0.7-2.3c-0.4-0.6-1-0.9-1.8-0.9c-0.7,0-1.3,0.3-1.7,0.9C30.3,173.7,30.1,174.6,30.1,175.6
			z"/>
		<path class="st2" d="M40.1,169.2v2h1.6v1.1h-1.6v5.2c0,0.3,0.1,0.6,0.2,0.8c0.1,0.2,0.4,0.3,0.7,0.3c0.2,0,0.4,0,0.7-0.1v1.2
			c-0.4,0.1-0.8,0.2-1.1,0.2c-0.6,0-1.1-0.2-1.5-0.6s-0.5-0.9-0.5-1.7v-5.2h-1.5v-1.1h1.5v-2H40.1z"/>
		<path class="st2" d="M42.9,175.4c0-0.8,0.2-1.6,0.5-2.2c0.3-0.7,0.8-1.2,1.4-1.5c0.6-0.4,1.2-0.5,2-0.5c1.2,0,2.1,0.4,2.8,1.2
			s1.1,1.9,1.1,3.2v0.1c0,0.8-0.2,1.6-0.5,2.2c-0.3,0.7-0.8,1.2-1.4,1.5c-0.6,0.4-1.3,0.5-2,0.5c-1.1,0-2.1-0.4-2.8-1.2
			s-1.1-1.9-1.1-3.2V175.4z M44.3,175.6c0,0.9,0.2,1.7,0.7,2.3c0.4,0.6,1,0.9,1.7,0.9c0.7,0,1.3-0.3,1.8-0.9
			c0.4-0.6,0.6-1.4,0.6-2.4c0-0.9-0.2-1.7-0.7-2.3c-0.4-0.6-1-0.9-1.8-0.9c-0.7,0-1.3,0.3-1.7,0.9C44.5,173.7,44.3,174.6,44.3,175.6
			z"/>
		<path class="st2" d="M60.7,175.1h-2.7v4.6h-1.5v-11.4h3.8c1.3,0,2.3,0.3,3,0.9c0.7,0.6,1,1.4,1,2.5c0,0.7-0.2,1.3-0.6,1.9
			c-0.4,0.5-0.9,0.9-1.6,1.2l2.7,4.8v0.1h-1.6L60.7,175.1z M58.1,173.9h2.3c0.7,0,1.3-0.2,1.8-0.6c0.4-0.4,0.7-0.9,0.7-1.5
			c0-0.7-0.2-1.2-0.6-1.6c-0.4-0.4-1-0.6-1.8-0.6h-2.3V173.9z"/>
		<path class="st2" d="M69.7,179.9c-1.1,0-2.1-0.4-2.8-1.1c-0.7-0.8-1.1-1.8-1.1-3v-0.3c0-0.8,0.2-1.6,0.5-2.2
			c0.3-0.7,0.8-1.2,1.3-1.5c0.6-0.4,1.2-0.6,1.9-0.6c1.1,0,2,0.4,2.6,1.1c0.6,0.7,0.9,1.8,0.9,3.1v0.6h-5.7c0,0.8,0.3,1.5,0.7,2
			c0.5,0.5,1.1,0.8,1.8,0.8c0.5,0,0.9-0.1,1.3-0.3c0.4-0.2,0.7-0.5,0.9-0.8l0.9,0.7C72.2,179.4,71.1,179.9,69.7,179.9z M69.5,172.3
			c-0.6,0-1.1,0.2-1.5,0.6c-0.4,0.4-0.6,1-0.7,1.8h4.2v-0.1c0-0.7-0.2-1.3-0.6-1.7C70.6,172.5,70.1,172.3,69.5,172.3z"/>
		<path class="st2" d="M74.3,175.5c0-1.3,0.3-2.4,0.9-3.1c0.6-0.8,1.4-1.2,2.4-1.2c1,0,1.8,0.4,2.4,1.1l0.1-0.9h1.3v8.3
			c0,1.1-0.3,2-1,2.6c-0.6,0.6-1.5,0.9-2.6,0.9c-0.6,0-1.2-0.1-1.8-0.4c-0.6-0.3-1-0.6-1.3-1.1l0.8-0.9c0.6,0.8,1.4,1.1,2.3,1.1
			c0.7,0,1.3-0.2,1.6-0.6c0.4-0.4,0.6-1,0.6-1.7v-0.7c-0.6,0.7-1.4,1-2.4,1c-1,0-1.8-0.4-2.4-1.2C74.6,177.9,74.3,176.8,74.3,175.5z
			 M75.8,175.6c0,1,0.2,1.7,0.6,2.2c0.4,0.5,0.9,0.8,1.6,0.8c0.9,0,1.6-0.4,2-1.2v-3.9c-0.4-0.8-1.1-1.2-2-1.2
			c-0.7,0-1.3,0.3-1.6,0.8C76,173.7,75.8,174.5,75.8,175.6z"/>
		<path class="st2" d="M88.9,178.9c-0.6,0.7-1.4,1-2.5,1c-0.9,0-1.6-0.3-2.1-0.8c-0.5-0.5-0.7-1.3-0.7-2.3v-5.5H85v5.5
			c0,1.3,0.5,1.9,1.6,1.9c1.1,0,1.8-0.4,2.2-1.2v-6.1h1.4v8.5h-1.4L88.9,178.9z"/>
		<path class="st2" d="M94,179.7h-1.4v-12H94V179.7z"/>
		<path class="st2" d="M101.6,179.7c-0.1-0.2-0.2-0.5-0.2-0.9c-0.7,0.7-1.5,1-2.4,1c-0.8,0-1.5-0.2-2.1-0.7
			c-0.5-0.5-0.8-1.1-0.8-1.8c0-0.9,0.3-1.6,1-2.1c0.7-0.5,1.6-0.7,2.8-0.7h1.4V174c0-0.5-0.2-0.9-0.5-1.2c-0.3-0.3-0.7-0.4-1.3-0.4
			c-0.5,0-0.9,0.1-1.3,0.4c-0.3,0.3-0.5,0.6-0.5,0.9h-1.5c0-0.4,0.1-0.8,0.4-1.2c0.3-0.4,0.7-0.7,1.2-0.9c0.5-0.2,1.1-0.3,1.7-0.3
			c1,0,1.7,0.2,2.3,0.7c0.6,0.5,0.8,1.2,0.9,2v3.9c0,0.8,0.1,1.4,0.3,1.9v0.1H101.6z M99.2,178.6c0.5,0,0.9-0.1,1.3-0.4
			s0.7-0.5,0.9-0.9v-1.7h-1.1c-1.8,0-2.7,0.5-2.7,1.6c0,0.5,0.2,0.8,0.5,1.1C98.3,178.5,98.7,178.6,99.2,178.6z"/>
		<path class="st2" d="M109.1,172.6c-0.2,0-0.5-0.1-0.7-0.1c-0.9,0-1.6,0.4-1.9,1.2v6H105v-8.5h1.4l0,1c0.5-0.8,1.1-1.1,2-1.1
			c0.3,0,0.5,0,0.6,0.1V172.6z"/>
		<path class="st2" d="M185.7,179.7h-1.5v-9.6l-2.9,1.1v-1.3l4.1-1.6h0.2V179.7z"/>
		<path class="st2" d="M195.6,168.4v1.2h-0.3c-1.1,0-2,0.4-2.7,1c-0.7,0.6-1.1,1.6-1.2,2.7c0.6-0.7,1.4-1,2.5-1c1,0,1.8,0.3,2.4,1
			c0.6,0.7,0.9,1.6,0.9,2.7c0,1.2-0.3,2.1-1,2.8c-0.6,0.7-1.5,1.1-2.6,1.1c-1.1,0-2-0.4-2.6-1.3c-0.7-0.8-1-1.9-1-3.2v-0.6
			c0-2.1,0.4-3.7,1.3-4.8c0.9-1.1,2.2-1.7,4-1.7H195.6z M193.7,173.5c-0.5,0-1,0.1-1.4,0.4c-0.4,0.3-0.7,0.7-0.9,1.1v0.5
			c0,0.9,0.2,1.7,0.6,2.3c0.4,0.6,0.9,0.9,1.6,0.9c0.7,0,1.2-0.2,1.5-0.7c0.4-0.5,0.6-1.1,0.6-1.9c0-0.8-0.2-1.4-0.6-1.9
			C194.8,173.7,194.3,173.5,193.7,173.5z"/>
		<path class="st2" d="M206.2,175.6c0,1.3-0.3,2.3-0.9,3.1c-0.6,0.8-1.4,1.2-2.4,1.2c-1,0-1.8-0.3-2.4-1v4.1h-1.4v-11.7h1.3l0.1,0.9
			c0.6-0.7,1.4-1.1,2.5-1.1c1,0,1.8,0.4,2.4,1.1c0.6,0.8,0.9,1.8,0.9,3.2V175.6z M204.8,175.5c0-1-0.2-1.7-0.6-2.3
			c-0.4-0.6-1-0.8-1.7-0.8c-0.9,0-1.5,0.4-2,1.2v4c0.4,0.8,1.1,1.2,2,1.2c0.7,0,1.2-0.3,1.7-0.8
			C204.6,177.4,204.8,176.5,204.8,175.5z"/>
		<path class="st2" d="M210,169.2v2h1.6v1.1H210v5.2c0,0.3,0.1,0.6,0.2,0.8c0.1,0.2,0.4,0.3,0.7,0.3c0.2,0,0.4,0,0.7-0.1v1.2
			c-0.4,0.1-0.8,0.2-1.1,0.2c-0.6,0-1.1-0.2-1.5-0.6s-0.5-0.9-0.5-1.7v-5.2H207v-1.1h1.5v-2H210z"/>
		<path class="st2" d="M5,205.6H2.1v4.1H1.2v-10h3.2c1.1,0,1.9,0.3,2.5,0.8c0.6,0.5,0.9,1.2,0.9,2.2c0,0.6-0.2,1.2-0.6,1.7
			c-0.4,0.5-0.9,0.8-1.5,1l2.5,4.2v0.1H7.4L5,205.6z M2.1,204.9h2.6c0.7,0,1.3-0.2,1.7-0.6c0.4-0.4,0.6-0.9,0.6-1.6
			c0-0.7-0.2-1.2-0.7-1.6c-0.4-0.4-1.1-0.6-1.9-0.6H2.1V204.9z"/>
		<path class="st2" d="M9.5,205.9c0-0.7,0.1-1.4,0.4-1.9s0.7-1,1.2-1.3s1.1-0.5,1.7-0.5c1,0,1.8,0.3,2.4,1s0.9,1.6,0.9,2.7v0.2
			c0,0.7-0.1,1.4-0.4,1.9c-0.3,0.6-0.7,1-1.2,1.3c-0.5,0.3-1.1,0.5-1.7,0.5c-1,0-1.8-0.3-2.4-1s-0.9-1.6-0.9-2.7V205.9z M10.3,206.2
			c0,0.9,0.2,1.6,0.7,2.2s1.1,0.9,1.8,0.9c0.7,0,1.3-0.3,1.8-0.9s0.7-1.3,0.7-2.2v-0.2c0-0.6-0.1-1.1-0.3-1.6s-0.5-0.8-0.9-1.1
			s-0.8-0.4-1.3-0.4c-0.7,0-1.3,0.3-1.8,0.9s-0.7,1.3-0.7,2.2V206.2z"/>
		<path class="st2" d="M23.7,206.1c0,1.2-0.3,2.1-0.8,2.7s-1.2,1-2.1,1c-1,0-1.8-0.4-2.3-1.1l0,1h-0.8v-10.5h0.8v4.2
			c0.5-0.8,1.3-1.2,2.3-1.2c0.9,0,1.6,0.3,2.1,1s0.8,1.6,0.8,2.8V206.1z M22.9,206c0-1-0.2-1.7-0.6-2.3s-0.9-0.8-1.6-0.8
			c-0.5,0-1,0.1-1.3,0.4s-0.6,0.6-0.8,1.1v3.3c0.4,0.9,1.1,1.4,2.2,1.4c0.7,0,1.2-0.3,1.6-0.8S22.9,207,22.9,206z"/>
		<path class="st2" d="M25.1,205.9c0-0.7,0.1-1.4,0.4-1.9s0.7-1,1.2-1.3s1.1-0.5,1.7-0.5c1,0,1.8,0.3,2.4,1s0.9,1.6,0.9,2.7v0.2
			c0,0.7-0.1,1.4-0.4,1.9c-0.3,0.6-0.7,1-1.2,1.3c-0.5,0.3-1.1,0.5-1.7,0.5c-1,0-1.8-0.3-2.4-1s-0.9-1.6-0.9-2.7V205.9z M25.9,206.2
			c0,0.9,0.2,1.6,0.7,2.2s1.1,0.9,1.8,0.9c0.7,0,1.3-0.3,1.8-0.9s0.7-1.3,0.7-2.2v-0.2c0-0.6-0.1-1.1-0.3-1.6s-0.5-0.8-0.9-1.1
			s-0.8-0.4-1.3-0.4c-0.7,0-1.3,0.3-1.8,0.9s-0.7,1.3-0.7,2.2V206.2z"/>
		<path class="st2" d="M34.7,200.5v1.9h1.5v0.7h-1.5v4.9c0,0.4,0.1,0.7,0.2,0.9s0.4,0.3,0.7,0.3c0.1,0,0.4,0,0.7-0.1l0,0.7
			c-0.2,0.1-0.5,0.1-0.9,0.1c-0.6,0-1-0.2-1.2-0.5c-0.3-0.3-0.4-0.8-0.4-1.4V203h-1.4v-0.7h1.4v-1.9H34.7z"/>
		<path class="st2" d="M37.3,205.9c0-0.7,0.1-1.4,0.4-1.9s0.7-1,1.2-1.3s1.1-0.5,1.7-0.5c1,0,1.8,0.3,2.4,1s0.9,1.6,0.9,2.7v0.2
			c0,0.7-0.1,1.4-0.4,1.9c-0.3,0.6-0.7,1-1.2,1.3c-0.5,0.3-1.1,0.5-1.7,0.5c-1,0-1.8-0.3-2.4-1s-0.9-1.6-0.9-2.7V205.9z M38.1,206.2
			c0,0.9,0.2,1.6,0.7,2.2s1.1,0.9,1.8,0.9c0.7,0,1.3-0.3,1.8-0.9s0.7-1.3,0.7-2.2v-0.2c0-0.6-0.1-1.1-0.3-1.6s-0.5-0.8-0.9-1.1
			s-0.8-0.4-1.3-0.4c-0.7,0-1.3,0.3-1.8,0.9s-0.7,1.3-0.7,2.2V206.2z"/>
		<path class="st2" d="M50,209H55v0.7h-5.8v-10H50V209z"/>
		<path class="st2" d="M56.3,200.2c0-0.2,0.1-0.3,0.2-0.4s0.2-0.2,0.4-0.2s0.3,0.1,0.4,0.2s0.2,0.2,0.2,0.4s-0.1,0.3-0.2,0.4
			s-0.2,0.2-0.4,0.2s-0.3-0.1-0.4-0.2S56.3,200.4,56.3,200.2z M57.3,209.7h-0.8v-7.4h0.8V209.7z"/>
		<path class="st2" d="M59.2,206c0-1.2,0.3-2.1,0.8-2.8s1.2-1,2.1-1c1,0,1.8,0.4,2.3,1.2l0-1.1h0.8v7.2c0,1-0.3,1.7-0.8,2.3
			c-0.5,0.6-1.3,0.8-2.2,0.8c-0.5,0-1-0.1-1.5-0.3c-0.5-0.2-0.8-0.5-1.1-0.9l0.5-0.5c0.6,0.7,1.3,1.1,2.1,1.1c0.7,0,1.2-0.2,1.6-0.6
			s0.6-1,0.6-1.7v-0.9c-0.5,0.7-1.3,1.1-2.3,1.1c-0.9,0-1.5-0.3-2.1-1s-0.8-1.6-0.8-2.8V206z M60,206.1c0,0.9,0.2,1.7,0.6,2.2
			c0.4,0.5,0.9,0.8,1.6,0.8c1,0,1.7-0.5,2.1-1.4v-3.4c-0.2-0.5-0.5-0.8-0.8-1.1s-0.8-0.4-1.3-0.4c-0.7,0-1.2,0.3-1.6,0.8
			S60,205.1,60,206.1z"/>
		<path class="st2" d="M68.1,203.6c0.3-0.4,0.6-0.8,1-1s0.9-0.4,1.4-0.4c0.8,0,1.4,0.2,1.8,0.7s0.6,1.1,0.6,2v4.9H72v-4.9
			c0-0.7-0.1-1.2-0.4-1.5s-0.7-0.5-1.3-0.5c-0.5,0-1,0.2-1.3,0.5s-0.7,0.7-0.9,1.3v5.1h-0.8v-10.5h0.8V203.6z"/>
		<path class="st2" d="M76.2,200.5v1.9h1.5v0.7h-1.5v4.9c0,0.4,0.1,0.7,0.2,0.9s0.4,0.3,0.7,0.3c0.1,0,0.4,0,0.7-0.1l0,0.7
			c-0.2,0.1-0.5,0.1-0.9,0.1c-0.6,0-1-0.2-1.2-0.5c-0.3-0.3-0.4-0.8-0.4-1.4V203h-1.4v-0.7h1.4v-1.9H76.2z"/>
		<path class="st2" d="M184.7,209.7h-0.8v-9l-2.7,1V201l3.4-1.3h0.1V209.7z"/>
		<path class="st2" d="M193.7,206.5h1.6v0.7h-1.6v2.5h-0.8v-2.5h-4.7v-0.5l4.6-7h0.9V206.5z M189.2,206.5h3.7v-5.7l-0.4,0.6
			L189.2,206.5z"/>
		<path class="st2" d="M202.5,206.1c0,1.2-0.3,2.1-0.8,2.7c-0.5,0.7-1.2,1-2.1,1c-1,0-1.8-0.4-2.3-1.1v3.8h-0.8v-10.2h0.8l0,1
			c0.5-0.8,1.3-1.2,2.3-1.2c0.9,0,1.6,0.3,2.1,1c0.5,0.7,0.8,1.6,0.8,2.8V206.1z M201.7,206c0-0.9-0.2-1.7-0.6-2.2
			c-0.4-0.5-0.9-0.8-1.6-0.8c-0.5,0-0.9,0.1-1.3,0.4c-0.4,0.2-0.6,0.6-0.8,1.1v3.5c0.2,0.4,0.5,0.7,0.8,1c0.4,0.2,0.8,0.3,1.3,0.3
			c0.7,0,1.2-0.3,1.6-0.8C201.5,207.8,201.7,207,201.7,206z"/>
		<path class="st2" d="M205.6,200.5v1.9h1.5v0.7h-1.5v4.9c0,0.4,0.1,0.7,0.2,0.9c0.1,0.2,0.4,0.3,0.7,0.3c0.1,0,0.4,0,0.7-0.1l0,0.7
			c-0.2,0.1-0.5,0.1-0.9,0.1c-0.6,0-1-0.2-1.2-0.5c-0.3-0.3-0.4-0.8-0.4-1.4V203h-1.4v-0.7h1.4v-1.9H205.6z"/>
		<path class="st2" d="M3.9,236.6H2.5v3.1H0.8v-8.5h3.2c1,0,1.8,0.2,2.3,0.7s0.8,1.1,0.8,1.9c0,0.6-0.1,1.1-0.4,1.5
			s-0.6,0.7-1.1,0.9l1.8,3.5v0.1H5.5L3.9,236.6z M2.5,235.2h1.4c0.4,0,0.8-0.1,1-0.3s0.4-0.5,0.4-0.9c0-0.4-0.1-0.7-0.3-0.9
			s-0.6-0.3-1.1-0.3H2.5V235.2z"/>
		<path class="st2" d="M8,236.5c0-0.6,0.1-1.2,0.4-1.7s0.6-0.9,1-1.1s1-0.4,1.6-0.4c0.9,0,1.6,0.3,2.1,0.8s0.8,1.2,0.9,2.1l0,0.4
			c0,1-0.3,1.8-0.8,2.3s-1.3,0.9-2.2,0.9s-1.6-0.3-2.2-0.9S8,237.6,8,236.5L8,236.5z M9.7,236.6c0,0.6,0.1,1.1,0.3,1.4
			c0.2,0.3,0.6,0.5,1,0.5c0.4,0,0.7-0.2,1-0.5c0.2-0.3,0.3-0.8,0.3-1.5c0-0.6-0.1-1-0.3-1.4c-0.2-0.3-0.6-0.5-1-0.5
			c-0.4,0-0.7,0.2-1,0.5C9.9,235.5,9.7,236,9.7,236.6z"/>
		<path class="st2" d="M20.8,236.6c0,1-0.2,1.8-0.7,2.4s-1,0.9-1.8,0.9c-0.7,0-1.2-0.3-1.6-0.8l-0.1,0.7h-1.5v-9h1.7v3.2
			c0.4-0.5,0.9-0.7,1.5-0.7c0.8,0,1.4,0.3,1.8,0.9S20.8,235.5,20.8,236.6L20.8,236.6z M19.1,236.5c0-0.6-0.1-1.1-0.3-1.4
			s-0.5-0.4-0.9-0.4c-0.5,0-0.9,0.2-1.1,0.7v2.5c0.2,0.4,0.6,0.7,1.1,0.7c0.5,0,0.9-0.3,1.1-0.8C19.1,237.4,19.1,237,19.1,236.5z"/>
		<path class="st2" d="M21.6,236.5c0-0.6,0.1-1.2,0.4-1.7s0.6-0.9,1-1.1s1-0.4,1.6-0.4c0.9,0,1.6,0.3,2.1,0.8s0.8,1.2,0.9,2.1l0,0.4
			c0,1-0.3,1.8-0.8,2.3s-1.3,0.9-2.2,0.9s-1.6-0.3-2.2-0.9S21.6,237.6,21.6,236.5L21.6,236.5z M23.3,236.6c0,0.6,0.1,1.1,0.3,1.4
			c0.2,0.3,0.6,0.5,1,0.5c0.4,0,0.7-0.2,1-0.5c0.2-0.3,0.3-0.8,0.3-1.5c0-0.6-0.1-1-0.3-1.4c-0.2-0.3-0.6-0.5-1-0.5
			c-0.4,0-0.7,0.2-1,0.5C23.4,235.5,23.3,236,23.3,236.6z"/>
		<path class="st2" d="M30.7,231.9v1.6h1.1v1.2h-1.1v3.2c0,0.2,0,0.4,0.1,0.5s0.3,0.2,0.5,0.2c0.2,0,0.4,0,0.5,0v1.3
			c-0.3,0.1-0.7,0.2-1,0.2c-1.2,0-1.8-0.6-1.8-1.8v-3.4H28v-1.2H29v-1.6H30.7z"/>
		<path class="st2" d="M32.3,236.5c0-0.6,0.1-1.2,0.4-1.7s0.6-0.9,1-1.1s1-0.4,1.6-0.4c0.9,0,1.6,0.3,2.1,0.8s0.8,1.2,0.9,2.1l0,0.4
			c0,1-0.3,1.8-0.8,2.3s-1.3,0.9-2.2,0.9s-1.6-0.3-2.2-0.9S32.3,237.6,32.3,236.5L32.3,236.5z M33.9,236.6c0,0.6,0.1,1.1,0.3,1.4
			c0.2,0.3,0.6,0.5,1,0.5c0.4,0,0.7-0.2,1-0.5c0.2-0.3,0.3-0.8,0.3-1.5c0-0.6-0.1-1-0.3-1.4c-0.2-0.3-0.6-0.5-1-0.5
			c-0.4,0-0.7,0.2-1,0.5C34.1,235.5,33.9,236,33.9,236.6z"/>
		<path class="st2" d="M42.4,239.7v-8.5h3c1,0,1.8,0.2,2.4,0.6s0.8,1,0.8,1.7c0,0.4-0.1,0.8-0.3,1.1s-0.5,0.6-0.9,0.7
			c0.4,0.1,0.8,0.3,1,0.7s0.4,0.7,0.4,1.2c0,0.8-0.3,1.4-0.8,1.9s-1.3,0.6-2.2,0.6H42.4z M44.2,234.8h1.3c0.9,0,1.3-0.4,1.3-1.1
			c0-0.4-0.1-0.7-0.3-0.8s-0.6-0.3-1.1-0.3h-1.2V234.8z M44.2,236v2.3h1.5c0.4,0,0.7-0.1,1-0.3s0.3-0.5,0.3-0.8
			c0-0.8-0.4-1.2-1.2-1.2H44.2z"/>
		<path class="st2" d="M49.7,236.5c0-0.6,0.1-1.2,0.4-1.7s0.6-0.9,1-1.1s1-0.4,1.6-0.4c0.9,0,1.6,0.3,2.1,0.8s0.8,1.2,0.9,2.1l0,0.4
			c0,1-0.3,1.8-0.8,2.3s-1.3,0.9-2.2,0.9s-1.6-0.3-2.2-0.9S49.7,237.6,49.7,236.5L49.7,236.5z M51.4,236.6c0,0.6,0.1,1.1,0.3,1.4
			c0.2,0.3,0.6,0.5,1,0.5c0.4,0,0.7-0.2,1-0.5c0.2-0.3,0.3-0.8,0.3-1.5c0-0.6-0.1-1-0.3-1.4c-0.2-0.3-0.6-0.5-1-0.5
			c-0.4,0-0.7,0.2-1,0.5C51.5,235.5,51.4,236,51.4,236.6z"/>
		<path class="st2" d="M58.5,239.7h-1.7v-9h1.7V239.7z"/>
		<path class="st2" d="M59.6,236.5c0-1,0.2-1.8,0.7-2.4s1-0.9,1.8-0.9c0.6,0,1.1,0.2,1.5,0.7v-3.2h1.7v9h-1.5l-0.1-0.7
			c-0.4,0.5-1,0.8-1.6,0.8c-0.7,0-1.3-0.3-1.8-0.9S59.6,237.6,59.6,236.5z M61.3,236.7c0,0.6,0.1,1.1,0.3,1.4
			c0.2,0.3,0.5,0.5,0.9,0.5c0.5,0,0.9-0.2,1.1-0.7v-2.5c-0.2-0.4-0.6-0.7-1.1-0.7C61.8,234.7,61.3,235.3,61.3,236.7z"/>
		<path class="st2" d="M184.7,239.7H183v-6.5l-2,0.6v-1.4l3.5-1.3h0.2V239.7z"/>
		<path class="st2" d="M193.3,239.7h-5.8v-1.2l2.8-2.9c0.4-0.4,0.7-0.8,0.8-1.1s0.3-0.6,0.3-0.9c0-0.4-0.1-0.7-0.3-0.9
			s-0.5-0.3-0.8-0.3c-0.4,0-0.7,0.1-0.9,0.4s-0.3,0.6-0.3,1h-1.7c0-0.5,0.1-1,0.4-1.4s0.6-0.8,1.1-1s1-0.4,1.5-0.4
			c0.9,0,1.6,0.2,2,0.6s0.7,1,0.7,1.8c0,0.4-0.1,0.9-0.3,1.3s-0.6,0.9-1.1,1.5l-1.9,2h3.7V239.7z"/>
		<path class="st2" d="M200.1,236.6c0,1-0.2,1.8-0.7,2.3s-1,0.9-1.8,0.9c-0.6,0-1.2-0.2-1.6-0.7v3h-1.7v-8.8h1.6l0.1,0.6
			c0.4-0.5,0.9-0.7,1.6-0.7c0.8,0,1.4,0.3,1.8,0.9S200.1,235.5,200.1,236.6L200.1,236.6z M198.4,236.5c0-0.6-0.1-1-0.3-1.4
			s-0.5-0.5-0.9-0.5c-0.5,0-0.9,0.2-1.1,0.6v2.6c0.2,0.4,0.6,0.6,1.1,0.6C198,238.5,198.4,237.8,198.4,236.5z"/>
		<path class="st2" d="M203.2,231.9v1.6h1.1v1.2h-1.1v3.2c0,0.2,0,0.4,0.1,0.5s0.3,0.2,0.5,0.2c0.2,0,0.4,0,0.5,0v1.3
			c-0.3,0.1-0.7,0.2-1,0.2c-1.2,0-1.8-0.6-1.8-1.8v-3.4h-0.9v-1.2h0.9v-1.6H203.2z"/>
	</g>
	<g>
		<path class="st2" d="M316.3,394.1l-7.4,7.4c-0.2,0.2-0.4,0.7-0.5,1l-0.4,3.1c0,0.3,0.2,0.5,0.5,0.5l3.1-0.4c0.3,0,0.8-0.3,1-0.5
			l7.4-7.4L316.3,394.1z"/>
		<path class="st2" d="M320.6,397.3l2.2-2.2c0.2-0.2,0.2-0.6,0-0.8l-2.9-2.9c-0.2-0.2-0.6-0.3-0.8,0l-2.2,2.2L320.6,397.3z"/>
	</g>
	<g>
		<g>
			<path class="st2" d="M23.5,386.2c-1.6-0.1-2.9,1-3.8,1.8c-1.4-1-2.9-1.5-4.2-1.5c-0.1,0-0.4,0-0.5,0c-1.3,0-2.8,0.5-4.2,1.5
				c-0.8-0.8-2.2-1.8-3.8-1.8c-3.4,0.1-6.9,5.9-5,6.7c1,0.5,3.3,0.3,5.3-0.4c-0.4,1.1-0.7,2.4-0.9,3.8c-0.3,3.9-2.4,6.6-0.9,10.6
				c0.8,2.1,3.6,4.2,9.1,4.2l0-4.2c-0.4-0.1-0.8-0.5-1.1-1l-1.1-1.7c-0.9-1.4-0.2-2.5,1.4-2.5h2.5c1.6,0,2.3,1.1,1.4,2.5l-1.1,1.7
				c-0.3,0.5-0.7,0.8-1.1,1l0,4.2c5.5,0.1,8.4-2.1,9.1-4.2c1.5-4-0.6-6.7-0.9-10.6c-0.1-1.4-0.4-2.7-0.9-3.8c2,0.7,4.3,0.9,5.3,0.4
				C30.5,392,27,386.3,23.5,386.2z M10.9,396.5c-0.8,0-1.4-0.6-1.4-1.4s0.6-1.4,1.4-1.4s1.4,0.6,1.4,1.4S11.7,396.5,10.9,396.5z
				 M19.8,396.5c-0.8,0-1.4-0.6-1.4-1.4s0.6-1.4,1.4-1.4c0.8,0,1.4,0.6,1.4,1.4S20.5,396.5,19.8,396.5z"/>
		</g>
		<polyline class="st5" points="40.3,395.2 33.4,404.9 28.7,400 		"/>
	</g>
	<g>
		<g>
			<path class="st2" d="M80.1,387.2c-2-0.1-3,5.9-3.5,5.6c-0.1-0.1-1.5-0.2-2.2-0.2s-1.9,0.2-2,0.2c-0.6,0.3-1.5-5.7-3.5-5.6
				c-2,0.1-5,13.6-5,15.9c0,5.9,6.9,6.9,10.4,7.1c0,0,0.3,0,0.3,0c3.5-0.2,10.4-1.2,10.4-7.1C85.1,400.8,82.2,387.2,80.1,387.2z
				 M68.3,398.3c0-0.8,0.6-1.4,1.4-1.4c0.8,0,1.4,0.6,1.4,1.4s-0.6,1.4-1.4,1.4C68.9,399.8,68.3,399.1,68.3,398.3z M78.5,406
				c-0.5,0.3-1,0.4-1.6,0.4c-0.5,0-1.1-0.1-1.5-0.4c-0.3-0.2-0.6-0.5-0.9-0.9c-0.3,0.5-0.6,0.8-0.9,0.9c-0.5,0.3-1,0.4-1.5,0.4
				c-0.5,0-1.1-0.1-1.6-0.4c-0.2-0.1-0.3-0.4-0.2-0.7c0.1-0.2,0.4-0.3,0.7-0.2c0.7,0.4,1.5,0.4,2.1,0c0.6-0.4,0.9-1.2,0.9-2.3
				c-0.2-0.1-0.4-0.3-0.5-0.5l-0.4-0.6c-0.6-0.9-0.2-1.7,0.9-1.7h1c1.1,0,1.5,0.8,0.9,1.7l-0.4,0.6c-0.2,0.3-0.3,0.4-0.5,0.5
				c0,1.1,0.3,1.9,0.9,2.3c0.6,0.4,1.4,0.4,2.1,0c0.2-0.1,0.5,0,0.7,0.2C78.8,405.5,78.7,405.8,78.5,406z M79.3,399.8
				c-0.8,0-1.4-0.6-1.4-1.4s0.6-1.4,1.4-1.4s1.4,0.6,1.4,1.4S80.1,399.8,79.3,399.8z"/>
		</g>
		<polyline class="st5" points="99.4,395.2 92.5,404.9 87.8,400 		"/>
	</g>
	<path class="st2" d="M284.6,387.7c-0.1,0-0.2,0-0.3,0.1l-25.2,9.6c-0.7,0.3-0.7,1.3,0,1.5l5.8,2l3.5,7.1c0,0,0,0,0,0l0,0l0,0
		c0.1,0.1,0.2,0.2,0.3,0.2c0.1,0,0.2,0,0.2-0.1l3.3-2.8l-3.7-2.8l0.3,3.7l-2.6-5.5l14.1-8.5l-11.7,10.3l9.1,6.9
		c0.3,0.2,0.7,0.3,1,0.3c0.7,0,1.4-0.5,1.6-1.3l4.9-19.7C285.5,388.1,285.1,387.7,284.6,387.7z"/>
	<g>
		<path class="st6" d="M168.7,407.8h19.7c0.6,0,1-0.5,1-1v-16.3c0-0.5-0.4-1-1-1h-19.7c-0.5,0-1,0.5-1,1v16.3
			C167.7,407.3,168.1,407.8,168.7,407.8z"/>
		<polyline class="st6" points="167.7,406.8 176.8,395 188.4,407.8 		"/>
		<polyline class="st6" points="180.5,399.1 183.7,395 189.4,401.3 		"/>
	</g>
	<g>
		<circle class="st6" cx="224.4" cy="398.7" r="10.5"/>
		<path class="st6" d="M230.9,398.7c0,3.6-2.9,6.4-6.4,6.4c-3.6,0-6.4-2.9-6.4-6.4"/>
		<circle class="st2" cx="221" cy="394.5" r="1.7"/>
		<circle class="st2" cx="228.1" cy="394.5" r="1.7"/>
	</g>
	<g>
		<g>
			<path class="st0" d="M66.6,323c-2-0.1-3,5.9-3.5,5.6c-0.1-0.1-1.5-0.2-2.2-0.2s-1.9,0.2-2,0.2c-0.6,0.3-1.5-5.7-3.5-5.6
				c-2,0.1-5,13.6-5,15.9c0,5.9,6.9,6.9,10.4,7.1c0,0,0.3,0,0.3,0c3.5-0.2,10.4-1.2,10.4-7.1C71.6,336.6,68.6,323.1,66.6,323z
				 M54.8,334.2c0-0.8,0.6-1.4,1.4-1.4c0.8,0,1.4,0.6,1.4,1.4s-0.6,1.4-1.4,1.4C55.4,335.6,54.8,335,54.8,334.2z M64.9,341.8
				c-0.5,0.3-1,0.4-1.6,0.4c-0.5,0-1.1-0.1-1.5-0.4c-0.3-0.2-0.6-0.5-0.9-0.9c-0.3,0.5-0.6,0.8-0.9,0.9c-0.5,0.3-1,0.4-1.5,0.4
				c-0.5,0-1.1-0.1-1.6-0.4c-0.2-0.1-0.3-0.4-0.2-0.7c0.1-0.2,0.4-0.3,0.7-0.2c0.7,0.4,1.5,0.4,2.1,0c0.6-0.4,0.9-1.2,0.9-2.3
				c-0.2-0.1-0.4-0.3-0.5-0.5l-0.4-0.6c-0.6-0.9-0.2-1.7,0.9-1.7h1c1.1,0,1.5,0.8,0.9,1.7l-0.4,0.6c-0.2,0.3-0.3,0.4-0.5,0.5
				c0,1.1,0.3,1.9,0.9,2.3c0.6,0.4,1.4,0.4,2.1,0c0.2-0.1,0.5,0,0.7,0.2C65.3,341.4,65.2,341.7,64.9,341.8z M65.8,335.6
				c-0.8,0-1.4-0.6-1.4-1.4s0.6-1.4,1.4-1.4s1.4,0.6,1.4,1.4S66.5,335.6,65.8,335.6z"/>
		</g>
		<g>
			<g>
				<path class="st2" d="M62,289.2c-0.6,0.9-1.5,0.9-2.1,0l-0.4-0.6c-0.6-0.9-0.2-1.7,0.9-1.7h1c1.1,0,1.5,0.8,0.9,1.7L62,289.2z"/>
			</g>
			<path class="st7" d="M71.6,290.1c0-2.3-2.9-15.8-5-15.9c-2-0.1-3,5.9-3.5,5.6c-0.1-0.1-1.5-0.2-2.2-0.2s-1.9,0.2-2,0.2
				c-0.6,0.3-1.5-5.7-3.5-5.6c-2,0.1-5,13.6-5,15.9c0,5.9,6.9,6.9,10.4,7.1c0,0,0.3,0,0.3,0C64.7,297,71.6,296,71.6,290.1z"/>
			<g>
				<path class="st8" d="M61,289.5c0.2,3.1-2,3.9-3.7,3"/>
				<path class="st8" d="M61,289.5c-0.2,3.1,2,3.9,3.7,3"/>
			</g>
			<g>
				<ellipse class="st2" cx="56.2" cy="285.4" rx="1.4" ry="1.4"/>
				<ellipse class="st2" cx="65.8" cy="285.4" rx="1.4" ry="1.4"/>
			</g>
		</g>
	</g>
	<g>
		<g>
			<path class="st0" d="M23.2,322c-1.6-0.1-2.9,1-3.8,1.8c-1.4-1-2.9-1.5-4.2-1.5c-0.1,0-0.4,0-0.5,0c-1.3,0-2.8,0.5-4.2,1.5
				C9.7,323,8.4,322,6.8,322c-3.4,0.1-6.9,5.9-5,6.7c1,0.5,3.3,0.3,5.3-0.4c-0.4,1.1-0.7,2.4-0.9,3.8c-0.3,3.9-2.4,6.6-0.9,10.6
				c0.8,2.1,3.6,4.2,9.1,4.2l0-4.2c-0.4-0.1-0.8-0.5-1.1-1l-1.1-1.7c-0.9-1.4-0.2-2.5,1.4-2.5h2.5c1.6,0,2.3,1.1,1.4,2.5l-1.1,1.7
				c-0.3,0.5-0.7,0.8-1.1,1l0,4.2c5.5,0.1,8.4-2.1,9.1-4.2c1.5-4-0.6-6.7-0.9-10.6c-0.1-1.4-0.4-2.7-0.9-3.8c2,0.7,4.3,0.9,5.3,0.4
				C30.1,327.9,26.6,322.1,23.2,322z M10.5,332.4c-0.8,0-1.4-0.6-1.4-1.4s0.6-1.4,1.4-1.4s1.4,0.6,1.4,1.4S11.3,332.4,10.5,332.4z
				 M19.4,332.4c-0.8,0-1.4-0.6-1.4-1.4s0.6-1.4,1.4-1.4c0.8,0,1.4,0.6,1.4,1.4S20.2,332.4,19.4,332.4z"/>
		</g>
		<g>
			<g>
				<path class="st7" d="M10.5,274.9c-0.8-0.8-2.2-1.8-3.8-1.8c-3.4,0.1-6.9,5.9-5,6.7c1,0.5,3.3,0.3,5.3-0.4"/>
				<path class="st7" d="M22.8,279.5c2,0.7,4.3,0.9,5.3,0.4c2-0.9-1.5-6.6-5-6.7c-1.6-0.1-2.9,1-3.8,1.8"/>
			</g>
			<path class="st7" d="M23.7,283.4c-0.5-6.8-5.2-9.9-8.5-9.9c-0.1,0-0.4,0-0.5,0c-3.3,0-7.9,3.1-8.5,9.9c-0.3,3.9-2.4,6.6-0.9,10.6
				c0.8,2.1,3.7,4.3,9.4,4.2c0.1,0,0.2,0,0.3,0c0.1,0,0.2,0,0.3,0c5.7,0.1,8.6-2,9.4-4.2C26.1,290,24,287.3,23.7,283.4z"/>
			<g>
				<path class="st2" d="M16.5,293c-0.9,1.4-2.3,1.4-3.2,0l-1.1-1.7c-0.9-1.4-0.2-2.5,1.4-2.5h2.5c1.6,0,2.3,1.1,1.4,2.5L16.5,293z"
					/>
			</g>
			<line class="st9" x1="15" y1="291.9" x2="15" y2="298.2"/>
			<g>
				<ellipse class="st2" cx="10.5" cy="282.1" rx="1.4" ry="1.4"/>
				<ellipse class="st2" cx="19.4" cy="282.1" rx="1.4" ry="1.4"/>
			</g>
		</g>
	</g>
	<g>
		<path class="st2" d="M137.8,403.6h-8.5c-1.1,0-2-0.9-2-2v-10.6c0-1.1,0.9-2,2-2h8.5c1.1,0,2,0.9,2,2v10.6
			C139.8,402.7,138.9,403.6,137.8,403.6z"/>
		<path class="st2" d="M142,408.4h-17c-1.1,0-2-0.9-2-2V395c0-1.1,0.9-2,2-2h17c1.1,0,2,0.9,2,2v11.4
			C144,407.5,143.2,408.4,142,408.4z"/>
		<ellipse class="st10" cx="133.5" cy="400.2" rx="4.5" ry="4.5"/>
	</g>
	<path class="st0" d="M178.3,332.6l-14.1-9.9c-0.8-0.6-2-0.6-2.8,0l-14.1,9.9c-0.5,0.3-0.6,0.9-0.2,1.4c0.3,0.5,0.9,0.6,1.4,0.2
		l2.6-1.8v12.4c0,1.1,0.9,2,1.9,2h6.3v-6.3c0-2,1.6-3.7,3.5-3.7s3.5,1.7,3.5,3.7v6.3h6.3c1.1,0,1.9-0.9,1.9-2v-12.3l2.5,1.8
		c0.2,0.1,0.4,0.2,0.6,0.2c0.3,0,0.6-0.1,0.8-0.4C178.9,333.5,178.8,332.9,178.3,332.6z"/>
	<g>
		<g>
			<path class="st11" d="M147.8,284.6l14.1-9.9c0.5-0.3,1.2-0.3,1.6,0l14.1,9.9"/>
		</g>
		<path class="st11" d="M152,282.6V296c0,0.5,0.4,1,0.9,1h5.3v-5.3c0-2.6,2-4.7,4.5-4.7c2.5,0,4.5,2.1,4.5,4.7v5.3h5.3
			c0.5,0,0.9-0.4,0.9-1v-13.3"/>
	</g>
	<g>
		<g>
			<path class="st0" d="M139.5,354.3c0.2-0.3,0.4-0.6,0.7-0.7s0.6-0.3,1-0.3c0.6,0,1,0.2,1.3,0.5s0.4,0.8,0.4,1.4v3.5h-0.6v-3.5
				c0-0.5-0.1-0.8-0.3-1.1c-0.2-0.2-0.5-0.3-0.9-0.3c-0.4,0-0.7,0.1-1,0.3c-0.3,0.2-0.5,0.5-0.6,0.9v3.6H139v-7.5h0.6V354.3z"/>
			<path class="st0" d="M144.1,355.9c0-0.5,0.1-1,0.3-1.4c0.2-0.4,0.5-0.7,0.8-0.9c0.4-0.2,0.8-0.3,1.2-0.3c0.7,0,1.3,0.2,1.7,0.7
				c0.4,0.5,0.7,1.1,0.7,2v0.1c0,0.5-0.1,1-0.3,1.4c-0.2,0.4-0.5,0.7-0.8,0.9s-0.8,0.3-1.2,0.3c-0.7,0-1.3-0.2-1.7-0.7
				c-0.4-0.5-0.7-1.1-0.7-2V355.9z M144.7,356.1c0,0.6,0.2,1.2,0.5,1.6c0.3,0.4,0.8,0.6,1.3,0.6c0.5,0,1-0.2,1.3-0.6
				c0.3-0.4,0.5-0.9,0.5-1.6v-0.1c0-0.4-0.1-0.8-0.2-1.1s-0.4-0.6-0.6-0.8c-0.3-0.2-0.6-0.3-0.9-0.3c-0.5,0-0.9,0.2-1.3,0.6
				c-0.3,0.4-0.5,0.9-0.5,1.6V356.1z"/>
			<path class="st0" d="M150.6,353.4l0,0.9c0.2-0.3,0.4-0.6,0.7-0.7s0.6-0.2,1-0.2c0.8,0,1.4,0.3,1.6,1c0.2-0.3,0.4-0.6,0.8-0.8
				c0.3-0.2,0.7-0.3,1-0.3c1.1,0,1.7,0.6,1.7,1.9v3.5h-0.6v-3.5c0-0.5-0.1-0.8-0.3-1c-0.2-0.2-0.5-0.3-1-0.3c-0.4,0-0.8,0.1-1.1,0.4
				c-0.3,0.3-0.5,0.6-0.5,1v3.5h-0.6v-3.5c0-0.5-0.1-0.8-0.3-1c-0.2-0.2-0.5-0.3-1-0.3c-0.4,0-0.7,0.1-0.9,0.3
				c-0.3,0.2-0.5,0.5-0.6,0.9v3.6H150v-5.3H150.6z"/>
			<path class="st0" d="M161,358.8c-0.4,0-0.9-0.1-1.2-0.3c-0.4-0.2-0.6-0.5-0.8-0.9c-0.2-0.4-0.3-0.8-0.3-1.3V356
				c0-0.5,0.1-1,0.3-1.4c0.2-0.4,0.5-0.7,0.8-1c0.4-0.2,0.7-0.3,1.1-0.3c0.6,0,1.1,0.2,1.5,0.7c0.4,0.4,0.6,1,0.6,1.8v0.3h-3.8v0.1
				c0,0.6,0.2,1.1,0.5,1.5c0.3,0.4,0.8,0.6,1.3,0.6c0.3,0,0.6-0.1,0.8-0.2c0.2-0.1,0.5-0.3,0.7-0.5l0.4,0.3
				C162.4,358.4,161.8,358.8,161,358.8z M160.8,353.8c-0.4,0-0.8,0.2-1.1,0.5c-0.3,0.3-0.5,0.8-0.5,1.3h3.2v-0.1
				c0-0.5-0.2-0.9-0.4-1.2S161.3,353.8,160.8,353.8z"/>
			<path class="st0" d="M170.8,356.1c0,0.8-0.2,1.5-0.5,2c-0.4,0.5-0.9,0.7-1.5,0.7c-0.7,0-1.3-0.3-1.7-0.8v2.7h-0.6v-7.3h0.5l0,0.7
				c0.4-0.6,0.9-0.8,1.7-0.8c0.6,0,1.1,0.2,1.5,0.7C170.6,354.5,170.8,355.1,170.8,356.1L170.8,356.1z M170.2,356
				c0-0.7-0.1-1.2-0.4-1.6s-0.7-0.6-1.2-0.6c-0.4,0-0.7,0.1-0.9,0.3s-0.5,0.4-0.6,0.8v2.5c0.1,0.3,0.3,0.5,0.6,0.7s0.6,0.2,0.9,0.2
				c0.5,0,0.9-0.2,1.2-0.6C170,357.3,170.2,356.7,170.2,356z"/>
			<path class="st0" d="M175.4,358.7c-0.1-0.2-0.1-0.4-0.1-0.7c-0.2,0.3-0.5,0.5-0.8,0.6c-0.3,0.1-0.7,0.2-1,0.2
				c-0.5,0-0.9-0.1-1.2-0.4c-0.3-0.3-0.5-0.6-0.5-1.1c0-0.5,0.2-0.9,0.6-1.2c0.4-0.3,1-0.4,1.8-0.4h1.1V355c0-0.4-0.1-0.7-0.3-0.9
				c-0.2-0.2-0.6-0.3-1-0.3c-0.4,0-0.7,0.1-1,0.3s-0.4,0.5-0.4,0.8l-0.6,0c0-0.4,0.2-0.8,0.6-1.1c0.4-0.3,0.9-0.5,1.4-0.5
				c0.6,0,1.1,0.1,1.4,0.4c0.3,0.3,0.5,0.7,0.5,1.2v2.5c0,0.5,0.1,0.9,0.2,1.1v0.1H175.4z M173.5,358.2c0.4,0,0.7-0.1,1-0.3
				c0.3-0.2,0.5-0.4,0.7-0.8V356h-1c-0.6,0-1,0.1-1.4,0.3c-0.3,0.2-0.5,0.5-0.5,0.9c0,0.3,0.1,0.5,0.3,0.7
				C172.9,358.1,173.2,358.2,173.5,358.2z"/>
			<path class="st0" d="M177.2,356c0-0.8,0.2-1.5,0.5-2c0.4-0.5,0.9-0.7,1.5-0.7c0.7,0,1.3,0.3,1.6,0.9l0-0.8h0.5v5.2
				c0,0.7-0.2,1.2-0.6,1.6s-0.9,0.6-1.5,0.6c-0.4,0-0.7-0.1-1.1-0.2c-0.3-0.2-0.6-0.4-0.8-0.7l0.3-0.4c0.4,0.5,0.9,0.8,1.5,0.8
				c0.5,0,0.9-0.1,1.1-0.4c0.3-0.3,0.4-0.7,0.4-1.2V358c-0.4,0.5-0.9,0.8-1.6,0.8c-0.6,0-1.1-0.2-1.5-0.7S177.2,356.9,177.2,356
				L177.2,356z M177.8,356.1c0,0.7,0.1,1.2,0.4,1.6c0.3,0.4,0.7,0.6,1.1,0.6c0.7,0,1.2-0.3,1.5-1v-2.5c-0.1-0.3-0.3-0.6-0.6-0.8
				c-0.3-0.2-0.6-0.3-0.9-0.3c-0.5,0-0.9,0.2-1.1,0.6C177.9,354.8,177.8,355.3,177.8,356.1z"/>
			<path class="st0" d="M185,358.8c-0.4,0-0.9-0.1-1.2-0.3c-0.4-0.2-0.6-0.5-0.8-0.9c-0.2-0.4-0.3-0.8-0.3-1.3V356
				c0-0.5,0.1-1,0.3-1.4c0.2-0.4,0.5-0.7,0.8-1c0.4-0.2,0.7-0.3,1.1-0.3c0.6,0,1.1,0.2,1.5,0.7c0.4,0.4,0.6,1,0.6,1.8v0.3h-3.8v0.1
				c0,0.6,0.2,1.1,0.5,1.5c0.3,0.4,0.8,0.6,1.3,0.6c0.3,0,0.6-0.1,0.8-0.2c0.2-0.1,0.5-0.3,0.7-0.5l0.4,0.3
				C186.4,358.4,185.8,358.8,185,358.8z M184.9,353.8c-0.4,0-0.8,0.2-1.1,0.5c-0.3,0.3-0.5,0.8-0.5,1.3h3.2v-0.1
				c0-0.5-0.2-0.9-0.4-1.2S185.3,353.8,184.9,353.8z"/>
		</g>
	</g>
	<g>
		<g>
			<path id="Path_256_5_" class="st0" d="M229.9,330.8c-3,2.5-5.4,5.6-7,9.2c-1.6,4.2,1.5,6.2,3.8,6.2c2.7,0,6.7-2.4,11-0.6
				c4.4,1.8,7.2-0.6,6.4-4.8c-0.7-3.6-3.7-7.7-6.4-9.8C235.5,329.2,232.3,329.1,229.9,330.8z"/>
			
				<ellipse id="Ellipse_246_7_" transform="matrix(0.9352 -0.3541 0.3541 0.9352 -102.5114 100.7942)" class="st0" cx="224.2" cy="330.5" rx="2.3" ry="3.3"/>
			
				<ellipse id="Ellipse_247_7_" transform="matrix(0.9846 -0.1747 0.1747 0.9846 -53.4156 45.2228)" class="st0" cx="230.2" cy="326" rx="2.3" ry="3.3"/>
			
				<ellipse id="Ellipse_248_7_" transform="matrix(0.3541 -0.9352 0.9352 0.3541 -151.9376 441.0759)" class="st0" cx="243.3" cy="330.5" rx="3.3" ry="2.3"/>
			
				<ellipse id="Ellipse_249_7_" transform="matrix(0.1747 -0.9846 0.9846 0.1747 -125.0055 502.9136)" class="st0" cx="237.5" cy="326" rx="3.3" ry="2.3"/>
		</g>
		<g id="Group_246_4_">
			<line id="Line_4_4_" class="st12" x1="229.1" y1="337.8" x2="238.1" y2="337.8"/>
			<line id="Line_5_4_" class="st12" x1="233.6" y1="342.2" x2="233.6" y2="333.3"/>
		</g>
	</g>
	<g>
		<path id="Path_256_4_" class="st11" d="M230.1,281.4c-3,2.5-5.4,5.6-7,9.2c-1.6,4.2,1.5,6.2,3.8,6.2c2.7,0,6.7-2.4,11-0.6
			c4.4,1.8,7.2-0.6,6.4-4.8c-0.7-3.6-3.7-7.7-6.4-9.8C235.6,279.9,232.4,279.8,230.1,281.4z"/>
		
			<ellipse id="Ellipse_246_6_" transform="matrix(0.9352 -0.3541 0.3541 0.9352 -85.0393 97.6368)" class="st2" cx="224.3" cy="281.2" rx="2.3" ry="3.3"/>
		
			<ellipse id="Ellipse_247_6_" transform="matrix(0.9846 -0.1747 0.1747 0.9846 -44.7969 44.4831)" class="st2" cx="230.3" cy="276.7" rx="2.3" ry="3.3"/>
		
			<ellipse id="Ellipse_248_6_" transform="matrix(0.3541 -0.9352 0.9352 0.3541 -105.7382 409.3164)" class="st2" cx="243.5" cy="281.2" rx="3.3" ry="2.3"/>
		
			<ellipse id="Ellipse_249_6_" transform="matrix(0.1747 -0.9846 0.9846 0.1747 -76.3498 462.3112)" class="st2" cx="237.6" cy="276.7" rx="3.3" ry="2.3"/>
		<g id="Group_246_1_">
			<line id="Line_4_1_" class="st13" x1="229.2" y1="288.4" x2="238.2" y2="288.4"/>
			<line id="Line_5_1_" class="st13" x1="233.7" y1="292.9" x2="233.7" y2="284"/>
		</g>
	</g>
	<g>
		<g>
			<path class="st0" d="M211.1,358.7c-0.1-0.2-0.1-0.4-0.1-0.7c-0.2,0.3-0.5,0.5-0.8,0.6c-0.3,0.1-0.7,0.2-1,0.2
				c-0.5,0-0.9-0.1-1.2-0.4c-0.3-0.3-0.5-0.6-0.5-1.1c0-0.5,0.2-0.9,0.6-1.2c0.4-0.3,1-0.4,1.8-0.4h1.1V355c0-0.4-0.1-0.7-0.3-0.9
				c-0.2-0.2-0.6-0.3-1-0.3c-0.4,0-0.7,0.1-1,0.3s-0.4,0.5-0.4,0.8l-0.6,0c0-0.4,0.2-0.8,0.6-1.1c0.4-0.3,0.9-0.5,1.4-0.5
				c0.6,0,1.1,0.1,1.4,0.4c0.3,0.3,0.5,0.7,0.5,1.2v2.5c0,0.5,0.1,0.9,0.2,1.1v0.1H211.1z M209.3,358.2c0.4,0,0.7-0.1,1-0.3
				c0.3-0.2,0.5-0.4,0.7-0.8V356h-1c-0.6,0-1,0.1-1.4,0.3c-0.3,0.2-0.5,0.5-0.5,0.9c0,0.3,0.1,0.5,0.3,0.7
				C208.7,358.1,208.9,358.2,209.3,358.2z"/>
			<path class="st0" d="M212.9,356c0-0.8,0.2-1.5,0.5-2c0.4-0.5,0.9-0.7,1.5-0.7c0.7,0,1.3,0.3,1.6,0.8v-3h0.6v7.5h-0.5l0-0.7
				c-0.4,0.5-0.9,0.8-1.7,0.8c-0.6,0-1.1-0.2-1.5-0.7C213.1,357.5,212.9,356.9,212.9,356L212.9,356z M213.5,356.1
				c0,0.7,0.1,1.2,0.4,1.6c0.3,0.4,0.7,0.6,1.1,0.6c0.7,0,1.2-0.3,1.5-1v-2.5c-0.3-0.7-0.8-1-1.5-1c-0.5,0-0.9,0.2-1.1,0.6
				C213.7,354.8,213.5,355.3,213.5,356.1z"/>
			<path class="st0" d="M218.5,356c0-0.8,0.2-1.5,0.5-2c0.4-0.5,0.9-0.7,1.5-0.7c0.7,0,1.3,0.3,1.6,0.8v-3h0.6v7.5h-0.5l0-0.7
				c-0.4,0.5-0.9,0.8-1.7,0.8c-0.6,0-1.1-0.2-1.5-0.7C218.7,357.5,218.5,356.9,218.5,356L218.5,356z M219.1,356.1
				c0,0.7,0.1,1.2,0.4,1.6c0.3,0.4,0.7,0.6,1.1,0.6c0.7,0,1.2-0.3,1.5-1v-2.5c-0.3-0.7-0.8-1-1.5-1c-0.5,0-0.9,0.2-1.1,0.6
				C219.2,354.8,219.1,355.3,219.1,356.1z"/>
			<path class="st0" d="M227.3,353.4l0,0.9c0.2-0.3,0.4-0.6,0.7-0.7c0.3-0.2,0.6-0.3,1-0.3c0.6,0,1,0.2,1.3,0.5s0.4,0.8,0.4,1.4v3.5
				h-0.6v-3.5c0-0.5-0.1-0.8-0.3-1.1c-0.2-0.2-0.5-0.3-0.9-0.3c-0.4,0-0.7,0.1-1,0.3c-0.3,0.2-0.5,0.5-0.6,0.9v3.6h-0.6v-5.3H227.3z
				"/>
			<path class="st0" d="M234.2,358.8c-0.4,0-0.9-0.1-1.2-0.3c-0.4-0.2-0.6-0.5-0.8-0.9c-0.2-0.4-0.3-0.8-0.3-1.3V356
				c0-0.5,0.1-1,0.3-1.4c0.2-0.4,0.5-0.7,0.8-1c0.4-0.2,0.7-0.3,1.1-0.3c0.6,0,1.1,0.2,1.5,0.7c0.4,0.4,0.6,1,0.6,1.8v0.3h-3.8v0.1
				c0,0.6,0.2,1.1,0.5,1.5c0.3,0.4,0.8,0.6,1.3,0.6c0.3,0,0.6-0.1,0.8-0.2c0.2-0.1,0.5-0.3,0.7-0.5l0.4,0.3
				C235.7,358.4,235.1,358.8,234.2,358.8z M234.1,353.8c-0.4,0-0.8,0.2-1.1,0.5c-0.3,0.3-0.5,0.8-0.5,1.3h3.2v-0.1
				c0-0.5-0.2-0.9-0.4-1.2S234.6,353.8,234.1,353.8z"/>
			<path class="st0" d="M238.6,357.4l0.1,0.5l0.1-0.5l1.3-4h0.5l1.3,4l0.1,0.6l0.1-0.5l1.1-4.1h0.6l-1.5,5.3h-0.5l-1.4-4.2l-0.1-0.3
				l-0.1,0.3l-1.3,4.2h-0.5l-1.5-5.3h0.6L238.6,357.4z"/>
			<path class="st0" d="M251.6,356.1c0,0.8-0.2,1.5-0.5,2c-0.4,0.5-0.9,0.7-1.5,0.7c-0.7,0-1.3-0.3-1.7-0.8v2.7h-0.6v-7.3h0.5l0,0.7
				c0.4-0.6,0.9-0.8,1.7-0.8c0.6,0,1.1,0.2,1.5,0.7C251.4,354.5,251.6,355.1,251.6,356.1L251.6,356.1z M251,356
				c0-0.7-0.1-1.2-0.4-1.6s-0.7-0.6-1.2-0.6c-0.4,0-0.7,0.1-0.9,0.3s-0.5,0.4-0.6,0.8v2.5c0.1,0.3,0.3,0.5,0.6,0.7s0.6,0.2,0.9,0.2
				c0.5,0,0.9-0.2,1.2-0.6C250.9,357.3,251,356.7,251,356z"/>
			<path class="st0" d="M254.9,358.8c-0.4,0-0.9-0.1-1.2-0.3c-0.4-0.2-0.6-0.5-0.8-0.9c-0.2-0.4-0.3-0.8-0.3-1.3V356
				c0-0.5,0.1-1,0.3-1.4c0.2-0.4,0.5-0.7,0.8-1c0.4-0.2,0.7-0.3,1.1-0.3c0.6,0,1.1,0.2,1.5,0.7c0.4,0.4,0.6,1,0.6,1.8v0.3h-3.8v0.1
				c0,0.6,0.2,1.1,0.5,1.5c0.3,0.4,0.8,0.6,1.3,0.6c0.3,0,0.6-0.1,0.8-0.2c0.2-0.1,0.5-0.3,0.7-0.5l0.4,0.3
				C256.4,358.4,255.7,358.8,254.9,358.8z M254.8,353.8c-0.4,0-0.8,0.2-1.1,0.5c-0.3,0.3-0.5,0.8-0.5,1.3h3.2v-0.1
				c0-0.5-0.2-0.9-0.4-1.2S255.3,353.8,254.8,353.8z"/>
			<path class="st0" d="M258.9,352v1.4h1.1v0.5h-1.1v3.5c0,0.3,0.1,0.5,0.2,0.7c0.1,0.1,0.3,0.2,0.5,0.2c0.1,0,0.3,0,0.5,0l0,0.5
				c-0.2,0.1-0.4,0.1-0.6,0.1c-0.4,0-0.7-0.1-0.9-0.3c-0.2-0.2-0.3-0.6-0.3-1v-3.5h-1v-0.5h1V352H258.9z"/>
		</g>
	</g>
	<g>
		<path class="st2" d="M305.4,295.4h-13.9c-1.1,0-2-0.9-2-2v-17c0-1.1,0.9-2,2-2h13.9c1.1,0,2,0.9,2,2v17
			C307.4,294.5,306.5,295.4,305.4,295.4z"/>
		<rect x="290.6" y="279.3" class="st14" width="22.9" height="16.8"/>
		<g>
			<path id="Path_256_6_" class="st2" d="M299.7,287c-1.9,1.6-3.4,3.6-4.4,5.8c-1,2.7,1,3.9,2.4,3.9c1.7,0,4.2-1.5,6.9-0.4
				c2.8,1.1,4.5-0.4,4-3c-0.5-2.3-2.3-4.8-4-6.2C303.1,286,301.2,286,299.7,287z"/>
			
				<ellipse id="Ellipse_246_11_" transform="matrix(0.9356 -0.353 0.353 0.9356 -82.2076 122.9773)" class="st2" cx="296" cy="286.9" rx="1.4" ry="2.1"/>
			
				<ellipse id="Ellipse_247_11_" transform="matrix(0.9847 -0.1741 0.1741 0.9847 -44.8712 56.5415)" class="st2" cx="299.8" cy="284" rx="1.4" ry="2.1"/>
			
				<ellipse id="Ellipse_248_11_" transform="matrix(0.353 -0.9356 0.9356 0.353 -69.0317 473.8749)" class="st2" cx="308.1" cy="286.9" rx="2.1" ry="1.4"/>
			
				<ellipse id="Ellipse_249_11_" transform="matrix(0.1741 -0.9847 0.9847 0.1741 -28.237 534.3356)" class="st2" cx="304.4" cy="284" rx="2.1" ry="1.4"/>
		</g>
	</g>
	<g>
		<path class="st0" d="M305.4,344.2h-13.9c-1.1,0-2-0.9-2-2v-17c0-1.1,0.9-2,2-2h13.9c1.1,0,2,0.9,2,2v17
			C307.4,343.3,306.5,344.2,305.4,344.2z"/>
		<rect x="290.6" y="328.1" class="st15" width="22.9" height="16.8"/>
		<g>
			<path id="Path_256_13_" class="st0" d="M299.7,335.8c-1.9,1.6-3.4,3.6-4.4,5.8c-1,2.7,1,3.9,2.4,3.9c1.7,0,4.2-1.5,6.9-0.4
				c2.8,1.1,4.5-0.4,4-3c-0.5-2.3-2.3-4.8-4-6.2C303.1,334.9,301.2,334.8,299.7,335.8z"/>
			
				<ellipse id="Ellipse_246_15_" transform="matrix(0.9356 -0.353 0.353 0.9356 -99.4445 126.1211)" class="st0" cx="296" cy="335.7" rx="1.4" ry="2.1"/>
			
				<ellipse id="Ellipse_247_15_" transform="matrix(0.9847 -0.1741 0.1741 0.9847 -53.3728 57.2874)" class="st0" cx="299.8" cy="332.8" rx="1.4" ry="2.1"/>
			
				<ellipse id="Ellipse_248_15_" transform="matrix(0.353 -0.9356 0.9356 0.353 -114.7132 505.4633)" class="st0" cx="308.1" cy="335.7" rx="2.1" ry="1.4"/>
			
				<ellipse id="Ellipse_249_15_" transform="matrix(0.1741 -0.9847 0.9847 0.1741 -76.3165 574.6593)" class="st0" cx="304.4" cy="332.8" rx="2.1" ry="1.4"/>
		</g>
	</g>
	<g>
		<g>
			<path class="st0" d="M285.2,356.1c0,0.8-0.2,1.5-0.5,2c-0.4,0.5-0.9,0.7-1.5,0.7c-0.7,0-1.3-0.3-1.7-0.8v2.7h-0.6v-7.3h0.5l0,0.7
				c0.4-0.6,0.9-0.8,1.7-0.8c0.6,0,1.1,0.2,1.5,0.7C285,354.5,285.2,355.1,285.2,356.1L285.2,356.1z M284.6,356
				c0-0.7-0.1-1.2-0.4-1.6c-0.3-0.4-0.7-0.6-1.2-0.6c-0.4,0-0.7,0.1-0.9,0.3c-0.3,0.2-0.5,0.4-0.6,0.8v2.5c0.1,0.3,0.3,0.5,0.6,0.7
				c0.3,0.2,0.6,0.2,0.9,0.2c0.5,0,0.9-0.2,1.2-0.6C284.5,357.3,284.6,356.7,284.6,356z"/>
			<path class="st0" d="M288.5,358.8c-0.4,0-0.9-0.1-1.2-0.3s-0.6-0.5-0.8-0.9c-0.2-0.4-0.3-0.8-0.3-1.3V356c0-0.5,0.1-1,0.3-1.4
				c0.2-0.4,0.5-0.7,0.8-1c0.4-0.2,0.7-0.3,1.1-0.3c0.6,0,1.1,0.2,1.5,0.7c0.4,0.4,0.6,1,0.6,1.8v0.3h-3.8v0.1
				c0,0.6,0.2,1.1,0.5,1.5c0.3,0.4,0.8,0.6,1.3,0.6c0.3,0,0.6-0.1,0.8-0.2c0.2-0.1,0.5-0.3,0.7-0.5l0.4,0.3
				C290,358.4,289.3,358.8,288.5,358.8z M288.4,353.8c-0.4,0-0.8,0.2-1.1,0.5s-0.5,0.8-0.5,1.3h3.2v-0.1c0-0.5-0.2-0.9-0.4-1.2
				S288.9,353.8,288.4,353.8z"/>
			<path class="st0" d="M292.6,352v1.4h1.1v0.5h-1.1v3.5c0,0.3,0.1,0.5,0.2,0.7c0.1,0.1,0.3,0.2,0.5,0.2c0.1,0,0.3,0,0.5,0l0,0.5
				c-0.2,0.1-0.4,0.1-0.6,0.1c-0.4,0-0.7-0.1-0.9-0.3c-0.2-0.2-0.3-0.6-0.3-1v-3.5h-1v-0.5h1V352H292.6z"/>
			<path class="st0" d="M301.5,356.1c0,0.8-0.2,1.5-0.5,2c-0.4,0.5-0.9,0.7-1.5,0.7c-0.7,0-1.3-0.3-1.7-0.8v2.7h-0.6v-7.3h0.5l0,0.7
				c0.4-0.6,0.9-0.8,1.7-0.8c0.6,0,1.1,0.2,1.5,0.7S301.5,355.1,301.5,356.1L301.5,356.1z M300.9,356c0-0.7-0.1-1.2-0.4-1.6
				c-0.3-0.4-0.7-0.6-1.2-0.6c-0.4,0-0.7,0.1-0.9,0.3c-0.3,0.2-0.5,0.4-0.6,0.8v2.5c0.1,0.3,0.3,0.5,0.6,0.7
				c0.3,0.2,0.6,0.2,0.9,0.2c0.5,0,0.9-0.2,1.2-0.6C300.8,357.3,300.9,356.7,300.9,356z"/>
			<path class="st0" d="M305.3,353.9c-0.1,0-0.3,0-0.4,0c-0.4,0-0.7,0.1-0.9,0.3c-0.3,0.2-0.4,0.5-0.5,0.9v3.6h-0.6v-5.3h0.6l0,0.8
				c0.3-0.6,0.8-0.9,1.5-0.9c0.2,0,0.3,0,0.4,0.1L305.3,353.9z"/>
			<path class="st0" d="M305.8,355.9c0-0.5,0.1-1,0.3-1.4c0.2-0.4,0.5-0.7,0.8-0.9c0.4-0.2,0.8-0.3,1.2-0.3c0.7,0,1.3,0.2,1.7,0.7
				c0.4,0.5,0.7,1.1,0.7,2v0.1c0,0.5-0.1,1-0.3,1.4c-0.2,0.4-0.5,0.7-0.8,0.9c-0.4,0.2-0.8,0.3-1.2,0.3c-0.7,0-1.3-0.2-1.7-0.7
				c-0.4-0.5-0.7-1.1-0.7-2V355.9z M306.4,356.1c0,0.6,0.2,1.2,0.5,1.6c0.3,0.4,0.8,0.6,1.3,0.6c0.5,0,1-0.2,1.3-0.6
				c0.3-0.4,0.5-0.9,0.5-1.6v-0.1c0-0.4-0.1-0.8-0.2-1.1c-0.2-0.3-0.4-0.6-0.6-0.8c-0.3-0.2-0.6-0.3-0.9-0.3c-0.5,0-0.9,0.2-1.3,0.6
				c-0.3,0.4-0.5,0.9-0.5,1.6V356.1z"/>
			<path class="st0" d="M312.1,358.7v-4.8h-0.9v-0.5h0.9v-0.6c0-0.5,0.1-1,0.4-1.2s0.7-0.4,1.2-0.4c0.2,0,0.4,0,0.6,0.1l0,0.5
				c-0.2,0-0.3-0.1-0.5-0.1c-0.3,0-0.6,0.1-0.8,0.3c-0.2,0.2-0.3,0.5-0.3,0.9v0.7h1.3v0.5h-1.3v4.8H312.1z"/>
			<path class="st0" d="M315,351.9c0-0.1,0-0.2,0.1-0.3c0.1-0.1,0.2-0.1,0.3-0.1c0.1,0,0.2,0,0.3,0.1c0.1,0.1,0.1,0.2,0.1,0.3
				c0,0.1,0,0.2-0.1,0.3c-0.1,0.1-0.2,0.1-0.3,0.1c-0.1,0-0.2,0-0.3-0.1C315,352.1,315,352,315,351.9z M315.7,358.7h-0.6v-5.3h0.6
				V358.7z"/>
			<path class="st0" d="M317.9,358.7h-0.6v-7.5h0.6V358.7z"/>
			<path class="st0" d="M321.5,358.8c-0.4,0-0.9-0.1-1.2-0.3c-0.4-0.2-0.6-0.5-0.8-0.9c-0.2-0.4-0.3-0.8-0.3-1.3V356
				c0-0.5,0.1-1,0.3-1.4s0.5-0.7,0.8-1c0.4-0.2,0.7-0.3,1.1-0.3c0.6,0,1.2,0.2,1.5,0.7c0.4,0.4,0.6,1,0.6,1.8v0.3h-3.8v0.1
				c0,0.6,0.2,1.1,0.5,1.5c0.3,0.4,0.8,0.6,1.3,0.6c0.3,0,0.6-0.1,0.8-0.2c0.2-0.1,0.5-0.3,0.7-0.5l0.4,0.3
				C323,358.4,322.4,358.8,321.5,358.8z M321.4,353.8c-0.4,0-0.8,0.2-1.1,0.5c-0.3,0.3-0.5,0.8-0.6,1.3h3.2v-0.1
				c0-0.5-0.2-0.9-0.4-1.2S321.9,353.8,321.4,353.8z"/>
		</g>
	</g>
	<g>
		<g>
			<path class="st11" d="M115.8,275.2H94.9c-1.7,0-2.2,1.1-1.2,2.4l8.1,10.6v7c0,0.6,0.5,1,1,1h5c0.6,0,1-0.5,1-1v-7l8.1-10.6
				C118,276.3,117.5,275.2,115.8,275.2z"/>
			<g>
				<defs>
					<path id="SVGID_1_" d="M115.8,275.2H94.9c-1.7,0-2.2,1.1-1.2,2.4l8.1,10.6v7c0,0.6,0.5,1,1,1h5c0.6,0,1-0.5,1-1v-7l8.1-10.6
						C118,276.3,117.5,275.2,115.8,275.2z"/>
				</defs>
				<clipPath id="SVGID_2_">
					<use xlink:href="#SVGID_1_"  style="overflow:visible;"/>
				</clipPath>
				<g class="st16">
					<path id="Path_256_12_" class="st2" d="M105.5,280.8c-1,1.7-1.6,3.5-1.7,5.5c0,2.2,1.8,2.6,2.8,2.3c1.3-0.5,2.7-2.2,5-2.1
						c2.3,0.1,3.2-1.5,2.2-3.3c-0.9-1.6-3-2.9-4.6-3.5C107.8,279.2,106.3,279.6,105.5,280.8z"/>
					
						<ellipse id="Ellipse_246_14_" transform="matrix(0.7636 -0.6457 0.6457 0.7636 -157.5562 132.9671)" class="st2" cx="102.8" cy="281.7" rx="1.1" ry="1.6"/>
					
						<ellipse id="Ellipse_247_14_" transform="matrix(0.8697 -0.4937 0.4937 0.8697 -123.8457 88.0596)" class="st2" cx="104.8" cy="278.6" rx="1.1" ry="1.6"/>
					
						<ellipse id="Ellipse_248_14_" transform="matrix(1.630626e-02 -0.9999 0.9999 1.630626e-02 -168.5309 385.5881)" class="st2" cx="111.7" cy="278.4" rx="1.6" ry="1.1"/>
					
						<ellipse id="Ellipse_249_14_" transform="matrix(0.9859 -0.1672 0.1672 0.9859 -44.8537 22.0055)" class="st2" cx="108.2" cy="277.3" rx="1.1" ry="1.6"/>
				</g>
			</g>
		</g>
		<g>
			<g>
				<path class="st0" d="M96.8,358.7v-4.8h-0.9v-0.5h0.9v-0.6c0-0.5,0.1-1,0.4-1.2c0.3-0.3,0.7-0.4,1.2-0.4c0.2,0,0.4,0,0.6,0.1
					l0,0.5c-0.2,0-0.3-0.1-0.5-0.1c-0.3,0-0.6,0.1-0.8,0.3c-0.2,0.2-0.3,0.5-0.3,0.9v0.7h1.3v0.5h-1.3v4.8H96.8z"/>
				<path class="st0" d="M99.6,351.8c0-0.1,0-0.2,0.1-0.3s0.2-0.1,0.3-0.1s0.2,0,0.3,0.1c0.1,0.1,0.1,0.2,0.1,0.3
					c0,0.1,0,0.2-0.1,0.3c-0.1,0.1-0.2,0.1-0.3,0.1s-0.2,0-0.3-0.1S99.6,352,99.6,351.8z M100.3,358.7h-0.6v-5.3h0.6V358.7z"/>
				<path class="st0" d="M102.6,358.7H102v-7.5h0.6V358.7z"/>
				<path class="st0" d="M105.1,352v1.4h1.1v0.5h-1.1v3.5c0,0.3,0.1,0.5,0.2,0.7c0.1,0.1,0.3,0.2,0.5,0.2c0.1,0,0.3,0,0.5,0l0,0.5
					c-0.2,0.1-0.4,0.1-0.6,0.1c-0.4,0-0.7-0.1-0.9-0.3c-0.2-0.2-0.3-0.6-0.3-1v-3.5h-1v-0.5h1V352H105.1z"/>
				<path class="st0" d="M109.4,358.8c-0.4,0-0.9-0.1-1.2-0.3c-0.4-0.2-0.6-0.5-0.8-0.9c-0.2-0.4-0.3-0.8-0.3-1.3V356
					c0-0.5,0.1-1,0.3-1.4c0.2-0.4,0.5-0.7,0.8-1c0.4-0.2,0.7-0.3,1.1-0.3c0.6,0,1.1,0.2,1.5,0.7c0.4,0.4,0.6,1,0.6,1.8v0.3h-3.8v0.1
					c0,0.6,0.2,1.1,0.5,1.5c0.3,0.4,0.8,0.6,1.3,0.6c0.3,0,0.6-0.1,0.8-0.2c0.2-0.1,0.5-0.3,0.7-0.5l0.4,0.3
					C110.9,358.4,110.2,358.8,109.4,358.8z M109.3,353.8c-0.4,0-0.8,0.2-1.1,0.5c-0.3,0.3-0.5,0.8-0.5,1.3h3.2v-0.1
					c0-0.5-0.2-0.9-0.4-1.2S109.8,353.8,109.3,353.8z"/>
				<path class="st0" d="M115,353.9c-0.1,0-0.3,0-0.4,0c-0.4,0-0.7,0.1-0.9,0.3c-0.3,0.2-0.4,0.5-0.5,0.9v3.6h-0.6v-5.3h0.6l0,0.8
					c0.3-0.6,0.8-0.9,1.5-0.9c0.2,0,0.3,0,0.4,0.1L115,353.9z"/>
			</g>
		</g>
		<g>
			<path class="st17" d="M115.8,324H94.9c-1.7,0-2.2,1.1-1.2,2.4l8.1,10.6v7c0,0.6,0.5,1,1,1h5c0.6,0,1-0.5,1-1v-7l8.1-10.6
				C118,325.1,117.5,324,115.8,324z"/>
			<g>
				
					<ellipse id="Ellipse_246_5_" transform="matrix(0.7636 -0.6457 0.6457 0.7636 -189.082 144.5093)" class="st18" cx="102.8" cy="330.5" rx="1.1" ry="1.6"/>
				
					<ellipse id="Ellipse_247_5_" transform="matrix(0.8697 -0.4937 0.4937 0.8697 -147.9487 94.4237)" class="st18" cx="104.8" cy="327.4" rx="1.1" ry="1.6"/>
				
					<ellipse id="Ellipse_248_5_" transform="matrix(1.630626e-02 -0.9999 0.9999 1.630626e-02 -217.3498 433.6173)" class="st18" cx="111.7" cy="327.3" rx="1.6" ry="1.1"/>
				
					<ellipse id="Ellipse_249_5_" transform="matrix(0.9859 -0.1672 0.1672 0.9859 -53.0189 22.6931)" class="st18" cx="108.2" cy="326.2" rx="1.1" ry="1.6"/>
				<path class="st18" d="M113.3,331.3c-1-1.3-2.7-2.4-4.1-2.8c-1.3-0.4-2.8,0-3.6,1.2c-1,1.7-1.6,3.5-1.7,5.5
					c0,2.2,1.8,2.6,2.8,2.3c1-0.3,2-1.4,3.4-1.9L113.3,331.3z"/>
			</g>
			<path class="st19" d="M115.8,324H94.9c-1.7,0-2.2,1.1-1.2,2.4l8.1,10.6v7c0,0.6,0.5,1,1,1h5c0.6,0,1-0.5,1-1v-7l8.1-10.6
				C118,325.1,117.5,324,115.8,324z"/>
		</g>
	</g>
	<g>
		<path class="st20" d="M359.5,338c-2.3,0-4.3-0.8-5.9-2.2c-4.9,2.3-4.4,9-4.1,10.1h20c0.1-0.8,0.8-8.2-4.1-10.1
			C363.8,337.1,361.8,338,359.5,338z"/>
		<circle class="st17" cx="359.5" cy="329" r="5.8"/>
	</g>
	<g>
		<path class="st6" d="M359.5,289.1c-2.3,0-4.3-0.8-5.9-2.2c-4.9,2.3-4.4,9-4.1,10.1h20c0.1-0.8,0.8-8.2-4.1-10.1
			C363.8,288.3,361.8,289.1,359.5,289.1z"/>
		<circle class="st11" cx="359.5" cy="280.1" r="5.8"/>
	</g>
	<g>
		<g>
			<path class="st0" d="M350,356.7h-3.2l-0.7,2h-0.6l2.7-7.1h0.6l2.7,7.1h-0.6L350,356.7z M347,356.2h2.9l-1.4-3.9L347,356.2z"/>
			<path class="st0" d="M352.1,356c0-0.8,0.2-1.5,0.5-2c0.4-0.5,0.9-0.7,1.5-0.7c0.7,0,1.3,0.3,1.6,0.8v-3h0.6v7.5h-0.5l0-0.7
				c-0.4,0.5-0.9,0.8-1.7,0.8c-0.6,0-1.1-0.2-1.5-0.7C352.2,357.5,352.1,356.9,352.1,356L352.1,356z M352.6,356.1
				c0,0.7,0.1,1.2,0.4,1.6c0.3,0.4,0.7,0.6,1.1,0.6c0.7,0,1.2-0.3,1.5-1v-2.5c-0.3-0.7-0.8-1-1.5-1c-0.5,0-0.9,0.2-1.1,0.6
				C352.8,354.7,352.6,355.3,352.6,356.1z"/>
			<path class="st0" d="M358.4,353.4l0,0.9c0.2-0.3,0.4-0.6,0.7-0.7s0.6-0.2,1-0.2c0.8,0,1.4,0.3,1.6,1c0.2-0.3,0.4-0.6,0.8-0.8
				c0.3-0.2,0.7-0.3,1-0.3c1.1,0,1.7,0.6,1.7,1.9v3.5h-0.6v-3.5c0-0.5-0.1-0.8-0.3-1c-0.2-0.2-0.5-0.3-1-0.3c-0.4,0-0.8,0.1-1.1,0.4
				c-0.3,0.3-0.5,0.6-0.5,1v3.5h-0.6v-3.5c0-0.5-0.1-0.8-0.3-1c-0.2-0.2-0.5-0.3-1-0.3c-0.4,0-0.7,0.1-0.9,0.3
				c-0.3,0.2-0.5,0.5-0.6,0.9v3.6h-0.6v-5.3H358.4z"/>
			<path class="st0" d="M366.7,351.8c0-0.1,0-0.2,0.1-0.3s0.2-0.1,0.3-0.1s0.2,0,0.3,0.1c0.1,0.1,0.1,0.2,0.1,0.3
				c0,0.1,0,0.2-0.1,0.3c-0.1,0.1-0.2,0.1-0.3,0.1s-0.2,0-0.3-0.1S366.7,352,366.7,351.8z M367.4,358.7h-0.6v-5.3h0.6V358.7z"/>
			<path class="st0" d="M369.5,353.4l0,0.9c0.2-0.3,0.4-0.6,0.7-0.7c0.3-0.2,0.6-0.3,1-0.3c0.6,0,1,0.2,1.3,0.5s0.4,0.8,0.4,1.4v3.5
				h-0.6v-3.5c0-0.5-0.1-0.8-0.3-1.1c-0.2-0.2-0.5-0.3-0.9-0.3c-0.4,0-0.7,0.1-1,0.3c-0.3,0.2-0.5,0.5-0.6,0.9v3.6h-0.6v-5.3H369.5z
				"/>
		</g>
	</g>
	<path class="st2" d="M358.2,387.7c-6.9,0-12.4,4.6-12.4,10.2c0,2.5,1.1,4.9,3,6.6l-3.2,5.1l7.2-2.6c1.6,0.6,3.4,1,5.4,1
		c6.9,0,12.4-4.6,12.4-10.2S365.1,387.7,358.2,387.7z"/>
</g>
</svg>
