<?xml version="1.0" encoding="utf-8"?>
<!-- Generator: Adobe Illustrator 22.1.0, SVG Export Plug-In . SVG Version: 6.00 Build 0)  -->
<svg version="1.1" id="ARTWORK" xmlns="http://www.w3.org/2000/svg" xmlns:xlink="http://www.w3.org/1999/xlink" x="0px" y="0px"
	 viewBox="0 0 1290 729" style="enable-background:new 0 0 1290 729;" xml:space="preserve">
<style type="text/css">
	.st0{fill:#FFFFFF;}
</style>
<g>
	<g>
		<path class="st0" d="M834.4,12.6c0,0,73.3,148.7,59.8,210.7c0,0,191,61.8,212.3,163.7C1106.5,387.1,1211.2,249.3,834.4,12.6z"/>
		<path class="st0" d="M760.8,235.8c18.7,39.1,27.1,81.2,38.1,125l-109-41.4c10.1-66.1-54.3-166.7-54.3-166.7L760.8,235.8z"/>
		<path class="st0" d="M567.6,338.3c12,31.7,25.7,71.6,33.1,106l-98.2-24.4c10.1-66.1-52.2-146.1-52.2-146.1L567.6,338.3z"/>
		<path class="st0" d="M781.6,179.3c0,0,438,307.7,466.9,427c21.7,89.7-41.6,172.7-41.6,172.7s-33.7-234.4-873.2,121.6
			c85-94.8,131.3-215.8,119-346.4c-5.1-53.5-19-104.2-41.2-150.6l196.7,104.2c0.3,3.1,0.4,6.3,0.8,9.3
			c7.5,79.9,1.6,157.5-16.4,229.5c40.2-85.3,59.4-181.5,50-281.4c-5.7-60.6-20.8-118.2-44.4-170.9l210.3,140.2
			c0.9,6.9,1.3,13.9,2,21.1c8.2,88.4,0,174.1-22.6,252.3c49.4-91.7,73.7-197.5,63.4-308C843.8,319.6,819.5,244.9,781.6,179.3z"/>
	</g>
</g>
</svg>
