<?xml version="1.0" encoding="utf-8"?>
<!-- Generator: Adobe Illustrator 22.1.0, SVG Export Plug-In . SVG Version: 6.00 Build 0)  -->
<svg version="1.1" xmlns="http://www.w3.org/2000/svg" xmlns:xlink="http://www.w3.org/1999/xlink" x="0px" y="0px"
	 viewBox="0 0 1290 729" style="enable-background:new 0 0 1290 729;" xml:space="preserve">
<g id="bg">
</g>
<g id="strokes">
	<path d="M946.9,374.9c-0.2-0.6-0.4-1.2-0.5-1.8L946.9,374.9z M1035.5,330.8l8.4,6.6c0,0-15.1-20.4-31.5-27.7
		c-16.4-7.3-45.4,7.8-62.9,3.1c-17.5-4.7-35.2,4.2-44.3,0c-9-4.2-6.2-29.7-6.2-30.1c0.9-0.9,2.1-1.6,4-1.8c5.3-0.7,0-10.2,0-10.2
		s11.5,1.3,15.7-19.9c0,0-12.2,5.5-17.3,14.4l-1.3-0.7l-4-62.9l-1.3,62.9H891h-3.8l-1.3-62.9l-4,62.9l-1.3,0.7
		c-5.1-8.9-17.3-14.4-17.3-14.4c4.2,21.3,15.7,19.9,15.7,19.9s-5.3,9.5,0,10.2c1,0.1,1.7,0.4,2.4,0.7c-1.6,60.7,22,80.8,22,80.8
		l8-16v22.2l5.3-3.3c-2.4,18.2,5.1,23.1,5.1,23.1l0.4-23.4c0,0,3.9,20.4,3.8,21.5c-0.9,11.7,8.2-35.4,8.2-35.4
		c-1.3,18.2,8,24.8,8,24.8l0.2-17.5l3.9,14.5c-1.8-9.9,5.4-31.6,5.4-31.6c-2.9,21.5,4.7,34.3,4.7,34.3l6.4-12.6
		c0,0,2.7,11.5,3.1,12.8c3.4,10.1,8.4-42.5,8.4-42.5c6.2,16.2,1.3,39.7,1.3,39.7l5.8-13.7l4.2,14.6l4.4-14.4l-1.1,13.5
		c10.9-6.2,13.5-39.2,13.5-39.2c5.3,15.7-3.8,43.6-3.8,43.6c18.8-7.3,21.7-44.3,21.7-44.3c5.8,8.9,5.1,21.7,5.1,21.7
		c7.1-11.7,5.3-23.9,5.3-23.9l4.9,15.3L1035.5,330.8z M793.7,242.3c0.1-0.4,0.3-0.8,0.3-1.3L793.7,242.3z M731.5,222.3l3.4-10.7
		c0,0-1.2,8.5,3.7,16.8c0,0-0.5-9,3.6-15.2c0,0,2,25.9,15.2,31c0,0-6.4-19.5-2.6-30.6c0,0,1.9,23.1,9.5,27.5l-0.8-9.5l3.1,10.1
		l3-10.2l4,9.6c0,0-3.4-16.4,0.9-27.8c0,0,3.5,36.8,5.9,29.8c0.3-0.9,2.2-9,2.2-9l4.5,8.8c0,0,5.3-9,3.3-24c0,0,5,15.2,3.8,22.1
		l2.8-10.2l0.2,12.3c0,0,6.5-4.7,5.6-17.4c0,0,6.4,33,5.7,24.8c-0.1-0.7,2.6-15,2.6-15l0.3,16.4c0,0,5.3-3.5,3.6-16.2l3.7,2.3v-15.5
		l5.6,11.2c0,0,16.5-14.1,15.4-56.6c0.5-0.2,1-0.4,1.7-0.5c3.7-0.5,0-7.1,0-7.1s8.1,0.9,11-14c0,0-8.5,3.9-12.1,10.1l-0.9-0.5
		l-2.8-44.1l-0.9,44.1h-2.6h-2.6l-0.9-44.1l-2.8,44.1l-0.9,0.5c-3.6-6.2-12.1-10.1-12.1-10.1c2.9,14.9,11,14,11,14s-3.7,6.7,0,7.1
		c1.3,0.2,2.2,0.6,2.8,1.3c0,0.3,2,18.1-4.3,21.1c-6.4,3-18.8-3.3-31,0c-12.3,3.3-32.6-7.3-44.1-2.2c-11.5,5.1-22,19.4-22,19.4
		l5.9-4.7L731.5,222.3z M1049.9,277.3c0.3,9.4,7.3,8.4,7.3,8.4l2.2,9.3l4-13.1l0.7,11.6l1.8-5.1c0,0,0.2,7.8,0.9,4.2
		c0.7-3.5,3.5-9.3,3.5-9.3c5.8-3.8,1.3-12.9,1.3-12.9c12.2-5.8,23.3-17.3,23.3-17.3s-1.3,20.4-1.3,21.3c0,0.9,2.4-5.5,2.4-5.5
		l1.3,11.5l1.3-7.3l2.2,15.1l1.8-24.4l2.9,4c-1.1-5.8,4.7-21.3,4.7-21.3c18.2,2.4,35-0.7,35-0.7c-1.6,14.2,10.6,18.2,10.6,18.2
		l-0.7,15.3l1.8-3.1l1.8,9.5l2.4-15.5l1.8,16.8l0.4-8.6l3.3,8.6c-0.9-7.5-0.2-26.4-0.2-26.4c-3.1-0.7-17.3-14.4-10.6-16.8
		c6.6-2.4,9.7-17.3,9.7-17.3c14.8,8.9,11.1-8.2,11.1-8.2c-3.3,4.7-11.3,4-11.3,4c-18.6-19.7-37.4-14.2-45.4-8.2
		c-8,6-17.7-1.8-25.9,2.2c-8.2,4-27.3,49.2-27.3,49.2s1.1-1.8-5.5-0.4c-6.6,1.3-7.1,4.4-7.1,4.4c-19.7-4-15.3-37.5-15.3-37.5
		C1028.4,264.3,1049.9,277.3,1049.9,277.3z M813.7,298.7c0,0,6.6,49.6-22.7,55.5c0,0-0.7-4.6-10.5-6.6c-9.9-2-8.2,0.7-8.2,0.7
		s-28.2-67-40.4-72.9c-12.2-5.9-26.6,5.6-38.4-3.3c-11.8-8.9-39.7-17.1-67.3,12.2c0,0-11.8,1-16.7-5.9c0,0-5.6,25.3,16.4,12.2
		c0,0,4.6,22,14.5,25.6c9.9,3.6-11.2,24-15.8,25c0,0,1,27.9-0.3,39.1l4.9-12.8l0.7,12.8l2.6-25l3.6,23l2.6-14.1l2.6,4.6l-1-22.7
		c0,0,18.1-5.9,15.8-26.9c0,0,25,4.6,51.9,1c0,0,8.5,23,6.9,31.5l4.3-5.9l2.6,36.1l3.3-22.3l2,10.8l2-17.1c0,0,3.6,9.5,3.6,8.2
		c0-1.3-2-31.5-2-31.5s16.4,17.1,34.5,25.6c0,0-6.6,13.5,2,19.1c0,0,4.3,8.5,5.3,13.8c1,5.3,1.3-6.2,1.3-6.2l2.6,7.6l1-17.1
		l5.9,19.4l3.3-13.8c0,0,10.4,1.4,10.8-12.5C797.3,365.7,829.1,346.3,813.7,298.7z"/>
</g>
</svg>
