<?xml version="1.0" encoding="utf-8"?>
<!-- Generator: Adobe Illustrator 22.1.0, SVG Export Plug-In . SVG Version: 6.00 Build 0)  -->
<svg version="1.1" xmlns="http://www.w3.org/2000/svg" xmlns:xlink="http://www.w3.org/1999/xlink" x="0px" y="0px"
	 viewBox="0 0 1290 729" style="enable-background:new 0 0 1290 729;" xml:space="preserve">
<g id="bg">
</g>
<g id="strokes">
	<g>
		<path d="M982.1,0h-8.7c-0.7,5.3-1.2,6.5-0.6,8.8C974.8,5.6,978.8,2.7,982.1,0z"/>
		<path d="M973.2,0h-5.6c-1.1,3.3-2.7,6.9-2.3,8.3C968.8,5.1,972.1,2.3,973.2,0z"/>
		<path d="M985.1,0c-1.2,3.4-2,5.3-2.6,6.6c1.8-1.8,3.9-4.1,5.9-6.6H985.1z"/>
		<path d="M966.2,0h-8c2.4,3.4,1.9,9.5,1.9,10.7C963.2,5.7,964.2,2.6,966.2,0z"/>
		<path d="M993.6,0c-0.3,0.8-0.4,1.5-0.4,2.1c0.7-0.7,1.3-1.4,1.8-2.1H993.6z"/>
		<path d="M805.8,141.2C805.8,141.2,805.8,141.2,805.8,141.2C805.8,141.1,805.8,141.1,805.8,141.2
			C805.8,141.2,805.8,141.2,805.8,141.2z"/>
		<path d="M1008.5,0c-0.4,0.9-0.8,1.8-1,3c1.2-1.3,2.4-2.3,3.4-3H1008.5z"/>
		<path d="M791,141.3C791,141.3,791,141.3,791,141.3c0.1,0.2,0.3,0.5,0.4,0.7C791.3,141.8,791.1,141.6,791,141.3z"/>
		<path d="M1041.8,244.6c1.7-1.9,1.9-3.4,1.9-4.5c-0.5-0.3-1.3-0.9-2.1-1.8c-0.3,2.8-4.3,4-6.9,8.2c-3.3,5.2-6.5,12.4-6.5,19.6
			c0,7.2,0,49,2,60.8c2,11.8,9.8,37.3,15.7,51.7c5.9,14.4,12.4,43.8,18.3,64.1c5.6,19.3,16.6,64.1,21.5,87.6
			c3.6,5.1,6.4,10.7,9.2,7.9c0.1-0.1,0.3-0.3,0.4-0.4c-13.7-47.2-20.3-80.1-24-91.1c-3.9-11.8-15-42.5-14.4-54.3
			c0.7-11.8-2.6-29.4-5.9-37.3c-3.3-7.8-11.8-43.2-13.1-62.8C1036.6,272.7,1031.3,245.9,1041.8,244.6z"/>
		<path d="M1159.5,621.9c0.1-0.4,0.1-1,0.1-1.6C1159.6,620.9,1159.6,621.4,1159.5,621.9z"/>
		<path d="M1001.9,213.9c4.9-4.9,9.2-12.1,13.4-15.7c1.6-1.3,3.3-3.5,4.9-5.7c-1-1.8-2-3.7-2.2-5.9c-2.2,2.6-4.4,7.1-7.5,8.2
			c-0.2-1.1,0.2-3.3,0.7-5.7c-6.7,5.1-14.5,12.2-18.2,18.9c-5.2,9.5-8.8,23.5-11.4,28.4c-2.6,4.9-9.2,17-12.8,23.9
			c-3.6,6.9-15.7,30.4-17,34c-1.3,3.6-3.9,7.8-0.3,10.5c3.6,2.6,7.5,7.2,7.8,2.6c0.3-4.6,1.3-8.2,3.3-8.5c2-0.3,2.9-6.2,2.9-10.8
			c0-4.6,8.2-18.3,13.4-28.8c5.2-10.5,11.1-20.9,12.1-28.8c1-7.8,7.4-26.4,13.4-31.1c6-4.7,6.5-4.2,2.3,0.7
			C1002.6,205,997,218.8,1001.9,213.9z"/>
		<path d="M1029.7,209.3c-4.3-2-6.2,4.3-8.5,7.8c-2.9,4.6,2.3,3.3,5.9,1.3c3.6-2,12.4-0.3,15,2c2.6,2.3,8.2,5.6,6.5,1.6
			C1047,218.1,1033.9,211.2,1029.7,209.3z"/>
		<path d="M1278.5,632.4c-3.9-6.5-14.4-15.7-24.2-18.3c-9.8-2.6-19.6-2-22.9-6.5c-3.3-4.6-9.2-13.7-17-6.5c-7.8,7.2-15,16.4-21.6,17
			c-6.5,0.7-20.9-3.3-24.2-1.3c-3.1,1.9-9.3,8-9.2,5.6c-1.3,11.6-3.9,22.6-6.5,29.7c-2.6,7.2-20.3,18.3-25.5,24.2
			c-5.2,5.9-16.3,25.5-24.2,29.4c-7.2,3.6-25,0-34.4-1.1c0,0,0,0,0,0c-0.8-0.1-1.5-0.2-2.2-0.2c-0.5,0-1.1-0.1-1.6-0.2c0,0,0,0,0,0
			c-0.1,0-0.3-0.1-0.4-0.1c0,0,0,0,0,0c0,0,0,0,0,0c-8.4-1.8-19.5-10.5-27.4-15.4c-8.5-5.2-19.6-19-17.7-26.2
			c2-7.2-9.2-17.7-7.2-25.5c0.6-2.3,0.9-6.3,1.2-11.1c-1.6,2.3-3.1,2.5-3.1,0c0-3.3-5.9-15-10.5-17c-2.6-1.1-4.7-2.6-6.3-4.7
			c-0.4,21.3-13.4,45.1-30.3,63.6c-20.3,22.2-43.2,17.7-59.5,20.3c-16.3,2.6-45.1,16.3-57.6,23.5c-6.1,3.5-11.1,10.8-16.5,17.5h57.8
			c14.6-9.6,21.5-12.4,26.2-15.7c4.9-3.4,19.1-13.2,28-16.2c8.8-2.9,34.8-16.2,43.2-47.1c-2,15.7-10.8,28-14.7,32.4
			c-3.9,4.4-16.2,16.2-27,20.6c-10.2,4.2-37.1,17.1-54.9,26H1290v-96.4C1287.4,639.3,1281.9,638.1,1278.5,632.4z M987.8,678.5
			c-7.8,8.8-16.2,19.6-41.7,37.8c18.1-17.7,36.3-41.2,41.2-54.4C988.3,669.2,987.8,676.5,987.8,678.5z"/>
		<path d="M822.4,122.7c0.1-0.5,0.2-1,0.4-1.4C822.7,121.7,822.5,122.2,822.4,122.7z"/>
		<path d="M1008.1,171.7c-7.5,1.6-15.4,2.3-20.3,11.4c-4.9,9.2-10.8,24.2-14.1,36.6c-3.3,12.4-2.6,21.3,4.6,3.6
			c6.2-15.2,16.3-41.9,33.9-52.3c0.9-0.9,1.8-1.8,2.7-2.8c0,0-0.1,0-0.1,0C1013.2,169.7,1011,171.1,1008.1,171.7z"/>
		<path d="M690,724c-6.5-2-28.1-13.7-36-25.5c-7.8-11.8-27.5-42.5-32.7-55.6c-5.2-13.1-8.5-17.3-8.5-20.9c0-3.6,1.6-10.5,3.3-6.2
			c1.6,4.3,8.5,19.6,13.1,31.1c4.6,11.4,8.5,20.9,11,22.9c2.5,2,2.9-0.5-3.4-14.7c-6.4-14.2-12.1-39.2-12.1-54.9
			c0-15.7-1.3-37.9,0.3-54.9c1.6-17,2.3-17.7,2.6-20.9c0.3-3.3-1.6-2-2.6,0.3c-1,2.3-4.9,10.5-5.6,14.7c-0.7,4.2-1.6,6.5-2.9,9.5
			c-1.3,2.9-4.3-16.3,0.7-22.6c4.9-6.2,10.1-8.2,12.8-19.3c2.6-11.1,9.5-31.4,13.1-41.5c3.6-10.1,7.5-10.8,2.9,1
			c-4.6,11.8-10.5,40.2-11.8,49.4c-1.3,9.2-4.2,37.6-4.9,56.2c-0.7,18.6,1,50.7,5.9,65.7c4.9,15,10.5,32.4,13.7,40.9
			c3.3,8.5,12.8,19.9,19,23.9c6.2,3.9,16.3,12.4,21.3,13.7c4.9,1.3,17,5.2,27.1,12.1c0.4,0.3,0.8,0.5,1.2,0.8h63.8
			c-2.7-3.2-5.6-6.8-8.8-10.9c-13.1-17-41.2-19.6-60.8-21.6c-19.6-2-39.2-9.8-53-22.2c-13.7-12.4-18.3-47.1-18.3-65.4
			c0-18.3-3.3-64.7-2-82.4c1.3-17.7,16.3-75.2,22.9-90.2c6.5-15,34-66.7,44.5-83.1c10.5-16.3,37.9-60.2,47.7-70.6
			c9.8-10.5,37.3-28.8,52.3-39.9c-7.8,14.4-29.4,29.4-42.5,40.5c-13.1,11.1-22.9,32-50.4,71.3c-27.5,39.2-44.5,88.3-60.2,181.8
			c-15.7,93.5,19,122.9,38.6,138c19.6,15,57.2,17.5,70,20.4c12.8,2.9,40.7,17.7,54,17.7c13.2,0,24.5-5.9,40.2-15.2
			c15.7-9.3,52.5-17.7,77-22.1c24.5-4.4,35.3-23.5,43.7-32.9c7.2-8.1,12.2-27.1,15-43.2c-0.1-0.4-0.2-0.8-0.3-1.2
			c-1.3-5.9,3.9-10.5,7.8-11.8c3.9-1.3,9.8,4.6,12.4,9.8c0.9,1.9,1.9,2.6,2.7,2.9c0-1.8-0.1-3.3-0.1-4.2c-0.4-10.9,3-19,6-26.3
			c-3.2-4.4-2.5-3.9-10.6-5.8c-8.5-2-15.7-3.3-23.5-6.5c-6.9-2.9-8-1.9-9.1-2.6c3.7,7.1,7.9,15.5,8.9,17.3c2,3.4-0.5,10.8-2,17.7
			c-1.5,6.9-7.8,30.4-22.6,39.2c-14.7,8.8-56.9,25.5-78,28.9c-21.1,3.4-40.2,11.8-43.2,15.2c-6.9,1-29.4-1-48.1-4.9
			c-18.6-3.9-55.4-12.3-73.6-19.6c-18.1-7.4-51.5-20.6-53-63.8c-1.5-43.2,4.4-67.7,8.3-85.8c3.9-18.1,5.9-33.4,9.3-49
			c3.4-15.7,15.2-37.8,23.1-54c7.8-16.2,26.5-50.5,33.8-64.7c7.4-14.2,23.1-37.3,30.9-45.1c7.1-7.1,29.9-22,37.3-41.4
			c0.6-2.1,1.2-4.3,1.9-6.7c-0.4,2.3-1.1,4.5-1.9,6.7c-4.7,16.1-7.5,20.9-11.8,25.7c-4.9,5.4-23.5,30.4-29.9,44.1
			c-6.4,13.7-24.5,56.4-31.4,80.4c-6.9,24-16.2,64.2-20.6,83.4c-4.4,19.1-11.8,53-8.3,76.5c3.4,23.5,10.8,43.7,28,54.4
			c17.2,10.8,38.3,28.9,50,32.9c11.8,3.9,36.3,6.4,57.4,3.4c21.1-2.9,43.2-6.4,66.7-20.6c23.5-14.2,60-33.5,61.9-80.2
			c0-1.2,1.1,0.1,2.7,2.7c12.4,3.9,16.3,7.2,22.9,7.8c6.5,0.7,22.2,5.9,25.5,11.1c0,0,0,0,0,0c1.3-3.3,2.3-6.6,2.6-9.8
			c0.2-2,1.6-4.8,3.5-7.8c-2.3,1.1-6-4.7-8.7-9.2c-3.3-5.2-7.9-5.9-16.4-5.9c-8.5,0-16.3,5.9-22.2,4.6c-5.9-1.3-6.5-7.2-11.8-9.8
			c-5.2-2.6-4.6-2-5.9-7.2c7.8-0.7,18.3-2.6,22.9-5.9c4.6-3.3,21.6-1.3,28.1,3.3c6.5,4.6,13.7,8.5,17,13.7c3.1,4.9,0.4,9.8-1.6,14.2
			c3.8-5.5,8.9-11.4,11.5-14.4c-6.5-16.4-10.6-25.3-15.1-29.2c-5.2-4.6-13.7-13.1-20.3-13.7c-6.5-0.7-14.4-0.7-21.6,1.3
			c-7.2,2-14.4,7.2-18.3,11.8c-3.9,4.6-3.3,6.5-7.2,7.2c-3.3-6.5-7.9-13.1-12.4-21.6c-4.6-8.5-11.1-24.8-9.2-32.7
			c2-7.8,3.9-19.6,18.3-20.3c14.4-0.7,30.1-1.3,35.3,2c5.2,3.3,26.8,17.7,35.3,34.7c-11.8-9.2-16.3-13.7-24.2-15
			c-7.8-1.3-25.5-3.9-32.7,0c-7.2,3.9-14.4,11.8-20.3,10.5c-0.7,5.9-1.3,15,2.6,21.6c3.9,6.5,4.6,13.1,7.8,14.4
			c3.3,1.3,2.6-5.2,2.6-9.8c0-4.6,1.3-8.5,16.4-13.7c15-5.2,25.5-7.9,34-3.3c8.5,4.6,19,19.6,22.9,32.7c2.7,8.9,5,15.7,6.9,22.3
			c0.3-0.4,0.5-0.6,0.6-0.8c1.3-2,19.9-9.1,23.2-5.8c3.3,3.3,10.5-2.6,16.4,2c1.4,1.1,2.7,2.6,3.9,4.2c-13.7-43.1-24.3-86.5-30-101
			c-5.9-15-20.9-47.7-30.1-61.5c-9.2-13.7-14.4-24.9-12.4-44.5c2-19.6,3.9-65.4,7.2-73.2c3.1-7.5,9.3-12.6,20.2-13
			c-0.8-1.1-1.5-2.3-1.9-3.3c-0.3-0.7-0.8-1.2-1.4-1.4c3.6,1.1,8.2,1.5,11.5,0.5c4.2-1.3,0.3-3.9-3.6-4.6
			c-3.9-0.7-16.9-4.5-22.2-3.9c-6.2,0.7-5.9,2.6-2.6,2.9c3.3,0.3,10.5,2,14.1,3.9c0.6,0.4,1.4,0.7,2.2,0.9c-2.2-0.5-5.3,0.8-7.1,1.7
			c-2.6,1.3-11.1,6.5-12.4,12.4c-1.3,5.9-4.6,26.8-7.8,39.9c-3.3,13.1-7.8,24.9-10.5,33.4c-2.6,8.5-5.9,26.2,0.7,35.3
			c6.5,9.2,13.7,18.3,25.5,32c11.8,13.7,21.6,36.6,29.4,60.8c7.8,24.2,12.4,42.5,17,73.2c-7.8-30.7-15-51-22.9-71.3
			c-7.8-20.3-24.2-47.7-31.4-53c-7.2-5.2-18.3-11.8-22.9-20.9c-4.6-9.2-7.2-21.6-9.8-25.5c-2.6-3.9-5.2-19,0-27.5
			c5.2-8.5,15-39.2,15-52.3c0-13.1,5.9-28.1,7.8-37.3c2-9.2,16.3-28.1,21.6-28.8c5.2-0.7,12.4,5.2,18.3,10.5
			c5.9,5.2,28.8,30.1,36.6,40.5c7.8,10.5,22.9,33.4,29.4,42.5c6.5,9.2,13.1,20.9,13.7,32.7c0.7,11.8-5.2,24.8-9.2,36.6
			c-3.9,11.8-15.7,39.9-13.1,51.7c2.1,9.6,1.7,29.7,6.4,47.8c1.2,3.7,2.6,7.5,4.1,11.7c-1.7-3.7-3-7.7-4.1-11.7
			c-7.4-22-10.2-35.1-9.7-45.2c0.7-11.8,2-34,6.5-45.1c4.6-11.1,10.5-28.1,10.5-37.9c0-9.8-9.2-28.1-14.4-35.3
			c-5.2-7.2-16.3-26.2-24.2-35.3c-7.8-9.2-28.1-30.1-32-30.1c-1.4,0-2,0.2-2.3,0.6c2.3-0.2,2.5,5.3,5.6,6.6
			c3.3,1.3,19.6,15.7,25.5,27.5c5.9,11.8,18.3,32.7,22.9,39.2c4.6,6.5,11.8,29.4,7.8,41.2c-3.9,11.8-9.8,28.1-9.2,37.9
			c0.7,9.8-1.3,30.7,0.7,40.5c2,9.8,6.5,34,11.8,47.1c5.2,13.1,7.8,49,7.2,60.8c-3.3-30.1-5.2-34.7-8.5-50.4
			c-3.3-15.7-8.5-26.8-11.8-42.5c-3.3-15.7-5.9-56.2-3.9-71.3c2-15,0-34.7-2.6-46.4c-2.6-11.8-11.8-30.7-19-42.5
			c-7.2-11.8-11.1-18.3-15-22.9c-3.9-4.6-10.5-3.9-11.1,0c-0.7,3.9-2,11.4,0.7,9.8c2.6-1.6,2.9-6.2,3.6-7.8c0.7-1.6,5.2-2.3,5.6,1.3
			c0.3,3.6,4.9,10.8,8.5,15.4c3.6,4.6,13.1,22.2,14.7,32.4c1.6,10.1,2.3,24.2,3.6,43.8c1.3,19.6,3.3,41.9,3.9,52.3
			c0.7,10.5,8.7,49.4,14.1,64.6c5.4,15.2,12.3,52.5,9.8,73.1c-2.5-22.6-4.9-49-9.8-65.2c-4.9-16.2-10.8-36.8-14.2-49.5
			c-3.4-12.8-10.3-41.2-10.3-53.5c0-12.3-6.9-33.8-6.9-45.1c0-11.3-2.5-25-2.9-32.9c-0.5-7.8-9.3-17.7-11.3-24
			c-2-6.4-6.9-0.5-4.9,6.9c2,7.4,5.9,16.2,6.9,22.6c1,6.4,4.9,19.1,3.9,27.5c-1,8.3,1,16.7,3.4,24.5c2.5,7.8,3.9,19.1,4.4,27.5
			c0.5,8.3,5.9,31.9,9.3,43.2c3.4,11.3,17.7,72.1,24.5,96.1c-5.4-14.7-14.2-47.6-16.7-55.9c-2.5-8.3-10.3-35.3-12.3-44.1
			c-2-8.8-6.9-24.5-6.9-29.9c0-5.4-0.5-14.7-1-19.6c-0.5-4.9-4.9-7.4-4.4,2.9c0.5,10.3,2,21.6,3.9,28c2,6.4,6.9,23.5,10.3,36.8
			c3.4,13.2,8.3,38.7,12.3,54.9c3,12.3,6.6,26.9,9.1,38.8c2.9-3.4,3.9-5.8,7.9,4c4.6,11.1,5.9,13.1,10.5,14.4
			c4.6,1.3,5.9-25.5,6.5-37.3c1.3,4.2,4.6,9.8,7.7,15.8c-0.4-3.2-0.8-7.1-1.1-12.2c-0.7-11.8-3.9-24.9-4.6-33.4
			c-0.7-8.5-2-14.4-3.6-19.6c-1.6-5.2,4.6-13.7,7.8-16.3c3.3-2.6,0.7-18.6,0.3-21.3c-0.3-2.6-6.2,1.3-6.2,5.9c0,4.6-2,9.2-2.3,6.5
			c-0.3-2.6-1.6-8.2,0-9.8c1.6-1.6,3.9-9.8,5.2-15c1.3-5.2,1.3-12.4,3.3-9.2c2,3.3,3.9,16.3,3.9,24.9c0,8.5-0.7,39.2-2.6,47.1
			c-1.9,7.4,2.1,21.8,1.5,55.8c2.4,5.1,4.5,10.4,5.1,15.5c1.3,12.4,9.2,31.4,16.3,38.6c5.7,5.7,8.1,14.4,8.2,23.7
			c0.4-2.7,1.5-5,4.9-4.7c6.5,0.7,12.4,5.9,25.5-2.6c13.1-8.5,21.6-17.7,30.1-22.9c8.5-5.2,21.6-15.7,31.4-20.9
			c9.8-5.2,11.8-12.4,12.4-20.9c0.7-8.5-5.9-15-12.4-5.9c-6.5,9.2-15,17.7-20.9,24.2c-5.9,6.5-18.3,15.7-31.4,22.2
			c-13.1,6.5-33.3,13.1-39.2,16.3c-2,0-2.1-6-2.1-6c2-3.4,7.4-11.3,10.8-12.8c3.4-1.5,10.3,0,13.2-2.9c2.9-2.9,17.2-12.3,24.5-16.2
			c7.4-3.9,20.1-19.1,28-27.5c7.8-8.3,19.1-14.2,23.1-25c3.9-10.8,9.3-20.6,11.3-33.4c2-12.8,7.4-45.1,6.9-56.4
			c-0.5-11.3,2.9-10.3,4.4,7.8c1.5,18.1-1,39.7-3.9,60.8c-2.9,21.1-7.8,37.8-5.4,45.6c2.5,7.8-1.5,13.2,2.5,23
			c3.9,9.8,7.8,25,12.8,32.9c1.3,2,2.6,3.6,4,4.9V0h-275.2c-3,2.3-5.3,5.5-6.1,7.5c3.3-2.6,10.1-2.3,12.8-2.3
			c-4.6,2-9.8,5.6-10.5,8.2c6.5-2.3,11.4,0.3,13.1,1.6c-7.2,0.3-6.9,0.3-9.5,2.3c7.8,1.3,16,2.9,18,1c-3.9,4.2-7.5,4.3-8.8,5.6
			c0.7,0,1.4-0.1,2.1-0.1c0.3,0,0.7-0.1,1-0.1c0.3,0,0.6,0,1-0.1c0.4,0,0.8-0.1,1.2-0.1c0.2,0,0.5,0,0.7-0.1c0.4,0,0.8-0.1,1.2-0.2
			c0.2,0,0.4,0,0.6-0.1c0.4-0.1,0.8-0.1,1.2-0.2c0.2,0,0.3,0,0.5-0.1c0.4-0.1,0.8-0.1,1.2-0.2c0.2,0,0.3-0.1,0.5-0.1
			c0.4-0.1,0.7-0.1,1.1-0.2c0.2,0,0.4-0.1,0.5-0.1c0.2,0,0.5-0.1,0.7-0.1c0.3,0,0.5-0.1,0.8-0.1c0,0,0,0,0,0c3.6-0.6,6.1-1,7.4-0.2
			c-1.9,1-3.2,1.6-4,2.1c-0.2,0.1-0.4,0.2-0.5,0.3c0,0,0,0,0,0c-0.3,0.2-0.6,0.4-0.8,0.6c0,0,0,0,0,0c-0.1,0.1-0.2,0.2-0.3,0.3
			c0,0,0,0,0,0c-0.2,0.2-0.3,0.5-0.4,0.8c0,0,0,0,0,0.1c-0.1,0.1-0.1,0.3-0.2,0.4c0,0,0,0.1,0,0.1c-0.1,0.2-0.1,0.4-0.2,0.6
			c0.5-0.1,0.9-0.1,1.4-0.2c0.1,0,0.2,0,0.4-0.1c0.3-0.1,0.6-0.1,0.9-0.2c0.4-0.1,0.7-0.1,1.1-0.2c0,0,0,0,0,0
			c5.8-1.2,8.2-2.3,10.7-1c-5.2,2.9-4.9,8.2-2.6,10.8c2.3,2.6,4.9-0.3,8.3-2.8c-2.6,4.3-6.3,6.3-7.5,8.4c0,0.1-0.1,0.2-0.1,0.2
			c0,0.1-0.1,0.2-0.1,0.2c-0.1,0.2-0.1,0.3-0.1,0.5c7.4-2,9.3-2.6,13.2-2.6c-3.6,2.3-10.1,4.9-11.4,7.8c9.5-2.3,13.1,1.6,16,0.3
			c-5.9,2.9-10.5,3.9-13.4,6.5c-0.3,0.7,4.2,5.6,10.5,0.7c6.2-4.9,52.3-22.2,66.1-26.8c5.2-1.7,11.1-3.2,16.8-4.6
			c-8.6,5.4-16.6,10.9-22.7,18.9c-9.8,13-22,19.3-34.6,28.6c-8.9,6.6-19.8,20.4-31.7,24.5c-0.1,3.1-1.3,6.3-4.2,10.1
			c-2.3,2.9-2.6,2.1-3.4,4.9c0.1-0.2,2.5,1.4,1.7,3.6c-1,2.9-8.3,3.5-8.8,7.9c7.7,2.1,16.5,0.6,23.4,3.2c-4.9,1-8,4.4-11.1,7.9
			c0.6,0.2,1.2,0.1,1.8,0.2c-1,1.1-2.1,2.7-4.4,3.3c2.3,2.5,6.2,1.9,9.5,1.8c-1.2,1.2-2.6,1.8-4.1,2c1.6,0,3.3,0,4.9,0.1
			c-1,1.9-2.8,3.3-5,4c2.3,3.4,10.9,2.9,11.7,5.1c0.9,2.6-10,3.1-11.2,7.2c-0.3,1,0.8,3.3,1.2,5.3c0.1,0.2,0.3,0.5,0.4,0.7
			c3.6,5.7,11.6,17.8,15.7,22.1c4.1,4.3,7.8,8.2,13.7,27.8c-4.1-10.1-8.7-19-12.9-23.4c-4.2-4.4-9.6-12.1-13.1-16.2
			c-1.4-1.7-2.9-4.2-4.4-7.2c-0.6,1.1-1.4,2-2,3.2c0.6,0.8,1.1,1.6,1.7,2.4c2.6,3.6,14.7,18.3,19,23.2c4.3,4.9,6.5,13.4,10.8,19.6
			c4.3,6.2,9.2,14.7,17.3,29.8c8.2,15-21.6-33.4-25.5-40.9c-3.9-7.5-15.7-19.3-18-22.2c-1.3-1.6-3.5-3.7-5.5-6.2
			c0.2,1.4,0.6,3,0.9,4.7c4.7,5.4,10,11.6,11.5,13.7c2.6,3.6,10.1,13.1,13.1,19.6c2.9,6.5,7.5,13.7,11.8,19.3
			c-8.8-10.1-12.4-17-14.7-21.6c-2-3.9-13.8-17.9-20.8-25.2c0.3,3.3,0.1,6.1-1.3,7.3c8.1,8.3,19.7,20.7,24.8,27.6
			c6.2,8.5,14.7,22.2,25.5,31.7c10.8,9.5,21.9,16.7,26.2,34.3c-6.2-8.5-19-23.5-25.5-30.1c-6.5-6.5-21.3-21.3-26.8-28.8
			c-4-5.4-14.4-21.5-28.2-31.4c-0.3,1.1-0.6,2.2-0.4,2.5c-2.7-3-5.9-5.5-9.2-7.6c0.1,1.7-0.5,3.9-0.3,5.6c-2-4.3-5.7-5.6-10.3-5.6
			c8.6,7.9,20.2,14.8,24.2,20.2c4.6,6.2,15,18,25.8,30.1c10.8,12.1-1.6-5.6-11.4-15.7c-9.8-10.1-21.3-23.2-26.5-27.8
			c10.5,6.2,25.5,22.6,30.1,28.8c4.6,6.2,15,17.7,20.9,23.5c5.9,5.9,20.9,21.6,25.2,28.8c4.3,7.2,6.5,17.3,6.9,25.8
			c0.3,8.5-1,13.4-4.3,4.6c-3.3-8.8-5.6-13.4-10.5-20.9c-4.9-7.5-5.9-10.5-14.4-19.3c-8.5-8.8-19-20.6-23.9-27.8
			c-4.9-7.2-12.4-15.4-21.3-22.6c-8.8-7.2-17.3-15.7-20.6-21.3c-0.3-0.5-0.6-1-0.9-1.5c-1.6-1.2-3.1-2.7-4.3-4.7
			c-0.3,0.7-0.7,1.5-1.1,2.2c0,0.2-0.1,0.4-0.1,0.6c0-0.1-0.1-0.1-0.1-0.2c-0.8,1.3-1.8,2.5-3,3.7c-4.9,4.6-13.7,10.8-18.3,18.3
			c-4.6,7.5-13.7,25.8-15,38.9c-1.3,13.1-3.9,24.5-6.5,31.7c-2.6,7.2-9.5,22.9-10.1,26.5c-0.7,3.6-6.9,2-6.9-3.3
			c0-5.2-2.3-4.9-4.6-2.6c-2.3,2.3-2.6,7.2-3.9,8.2c-1.3,1-4.9-1-7.5-3.9c-2.6-2.9-7.5-8.5-9.8-9.8c-2.3-1.3-3.3-4.6,0-11.1
			c3.3-6.5,10.1-21.3,15.7-31.7c5.6-10.5,7.2-28.4,7.2-37.3c0-8.8,5.9-28.4,11.8-36.6c3.5-4.8,9.2-11.8,15.4-17.9
			c1.9-7,4.7-13.1,5.3-20.9c0.4-4.6,3.8-12.9,2.4-17.7c-1-3.4-2.9-4-3.2-7.9c-0.1-2.1,0.1-4.5,0.5-5.8c-1.3,0-2.8-0.1-4.4-0.5
			c-2,7.1-6.8,10.1-6.8,15.9c0,5.9,1.5,15.7-2.5,24.5c-3.9,8.8-10.8,23.1-14.7,28.9c-3.9,5.9-12.3,28.4-12.8,34.8
			c-0.5,6.4-2,23.5-2.9,30.9c-1,7.4-4.4,14.7-8.3,20.1c-3.9,5.4-12.3,23.5-12.3,30.4c0,6.9-4.9,3.9-6.9,3.4c-2-0.5-2.9-10.3-1-15.7
			c2-5.4,10.8-15.7,13.2-20.1c2.5-4.4,3.4-16.7,3.9-25.5c0.5-8.8,2.9-22.1,9.3-33.4c6.4-11.3,10.8-20.6,12.8-27.5
			c2-6.9,4.9-19.1,9.3-23.5c4.4-4.4,4.9-12.3,6.9-18.1c2-5.9,3.7-27.5,4.1-35.3c0.2-4.7,0.3-9.9,0.5-13.8c-1.8-2.5-3.7-5-3-8.9
			c4.5-2.8-0.6-9.6,0.5-14.4c0.9-3.7,5.3-12.2,7.7-15.1c-2.8-0.8-6-1-9-0.9c0.8-2,1.9-4,3.1-5.6c-2.9,0.1-6.1,1-9,1.1
			c-0.3-5.2,2.4-8.8,0.6-13.7c-1.2-3.3-5.4-8.6-7.4-11.8c-1.3,1.5-3.5,2-5,3.2c0.1-0.7-0.1-1.5-0.3-2.2c-0.1,0.1-0.2,0.2-0.3,0.2
			c-1.7,1.5-3.1,3.2-4.4,4.8c-0.6,4.2-0.2,9.1-1,12.2c-2.7,10.7-3.5,16.1-0.5,26.8c4,14.1,1.5,34.3-3.9,47.6
			c-0.1-3.1,1.3-7,1.8-10.3c0.7-4.9,0.7-9.8,0.7-14.8c0-3.9,0.6-8.3,0-12.1c-0.6-4.1-2.5-7.1-3.4-11.2c-2.3-10.3-0.3-22-0.5-32.8
			c-1.4,0.5-3.1,0.7-5.2,0.4c0.3,0.6,0.4,1.1,1,1.8c-0.3,0.7-0.6,1.3-1.1,1.9c0,1.3,0,2.5,0,3.8c0-1.2-0.2-2.3-0.3-3.4
			c-0.8,1-1.8,1.7-2.8,2.2c-0.2-0.8-0.2-1.7-0.2-2.5c-2,3.8-1.1,7.6-3.8,8.8c0,0.3,0,0.5,0,0.8c-0.1-0.2-0.2-0.4-0.3-0.7
			c-0.9,0.4-2.3,0.4-4.3,0.1c0.6,2.8-0.1,4.6-2.6,4.3c0.2,0.9,0.4,1.7,0.4,2.3c-0.1-0.1-0.2-0.2-0.3-0.3c0,1.6-0.4,2.9-1.4,3.7
			c0.7,2.2,2.8,4.4,3.8,6.2c-4.2-1.9-7.5-6.9-11.2-10c-4.7-3.9-10.1-6.2-14.7-10.1c-3.7-3.2-9.1-6.5-12.1-10.2
			c-4.9-5.8-4.6-9.1-12.9-10.6c-13.9-2.5-24.8,7.1-29.4,19.6c-2,5.5-1.6,11.2-2.8,17c-1.1,5.7-4.4,11.4-4.9,16.9
			c-0.3,3.9,1.6,6.4-0.1,11c-0.9,2.5-2.9,3.8-3.3,7.5c-0.3,2.8,1.6,10.7-0.1,12.5c-3,3.1-7.6-0.4-8.4-3.8c-0.4,1.2-1.1,2.6-2,3.9
			c0,0,0,0,0,0c8,21.6,16.4,43.3,17.7,49.6c2.6,12.4,4.6,26.2,6.5,46.4c2,20.3-15.7,40.5-20.3,52.3c-4.6,11.8-8.5,21.6-9.2,28.8
			c-0.7,7.2-2.6,16.3-3.9,25.5c-1.3,9.2-1.3,30.1-1.3,50.4c0,20.3,3.9,19.6,4.6,12.4c0.7-7.2,3.3-58.9,1.3-69.3
			c-2-10.5,19-57.5,24.2-69.3c5.2-11.8,20.9-36.6,30.7-45.1c-11.1,10.5-24.8,40.5-34,60.2c-9.2,19.6-12.4,41.2-13.1,62.8
			c-0.7,21.6,0.7,62.1,2,78.5c1.3,16.3,8.5,34.7,13.1,54.3c4.6,19.6,16.4,34,24.9,44.5c8.5,10.5,17,16.4,22.2,19
			c5.2,2.6,14.4-0.7,21.6-7.8c0,0,0.6-0.6,1.3-0.6c-16.9-27.9-14.2-68.4-13.2-78.4c1-10.3-2.5-13.2-4.4-6.9c-2,6.4-2,35.5,3.3,64.2
			c-13.7-26.8-5.9-80.4-3.3-96.1c2.6-15.7,1.3-54.6-0.7-72.6c-2-18-7.8-23.5-10.1-31.7c-2.3-8.2,4.6-15,7.5-18
			c2.9-2.9,9.2-8.7,14.5-17c-0.8,3.6-2.1,8.8-8.3,15.4c-6.2,6.5-9.2,16-9.8,20.6c-0.7,4.6,6.9,17.7,8.8,27.8
			c2,10.1,2.6,29.1,2.3,45.1c-0.3,16,0.3,33-1,39.2c-1.3,6.2-1.3,15.7,1,12.8c2.3-2.9,5.6-33,6.2-39.9c0.7-6.9,2.9-17.3,2.6-23.5
			c-0.3-6.2-4.3-26.8-4.9-32.4c3.9,9.8,7.5,39.9,7.5,47.2c0,4.1,1.2,8.8,2,11.5c-0.5-4.8-0.7-8.7-0.7-8.7c3.3,15.7,7.2,24.9,19,26.8
			c11.8,2,34,7.2,40.5,13.7c6.5,6.5,30.7,28.8,38.6,43.8c7.8,15,22.9,58.9,24.9,79.1c-11.8-35.3-15-45.1-18.3-55.6
			c-3.3-10.5-9.8-15.7-15.7-24.2c-5.9-8.5-20.9-21.6-28.8-25.5c-7.8-3.9-19.6-2-28.1-5.9c-8.5-3.9-19-8.5-22.2-2.6
			c-3.3,5.9-6.5,39.2-2.6,51c3.9,11.8,11.8,37.9,19,43.8c7.2,5.9,8.5,20.3,15.7,27.5c-5.2,1.3-9.2-2-13.1-4.6
			c2.6-2.6-2.6-6.5-5.2-10.5c-2.6-3.9-5.9-17.7-10.5-24.8c-4.6-7.2-12.4-21.6-13.1-32.7c-0.7-11.1-2.6-40.5,0.7-54.3
			c3.3-13.7,2.6-19,1.3-26.8c-0.5-2.9-0.9-6.2-1.2-9.1c-1.5-2.7-3.6-0.4-4,3.3c-0.5,3.9-3.4,21.6-5.9,34.8
			c-2.5,13.2,0.5,27.5,1.5,47.6c1,20.1,4.9,30.9,11.3,40.7c4,6.1,3.9,9.6,2.5,10.4c0.6,0.7,1.2,1.3,1.5,1.9
			c-3.1,0.1-10.3,5.9-20.1,9.8c-9.8,3.9-19.6,7.2-32,2c-12.4-5.2-18.3-13.7-28.1-25.5c-9.8-11.8-24.2-49.7-32-71.3
			c-7.8-21.6-3.3-75.9-2.6-85.7c0.7-9.8,6.5-36.6,9.2-49.7c-4.6,10.5-9.2,31.4-13.7,53.6c-4.6,22.2-5.9,49.7-7.2,68
			c-1.3,18.3,8.5,48.4,15.7,62.1c7.2,13.7,24.2,41.2,35.3,53c11.1,11.8,17.7,20.3,28.8,18.3c11.1-2,24.8-11.8,30.1-14.4
			c5.2-2.6,12.4-5.9,19.6-15c2,1.3,3.9,2,5.9,5.2c-4.6,5.9-24.2,21.6-36.6,30.1c-12.4,8.5-22.2,12.4-43.8,10.5
			c-21.6-2-30.1-15.7-43.8-31.4c-13.7-15.7-29.4-51-32.7-73.2c-3.3-22.2,5.9-59.5,11.1-77.2c5.2-17.7,24.2-71.3,26.8-79.1
			c2.6-7.8,4.6-16.3,6.5-24.2c2-7.8,19.6-42.5,23.5-56.9c3.9-14.4,2.6-33.4-2-43.8c-4.6-10.5-5.2-29.4-11.1-39.2
			c-2.5-4.2-5.3-11.7-7.9-21.7c0,0,0,0,0,0c-0.2-0.1-0.4-0.2-0.6-0.4c0.3,3.7-1.1,6.2-2.5,8.6c3.7,16.4,6.7,30.4,8.1,34.8
			c3.4,11.3,7.8,30.9,7.4,36.3c-0.5,5.4,1.5,23.5,1.5,31.9c0,8.3-8.3,21.6-13.7,34.8c-5.4,13.2-12.3,30.9-12.8,38.7
			c-0.5,7.8-8.8,22.6-11.3,31.9c-2.5,9.3-8,24-13.2,38.4c-5.2,14.4-11.8,33.4-17,53c-5.2,19.6-3.9,39.2-1.3,57.5
			c2.6,18.3,9.7,31.6,16.3,44.8c6.6,13.2,27.5,38.7,40.2,50c12.8,11.3,21.6,14.5,27.2,13.7c5.6-0.7,21.1-5.6,30.2-12
			c9.1-6.4,26.7-18.4,29.9-21.6c3.2-3.2,18.1-19.9,21.1-25.5c2.9-5.6,5.1-4.3,6.4-2.4c-1.3,4.6-2.6,4.6-6.5,11.8
			c-3.9,7.2-27.5,31.4-34.7,39.2c-7.2,7.8-27.5,14.4-45.1,22.2c-17.7,7.8-28.1-2-37.9-7.8c-9.8-5.9-31.4-26.2-41.2-39.9
			c-9.8-13.7-20.9-37.3-25.5-58.2c-4.6-20.9,3.9-51.7,11.1-69.3c7.2-17.7,15.7-42.5,19.6-54.9c3.9-12.4,16.4-38.6,17.7-51.7
			c1.3-13.1,9.8-33.4,13.1-41.2c3.3-7.8,15-30.1,18.3-37.9c3.3-7.8,6.5-15.7,3.9-26.8c-2.6-11.1-2.6-35.3-6.5-49.7
			c-1.6-5.8-4.3-19.1-7.5-34.9c-0.1,0.6-0.2,1.3-0.2,2c-0.9-2.1-1.9-4.2-2.9-6.2c-3.7,4.1-2.2,9.6-2.6,14.6
			c-0.4-0.2-0.7-0.5-0.9-0.9c0.7,3.3,1.1,7.5-0.9,10.1c-3.7-2.6-6.7-5.9-7.2-10.5c0,0,0,0.1,0,0.1c0,0.1,0,0.2,0,0.3
			c0,0.2,0,0.5,0,0.7c0,0.1,0,0.3,0,0.4c0,0.3,0,0.5-0.1,0.8c0,0.1,0,0.2,0,0.4c0,0.4-0.1,0.8-0.2,1.2c0,0,0,0,0,0
			c-0.1,0.4-0.2,0.8-0.3,1.3c0,0.1-0.1,0.2-0.1,0.3c-0.1,0.3-0.2,0.6-0.2,0.9c0,0.1-0.1,0.3-0.1,0.4c-0.1,0.3-0.2,0.6-0.3,0.9
			c0,0.1-0.1,0.2-0.1,0.4c-0.1,0.4-0.3,0.7-0.4,1.1c0,0,0,0.1,0,0.1c2.9,12.4,6.2,23.7,9.3,29.9c7.8,15.7,8.8,39.9,9.2,56.9
			c0.3,17-12.4,38.9-17,46.1c-4.6,7.2-4.9,12.8-7.8,19.6c-2.9,6.9-5.6,20.6-6.5,28.8c-1,8.2-4.3,16-8.5,27.8
			c-4.3,11.8-8.8,27.1-17.3,46.1c-8.5,19-19,52.6-21.6,69.3c-2.6,16.7,1.3,32.7,3.6,52c2.3,19.3,22.9,45.8,32.4,57.5
			c9.5,11.8,27.8,26.8,41.5,33c13.7,6.2,35.6-0.7,47.1-6.5c11.4-5.9,40.2-25.2,50-35.5c9.8-10.3,24.5-31.6,25.3-34.7
			c0.8-3.1,1.3-7.4,2.6-8.2c2.3,2,5.4,4.7,8.3,5.4c0,17.3-9.5,28.4-19.9,44.5c-10.5,16-35,29.1-46.4,35
			c-11.4,5.9-32.4,10.1-48.4,17.7c-16,7.5-27.5,1-36.3-4.3c-8.8-5.2-41.5-27.8-57.9-39.6c-16.3-11.8-17.7-26.8-20.3-57.5
			c-2.6-30.7,9.2-80.4,15-111.8c5.9-31.4,24.9-70.6,27.8-80.4c2.9-9.8,22.2-48.1,28.1-55.6c5.9-7.5,11.4-19,16.3-28.4
			c4.9-9.5,5.6-23.5,2-32c-3.6-8.5-5.9-21.3-10.8-33.4c-2.6-6.4-8.4-23.6-14.7-41.5c0,0,0,0,0,0c-0.1-0.3-0.2-0.5-0.3-0.8
			c-1.5,9.3-6.6-6.6-7.2-8.9c-0.7,7,0.2,10.1,3.3,16.1c3.9,7.7,4.4,15.8,6.7,24.3c2.1,7.8,7.1,15.4,5.1,23.6
			c-1.7,7.1-8.7,9.6-11.1,15l-11.5,7.8c8.3-2.5,18.2-4.4,21.6-4.8c5.6-0.7-2.3,2.3-7.8,3.9c-5.6,1.6-28.8,13.4-36.3,17.3
			c-7.5,3.9-41.2,35.3-44.5,38.9c-3.3,3.6-12.8,12.8-17.7,15.4c-4.9,2.6-14.1,24.2-20.9,36.3c-6.9,12.1-20.6,48.1-26.2,65.4
			c-5.6,17.3-7.5,39.2-7.5,47.1c0,7.8,1,6.2,2.3,2.3c1.3-3.9,1.4-12,3.1-22.1c1.7-10.1,11.8-35.6,15.2-47.6
			c3.4-12,17.3-36.6,18.8-40.9c1.5-4.3,8.2-16.2,9.5-22.9c1.3-6.7,13.9-21.4,17.7-25.5c3.8-4.1,31.9-27,36.1-32.7
			c4.3-5.7,33.2-18.8,41.7-23.4c8.5-4.6,16.2-6.1,16.7-4.6c-4.9,1.1-22.7,12.8-36.8,18.5c-14.1,5.7-34.7,27.8-44.1,34.8
			s-23.5,26-26.5,30.7c-2.9,4.7,2.6,0.5,6.4-4.3c3.8-4.7,13.1-15.4,27.5-29.6c14.4-14.2,43.3-32.9,49.5-33.4
			c-7.2,3.3-36.1,25.7-40.5,30.6c5.1-4.6,33.8-21.7,47.1-30.4c13.4-8.7,19.5-10.3,22.9-9.9c-9.8,3.1-66.8,39.9-73,46.4
			c-6.2,6.5-18.6,19-21.3,25.8c-2.6,6.9-15,28.8-18,35.3c-2.9,6.5-9.5,21.6-11.8,27.5c-2.3,5.9-7.5,13.1-16,23.5
			c1.6-2.9,2.9-8.2,6.9-16c3.9-7.8,14.4-35.6,18-42.8c3.6-7.2,9.8-16.7,13.7-23.2c3.9-6.5-2.6-2-6.5,4.2
			c-3.9,6.2-12.4,24.2-18.3,37.3c-5.9,13.1-17,37.3-18,40.9c-1,3.6,3.9,7.2-0.3,13.1c-4.3,5.9-13.1,31.1-17.3,42.5
			c-4.3,11.4-13.1,30.7-22.6,49.4c0,0,13.7-34.7,14.7-37.9c1.3-55.6,10.8-69.6,13.1-80.4c2.3-10.8,20.3-42.5,25.2-54.9
			c4.9-12.4,15.4-32.4,19.3-35.6c2.4-2,9.3-7.6,16.2-13.8c21.7-25.5,54.2-63.8,82.2-76.4c5.2-7.8-13.7-64.1-18.3-76.5
			c3.9,4.6,8.5,10.8,10.1,15.7c1.6-1.3-2.3-11.1-4.3-13.7c0.5,0.5,0.9,1.1,1.4,1.6c0.1,0.2,0.3,0.3,0.4,0.5c0.3,0.4,0.6,0.8,1,1.1
			c0.1,0.2,0.3,0.3,0.4,0.5c0.3,0.4,0.7,0.8,1,1.2c0.1,0.1,0.2,0.2,0.3,0.4c0.9,1.1,1.7,2.1,2.5,3.1c0.1,0.1,0.1,0.2,0.2,0.3
			c0.3,0.4,0.6,0.8,1,1.3c0.1,0.1,0.1,0.2,0.2,0.3c0.3,0.5,0.7,0.9,1,1.3c0,0,0,0.1,0.1,0.1c2.1,2.9,3.7,5.5,4.7,7.7
			c-4.6-14.1-2.3-21.6-4.3-24.5c4.6,8.5,10.8,14.1,11.1,19c0,0,0.7-10.1-1-18c4.2,6.5,4.6,13.7,4.6,17.3c0.5-1.6,0.8-3.1,1.2-4.5
			c0,0,0,0,0,0c0.1-0.7,0.3-1.3,0.4-2c0-0.1,0-0.1,0-0.2c0.3-1.8,0.4-3.6,0.4-5.2c0-0.1,0-0.3,0-0.4c0-0.4,0-0.7,0-1.1
			c0-0.3,0-0.7-0.1-1c0-0.3-0.1-0.6-0.1-0.9c-0.1-0.4-0.1-0.8-0.2-1.2c0-0.2-0.1-0.5-0.1-0.7c-0.1-0.6-0.3-1.2-0.5-1.8
			c3.3,5.2,4.6,8.2,5.9,12.1c0-6.9-1-11.1-1-16.7c1.6,4.9,3.6,10.5,4.6,13.1c-0.3-6.9,2.9-16,2.6-19.9c2,2.6,3.9,4.9,4.2,7.5
			c0.3-5.9,0.7-7.5-1.3-11.1c4.3,3.3,4.6,5.6,6.2,6.5c-1.6-11.4-0.3-14.7-1.6-21.9c2-0.3,2.9,5.9,3.9,8.2c1.6-4.6,1.6-7.8,0-11.4
			c3.6,2,3.6,3.3,4.9,4.9c-0.7-6.2-1-8.2-2-11.4c2.9,2.6,7.5,4.9,9.5,3.9c-0.3-7.2,0.3-11.1,1.8-19c2,4.4,0.5,10.3,1.5,13.2
			c2.9-8.3,2.5-16.2,1.5-19.1c3.4,5.4,3.2,6.9,3.2,9.3c0.2-7.8,0-16.9,1.5-20.1c-0.2,2.7,1,8.3,1.5,10.8c0.5-7.1,3.2-14.5,2.9-17.2
			c0.5,7.1,1.2,8.6,1.5,10.1c0.7-8.6,2.9-17.9,7.8-20.8c4.9-2.9,21.1-10.5,31.4-2.5c10.3,8.1,16.8,13.7,19.4,16
			c-1.6-5.9-1.6-8.5-2.9-11.4c2,1.6,3.9,7.5,7.9,10.5c-2-4.9-4.3-9.5-3.9-12.1c3.6,3.3,10.5,10.5,10.5,12.4
			c-0.6-8.3,1.5-11.5,1.2-15.6c1.2,9,2.2,8.2,3.7,9.1c0-11.8,0.3-13.4,2.3-17c-0.7,4.6-1,6.9,1,10.1c2-3.9,2.3-10.5,5.2-12.4
			c0,4.3,2,5.9,2.3,9.5c1.6-5.9,1.6-8.8,1-12.1c1.3,3.3,2.3,9.8,2.9,11.4c1-4.9,3.3-10.1,5.7-14.1c0,5.4,0,6.9,1,9.3
			C956,7.1,954,8,954.5,3.6c2.7,1.7,1,7.6,0,10.1c3.4-4.1,4.6-9.8,3.7-13.7H0v729h702.5C697.1,726.6,692.4,724.7,690,724z
			 M1078.6,425.9c7.8,16.2,20.1,60.3,22.6,84.4C1089.4,468.6,1084.5,440.1,1078.6,425.9z M1246.8,342.5c4.4,2.5,7.8,10.3,10.8,14.2
			c2.9,3.9,11.8,39.2,10.8,57.4c-1,18.1-7.4,52.5-14.2,67.2c-6.9,14.7-25.5,34.8-36.8,46.6c-11.3,11.8-30.9,24.5-38.3,29.9
			c-7.4,5.4-18.6,16.2-20.6,21.6c-2,5.4-4.9,6.9-4.4,1.5c0.5-5.4,5.9-8.3,0-9.8c-5.9-1.5-9.3,3.4-11.3,1c-2.5-4.4-3.9-6.9-3.9-6.9
			c3.9-4.4,8.3-8.3,12.3-9.3c3.9-1,11.3,0,15.2-3.9c3.9-3.9,10.3-13.7,15.7-18.1c5.4-4.4,26-27,37.8-43.7
			c11.8-16.7,26.5-32.9,27.5-66.2c1-33.4,0.5-47.6-4.4-54.9c-4.9-7.4-10.3-22.1-10.3-25.5C1232.6,340.1,1242.4,340.1,1246.8,342.5z
			 M1213.5,342.5c6.4,5.9,19.1,28,20.1,59.8c1,31.9-15.2,50.5-24.5,62.8c-9.3,12.3-26,31.9-34.3,40.2c-8.3,8.3-24.5,25.5-30.9,31.9
			c-6.4,6.4-8.3,5.4-9.8,2.9c0,0,1-7.8-0.5-9.8c2-1,3.9-3.9,8.3-8.8c4.4-4.9,19.6-23.5,26-31.4c6.4-7.8,10.8-12.3,10.8-18.1
			c0-5.9,0-12.8,4.4-17.2c4.4-4.4,10.3-13.7,18.1-25c7.8-11.3,6.9-40.7,5.4-53.9c-1.5-13.2-6.9-32.9-11.8-36.3
			c-4.9-3.4-11.8-2.9-12.8-5.4c-1-2.5,4.9-2.5,10.8-1.5C1198.7,333.7,1207.1,336.6,1213.5,342.5z M1140.4,435.2
			c11.3-16.7,25.5-28.4,26.5-36.3c1-7.9-2-19.1,4.4-24c6.4-4.9,14.7-22.1,11.8-30.4c-2.9-8.3,4.9-7.8,4.9,3.4
			c0,11.3,0.5,62.8-2.9,68.2c-3.4,5.4-2.9-2.5-3.4-5.4c-0.5-2.9-7.4,5.4-7.8,11.8c-0.5,6.4-23.5,53-35.3,59.8
			C1139.4,461.7,1141.4,448.5,1140.4,435.2z M1170,17c2.1-1.9,5.5-2.4,8.6-0.9c0.3,0.4,0.4,0.9,0.4,1.5c-3.8,0.2-7.3,0.3-10.6,0.5
			C1169,17.7,1169.5,17.4,1170,17z M1110.9,76.7c3.9-6.9,6.4-10.8,14.2-20.6c7.8-9.8,30.4-22.1,40.7-21.6c10.3,0.5,9.3,8.3,9.3,17.2
			c0,8.6-5.1,33.9-10.8,53.4c-0.2,0.6-0.3,1.1-0.5,1.5c0.2-0.5,0.3-1,0.5-1.5c1.6-6,4.5-20.9,4.9-29.8c0.5-9.8-1-27-3.9-30.9
			c-2.9-3.9-17.7-1.5-20.6,1.5c-2.9,2.9-7.4,6.9-12.8,9.8C1126.6,58.6,1103.2,90.3,1110.9,76.7z M1140.4,141.9
			c-6.9-4.9-21.1-15.2-27-17.2c2-2.9,10.3-0.5,18.1,1.5c7.8,2,15.7,7.4,16.7,10.3C1149.2,139.5,1147.2,146.8,1140.4,141.9z
			 M1109,158.1c2.5,2.5,5.9-0.5,8.8-1c2.9-0.5,2.9-5.9,2.9-12.3c2,2.9,12.3,6.4,16.2,10.3c3.9,3.9-7.4,3.4-11.3,4.9
			c-3.9,1.5-1.5,4.4-5.4,6.9C1116.3,169.4,1106,155.1,1109,158.1z M1084,99.3c2.5,2.5,5.4,1,8.3,0.5c2.9-0.5,4.4-7.4,11.3-14.7
			c0,4.9,1.5,8.8-2,15.7c-3.4,6.9-6.9,11.8-6.4,21.1c0.5,9.3-7.4,6.9-6.4,0C1089.9,115,1077.3,92.6,1084,99.3z M1092.3,181.2
			c-0.5,2.5-2,0.5-3.4-0.5c-0.5-3.4,1.5-6.9,3.9-7.4c2.5-0.5,7.8-2,12.3-0.5C1099.2,174.8,1092.8,178.7,1092.3,181.2z M1134,244.3
			c-4.9,7.5-7.2,15.7-11.8,17c-6.9-8.2-8.8-8.5-11.4-12.4c-2.6-3.9-7.2-17-11.4-24.2c3.3-8.8,6.9-21.9,3.3-28.4
			c-3-5.5-3.5-8-1.6-8.6c-0.7-1.5-1.2-3.2-1.3-4.9c3.9-7.4,10.8-5.4,17.2-6.9c6.4-1.5,31.9-26,40.2-34.3c8.3-8.3,23.1-52.5,26-61.8
			c2.9-9.3,0-30.9,1.5-35.3c1.5-4.4,1-9.8,2-19.1c1,4.9,1,8.8,0,15.7c-1,6.9,0.5,25-0.5,35.8c-1,10.8-11.8,33.8-20.1,54
			c-8.3,20.1-25,29.4-32.9,37.3c-7.8,7.8-19.6,11.8-24,13.7c-3.1,1.4-3.8,4.4-3.9,6.1c3.3,0.8,7.5,2.8,10,6.5
			c3.3,4.9,20.6,19,22.6,25.8C1139.6,226.9,1138.9,236.8,1134,244.3z M1130.1,346.9c0-6.4,5.4-16.7,5.4-22.1s-0.5-8.8,2.5-11.8
			s9.8-2.5,10.3-10.8c0.5-8.3,0-8.3-8.8-12.8c6.9-7.4,8.8-7.8,12.8-14.2c3.9-6.4,5.4-15.2,8.3-8.8c2.9,6.4,9.3,19.1,9.3,29.9
			c0,10.8,2.5,16.2-2.5,20.6c-4.9,4.4-16.2,16.7-19.6,27c-3.4,10.3-9.3,25-11.3,32.9c-2,7.8-8.8,15.7-8.8,3.9
			C1127.6,369,1130.1,353.3,1130.1,346.9z M1108.5,442.1c-2.6-9.5,0-35,1.6-38.9c1.6-3.9,4.9-13.7,6.2-16.7c1.3-2.9,0-4.7,5.4-18
			c-0.2,6.5-1.1,6.2-1.8,12.8c-0.7,6.5-5.2,15.4-7.5,23.2C1110.1,412.3,1109.5,424.1,1108.5,442.1z M1123.2,393.4
			c-1,5.6-3.3,17-4.6,20.6c-1.3,3.6-4.3,10.5-5.2,39.2c-1.3-21.3-1.6-29.1,1-35.6c2.6-6.5,5.6-19.6,6.2-25.8
			c0.7-6.2,4.6-11.1,6.2-15.7C1124.8,383.2,1124.2,387.8,1123.2,393.4z M976.6,127.7c0,7.8-3.4,15.2-5.9,19.1
			c-2.5,3.9-7.4,1-4.9-3.4c3-5.5,7.4-9.8,7.4-19.6C973.1,114,976.6,119.9,976.6,127.7z M950.6,122.8c4.7-5.9,11.3-6.6,14.5-9.8
			c3.2-3.2,7.1-11,10.8-15.9c-0.2,2.5-3.2,7.6-5.6,12.5c-2.5,4.9-4.7,8.3-3.4,13.7c1.2,5.4-1,9.6-3.4,15.5c-2.5,5.9-6.6,2-4.9-0.7
			c1.7-2.7,3.2-8.1,2.9-12.5C961.1,121.1,948.4,125.5,950.6,122.8z M857.9,115c-1-7.4,3.4-32.4,3.4-37.3c0-4.9,2.9-13.7,5.4-17.2
			c2.5-3.4,3.4-10.8,4.4-15.7c1-4.9,9.3-4.9,14.7-4.9c5.4,0,14.7,3.4,19.1,4.4c4.4,1,13.7,11.8,19.1,16.2
			c5.4,4.4,14.7,18.1,15.7,29.9c1,11.8-2.5,41.7-3.9,77c0-21.6,2-63.8,1.5-72.6c-0.5-8.8-9.8-18.6-14.7-24
			c-4.9-5.4-7.8-7.4-10.3-7.8c-2.5-0.5-7.8-4.4-9.3-8.8c-1.5-4.4-11.3-7.8-14.2-7.8c-2.9,0-10.3,2-10.3,4.9c0,2.9-7.8,13.7-9.3,21.1
			c-1.5,7.4-5.4,28.9-4.9,39.7c0.5,10.8,8.8,34.3,4.9,28.4C865.2,134.6,858.8,122.3,857.9,115z M861.3,209.1
			c4.9-7.4,6.4-14.2,8.3-21.6c2-7.4-2.5-15.2-2.9-23.5c3.4,4.9,5.9,13.2,5.9,21.6C872.6,193.9,867.7,202.7,861.3,209.1z M878,106.6
			c-3.4-7.4-1-12.8,2.9-7.8c3.9,4.9,11.8,9.3,11.8,6.4c0-2.9-2.9-2.9,0-8.8c2.9-5.9-2-15.7-6.4-21.1c3.4,0,10.3,2,12.3,10.8
			c2,8.8,3.9,8.8,6.9,8.3c2.9-0.5,9.3-9.3,13.7-13.7c-0.5,2.5-2.5,7.4-2.9,14.7c-0.5,7.4,1,6.9-5.4,6.4c-6.4-0.5-7.8,2.9-9.3,6.4
			c3.4-0.5,12.3-1.5,19.1,0.5c6.9,2,6.4,5.4-1.5,3.4c-6.4-3.4-14.7,6.9-10.3,6.4c4.4-0.5,10.3-1.5,17.7-1c7.4,0.5,1.5,3.9-2.9,6.4
			c-4.4,2.5-10.3,4.4-14.7,7.8c-4.4,3.4-0.5,5.4-5.9,7.8c-5.4,2.5-7.4,5.9-11.8,10.8c-4.4,4.9-5.4,3.9-4.9-0.5
			c0.5-4.4,10.3-12.8,12.8-13.2c2.5-0.5,2.5-4.4,0.5-4.4c-2,0-10.3,1-14.2,1.5c0-2.5,3.9-6.9,7.4-6.4c3.4,0.5,6.4-2.9,2.9-4.4
			c-3.4-1.5-5.4-6.9-6.9-8.8C887.3,112,882.4,111,878,106.6z M913.6,487.9c-7.2-0.7-22.9-5.9-32.7-16.3c-9.8-10.5-15-25.5-20.3-42.5
			c-5.2-17-13.7-28.8-12.4-44.5c1.3-15.7-7.2-44.5-5.2-56.9c2-12.4,2-23.5,2.6-32.7c0.7-9.2,0.7-29.4,3.9-37.3
			c3.3-7.8,14.4-33.4,20.3-43.8c5.9-10.5,10.5-17.7,14.4-22.2c-8.5,15.7-20.3,39.2-22.2,48.4c-2,9.2-9.8,37.9-7.2,58.9
			c2.6,20.9,2.6,49,7.2,60.2c4.6,11.1,12.4,34.7,13.1,46.4c0.7,11.8,5.9,33.4,11.8,41.2c5.9,7.8,7.2,13.1,11.1,15.7
			C904.5,472.8,913.6,487.9,913.6,487.9z M870.6,280.7c1,13.2,3.4,28.9,4.9,34.3c1.5,5.4,1.5,25,1.5,31.4c0,6.4,0.5,12.8,4.9,19.1
			c0,3.9,0.5,6.9-0.5,28c0-11.8-10.8-35.3-11.3-42.2c-0.5-6.9-2.5-24.5-6.9-37.3c-4.4-12.8-2.9-42.7-1.5-55.9
			c1.5-13.2,11.8-42.7,22.1-62.8c-2.9,7.4-5.9,21.6-11.3,33.8C867.2,241.5,869.6,267.5,870.6,280.7z M896.1,361.7
			c2-15.7,1.5-42.7,0.5-64.7c2,6.9,4.4,17.7,3.4,31.9c-1,14.2,1,35.8-1,49c-2,13.2-3.9,35.3-3.9,42.7c0,7.4,0.5,25.5,2,37.3
			c-1-3.4-5.4-12.3-4.4-22.6C893.7,424.9,894.2,377.4,896.1,361.7z M892.7,350.4c-0.5,9.3-2,15.7-5.4,43.2
			c-0.5-10.8,1-39.2,2.5-48.1c1.5-8.8,2-24.5,2.5-48.1C894.2,316,893.2,341.1,892.7,350.4z M897.1,258.2c-2,4.4-3.4,2.9-3.4,2.9
			c-2-7.4-4.4-24.5-3.4-31.4c1-6.9,0.5,2,3.4,7.8C896.6,243.5,899.1,253.8,897.1,258.2z M901.5,232.2c-2.5-3.4-9.3-19.1-12.8-21.1
			c-3.4-2-3.4,8.8-4.4,15.7c-1,6.9,0,48.1,2,83.4c-1.5-3.4-2-1.5-2.9-10.8c-1-9.3-1-23.1-1.5-32.4c-0.5-9.3-1.5-21.1-2.5-12.3
			c-1,8.8,0.5,37.8,1,45.1c0.5,7.4,3.4,16.7,4.4,29.4c1,12.8,0,16.2-1.5,47.1c0-9.3-0.5-14.2-1-22.1c-0.5-7.8-2.5-29.4-2.9-40.2
			c-0.5-10.8-4.4-37.8-4.4-58.9c0-21.1,6.4-43.2,8.8-49.5c2.5-6.4,8.3-3.4,9.3,2.5c1,5.9,8.8,12.3,13.2,8.3
			c4.4-3.9,9.3-11.3,13.2-11.3c3.9,0,5.9-2.9,10.3-7.8c4.4-4.9,8.8-13.2,8.3-6.4c-0.5,6.9-12.3,19.6-16.7,21.1
			c-4.4,1.5-8.8,9.8-12.3,16.2C905.9,234.6,904,235.6,901.5,232.2z M912.3,240c-2.9,3.2-5.9,7.6-7.4,9.3c5.4-8.3,5.9-12.8,9.3-15.7
			c3.4-2.9,5.9-4.2,7.6-6.1C917,233.6,915.2,236.8,912.3,240z M906.9,277.3c0-8.8,7.8-20.6,10.3-28.4c2.5-7.8,2.5-14.7,5.4-18.6
			c2.9-3.9,8.8-9.8,16.2-20.6c7.4-10.8,15.2-24,15.2-29.9c0-5.9-8,1-11.6,4.4c9.2-12.1,18-25.5,20.3-30.7c2.3-5.2,5.2-3.6,4.2,1
			c-1,4.6-4.9,14.1-6.9,19.9c-2,5.9-1,10.8-2.3,13.1c-1.3,2.3-8.8,17.3-11.8,21.6c-2.9,4.2-13.1,17.3-13.4,20.9s-3.6,10.8-6.9,13.7
			c-3.3,2.9-7.5,13.4-8.8,18c-1.3,4.6-4.9,17-4.6,24.5c0.3,7.5,3.4,20.1,5.4,27C910.3,296.4,906.9,286.1,906.9,277.3z M916.7,293.5
			c-1.2-8.7,1-17.7,6.9-26.5c5.9-8.8,7.4-17.2,9.3-20.1c2-2.9,3.4,4.4,0.5,10.8c-2.9,6.4-8.3,14.7-9.8,21.1
			c-1.5,6.4-2,18.1-2.5,23.1C920.6,306.7,918.2,303.8,916.7,293.5z M964.6,353.5c-3.6-4.9-8.5-0.7-6.9,1c1.6,1.6,5.9,1.3,5.6,4.3
			c-0.3,2.9-2.9,2.3-6.9,2.3c-3.9,0-5.2,2.9-7.2,4.6c-2,1.6-5.9,2-9.8-2.3c-3.9-4.3-6.9-7.5-6.9-11.1c0-3.6,2.3,2.9,5.2,3.9
			c2.9,1,8.2,3.3,7.5,0c-0.7-3.3-8.8-3.9-13.1-10.5c-4.3-6.5-2.6-10.5-5.2-14.4c-1.1-1.6-1.9-2.9-2.6-4.1c-1.4,0.6-1.8,0.8-0.3,3.7
			c2,3.9,3.3,14.1,3.3,19.6c0,5.6,1.3,8.2,4.9,18.6c-3.3-3.3-5.9-5.2-6.2-11.4c-0.3-6.2-0.3-15.4-2.3-21.6c-2-6.2-4.8-12.8-3.6-14.4
			c-2.2-2.4,8.2-5.2,15-4.6c6.9,0.7,20.9,10.8,24.2,18.3c3.3,7.5,9.5,20.3,15.7,20.9C981.3,357.1,968.2,358.4,964.6,353.5z
			 M1038.5,471.5c-3.9-15.7-7.2-28.8-14.4-39.2c-7.2-10.5-15-21.6-22.9-27.5c-7.8-5.9-11.8-7.8-19.6-37.3
			c6.5,13.7,7.8,20.9,15.7,24.8c7.8,3.9,30.7,27.5,34,39.9c3.3,12.4,18.3,68,22.2,83.7C1047.7,504.2,1042.4,487.2,1038.5,471.5z
			 M818.3,59.5c-0.1-0.5-0.1-0.9-0.2-1.3C818.2,58.7,818.3,59.1,818.3,59.5z M619.3,501.6c4.9-7.8,10.5-21.6,14.7-31.7
			c4.2-10.1,12.1-38.9,17-47.7c4.9-8.8,17.3-34,23.2-43.8c5.9-9.8,16.3-27.8,19.9-35c3.6-7.2,12.1-23.2,17.3-32
			c5.2-8.8,18.6-26.8,32.7-41.9c14.1-15,42.2-28.6,46.4-31.1c4.3-2.5,11.4-6.4,13.9-6.2c2.5,0.2,1.8,1.5,0.3,4.4
			c-11.3,11.3-45.1,28.4-53.5,36.8c-8.3,8.3-29.4,38.3-40.2,53c-10.8,14.7-19.6,41.7-25.5,51.5c-5.9,9.8-17.7,33.4-23.1,41.2
			c-5.4,7.8-18.1,33.4-26,54.4c-7.8,21.1-15.7,28.9-25.5,45.1C611.2,518.6,615.1,509.8,619.3,501.6z"/>
		<path d="M1281.6,597.6c-5.4-6.4-14.7-10.8-16.2-16.2c-1.5-5.4-4.9-5.4-9.3-5.9c-4.4-0.5-12.9,0.7-18.1,4.6
			c-5.2,3.9-13.1,14.4-4.6,13.7c8.5-0.7,15.7-2,19.6,2c3.9,3.9,13.1,7.8,18.3,12.4c4.1,3.6,15.1,8,18.7,14.9v-20.6
			C1287.6,602.6,1284.9,601.4,1281.6,597.6z"/>
	</g>
</g>
</svg>
